<svg width="22" height="23" viewBox="0 0 22 23" fill="none" xmlns="http://www.w3.org/2000/svg">
<path d="M18.8389 18.0109L15.7789 14.9599C16.7662 13.7021 17.3019 12.1488 17.2999 10.5499C17.2999 9.12583 16.8776 7.73378 16.0865 6.54975C15.2953 5.36572 14.1709 4.44288 12.8552 3.89792C11.5396 3.35297 10.0919 3.21039 8.69525 3.4882C7.29859 3.76602 6.01567 4.45175 5.00874 5.45869C4.0018 6.46563 3.31607 7.74854 3.03825 9.14521C2.76044 10.5419 2.90302 11.9895 3.44797 13.3052C3.99292 14.6208 4.91577 15.7453 6.0998 16.5364C7.28383 17.3276 8.67588 17.7499 10.0999 17.7499C11.6989 17.7518 13.2521 17.2161 14.5099 16.2289L17.5609 19.2889C17.6446 19.3732 17.7441 19.4402 17.8538 19.4859C17.9635 19.5316 18.0811 19.5551 18.1999 19.5551C18.3187 19.5551 18.4363 19.5316 18.546 19.4859C18.6557 19.4402 18.7552 19.3732 18.8389 19.2889C18.9233 19.2052 18.9902 19.1056 19.0359 18.996C19.0816 18.8863 19.1051 18.7687 19.1051 18.6499C19.1051 18.531 19.0816 18.4134 19.0359 18.3037C18.9902 18.1941 18.9233 18.0945 18.8389 18.0109ZM4.69991 10.5499C4.69991 9.48184 5.01661 8.4378 5.60997 7.54978C6.20333 6.66175 7.04669 5.96962 8.03341 5.56091C9.02014 5.15219 10.1059 5.04526 11.1534 5.25362C12.2009 5.46198 13.1631 5.97628 13.9183 6.73148C14.6735 7.48668 15.1878 8.44887 15.3961 9.49637C15.6045 10.5439 15.4976 11.6296 15.0889 12.6163C14.6801 13.6031 13.988 14.4464 13.1 15.0398C12.212 15.6332 11.1679 15.9499 10.0999 15.9499C8.66774 15.9499 7.29422 15.3809 6.28153 14.3682C5.26883 13.3555 4.69991 11.982 4.69991 10.5499Z" fill="#FAFAFA"/>
</svg>
