<svg width="100" height="97" viewBox="0 0 100 97" fill="none" xmlns="http://www.w3.org/2000/svg">
<g clip-path="url(#clip0_605_58)">
<path d="M38.0227 44.8381H38.9129C38.6054 45.1541 38.2928 45.477 37.9904 45.8116H37.7339L37.564 46.2754C36.9405 46.9668 36.3205 47.6989 35.6953 48.4753L38.4711 40.7509C38.9621 40.2888 39.4633 39.8301 39.9797 39.3918L38.0227 44.8381Z" fill="#11145A"/>
<path d="M37.564 46.2753L37.7338 45.8115H37.9904C37.8443 45.9627 37.7152 46.119 37.564 46.2753Z" fill="#11145A"/>
<path d="M35.6967 48.4754C31.9594 53.1522 28.3511 59.3664 25.8437 67.5292C25.6959 67.993 25.56 68.4618 25.4224 68.9391C25.3986 69.0156 25.3799 69.0904 25.3561 69.1719H21.7988L21.8566 68.9391C21.9075 68.7404 21.9976 68.4091 22.125 67.9691C23.2853 64.0024 27.7208 50.9574 38.476 40.751L35.6967 48.4754Z" fill="#11145A"/>
<path d="M82.7878 26.9092C82.7878 26.9092 75.0412 27.5887 65.9085 31.1273L64.811 28.2903C70.6226 27.2778 78.1959 26.2755 82.7878 26.9092Z" fill="#11145A"/>
<path d="M78.5033 0H28.161L27.4814 14.382H28.4532C28.6485 6.41466 33.2098 0.97171 39.3374 0.97171H67.3269C73.4426 0.97171 78.0157 6.40787 78.2111 14.382H79.1828L78.5033 0Z" fill="#11145A"/>
<path d="M54.2548 0.910645H52.7989L39.4141 38.3862C39.905 37.9241 40.4062 37.4655 40.9226 37.0272L49.9738 11.5112L56.8268 29.8803C57.5607 29.7104 60.7527 29.0055 64.801 28.2971L54.2548 0.910645ZM85.3514 67.9692C82.2443 67.9692 79.3257 65.9306 78.162 62.9136L65.9154 31.1272C63.395 32.0937 60.9426 33.2288 58.5749 34.5248L61.3898 42.059L64.2777 49.5168L69.612 63.0104C70.7807 66.0224 69.4183 67.9658 66.2144 67.9658H64.6583V68.9358H87.0145V67.9658L85.3514 67.9692ZM41.9623 44.8382C41.7057 45.1593 41.4526 45.4856 41.2012 45.8117H44.8808C45.1407 45.4805 45.4057 45.1542 45.6792 44.8382H41.9623Z" fill="#11145A"/>
<path d="M58.5679 34.5282C53.9523 37.0577 49.3944 40.4112 45.6706 44.8382C45.3971 45.1542 45.1321 45.4805 44.8722 45.8117C43.9716 46.9509 43.1388 48.1421 42.3783 49.3792C42.3783 49.3792 35.8328 60.2804 33.9608 67.8622C33.8656 68.2257 33.7909 68.5858 33.7246 68.9358C33.7059 69.0122 33.6906 69.0921 33.6771 69.1685H29.8174C29.8174 69.1685 29.8361 69.087 29.8785 68.9358C30.0263 68.3922 30.4459 66.9159 31.1747 64.8502C32.8073 60.2192 35.9942 52.6188 41.1977 45.8083C41.4474 45.4822 41.7073 45.156 41.9587 44.8349C44.811 41.2674 48.2341 37.9768 52.2976 35.5034C52.2976 35.5034 45.832 37.7492 38.9179 44.8349H38.0277L39.9864 39.3818C44.8336 35.097 50.5211 31.8702 56.6856 29.9075L56.8368 29.8701L58.5679 34.5282Z" fill="#11145A"/>
<path fill-rule="evenodd" clip-rule="evenodd" d="M79.5583 18.7532L79.701 18.9231C79.704 18.9273 79.7055 18.9323 79.7055 18.9375C79.7055 18.9426 79.704 18.9477 79.701 18.9519L79.5991 19.1558C79.5976 19.1619 79.5985 19.1683 79.6016 19.1737C79.6048 19.1791 79.61 19.1831 79.6161 19.1847L80.0255 19.1728C80.0544 19.1728 80.0578 19.1626 80.0374 19.1439L79.5549 18.7243C79.1291 18.346 78.7016 17.97 78.2723 17.5963C78.2608 17.5889 78.2526 17.5774 78.2494 17.5641C78.2462 17.5507 78.2484 17.5367 78.2554 17.5249C78.2585 17.5206 78.2626 17.517 78.2673 17.5143C78.272 17.5117 78.2772 17.5101 78.2825 17.5096C78.4456 17.4982 78.609 17.525 78.7599 17.5878C78.8801 17.6445 78.9907 17.7195 79.0878 17.8103L81.2181 19.6348C81.2614 19.6721 81.3134 19.6978 81.3693 19.7096L81.4372 19.7232C81.918 19.8506 82.4072 19.9763 82.9016 20.102C82.9085 20.1033 82.9157 20.1022 82.9219 20.0988C82.9281 20.0954 82.9329 20.0899 82.9355 20.0834L83.2651 19.1116C83.2692 19.0941 83.2796 19.0786 83.2943 19.0683C83.3091 19.058 83.3271 19.0534 83.345 19.0556L83.717 19.0641C83.721 19.0647 83.7249 19.0661 83.7284 19.0683C83.7319 19.0704 83.7349 19.0732 83.7373 19.0765C83.7396 19.0798 83.7413 19.0836 83.7422 19.0876C83.7431 19.0916 83.7432 19.0957 83.7425 19.0997L83.4418 19.9661C83.4394 19.97 83.4381 19.9743 83.4381 19.9788C83.4381 19.9833 83.4394 19.9878 83.4418 19.9916L84.4441 20.7102C84.4454 20.7116 84.4469 20.7128 84.4487 20.7136C84.4504 20.7144 84.4524 20.7148 84.4543 20.7148C84.4562 20.7148 84.4581 20.7144 84.4599 20.7136C84.4616 20.7128 84.4632 20.7116 84.4645 20.7102L84.6564 20.1445C84.6598 20.1342 84.6661 20.1253 84.6745 20.1186C84.683 20.1119 84.6933 20.108 84.704 20.1072C84.8495 20.0935 84.9961 20.0975 85.1406 20.119C85.1424 20.1194 85.1441 20.1202 85.1456 20.1213C85.1472 20.1223 85.1484 20.1237 85.1494 20.1253C85.1503 20.1269 85.1509 20.1287 85.1512 20.1305C85.1514 20.1324 85.1513 20.1342 85.1508 20.136C85.0336 20.4588 84.9198 20.7764 84.811 21.089C84.8053 21.1037 84.7985 21.1179 84.7906 21.1315C84.7754 21.1638 84.7906 21.1825 84.8263 21.191C84.8368 21.1918 84.8465 21.1967 84.8535 21.2046C84.8739 21.2301 84.8688 21.2488 84.8365 21.2606C84.6568 21.333 84.4588 21.3466 84.2708 21.2997C84.2664 21.2985 84.2623 21.2964 84.2587 21.2937C84.2552 21.2909 84.2522 21.2874 84.25 21.2835C84.2477 21.2795 84.2463 21.2751 84.2458 21.2706C84.2453 21.2661 84.2457 21.2616 84.247 21.2572L84.3354 21.0466C84.339 21.0416 84.3409 21.0357 84.3409 21.0296C84.3409 21.0234 84.339 21.0175 84.3354 21.0125L84.1213 20.8546C84.1166 20.8521 84.1114 20.8507 84.106 20.8507C84.1007 20.8507 84.0954 20.8521 84.0907 20.8546C83.8334 20.9586 83.5708 21.0493 83.3042 21.1264C83.2855 21.1264 83.2838 21.14 83.3042 21.1502L84.5222 21.9078C84.5324 21.9078 84.5222 21.9164 84.5222 21.9164C84.4067 21.9164 84.2929 21.9164 84.1825 21.9164H84.1264C84.0759 21.9186 84.0262 21.9036 83.9854 21.8739C83.6711 21.6615 83.3518 21.4458 83.0239 21.23C83.0022 21.2162 82.976 21.2113 82.9508 21.2164C82.7789 21.2567 82.6022 21.2727 82.4259 21.2641C82.2849 21.2556 82.1456 21.2521 82.0046 21.2504C81.9997 21.2507 81.9949 21.2522 81.9907 21.2549C81.9865 21.2576 81.9831 21.2613 81.9808 21.2657C81.9616 21.3016 81.9335 21.332 81.8993 21.3541C81.7863 21.4289 81.6641 21.4889 81.5357 21.5324C81.4774 21.5527 81.414 21.5527 81.3557 21.5324C81.2288 21.4888 81.1069 21.4319 80.9921 21.3625C80.9891 21.3605 80.9855 21.3595 80.9819 21.3595C80.9783 21.3595 80.9748 21.3605 80.9717 21.3625C80.9581 21.4271 80.9463 21.4798 80.9361 21.5189C80.934 21.5349 80.9287 21.5504 80.9205 21.5644C80.9124 21.5784 80.9014 21.5906 80.8884 21.6002C80.8754 21.6099 80.8606 21.6168 80.8448 21.6207C80.8291 21.6245 80.8127 21.6251 80.7968 21.6225C80.7922 21.6217 80.7881 21.6195 80.785 21.6161C80.7819 21.6127 80.7801 21.6084 80.7798 21.6038C80.771 21.5174 80.7869 21.4301 80.8256 21.3523C80.846 21.3149 80.8358 21.2912 80.7968 21.2793C80.7577 21.2674 80.7577 21.2521 80.7968 21.2334C80.8234 21.2218 80.8506 21.2115 80.8783 21.2028C80.8975 21.1982 80.9145 21.1867 80.9259 21.1706C80.9446 21.14 80.9259 21.123 80.8596 21.1179C80.4434 21.0805 80.0918 21.0517 79.8013 21.0313C79.5804 21.0197 79.3603 20.9959 79.1421 20.96C78.7724 20.8886 78.4134 20.7704 78.0736 20.6083C78.0414 20.5964 78.0136 20.5751 77.9937 20.5471C77.9716 20.5063 77.9836 20.4689 78.0277 20.4316C78.2655 20.2411 78.5345 20.0934 78.8227 19.995C78.8269 19.9926 78.8316 19.9914 78.8364 19.9914C78.8411 19.9914 78.8458 19.9926 78.8499 19.995C78.9913 20.1641 79.1882 20.2773 79.4054 20.3144L79.6841 20.362L79.7384 20.3722C79.8233 20.3892 79.8658 20.3534 79.8624 20.2651C79.8617 20.2606 79.8594 20.2565 79.856 20.2534C79.8526 20.2503 79.8483 20.2484 79.8437 20.2481C79.7492 20.2397 79.6561 20.2191 79.5668 20.187C79.4807 20.1525 79.4013 20.1031 79.3324 20.0409C79.2474 19.9678 79.1625 19.8931 79.081 19.8133C79.0788 19.8115 79.0771 19.8093 79.0759 19.8068C79.0748 19.8043 79.0741 19.8016 79.0741 19.7988C79.0741 19.7961 79.0748 19.7933 79.0759 19.7908C79.0771 19.7883 79.0788 19.7861 79.081 19.7843L79.2661 19.6705C79.2731 19.6666 79.2791 19.6612 79.2838 19.6548C79.2884 19.6483 79.2917 19.641 79.2933 19.6332C79.2982 19.55 79.3178 19.4683 79.3511 19.3919C79.3681 19.3596 79.3511 19.3376 79.3188 19.324C79.2865 19.3104 79.2865 19.2985 79.3103 19.2781C79.346 19.2472 79.3885 19.225 79.4343 19.2135C79.4416 19.2121 79.4481 19.2083 79.453 19.2028C79.4579 19.1973 79.4609 19.1903 79.4615 19.183C79.4751 19.0454 79.4921 18.918 79.5125 18.799C79.5137 18.7847 79.5188 18.7711 79.5272 18.7594C79.5355 18.7477 79.5469 18.7386 79.56 18.7328L79.5583 18.7532ZM79.769 19.5805C79.7048 19.5711 79.643 19.5492 79.5872 19.516C79.5726 19.5082 79.5605 19.4963 79.5523 19.4819C79.5442 19.4674 79.5404 19.451 79.5413 19.4344C79.5426 19.4295 79.5421 19.4242 79.54 19.4195C79.5378 19.4149 79.5341 19.4111 79.5295 19.4089C79.5108 19.4089 79.4989 19.4089 79.4921 19.4327C79.4759 19.4882 79.4651 19.545 79.4598 19.6026C79.4598 19.6064 79.4611 19.61 79.4637 19.6129C79.4662 19.6157 79.4696 19.6174 79.4734 19.6178C79.5685 19.6178 79.6637 19.6026 79.7571 19.5924C79.7809 19.5924 79.7894 19.5924 79.7826 19.5788C79.7802 19.5776 79.7776 19.5769 79.7749 19.5769C79.7723 19.5769 79.7697 19.5776 79.7673 19.5788L79.769 19.5805ZM80.209 19.5958L80.5606 19.6246C80.5742 19.6246 80.5759 19.6247 80.5606 19.6128L80.4893 19.5516C80.4794 19.5478 80.4685 19.5478 80.4587 19.5516L80.2039 19.5907C80.179 19.593 80.1807 19.5946 80.209 19.5958Z" fill="#11145A"/>
<path fill-rule="evenodd" clip-rule="evenodd" d="M77.1734 21.6768L75.8603 21.7736C75.8564 21.7743 75.8529 21.776 75.8502 21.7788C75.8474 21.7815 75.8456 21.7851 75.8449 21.7889V22.2543C75.8452 22.2601 75.8434 22.2657 75.84 22.2703C75.8366 22.275 75.8318 22.2784 75.8263 22.2799L75.7328 22.2883C75.7328 22.2883 75.7209 22.2884 75.7192 22.2731V21.6785C75.7196 21.673 75.7218 21.6678 75.7255 21.6638C75.7292 21.6598 75.7342 21.6571 75.7396 21.6564C76.127 21.6326 76.5126 21.6037 76.8999 21.5714L77.0698 21.5477C77.126 21.5378 77.1835 21.5378 77.2397 21.5477L78.4288 21.828C78.4329 21.8291 78.4364 21.8316 78.4389 21.8349C78.4413 21.8383 78.4426 21.8424 78.4424 21.8466V22.5806L77.2278 22.2951C77.2189 22.2932 77.2111 22.2882 77.2055 22.281C77.1999 22.2739 77.197 22.2651 77.1972 22.2561V21.6819C77.1972 21.68 77.1968 21.678 77.196 21.6763C77.1952 21.6745 77.1941 21.6729 77.1926 21.6716C77.1912 21.6703 77.1895 21.6694 77.1876 21.6688C77.1858 21.6682 77.1838 21.6681 77.1819 21.6683L77.1734 21.6768Z" fill="#11145A"/>
<path fill-rule="evenodd" clip-rule="evenodd" d="M79.37 22.8303L78.8824 22.7199C78.8749 22.7173 78.8685 22.7126 78.8639 22.7062C78.8593 22.6998 78.8569 22.6921 78.8569 22.6842C78.8671 22.4362 78.8688 22.1983 78.8569 21.9707C78.8573 21.9678 78.8588 21.9652 78.861 21.9634C78.8631 21.9615 78.8659 21.9604 78.8688 21.9604L80.0919 22.2475C80.0957 22.2486 80.099 22.2509 80.1015 22.2539C80.1039 22.257 80.1053 22.2606 80.1055 22.2645V22.9883C80.1041 22.9894 80.1023 22.9899 80.1004 22.9899C80.0986 22.9899 80.0968 22.9894 80.0953 22.9883L79.6044 22.8761L79.37 22.8303Z" fill="#11145A"/>
<path fill-rule="evenodd" clip-rule="evenodd" d="M75.7275 23.3125C75.724 23.3122 75.7207 23.3106 75.7182 23.3081C75.7158 23.3057 75.7142 23.3025 75.7139 23.299V22.6976C75.7142 22.6935 75.7158 22.6896 75.7186 22.6865C75.7214 22.6834 75.7251 22.6814 75.7292 22.6806C76.1969 22.65 76.6629 22.6149 77.1273 22.5753C77.1728 22.568 77.2193 22.568 77.2649 22.5753L78.4268 22.8522C78.4307 22.853 78.4342 22.8551 78.4367 22.8582C78.4392 22.8613 78.4405 22.8652 78.4404 22.8692V23.5929C78.4402 23.5949 78.4396 23.5968 78.4386 23.5986C78.4377 23.6004 78.4364 23.6019 78.4348 23.6032C78.4332 23.6045 78.4314 23.6055 78.4294 23.606C78.4275 23.6066 78.4255 23.6067 78.4234 23.6064L77.2088 23.3227C77.2049 23.3219 77.2014 23.3199 77.1989 23.3168C77.1964 23.3137 77.1951 23.3097 77.1952 23.3057V22.7146C77.1955 22.7119 77.1952 22.7092 77.1943 22.7067C77.1933 22.7041 77.1918 22.7019 77.1898 22.7C77.1878 22.6982 77.1854 22.6968 77.1828 22.6961C77.1802 22.6954 77.1775 22.6953 77.1748 22.6959L75.86 22.8046C75.8562 22.8051 75.8527 22.8069 75.8502 22.8097C75.8477 22.8125 75.8463 22.8161 75.8464 22.8199V23.2854C75.8466 23.2876 75.8464 23.2899 75.8457 23.292C75.8451 23.2942 75.844 23.2962 75.8426 23.2979C75.8412 23.2997 75.8394 23.3011 75.8375 23.3022C75.8355 23.3032 75.8333 23.3039 75.8311 23.3041L75.7275 23.3125Z" fill="#11145A"/>
<path fill-rule="evenodd" clip-rule="evenodd" d="M80.4416 23.0987C80.4382 23.0979 80.4351 23.0959 80.4329 23.0931C80.4308 23.0903 80.4296 23.0869 80.4297 23.0834V22.3495C80.4297 22.3495 80.4297 22.3376 80.4433 22.3393L81.663 22.6281C81.6668 22.6292 81.6701 22.6314 81.6726 22.6344C81.675 22.6375 81.6764 22.6412 81.6766 22.6451V23.3722C81.6755 23.3764 81.6731 23.3801 81.6698 23.3829C81.6664 23.3856 81.6623 23.3873 81.6579 23.3875L80.4416 23.0987Z" fill="#11145A"/>
<path fill-rule="evenodd" clip-rule="evenodd" d="M78.8823 23.6795C78.8777 23.6784 78.8735 23.6758 78.8704 23.6721C78.8674 23.6685 78.8656 23.6639 78.8653 23.6591V23.1342C78.8653 23.1342 78.8653 23.0969 78.8653 23.0306C78.8619 22.9967 78.8619 22.9626 78.8653 22.9287C78.8653 22.9287 78.8654 22.9185 78.879 22.9185L80.097 23.2089C80.1006 23.2102 80.1038 23.2125 80.1062 23.2155C80.1086 23.2185 80.1102 23.2221 80.1106 23.226V23.953C80.1091 23.9541 80.1073 23.9547 80.1055 23.9547C80.1036 23.9547 80.1019 23.9541 80.1004 23.953L78.8823 23.6795Z" fill="#11145A"/>
<path fill-rule="evenodd" clip-rule="evenodd" d="M81.7803 24.6124L82.0232 24.6735C82.9938 24.9 83.9564 25.1571 84.9112 25.4447C84.9549 25.4537 84.9948 25.4763 85.025 25.5093C85.0529 25.5488 85.0661 25.5969 85.0623 25.6452C85.0582 25.7289 85.0492 25.8123 85.0352 25.8949C85.0233 25.9578 84.991 26.1396 84.9672 26.2551C83.97 26.8565 80.8476 26.3502 80.1137 26.2788C78.967 26.165 77.6352 26.0665 76.5327 26.3705C76.3306 26.4235 76.1364 26.503 75.9551 26.6067L75.9092 26.5948C75.9113 26.5912 75.9124 26.5871 75.9124 26.5829C75.9124 26.5787 75.9113 26.5746 75.9092 26.571C75.4741 26.0418 75.1098 25.4581 74.8254 24.8348C74.661 24.4693 74.5385 24.0864 74.4601 23.6933C74.4596 23.6893 74.4604 23.6852 74.4626 23.6817C74.4648 23.6783 74.4681 23.6758 74.472 23.6746C74.8346 23.5492 75.2147 23.4816 75.5983 23.4741C75.8894 23.4741 76.2541 23.4792 76.6923 23.4894H76.9302C77.0444 23.4867 77.1585 23.4981 77.2699 23.5234C77.4228 23.5574 77.7592 23.6417 78.279 23.7765L81.7905 24.609L81.7803 24.6124ZM81.8567 25.0337C81.8276 25.0243 81.796 25.0261 81.7681 25.0386C81.7402 25.0512 81.7179 25.0736 81.7055 25.1016C81.6886 25.1293 81.6813 25.1617 81.6847 25.1939C81.6881 25.2261 81.702 25.2564 81.7242 25.2799C81.7368 25.292 81.7521 25.3007 81.7689 25.3053C81.7857 25.3099 81.8034 25.3102 81.8203 25.3061C81.8372 25.3021 81.8529 25.2938 81.8658 25.2821C81.8787 25.2704 81.8884 25.2557 81.8941 25.2392C81.905 25.2231 81.9127 25.2051 81.9167 25.186C81.9206 25.167 81.9208 25.1474 81.9172 25.1283C81.9135 25.1092 81.9062 25.091 81.8955 25.0748C81.8849 25.0585 81.8711 25.0446 81.855 25.0337H81.8567ZM81.3658 25.2205L81.4337 25.1543C81.4694 25.0693 81.4643 25.0047 81.4167 24.9606C81.3946 24.9393 81.3668 24.9248 81.3366 24.9191C81.3064 24.9134 81.2752 24.9166 81.2468 24.9283C81.216 24.9349 81.1882 24.9515 81.1676 24.9754C81.1471 24.9993 81.1349 25.0293 81.133 25.0608C81.1291 25.0856 81.1307 25.1109 81.1378 25.135C81.1448 25.1591 81.1571 25.1814 81.1738 25.2001C81.1981 25.2228 81.2291 25.237 81.2621 25.2407C81.2952 25.2444 81.3286 25.2372 81.3573 25.2205H81.3658ZM80.8103 24.9504C80.8104 24.9224 80.8046 24.8947 80.7934 24.8691C80.7822 24.8435 80.7657 24.8204 80.7451 24.8016C80.7245 24.7827 80.7001 24.7684 80.6736 24.7595C80.647 24.7506 80.619 24.7473 80.5911 24.7499C80.5325 24.7467 80.4747 24.7647 80.4282 24.8006C80.3817 24.8364 80.3497 24.8878 80.338 24.9453C80.3381 24.9731 80.344 25.0006 80.3553 25.026C80.3667 25.0514 80.3832 25.0743 80.4038 25.093C80.4244 25.1117 80.4487 25.1258 80.4751 25.1346C80.5015 25.1434 80.5294 25.1467 80.5571 25.1441C80.6157 25.1473 80.6736 25.1293 80.72 25.0935C80.7665 25.0576 80.7985 25.0062 80.8103 24.9487V24.9504ZM82.1693 25.3581C82.2169 25.3581 82.2593 25.3003 82.2627 25.2341C82.2661 25.1678 82.2305 25.1135 82.1829 25.1152C82.1336 25.1152 82.0928 25.1712 82.0894 25.2392C82.086 25.3072 82.1217 25.3598 82.1693 25.3581ZM82.4581 25.3955C82.4972 25.3955 82.5294 25.3462 82.5328 25.2867C82.5362 25.2273 82.509 25.1797 82.47 25.1814C82.4326 25.1814 82.4003 25.2307 82.3969 25.2901C82.3935 25.3496 82.4224 25.3972 82.4598 25.3955H82.4581Z" fill="#11145A"/>
<path fill-rule="evenodd" clip-rule="evenodd" d="M80.4433 24.0602C80.4394 24.0594 80.4359 24.0572 80.4334 24.0541C80.4309 24.051 80.4296 24.0472 80.4297 24.0432V23.3126C80.4307 23.3093 80.4327 23.3065 80.4355 23.3043C80.4382 23.3022 80.4415 23.301 80.445 23.3008L81.6613 23.5879C81.6651 23.5889 81.6684 23.5911 81.6709 23.5942C81.6733 23.5972 81.6747 23.601 81.6749 23.6049V24.3235C81.6738 24.3284 81.6709 24.3328 81.6669 24.3359C81.6629 24.339 81.6579 24.3406 81.6528 24.3405L80.4433 24.0602Z" fill="#11145A"/>
<path fill-rule="evenodd" clip-rule="evenodd" d="M82.618 23.7101C82.618 23.6575 82.618 23.6235 82.5858 23.6082C82.5568 23.5971 82.5247 23.5971 82.4957 23.6082C82.353 23.6524 82.3258 23.7543 82.3887 23.9157L82.2341 23.9684L81.9062 24.3438C81.904 24.3467 81.9028 24.3503 81.9028 24.354C81.9028 24.3577 81.904 24.3613 81.9062 24.3642L83.4046 24.6733C83.4081 24.6745 83.4113 24.6767 83.4134 24.6798C83.4156 24.6829 83.4166 24.6866 83.4165 24.6903L83.3978 24.8755C83.3976 24.8792 83.3987 24.883 83.4008 24.886C83.403 24.8891 83.4061 24.8914 83.4097 24.8925L84.9386 25.2968C84.941 25.2968 84.9434 25.296 84.9453 25.2945C84.9471 25.2929 84.9484 25.2907 84.9488 25.2883C84.9274 25.1783 84.8878 25.0726 84.8316 24.9757C84.6724 24.7065 84.451 24.4793 84.186 24.3132C84.0358 24.2171 83.8758 24.1374 83.7087 24.0754C83.4908 23.9968 83.2608 23.9571 83.0291 23.9582C83.0254 23.9582 83.0217 23.9568 83.0189 23.9543C83.0161 23.9517 83.0143 23.9483 83.0139 23.9446C83.0076 23.9241 82.9984 23.9047 82.9867 23.8868C82.9701 23.8682 82.9481 23.8551 82.9238 23.8494L82.686 23.7781C82.6547 23.7606 82.6284 23.7354 82.6095 23.705L82.618 23.7101Z" fill="#11145A"/>
<path d="M9.06797 96.3664V96.6076H3.72695V96.3664H4.11256C4.28866 96.3751 4.46466 96.3469 4.62919 96.2835C4.79371 96.2201 4.94312 96.1229 5.0678 95.9982C5.19248 95.8736 5.28966 95.7241 5.35307 95.5596C5.41647 95.3951 5.44469 95.2191 5.43593 95.043V80.0086H2.9336C1.41827 80.0086 0.286868 81.3558 0.239301 83.3281H0.00146484L0.171345 79.769H12.6321L12.8019 83.3281H12.5607C12.5132 81.3558 11.3817 80.0086 9.8664 80.0086H7.36577V95.043C7.35703 95.219 7.38523 95.3948 7.44853 95.5592C7.51184 95.7236 7.60885 95.8729 7.73334 95.9976C7.85783 96.1222 8.00703 96.2194 8.17135 96.2829C8.33567 96.3464 8.51148 96.3749 8.68744 96.3664H9.06797Z" fill="#11145A"/>
<path d="M26.6286 96.3664V96.6076H21.0956V96.3664H21.4813C22.2746 96.3664 22.611 95.8856 22.3307 95.1398L20.6472 90.8826H14.4414L12.9006 95.1161C12.6373 95.8619 12.9975 96.3664 13.7908 96.3664H14.1764V96.6076H10.4951V96.3664H10.8739C11.2652 96.3608 11.6454 96.2357 11.9635 96.0079C12.2817 95.7802 12.5227 95.4608 12.6543 95.0923L18.1618 79.769H18.5186L24.4355 95.1161C24.5739 95.4782 24.8173 95.7906 25.1345 96.0133C25.4517 96.2361 25.8283 96.3591 26.2158 96.3664H26.6286ZM20.5418 90.6414L17.4636 82.3903L14.5043 90.6414H20.5418Z" fill="#11145A"/>
<path d="M32.0889 79.769C29.9722 79.769 28.3855 81.1162 28.3855 82.9204C28.3855 87.6346 39.0879 86.3842 39.0879 92.2298C39.0879 95.0192 36.6111 96.8472 32.9536 96.8472C30.0911 96.8472 27.5412 95.7174 26.2671 93.6958L27.2762 91.4347C28.6233 94.4926 30.3799 96.6076 33.2916 96.6076C35.67 96.6076 37.452 95.2129 37.452 93.1437C37.452 88.0677 26.7495 89.4862 26.7495 83.8818C26.7495 81.2844 29.0582 79.5278 32.3777 79.5278C35.5052 79.5278 37.4061 81.1162 38.3677 82.6791L37.3331 84.964C36.2272 82.2697 34.9769 79.769 32.0889 79.769Z" fill="#11145A"/>
<path d="M45.1033 96.3664V96.6076H39.7402V96.3664H40.1242C40.9175 96.3664 41.4475 95.838 41.4475 95.0192V81.332C41.4582 81.1554 41.4312 80.9786 41.3685 80.8132C41.3058 80.6478 41.2087 80.4976 41.0836 80.3725C40.9585 80.2474 40.8083 80.1503 40.6429 80.0876C40.4775 80.0248 40.3007 79.9979 40.1242 80.0086H39.7402V79.769H45.1033V80.0086H44.6956C43.9244 80.0086 43.396 80.5386 43.396 81.332V87.6175H51.1171V81.332C51.1171 80.5386 50.5888 80.0086 49.8192 80.0086H49.437V79.769H54.778V80.0086H54.3924C54.2164 80.0001 54.0405 80.0285 53.8761 80.092C53.7117 80.1555 53.5624 80.2527 53.4377 80.3773C53.3131 80.5019 53.216 80.6512 53.1525 80.8156C53.089 80.98 53.0605 81.1559 53.069 81.332V95.0192C53.069 95.838 53.6228 96.3664 54.3924 96.3664H54.778V96.6076H49.437V96.3664H49.8226C50.5922 96.3664 51.1205 95.8142 51.1205 94.9954V87.8588H43.3994V94.9937C43.3994 95.8126 43.9278 96.3646 44.699 96.3646L45.1033 96.3664Z" fill="#11145A"/>
<path d="M54.7744 80.0085V79.769H60.3091V80.0085H59.8997C59.1301 80.0085 58.7938 80.491 59.0826 81.2368L63.9174 93.9778L66.8274 85.9679L64.9995 81.2538C64.856 80.8903 64.6081 80.5774 64.287 80.3546C63.966 80.1318 63.5861 80.009 63.1954 80.0017H62.8097V79.7622H68.319V80.0017H67.935C67.1638 80.0017 66.8274 80.4842 67.1162 81.23L71.951 93.971L76.5225 81.247C76.7858 80.5012 76.4256 79.9949 75.6561 79.9949H75.2704V79.7554H78.928V79.9949H78.5423C78.1518 80.0042 77.7731 80.1309 77.4555 80.3584C77.138 80.586 76.8963 80.9039 76.762 81.2708L71.2783 96.5939H70.9164L66.948 86.2975L63.2429 96.5939H62.8828L56.9642 81.247C56.824 80.8812 56.5768 80.5662 56.2551 80.3429C55.9333 80.1196 55.5517 79.9983 55.16 79.9949L54.7744 80.0085Z" fill="#11145A"/>
<path d="M84.2911 96.3664V96.6076H78.9263V96.3664H79.3102C79.4868 96.3773 79.6638 96.3505 79.8293 96.2879C79.9948 96.2253 80.1451 96.1282 80.2702 96.0031C80.3954 95.8779 80.4925 95.7276 80.5551 95.5621C80.6178 95.3966 80.6445 95.2196 80.6336 95.043V81.332C80.6442 81.1554 80.6173 80.9786 80.5546 80.8132C80.4918 80.6478 80.3947 80.4976 80.2696 80.3725C80.1446 80.2474 79.9944 80.1503 79.829 80.0876C79.6636 80.0248 79.4868 79.9979 79.3102 80.0086H78.9263V79.769H84.2911V80.0086H83.8817C83.1121 80.0086 82.5821 80.5386 82.5821 81.332V95.043C82.5821 95.838 83.1121 96.3664 83.8817 96.3664H84.2911Z" fill="#11145A"/>
<path d="M88.5723 96.3664V96.6076H84.9165V96.3664H85.3004C85.4771 96.3773 85.654 96.3505 85.8195 96.2879C85.985 96.2253 86.1353 96.1282 86.2605 96.0031C86.3856 95.8779 86.4827 95.7276 86.5454 95.5621C86.608 95.3966 86.6347 95.2196 86.6238 95.043V81.332C86.6345 81.1554 86.6075 80.9786 86.5448 80.8132C86.4821 80.6478 86.3849 80.4976 86.2599 80.3725C86.1348 80.2474 85.9846 80.1503 85.8192 80.0876C85.6538 80.0248 85.477 79.9979 85.3004 80.0086H84.9165V79.769H88.7167L98.05 93.2881V81.332C98.05 80.5386 97.5216 80.0086 96.7521 80.0086H96.3426V79.769H99.9985V80.0086H99.6145C99.4385 80.0001 99.2626 80.0285 99.0982 80.092C98.9338 80.1555 98.7845 80.2527 98.6599 80.3773C98.5353 80.5019 98.4381 80.6512 98.3746 80.8156C98.3111 80.98 98.2827 81.1559 98.2912 81.332V96.6076H98.05L86.865 80.5148V95.043C86.8541 95.2196 86.8808 95.3966 86.9435 95.5621C87.0061 95.7276 87.1032 95.8779 87.2284 96.0031C87.3535 96.1282 87.5038 96.2253 87.6693 96.2879C87.8348 96.3505 88.0118 96.3773 88.1884 96.3664H88.5723Z" fill="#11145A"/>
</g>
<defs>
<clipPath id="clip0_605_58">
<rect width="100" height="96.847" fill="white"/>
</clipPath>
</defs>
</svg>
