<svg width="162" height="130" viewBox="0 0 162 130" fill="none" xmlns="http://www.w3.org/2000/svg">
<rect width="162" height="129.6" rx="7.2" fill="#7EB88B" fill-opacity="0.07"/>
<rect x="9.45" y="7.64995" width="143.1" height="114.3" rx="6.75" fill="white" stroke="#8198AF" stroke-width="0.9"/>
<g clip-path="url(#clip0_562_3814)">
<path d="M68.2676 77.9999C67.543 77.4982 67.3495 76.8014 67.3572 75.9374C67.3913 72.2739 67.3711 68.6089 67.3711 64.9439V64.0412C66.0597 64.3508 64.8782 64.2471 63.8098 63.5364C62.5866 62.7235 61.9286 61.5699 61.9208 60.0943C61.9053 57.1787 61.896 54.2631 61.9208 51.3475C61.9471 47.9797 64.2171 45.2825 67.5786 45.1385C71.928 44.9527 76.2945 45.0858 80.6532 45.1555C82.2016 45.1803 83.5951 45.8368 84.8973 46.676C86.6098 47.7769 88.3471 48.8438 90.0767 49.9168C90.2005 49.9942 90.3415 50.0468 90.5815 50.163V47.7707C90.5815 45.6293 90.5675 43.4879 90.5923 41.3465C90.5923 40.8603 90.47 40.5274 90.072 40.2347C89.2824 39.6556 88.5391 39.013 87.7572 38.4247C87.5005 38.251 87.2931 38.0139 87.1552 37.7363C87.0174 37.4587 86.9538 37.1501 86.9706 36.8407C87 35.7847 86.9706 34.7256 86.983 33.668C86.9969 32.6523 87.4924 32.1196 88.4973 32.1119C90.8715 32.0923 93.2457 32.0923 95.6199 32.1119C96.6248 32.1196 97.1327 32.6337 97.1683 33.6603C97.2008 34.7689 97.2473 35.8853 97.1435 36.9847C97.067 37.5054 96.8159 37.9848 96.4313 38.3441C95.6369 39.075 94.7172 39.6665 93.8873 40.357C93.6443 40.5614 93.4891 40.8513 93.4537 41.1668C93.43 48.0314 93.4248 54.8959 93.4382 61.7604C93.4382 61.8858 93.4646 62.0112 93.4909 62.2358H97.1931C98.63 62.2358 99.0945 62.7003 99.0945 64.131C99.0945 68.1305 99.0775 72.1299 99.11 76.1294C99.11 76.9625 98.8777 77.5787 98.1624 78.003H97.2333C96.4886 77.6035 96.2377 76.9795 96.2702 76.1449C96.3182 74.9062 96.2826 73.6675 96.2826 72.4288V70.4561H93.4336C93.4336 72.3142 93.4026 74.1134 93.4475 75.9126C93.4692 76.7658 93.2927 77.4781 92.5882 77.9999H91.5043C90.7982 77.5354 90.5505 76.885 90.5753 76.0319C90.6264 74.1847 90.5907 72.3359 90.5907 70.4577H87.7402C87.7402 72.3158 87.7061 74.1274 87.7556 75.9281C87.7789 76.7952 87.5636 77.4874 86.8452 77.9937H85.7613C85.0336 77.4905 84.8571 76.7859 84.8648 75.9266C84.8958 72.0076 84.8772 68.0871 84.8787 64.1666C84.8787 62.691 85.3433 62.2296 86.8266 62.2265H90.5768C90.5768 61.1426 90.5768 60.1717 90.5768 59.1963C90.5768 58.9687 90.5567 58.741 90.5458 58.5103C87.0062 58.8835 87.2091 58.2099 85.1497 57.1958C84.1185 56.6894 83.1368 56.0856 81.974 55.4399V56.4897C81.974 62.9635 81.9631 69.4373 81.9879 75.9096C81.9879 76.7658 81.8191 77.4703 81.1177 77.9937L68.2676 77.9999ZM79.1249 75.1694V74.1692C79.1249 67.3057 79.1249 60.4412 79.1249 53.5756C79.1249 51.7656 80.15 51.1741 81.7355 52.0582C83.8289 53.2241 85.9162 54.3963 88.0313 55.5328C88.3865 55.7311 88.7911 55.8235 89.1972 55.7991C89.4979 55.7765 89.7819 55.652 90.0023 55.4462C90.2227 55.2405 90.3664 54.9657 90.4096 54.6672C90.4881 54.3502 90.4598 54.0162 90.329 53.7169C90.1983 53.4176 89.9724 53.1698 89.6865 53.012C87.5187 51.6649 85.351 50.3271 83.1833 48.9599C82.0903 48.261 80.817 47.8967 79.5198 47.9116C75.751 47.9116 71.9822 47.9116 68.2165 47.924C66.1402 47.9333 64.7497 49.3547 64.728 51.4512C64.7126 52.9485 64.728 54.4443 64.728 55.9416C64.728 57.284 64.7095 58.6249 64.7373 59.9674C64.7544 60.8081 65.3381 61.3903 66.0751 61.3841C66.8122 61.3779 67.3417 60.7803 67.3696 59.9364C67.3773 59.7041 67.3696 59.4719 67.3696 59.2396C67.3696 57.2778 67.3696 55.316 67.3696 53.3557C67.3696 52.6497 67.6638 52.0752 68.3838 51.8801C69.0326 51.7052 69.6627 51.843 69.974 52.4995C70.1444 52.899 70.2273 53.3303 70.2171 53.7645C70.2315 60.5774 70.2346 67.3903 70.2264 74.2032V75.1555H73.207V62.3488C73.207 61.8595 73.1869 61.3671 73.2163 60.8794C73.2658 60.0665 73.8357 59.5214 74.6098 59.5168C75.384 59.5121 75.9507 60.0448 76.0034 60.8639C76.022 61.1209 76.0142 61.3795 76.0142 61.6381V75.1694H79.1249ZM87.7773 65.1483V67.4925H96.2006V65.1483H87.7773ZM89.6989 34.9795C89.8026 35.5601 89.7314 36.2058 90.0209 36.5387C90.5644 37.1674 91.3154 37.6133 92.0137 38.163C92.5309 37.7681 92.9846 37.3346 93.5141 37.0373C94.3827 36.5511 94.4215 35.845 94.2217 34.9795H89.6989Z" fill="#FF7F5D"/>
<path d="M78.3322 30C78.8138 30.2834 79.3356 30.5172 79.7691 30.8594C80.6331 31.5422 81.0078 32.4821 80.9908 33.5783C80.9908 34.0088 80.9908 34.4392 80.9908 34.9579C81.6102 34.9579 82.1536 34.944 82.694 34.9579C83.5905 34.9874 84.213 35.5943 84.1913 36.3902C84.1696 37.1861 83.572 37.8364 82.7111 37.7357C81.4058 37.5809 80.8096 38.0454 80.2336 39.2717C79.1157 41.6841 76.9975 42.8423 74.3312 42.7138C71.6323 42.5822 69.7573 41.1654 68.6982 38.6772C68.6362 38.5347 68.5944 38.3845 68.5433 38.2405C68.4922 38.0965 68.4272 37.9572 68.3467 37.7621C67.7614 37.7621 67.1699 37.776 66.5784 37.7621C65.6989 37.7373 65.1276 37.1985 65.1059 36.3995C65.0827 35.5634 65.6602 34.992 66.5784 34.961C67.0925 34.9425 67.6081 34.961 68.2538 34.961C68.0231 32.6323 68.6238 30.7742 71.0548 30H78.3322ZM71.1291 34.8945H78.1774C78.1774 34.6281 78.1774 34.4299 78.1774 34.2209C78.1867 32.9156 78.0721 32.7995 76.7838 32.7979H72.6775C71.1291 32.7979 71.0238 32.9125 71.0811 34.4826C71.0858 34.6065 71.1059 34.7303 71.1245 34.8945H71.1291ZM71.4651 37.8147C72.1185 39.2485 73.3789 39.9933 74.8716 39.9066C76.1954 39.8292 77.366 38.9915 77.7578 37.8147H71.4651Z" fill="#FF7F5D"/>
</g>
<path d="M17.462 95.072C17.462 94.1013 17.672 93.238 18.092 92.482C18.512 91.7167 19.0953 91.124 19.842 90.704C20.598 90.2747 21.452 90.06 22.404 90.06C23.5707 90.06 24.5693 90.368 25.4 90.984C26.2307 91.6 26.786 92.44 27.066 93.504H24.434C24.238 93.0933 23.958 92.7807 23.594 92.566C23.2393 92.3513 22.8333 92.244 22.376 92.244C21.6387 92.244 21.0413 92.5007 20.584 93.014C20.1267 93.5273 19.898 94.2133 19.898 95.072C19.898 95.9307 20.1267 96.6167 20.584 97.13C21.0413 97.6433 21.6387 97.9 22.376 97.9C22.8333 97.9 23.2393 97.7927 23.594 97.578C23.958 97.3633 24.238 97.0507 24.434 96.64H27.066C26.786 97.704 26.2307 98.544 25.4 99.16C24.5693 99.7667 23.5707 100.07 22.404 100.07C21.452 100.07 20.598 99.86 19.842 99.44C19.0953 99.0107 18.512 98.418 18.092 97.662C17.672 96.906 17.462 96.0427 17.462 95.072ZM37.0441 90.172V100H34.6501V95.954H30.9261V100H28.5321V90.172H30.9261V94.022H34.6501V90.172H37.0441ZM41.1663 92.09V94.078H44.3723V95.926H41.1663V98.082H44.7923V100H38.7723V90.172H44.7923V92.09H41.1663ZM57.4765 90.172V100H55.0825V94.106L52.8845 100H50.9525L48.7405 94.092V100H46.3465V90.172H49.1745L51.9325 96.976L54.6625 90.172H57.4765ZM61.5921 90.172V100H59.1981V90.172H61.5921ZM62.921 95.072C62.921 94.1013 63.131 93.238 63.551 92.482C63.971 91.7167 64.5543 91.124 65.301 90.704C66.057 90.2747 66.911 90.06 67.863 90.06C69.0297 90.06 70.0283 90.368 70.859 90.984C71.6897 91.6 72.245 92.44 72.525 93.504H69.893C69.697 93.0933 69.417 92.7807 69.053 92.566C68.6983 92.3513 68.2923 92.244 67.835 92.244C67.0977 92.244 66.5003 92.5007 66.043 93.014C65.5857 93.5273 65.357 94.2133 65.357 95.072C65.357 95.9307 65.5857 96.6167 66.043 97.13C66.5003 97.6433 67.0977 97.9 67.835 97.9C68.2923 97.9 68.6983 97.7927 69.053 97.578C69.417 97.3633 69.697 97.0507 69.893 96.64H72.525C72.245 97.704 71.6897 98.544 70.859 99.16C70.0283 99.7667 69.0297 100.07 67.863 100.07C66.911 100.07 66.057 99.86 65.301 99.44C64.5543 99.0107 63.971 98.418 63.551 97.662C63.131 96.906 62.921 96.0427 62.921 95.072ZM80.109 98.264H76.441L75.853 100H73.347L76.903 90.172H79.675L83.231 100H80.697L80.109 98.264ZM79.493 96.416L78.275 92.818L77.071 96.416H79.493ZM86.7073 98.152H89.8433V100H84.3133V90.172H86.7073V98.152ZM93.3792 98.152H96.5152V100H90.9852V90.172H93.3792V98.152ZM106.085 90.172L102.683 96.752V100H100.289V96.752L96.8871 90.172H99.6031L101.507 94.288L103.397 90.172H106.085ZM113.572 100.098C112.854 100.098 112.21 99.9813 111.64 99.748C111.071 99.5147 110.614 99.1693 110.268 98.712C109.932 98.2547 109.755 97.704 109.736 97.06H112.284C112.322 97.424 112.448 97.704 112.662 97.9C112.877 98.0867 113.157 98.18 113.502 98.18C113.857 98.18 114.137 98.1007 114.342 97.942C114.548 97.774 114.65 97.5453 114.65 97.256C114.65 97.0133 114.566 96.8127 114.398 96.654C114.24 96.4953 114.039 96.3647 113.796 96.262C113.563 96.1593 113.227 96.0427 112.788 95.912C112.154 95.716 111.636 95.52 111.234 95.324C110.833 95.128 110.488 94.8387 110.198 94.456C109.909 94.0733 109.764 93.574 109.764 92.958C109.764 92.0433 110.096 91.3293 110.758 90.816C111.421 90.2933 112.284 90.032 113.348 90.032C114.431 90.032 115.304 90.2933 115.966 90.816C116.629 91.3293 116.984 92.048 117.03 92.972H114.44C114.422 92.6547 114.305 92.4073 114.09 92.23C113.876 92.0433 113.6 91.95 113.264 91.95C112.975 91.95 112.742 92.0293 112.564 92.188C112.387 92.3373 112.298 92.5567 112.298 92.846C112.298 93.1633 112.448 93.4107 112.746 93.588C113.045 93.7653 113.512 93.9567 114.146 94.162C114.781 94.3767 115.294 94.582 115.686 94.778C116.088 94.974 116.433 95.2587 116.722 95.632C117.012 96.0053 117.156 96.486 117.156 97.074C117.156 97.634 117.012 98.1427 116.722 98.6C116.442 99.0573 116.032 99.4213 115.49 99.692C114.949 99.9627 114.31 100.098 113.572 100.098ZM124.748 98.264H121.08L120.492 100H117.986L121.542 90.172H124.314L127.87 100H125.336L124.748 98.264ZM124.132 96.416L122.914 92.818L121.71 96.416H124.132ZM135.35 90.172V92.09H131.346V94.162H134.342V96.024H131.346V100H128.952V90.172H135.35ZM139.002 92.09V94.078H142.208V95.926H139.002V98.082H142.628V100H136.608V90.172H142.628V92.09H139.002Z" fill="#5A5A5A"/>
<defs>
<clipPath id="clip0_562_3814">
<rect width="48" height="48" fill="white" transform="translate(56.5 30)"/>
</clipPath>
</defs>
</svg>
