<svg width="162" height="130" viewBox="0 0 162 130" fill="none" xmlns="http://www.w3.org/2000/svg">
<rect width="162" height="129.6" rx="7.2" fill="#7EB88B" fill-opacity="0.07"/>
<rect x="9.45" y="7.64995" width="143.1" height="114.3" rx="6.75" fill="white" stroke="#8198AF" stroke-width="0.9"/>
<g clip-path="url(#clip0_562_3820)">
<path d="M88.8181 30H89.909C92.2453 30.6673 93.429 32.28 93.7435 34.6309C93.7716 34.7394 93.8218 34.841 93.8909 34.9292C93.9601 35.0174 94.0467 35.0904 94.1453 35.1436C94.6661 35.4033 95.1199 35.7798 95.4712 36.2438C95.8225 36.7077 96.062 37.2465 96.1708 37.8182C96.4547 39.2968 96.6146 40.7966 96.649 42.3018C96.6781 43.3382 96.4308 44.38 96.2999 45.4745C96.6835 45.3618 97.0271 45.2473 97.3671 45.1655C100.916 44.3236 103.367 46.1891 103.185 49.6327C103.154 50.2491 103.14 50.7236 103.814 51.02C104.044 51.1236 104.22 51.5655 104.245 51.8655C104.394 53.6709 104.671 55.4909 104.573 57.2873C104.293 62.3782 102.273 66.6927 97.9708 69.5255C96.2435 70.6618 95.5399 71.9164 95.5544 73.7909C95.5635 74.7636 95.0835 75.3455 94.2108 75.5964C91.9781 76.2364 89.7544 76.94 87.4835 77.4145C85.7781 77.7782 84.0053 77.8218 82.2635 78.0073H79.3544C78.7253 77.9418 78.0981 77.8636 77.469 77.8254C74.0999 77.5709 70.8144 76.9673 67.6762 75.6636C66.9708 75.3709 66.5362 74.9473 66.4035 74.1654C66.2563 73.2097 66.0443 72.2651 65.769 71.3382C65.6025 70.88 65.3252 70.4702 64.9617 70.1455C63.6053 68.8636 62.0144 67.7818 60.8635 66.34C57.7435 62.4364 56.9799 57.8491 57.4653 52.9745C57.7417 50.2182 59.4181 48.6727 61.8526 47.7455C62.0344 47.6782 62.2162 47.6218 62.2726 47.6C61.3635 46.4236 60.3181 45.3745 59.6326 44.1291C57.9817 41.1291 58.6326 38.9564 61.229 37.8291C60.8199 35.5073 60.7271 33.12 63.0671 31.7764C65.4981 30.38 67.5035 31.7764 69.1708 33.3218C70.009 33.0345 70.6999 32.6745 71.4271 32.5655C74.3199 32.1345 77.169 34.4509 77.7326 37.7018C77.8635 38.4618 78.129 38.9091 78.9071 38.9745C79.5999 35.42 81.2362 33.64 84.8162 33.9873C85.3326 31.8509 86.7344 30.5764 88.8181 30ZM59.9744 53.8182C59.3071 60.4673 62.1181 67.0709 70.0435 69.8291C73.4871 71.0291 77.0562 71.4073 80.6744 71.4655C81.6108 71.48 82.1381 71.94 82.1417 72.7055C82.1453 73.4709 81.6144 73.9782 80.6871 73.9636C76.9217 73.8927 73.1944 73.54 69.5962 72.3091C69.2744 72.2 68.9508 72.1 68.5926 71.9855C68.5817 72.9909 68.9071 73.5164 69.8181 73.8236C72.8035 74.8291 75.8726 75.2782 78.9999 75.3891C83.5344 75.5509 88.009 75.2327 92.3326 73.68C93.1381 73.3909 93.3326 72.9527 93.1181 72.1873C92.0271 72.4891 90.989 72.8073 89.9344 73.0564C88.9853 73.2818 88.3253 72.8964 88.169 72.1145C88.0308 71.42 88.509 70.8545 89.4072 70.6091C90.3981 70.3364 91.4072 70.0982 92.3671 69.7473C97.9144 67.7291 101.316 63.9091 102.027 57.9509C102.191 56.5727 102.051 55.16 102.051 53.7855C100.702 54.44 99.4526 55.0327 98.2181 55.6564C98.0539 55.7773 97.9379 55.9525 97.8908 56.1509C97.3053 58.1055 95.8908 59.0982 93.9999 59.5673C92.0162 60.0618 90.0944 59.7327 88.1908 59.1382C87.8817 59.0418 87.5235 58.8945 87.2381 58.9691C84.8381 59.5873 82.6326 59.0073 80.4635 58.0036C79.923 57.7481 79.3385 57.5987 78.7417 57.5636C73.4544 57.3509 68.2581 56.6218 63.2181 54.9509C62.1362 54.58 61.0653 54.1927 59.9744 53.8182ZM73.5453 47.9073C73.5453 46.6345 73.5453 45.6055 73.5453 44.58C73.5453 43.6 74.0217 42.9982 74.769 42.9873C75.5162 42.9764 76.0417 43.5673 76.0417 44.5455C76.0544 46.1218 76.0617 47.6964 76.0308 49.2727C76.0308 49.6164 75.949 50.0473 75.7344 50.28C75.2926 50.7564 75.589 50.9655 75.9835 51.36C76.1253 49.3873 76.9526 47.9691 78.609 47.0782C78.6682 47.0372 78.717 46.983 78.7517 46.9199C78.7864 46.8568 78.806 46.7865 78.809 46.7145C78.6853 45.2127 78.6108 43.7018 78.3744 42.2164C78.2417 41.38 77.5944 41.0127 76.6835 41.0691C75.4944 41.14 74.9635 40.5236 75.2181 39.3891C75.5908 37.7145 74.9235 36.48 73.649 35.5255C72.5308 34.6836 71.3672 34.82 70.389 35.82C69.4108 36.82 68.8871 36.7873 67.9326 35.7436C67.3806 35.1037 66.746 34.5399 66.0453 34.0673C64.7726 33.2727 63.629 33.8618 63.5781 35.3636C63.5773 36.2973 63.7139 37.2261 63.9835 38.12C64.3471 39.4818 64.0435 40.0327 62.6362 40.1927C61.3344 40.3418 60.969 40.8491 61.4417 42.0964C62.069 43.7564 63.0908 45.1164 64.769 45.8745C65.6944 46.2945 65.9326 46.8364 65.5653 47.76C65.1471 48.8073 65.2399 49.8418 65.6453 50.8509C66.1071 52.0073 66.4508 52.0655 67.629 51.6545C68.0508 51.5073 68.7635 51.6091 69.0671 51.8927C69.3271 52.1345 69.2235 52.8018 69.2217 53.2764C69.2217 53.4455 69.0399 53.6127 68.829 53.98L77.5326 55.0709L77.6108 54.78L76.8835 53.9582C75.6944 54.7836 75.2162 54.6982 74.4144 53.5818C73.8326 52.7709 73.2508 51.96 72.6762 51.1418C71.4362 49.3745 71.1017 49.2673 69.0308 50.0018C68.8035 50.0836 68.5835 50.1836 68.3581 50.2727C67.5326 50.5873 66.8744 50.3945 66.569 49.7491C66.2399 49.06 66.5272 48.3473 67.3599 48.0018C68.1508 47.6727 68.9799 47.4309 69.8453 47.1345C68.9999 45.8182 68.149 44.5455 67.3344 43.2327C66.8581 42.4673 66.9708 41.8127 67.5817 41.3982C68.1926 40.9836 68.9126 41.18 69.4362 41.92C69.6508 42.2218 69.8635 42.5273 70.189 42.9891C70.2999 42.3273 70.3708 41.8873 70.4453 41.4455C70.5835 40.6236 71.1599 40.1345 71.8599 40.2418C72.5599 40.3491 73.0199 40.9691 72.8962 41.7873C72.7671 42.6545 72.7253 43.5691 72.4071 44.3655C71.829 45.8073 72.509 46.7564 73.5453 47.9073ZM88.4544 40.2127C88.7653 40.2127 88.9999 40.2018 89.2381 40.2127C90.0999 40.2636 90.6272 40.7364 90.6344 41.4564C90.6417 42.1764 90.1126 42.6455 89.269 42.7291C88.8797 42.7415 88.4964 42.8285 88.1399 42.9855C86.9199 43.6364 85.5944 46.58 85.8417 47.9782C87.669 44.9 90.2726 43.8818 93.7162 45.0691C94.329 42.8727 94.5071 40.7291 93.829 38.58C93.6471 38.0218 93.4762 37.4345 92.6635 37.3873C91.6835 37.3309 91.4053 36.9255 91.3199 35.9327C91.2562 35.2145 91.2308 34.4327 90.9162 33.8182C90.6508 33.2982 90.0071 32.6818 89.5017 32.6491C88.9344 32.6109 88.1271 33.0436 87.7871 33.5273C87.389 34.0909 87.2581 34.9273 87.2271 35.6527C87.1671 37.1309 86.4071 37.6327 85.1126 36.9255C83.3399 35.96 82.2635 36.3982 81.7508 38.38C81.0944 40.9255 81.0799 43.5309 81.3162 46.1382C81.3281 46.2472 81.3632 46.3523 81.4194 46.4464C81.4756 46.5406 81.5514 46.6215 81.6417 46.6836C82.121 46.8756 82.6102 47.0419 83.1071 47.1818C83.5108 45.7727 83.8235 44.3818 84.3144 43.0564C84.8162 41.7 85.469 40.3945 86.1035 39.0909C86.6981 37.8691 87.2162 37.5491 87.9635 37.8182C88.7108 38.0873 88.8853 38.7545 88.4544 40.2127ZM87.8762 50.42C87.8722 51.3065 88.2162 52.1592 88.8344 52.7947C89.4525 53.4302 90.2954 53.7977 91.1817 53.8182C92.0837 53.8119 92.9467 53.4496 93.5828 52.8101C94.2189 52.1706 94.5766 51.3057 94.5781 50.4036C94.568 49.5174 94.2084 48.671 93.5774 48.0486C92.9465 47.4261 92.0953 47.078 91.209 47.08C90.7697 47.0773 90.3343 47.1619 89.9279 47.3289C89.5216 47.4958 89.1525 47.7417 88.8419 48.0525C88.5314 48.3632 88.2857 48.7324 88.119 49.1388C87.9522 49.5453 87.8679 49.9807 87.8708 50.42H87.8762ZM96.5108 47.8873C97.2253 49.4436 97.1726 51.0927 96.6126 52.8745C97.4871 52.5436 98.1726 52.1836 98.9017 52.0291C100.284 51.7382 100.629 50.7691 100.72 49.5709C100.833 47.9345 100.004 47.2073 98.3762 47.5C97.7508 47.6109 97.1435 47.7527 96.5053 47.8873H96.5108ZM82.8435 51.2873C82.8501 51 82.7989 50.7142 82.6931 50.4471C82.5872 50.1799 82.4287 49.9367 82.2271 49.7319C82.0255 49.527 81.7849 49.3648 81.5194 49.2547C81.2539 49.1446 80.9691 49.0889 80.6817 49.0909C80.1174 49.0966 79.578 49.3241 79.18 49.7241C78.7819 50.1242 78.5573 50.6648 78.5544 51.2291C78.5476 51.8074 78.7708 52.3648 79.1748 52.7787C79.5788 53.1926 80.1306 53.4292 80.709 53.4364C81.2728 53.4228 81.8095 53.1914 82.2065 52.7907C82.6034 52.39 82.8298 51.8512 82.8381 51.2873H82.8435ZM81.8308 55.8182C84.3108 57.0909 86.9835 56.9691 88.1126 55.7036L85.2799 52.3036C84.8562 53.8818 83.769 55.1618 81.8308 55.8182ZM95.2417 55.1182C93.8908 55.5473 92.7271 55.8945 91.5817 56.2964C91.2181 56.4218 90.9126 56.6873 90.5799 56.8909L90.7162 57.16C92.1526 57.3582 93.5781 57.4018 94.8253 56.4545C95.3235 56.0782 95.7126 55.5818 95.2417 55.12V55.1182ZM62.7599 49.9236L60.5544 51.3055L63.5344 52.4255C63.2653 51.5618 63.0544 50.8782 62.7599 49.9255V49.9236Z" fill="#FF7F5D"/>
<path d="M93.411 49.4836C93.4183 49.6488 93.391 49.8136 93.3309 49.9676C93.2708 50.1216 93.1792 50.2614 93.0619 50.378C92.9447 50.4945 92.8044 50.5853 92.65 50.6445C92.4957 50.7037 92.3307 50.73 92.1655 50.7218C91.4383 50.6927 90.9965 50.2854 90.9328 49.5545C90.9219 49.2214 91.042 48.8974 91.2674 48.6519C91.4928 48.4065 91.8055 48.2592 92.1383 48.2418C92.4715 48.2384 92.7925 48.3671 93.0311 48.5999C93.2696 48.8326 93.4062 49.1504 93.411 49.4836Z" fill="#FF7F5D"/>
</g>
<path d="M24.266 90.172V92.09H20.262V94.162H23.258V96.024H20.262V100H17.868V90.172H24.266ZM27.8763 90.172V96.052C27.8763 96.64 28.0209 97.0927 28.3103 97.41C28.5996 97.7273 29.0243 97.886 29.5843 97.886C30.1443 97.886 30.5736 97.7273 30.8723 97.41C31.1709 97.0927 31.3203 96.64 31.3203 96.052V90.172H33.7143V96.038C33.7143 96.9153 33.5276 97.6573 33.1543 98.264C32.7809 98.8707 32.2769 99.328 31.6423 99.636C31.0169 99.944 30.3169 100.098 29.5423 100.098C28.7676 100.098 28.0723 99.9487 27.4563 99.65C26.8496 99.342 26.3689 98.8847 26.0143 98.278C25.6596 97.662 25.4823 96.9153 25.4823 96.038V90.172H27.8763ZM37.7893 98.152H40.9253V100H35.3953V90.172H37.7893V98.152ZM44.4612 98.152H47.5972V100H42.0672V90.172H44.4612V98.152ZM57.1671 90.172L53.7651 96.752V100H51.3711V96.752L47.9691 90.172H50.6851L52.5891 94.288L54.4791 90.172H57.1671ZM69.8905 100H67.4965L63.4925 93.938V100H61.0985V90.172H63.4925L67.4965 96.262V90.172H69.8905V100ZM73.9778 90.172V96.052C73.9778 96.64 74.1225 97.0927 74.4118 97.41C74.7011 97.7273 75.1258 97.886 75.6858 97.886C76.2458 97.886 76.6751 97.7273 76.9738 97.41C77.2725 97.0927 77.4218 96.64 77.4218 96.052V90.172H79.8158V96.038C79.8158 96.9153 79.6291 97.6573 79.2558 98.264C78.8825 98.8707 78.3785 99.328 77.7438 99.636C77.1185 99.944 76.4185 100.098 75.6438 100.098C74.8691 100.098 74.1738 99.9487 73.5578 99.65C72.9511 99.342 72.4705 98.8847 72.1158 98.278C71.7611 97.662 71.5838 96.9153 71.5838 96.038V90.172H73.9778ZM88.5669 90.172V92.09H85.9629V100H83.5689V92.09H80.9649V90.172H88.5669ZM94.7804 100L92.7364 96.29H92.1624V100H89.7684V90.172H93.7864C94.5611 90.172 95.2191 90.3073 95.7604 90.578C96.3111 90.8487 96.7217 91.222 96.9924 91.698C97.2631 92.1647 97.3984 92.6873 97.3984 93.266C97.3984 93.9193 97.2117 94.5027 96.8384 95.016C96.4744 95.5293 95.9331 95.8933 95.2144 96.108L97.4824 100H94.7804ZM92.1624 94.596H93.6464C94.0851 94.596 94.4117 94.4887 94.6264 94.274C94.8504 94.0593 94.9624 93.756 94.9624 93.364C94.9624 92.9907 94.8504 92.6967 94.6264 92.482C94.4117 92.2673 94.0851 92.16 93.6464 92.16H92.1624V94.596ZM101.295 90.172V100H98.9012V90.172H101.295ZM110.1 90.172V92.09H107.496V100H105.102V92.09H102.498V90.172H110.1ZM113.696 90.172V100H111.302V90.172H113.696ZM120.079 100.098C119.155 100.098 118.305 99.8833 117.531 99.454C116.765 99.0247 116.154 98.4273 115.697 97.662C115.248 96.8873 115.024 96.0193 115.024 95.058C115.024 94.0967 115.248 93.2333 115.697 92.468C116.154 91.7027 116.765 91.1053 117.531 90.676C118.305 90.2467 119.155 90.032 120.079 90.032C121.003 90.032 121.847 90.2467 122.613 90.676C123.387 91.1053 123.994 91.7027 124.433 92.468C124.881 93.2333 125.105 94.0967 125.105 95.058C125.105 96.0193 124.881 96.8873 124.433 97.662C123.985 98.4273 123.378 99.0247 122.613 99.454C121.847 99.8833 121.003 100.098 120.079 100.098ZM120.079 97.914C120.863 97.914 121.488 97.6527 121.954 97.13C122.431 96.6073 122.669 95.9167 122.669 95.058C122.669 94.19 122.431 93.4993 121.954 92.986C121.488 92.4633 120.863 92.202 120.079 92.202C119.285 92.202 118.651 92.4587 118.175 92.972C117.708 93.4853 117.475 94.1807 117.475 95.058C117.475 95.926 117.708 96.6213 118.175 97.144C118.651 97.6573 119.285 97.914 120.079 97.914ZM135.228 100H132.834L128.83 93.938V100H126.436V90.172H128.83L132.834 96.262V90.172H135.228V100ZM140.52 100.098C139.801 100.098 139.157 99.9813 138.588 99.748C138.018 99.5147 137.561 99.1693 137.216 98.712C136.88 98.2547 136.702 97.704 136.684 97.06H139.232C139.269 97.424 139.395 97.704 139.61 97.9C139.824 98.0867 140.104 98.18 140.45 98.18C140.804 98.18 141.084 98.1007 141.29 97.942C141.495 97.774 141.598 97.5453 141.598 97.256C141.598 97.0133 141.514 96.8127 141.346 96.654C141.187 96.4953 140.986 96.3647 140.744 96.262C140.51 96.1593 140.174 96.0427 139.736 95.912C139.101 95.716 138.583 95.52 138.182 95.324C137.78 95.128 137.435 94.8387 137.146 94.456C136.856 94.0733 136.712 93.574 136.712 92.958C136.712 92.0433 137.043 91.3293 137.706 90.816C138.368 90.2933 139.232 90.032 140.296 90.032C141.378 90.032 142.251 90.2933 142.914 90.816C143.576 91.3293 143.931 92.048 143.978 92.972H141.388C141.369 92.6547 141.252 92.4073 141.038 92.23C140.823 92.0433 140.548 91.95 140.212 91.95C139.922 91.95 139.689 92.0293 139.512 92.188C139.334 92.3373 139.246 92.5567 139.246 92.846C139.246 93.1633 139.395 93.4107 139.694 93.588C139.992 93.7653 140.459 93.9567 141.094 94.162C141.728 94.3767 142.242 94.582 142.634 94.778C143.035 94.974 143.38 95.2587 143.67 95.632C143.959 96.0053 144.104 96.486 144.104 97.074C144.104 97.634 143.959 98.1427 143.67 98.6C143.39 99.0573 142.979 99.4213 142.438 99.692C141.896 99.9627 141.257 100.098 140.52 100.098Z" fill="#5A5A5A"/>
<defs>
<clipPath id="clip0_562_3820">
<rect width="48" height="48" fill="white" transform="translate(57 30)"/>
</clipPath>
</defs>
</svg>
