<svg width="72" height="72" viewBox="0 0 72 72" fill="none" xmlns="http://www.w3.org/2000/svg">
<path d="M29.1938 56.3735L23.6082 45.3597C23.6082 45.3597 22.6632 39.1666 23.2932 30.9654C23.8445 23.8104 25.2338 18.776 28.952 14.2929C31.8376 10.8166 36.4276 7.28974 40.9895 5.63599C45.5513 3.98224 46.0238 3.90349 46.0238 4.45474C46.0238 5.00599 38.8688 8.24037 33.9132 15.1591C28.9576 22.0779 29.1938 28.6872 28.8788 33.0129C28.5638 37.3385 29.1938 56.3735 29.1938 56.3735Z" fill="#11145A"/>
<path d="M10.9461 27.1179C13.9498 32.501 16.8017 42.5529 20.0923 50.1354C23.1579 57.2116 26.3642 62.6679 29.1936 65.3398C32.0229 68.0116 34.6048 67.7754 35.7242 66.836C37.4061 65.4185 36.5229 61.4866 36.5117 59.2085C36.4892 55.136 37.2654 52.3235 38.4804 50.2423C39.5492 48.4141 41.5517 46.5579 43.6723 47.1935C46.2204 47.9585 47.9192 50.4785 48.7067 51.6598C49.4942 52.841 50.6754 55.1979 51.2211 55.1979C51.7667 55.1979 50.8723 49.1173 48.2792 45.551C45.7142 42.0241 42.0298 41.3323 38.7223 42.7723C31.3367 45.9898 31.1286 55.7548 31.1286 55.7548C31.1286 55.7548 26.4486 51.8116 23.2254 41.5123C22.4379 38.9979 19.9629 30.0654 17.5048 26.4204C13.7248 20.8123 9.68606 19.6423 7.40793 18.8548C5.12981 18.0673 2.37356 17.2798 2.29481 17.7523C2.21606 18.2304 7.56543 21.0598 10.9461 27.1179Z" fill="#FF7F5D"/>
<path d="M33.4614 59.3914C33.2364 57.8277 32.5276 53.7383 32.8089 48.6027C33.0001 45.0308 33.9845 39.0965 39.3957 37.1502C43.7495 35.5865 47.147 35.5696 51.782 37.7971C56.0795 39.8614 54.0095 37.1052 51.9901 36.0589C50.5895 35.3333 44.6214 32.3183 38.7095 34.3264C31.8357 36.6608 30.002 44.8733 30.002 44.8733C30.002 44.8733 29.5014 35.9408 31.3407 31.5364C33.1801 27.1264 36.4876 23.5208 35.582 23.2227C35.2445 23.1102 31.0707 24.8146 28.7195 30.1977C26.2107 35.9464 26.0982 41.1383 26.2614 44.0971C26.4245 47.0558 26.8464 49.964 26.8464 49.964C26.8464 49.964 28.0164 52.6808 29.3945 54.4415C30.6714 56.0783 33.5289 59.8696 33.4614 59.3914Z" fill="#FF7F5D"/>
<path d="M37.8442 15.1006C37.5685 15.0444 34.6435 16.1694 33.1698 19.7019C31.696 23.2344 32.9504 26.1481 32.9504 26.1481C32.9504 26.1481 36.8879 22.7225 37.6248 20.5906C38.3617 18.4531 38.2154 15.1738 37.8442 15.1006Z" fill="#FF7F5D"/>
<path d="M45.1859 25.1154C45.2253 24.9354 42.2046 22.3929 39.8815 22.3535C37.564 22.3142 34.729 24.3054 34.729 24.3054C34.729 24.3054 35.6965 26.6229 39.3696 27.0279C42.019 27.326 45.1128 25.4473 45.1859 25.1154ZM38.9253 20.846C39.184 21.0654 42.1653 20.7335 43.8921 18.6917C45.709 16.5429 45.7371 11.6773 45.1859 11.6773C44.5278 11.6773 44.0834 12.3748 42.9415 13.0779C41.7996 13.7754 39.7015 15.8398 39.1503 17.4204C38.5934 19.0067 38.6665 20.6267 38.9253 20.846ZM41.8559 21.1948C41.9178 21.8473 44.224 24.0017 46.7834 24.1142C49.3428 24.2267 51.604 23.2592 51.604 22.8767C51.604 22.4942 49.9727 19.631 47.1434 19.3498C44.0834 19.0517 41.8278 20.8967 41.8559 21.1948ZM45.6246 18.416C45.9284 18.9392 49.4496 18.281 51.1034 16.0198C52.6277 13.9385 52.3409 11.5873 52.1778 11.2835C52.0146 10.9798 49.5621 11.2273 47.6046 13.4885C45.9846 15.3617 45.349 17.9323 45.6246 18.416ZM49.2865 18.416C49.2696 18.911 50.7434 20.9248 52.4252 21.6954C54.9565 22.8542 58.1796 22.1623 58.3203 21.7235C58.4553 21.2848 56.9421 18.3148 54.9059 17.426C52.5096 16.3798 49.3146 17.6173 49.2865 18.416ZM52.8978 16.1548C52.8978 16.8185 56.8634 16.706 58.2696 15.7442C59.6759 14.7823 61.1327 12.1892 61.4646 11.8348C61.7965 11.4804 61.8527 11.1204 61.1327 10.901C60.4184 10.6817 56.8915 10.5692 54.8552 12.0879C52.819 13.6067 52.8978 16.0198 52.8978 16.1548ZM57.3584 17.0379C56.9928 17.246 57.5496 17.9492 57.8253 18.5229C58.1009 19.1023 59.0346 21.4423 61.0765 22.4604C63.0284 23.4335 65.6777 23.3717 65.7846 23.231C65.8971 23.096 65.3234 19.8223 63.3321 18.3317C60.9077 16.5148 58.0446 16.6554 57.3584 17.0379ZM60.3565 15.7723C60.424 16.0929 63.1128 17.5048 65.3965 17.7017C67.6803 17.8985 69.9415 15.6092 69.9696 15.3617C69.9977 15.1142 67.9053 12.881 65.5371 12.9654C62.4265 13.0723 60.2778 15.3842 60.3565 15.7723ZM50.2821 27.9448C50.2371 27.4217 45.9565 27.3373 43.7852 29.5985C41.6084 31.8542 41.5521 34.0029 41.5521 34.0029L43.1215 35.021C43.1215 35.021 46.1252 33.6992 47.7452 32.1298C49.6352 30.3017 50.3328 28.5748 50.2821 27.9448Z" fill="#FF7F5D"/>
<path d="M46.3837 42.4798C47.0755 42.5079 46.9349 39.5885 46.2712 37.7716C45.568 35.8423 43.7118 34.4698 43.7118 34.4698L41.3999 34.9648C41.3999 34.9648 41.4505 37.2541 42.5643 39.2398C44.0437 41.861 45.748 42.4516 46.3837 42.4798ZM47.0305 35.4316C47.0305 35.4316 46.7999 37.7885 47.8855 39.9766C49.0162 42.2604 51.4912 43.5823 52.0424 43.3629C52.5937 43.1435 52.318 40.3591 51.958 39.0373C51.598 37.7154 49.9499 35.651 49.9499 35.651L47.0305 35.4316ZM46.7268 34.2785C46.7268 34.2785 48.4874 31.4154 50.6362 30.5323C53.7018 29.2723 57.6055 30.836 57.628 31.4154C57.6562 31.9948 54.9843 33.9466 53.6624 34.4473C52.3405 34.9423 49.6405 35.4091 49.6405 35.4091L46.7268 34.2785ZM57.7405 34.3573C55.4005 34.4585 53.0887 35.7916 53.0324 36.5341C52.9762 37.2766 55.0405 38.9304 57.9318 38.9304C60.823 38.9304 62.6118 37.001 62.6118 36.7254C62.6174 36.4498 60.9637 34.2223 57.7405 34.3573Z" fill="#FF7F5D"/>
<path d="M53.7467 37.563C53.1336 37.4505 52.4811 40.5668 53.5273 43.0418C54.5736 45.5224 57.3805 46.7599 57.6055 46.8443C58.3255 47.1143 58.1286 42.7155 57.2736 40.9211C56.4917 39.2899 54.6242 37.7318 53.7467 37.563ZM57.763 39.7511C57.5211 40.173 58.0667 43.0024 59.3323 44.6505C61.3123 47.238 64.3161 47.4293 64.6198 47.2943C64.9236 47.1593 64.5636 43.2161 62.6398 41.3486C60.7892 39.5543 57.9823 39.363 57.763 39.7511Z" fill="#FF7F5D"/>
</svg>
