<svg width="162" height="130" viewBox="0 0 162 130" fill="none" xmlns="http://www.w3.org/2000/svg">
<rect width="162" height="129.6" rx="7.2" fill="#7EB88B" fill-opacity="0.07"/>
<rect x="9.45" y="7.64995" width="143.1" height="114.3" rx="6.75" fill="white" stroke="#8198AF" stroke-width="0.9"/>
<g clip-path="url(#clip0_562_3808)">
<path d="M57 44.2909C57.3644 43.5272 57.9687 43.2283 58.8087 43.2872C59.5724 43.3407 60.336 43.2709 61.0996 43.3592C62.2342 43.4934 63.1942 44.0454 64.0451 44.8625C64.1978 44.7403 64.3364 44.6312 64.4716 44.5189C65.3815 43.7607 66.42 43.3309 67.6113 43.3091C68.3378 43.2971 69.0655 43.2872 69.7931 43.3091C70.4215 43.3265 70.9931 43.7236 71.0498 44.3182C71.1993 46.0014 71.3356 47.7 70.3855 49.2447C69.4036 50.8331 67.9702 51.6589 66.1113 51.7538L65.532 51.7843V55.8349C66.7385 56.0531 67.932 56.256 69.1255 56.4894C73.0846 57.2775 76.9219 58.5864 80.5375 60.3818C80.6816 60.4667 80.8458 60.5115 81.0131 60.5115C81.1804 60.5115 81.3446 60.4667 81.4887 60.3818C84.3181 58.9698 87.2907 57.8653 90.3556 57.0872C90.7745 56.9782 90.9065 56.8123 90.9011 56.3902C90.8749 55.2131 90.8924 54.0349 90.8924 52.8512C90.3807 52.7989 89.9269 52.7847 89.4873 52.7007C87.0185 52.2316 85.3178 50.2331 85.2491 47.7305C85.2305 47.0585 85.2284 46.3843 85.2491 45.7123C85.2731 44.9814 85.7716 44.3672 86.4829 44.3487C87.5525 44.3091 88.6235 44.3499 89.6869 44.4709C90.7015 44.5985 91.5469 45.1669 92.2985 45.9174C93.0295 45.2367 93.8258 44.6258 94.8196 44.4992C95.9356 44.3718 97.0591 44.3233 98.1818 44.3542C98.462 44.3556 98.7315 44.4619 98.9372 44.6521C99.1429 44.8423 99.27 45.1026 99.2935 45.3818C99.3851 46.6974 99.5335 48.0371 99.0698 49.3232C98.3062 51.4331 96.5095 52.7214 94.2644 52.7978C94.104 52.8032 93.9447 52.8207 93.7538 52.8349V56.2909C94.5425 56.1742 95.3007 56.0192 96.0665 55.9571C98.5102 55.7596 100.956 55.5992 103.401 55.4182C104.18 55.3603 104.652 55.7749 105 56.4V77.0182L104.018 78H57.9818L57 77.0182V56.4C57.3873 55.6232 58.0135 55.3232 58.8687 55.4105C59.3051 55.4552 59.7415 55.416 60.1778 55.4334C60.9709 55.4662 61.7651 55.5131 62.5887 55.5545V51.7985C62.3564 51.7822 62.1611 51.7658 61.9647 51.756C60.4058 51.6851 59.1436 51.0251 58.1389 49.8436C57.5215 49.1182 57.2487 48.2389 57.0022 47.3454L57 44.2909ZM92.5724 75.144C92.4927 74.9825 92.4502 74.8669 92.3847 74.7643C91.8676 73.9538 91.392 73.1116 90.8193 72.3425C86.7829 66.9316 81.3393 63.4767 75.1167 61.1356C71.4518 59.7737 67.625 58.8954 63.7331 58.5229C62.4556 58.3952 61.1727 58.3309 59.8702 58.2371V62.0422C59.988 62.0542 60.06 62.064 60.1309 62.0683C65.4436 62.3269 70.464 63.6229 75.0764 66.3338C78.6076 68.4065 81.5018 71.1338 83.4022 74.8112C83.5538 75.1047 83.7295 75.1832 84.0327 75.1822C86.724 75.1723 89.4142 75.1822 92.1055 75.1756C92.2364 75.1756 92.376 75.1571 92.5724 75.144ZM80.3542 75.1767C80.2451 74.9814 80.1938 74.8865 80.136 74.7971C78.4287 72.1614 76.1073 70.188 73.4149 68.6367C70.1989 66.7822 66.7178 65.6912 63.0513 65.1807C62.0007 65.0345 60.9393 64.9625 59.8636 64.8534V67.8731C61.6724 68.3258 63.4505 68.6367 65.1349 69.2225C68.184 70.2796 70.6985 72.0927 72.3796 74.9356C72.4604 75.072 72.732 75.1538 72.9153 75.1625C74.1873 75.1822 75.4582 75.1723 76.7335 75.1723L80.3542 75.1767ZM84.0687 62.2909C85.1596 63.0796 86.1862 63.7658 87.1429 64.5425C87.5793 64.8938 87.8913 64.8698 88.3429 64.6516C91.1393 63.2877 94.1239 62.3496 97.1978 61.8687C98.8265 61.6069 100.471 61.464 102.122 61.2654V58.2654C95.8364 58.4727 89.8364 59.7087 84.0687 62.2909ZM102.154 64.1836C97.9069 64.3723 93.8869 65.2243 90.0447 66.9752L92.8495 70.1662C94.3844 69.528 95.8353 68.7982 97.3658 68.3247C98.8964 67.8512 100.529 67.6232 102.152 67.2829L102.154 64.1836ZM94.5578 72.6927C94.9135 73.3843 95.2887 74.0672 95.6138 74.772C95.76 75.0862 95.9411 75.1822 96.2771 75.18C98.0924 75.1647 99.9087 75.1734 101.724 75.1712C101.863 75.1712 102.001 75.1472 102.177 75.1309V70.2992C99.6425 70.3636 95.9585 71.5418 94.5578 72.6971V72.6927ZM69.1091 75.1636C66.5324 72.4058 63.3982 71.2767 59.868 70.9222V75.1636H69.1091ZM90.8313 49.9342C91.0244 48.1887 89.6956 46.8796 88.1302 47.2232C87.8585 48.8814 89.0727 50.1163 90.8313 49.9342ZM62.5636 48.8967C62.8222 47.1807 61.5327 45.9 59.8745 46.1825C59.6411 47.8363 60.8553 49.0778 62.5636 48.8967ZM96.4418 47.2102C96.0724 47.139 95.6912 47.1606 95.3322 47.273C94.9732 47.3853 94.6477 47.585 94.3848 47.854C94.1219 48.1231 93.9298 48.4531 93.8258 48.8146C93.7218 49.1761 93.7091 49.5578 93.7887 49.9254C95.484 50.1458 96.7985 48.8007 96.4429 47.2102H96.4418ZM68.2156 46.1803C66.5531 45.9098 65.2396 47.2298 65.544 48.8662C67.1302 49.2 68.5102 47.8156 68.2167 46.1803H68.2156Z" fill="#FF7F5D"/>
<path d="M78.9272 30C79.4225 30.2116 79.9363 30.3873 80.4065 30.6447C81.128 31.0469 81.6926 31.6807 82.0091 32.4436C82.1454 32.7556 82.3221 32.8364 82.6287 32.8233C83.0651 32.8047 83.5014 32.8124 83.9378 32.8233C86.1654 32.8789 87.9927 34.6778 88.069 36.8804C88.1465 39.1233 86.5123 41.064 84.2803 41.2375C82.8349 41.3465 81.3763 41.304 79.9232 41.3018C78.2345 41.3018 76.5414 41.3367 74.8581 41.2309C73.0156 41.1153 71.4763 39.6142 71.184 37.8142C70.8654 35.8876 71.7861 34.0527 73.5054 33.2585C73.8982 33.0914 74.211 32.7786 74.3781 32.3858C74.9083 31.2338 75.8269 30.5029 77.0443 30.1495C77.1992 30.1047 77.3531 30.0513 77.5069 30.0022L78.9272 30ZM79.5818 38.4556C80.9814 38.4556 82.3811 38.4731 83.7807 38.4491C84.6458 38.4349 85.2174 37.8524 85.2207 37.0593C85.2207 36.2444 84.6272 35.6662 83.7414 35.652C82.9778 35.64 82.2141 35.652 81.4505 35.652C80.1196 35.652 79.788 35.3705 79.5774 34.0713C79.5304 33.7252 79.3588 33.4081 79.0947 33.1796C78.8306 32.951 78.4921 32.8266 78.1429 32.8298C77.4458 32.844 76.8905 33.3545 76.7858 34.0789C76.6189 35.232 76.3581 35.4873 75.1669 35.6662C74.8581 35.705 74.5716 35.8471 74.3538 36.0693C74.136 36.2915 73.9996 36.5808 73.9669 36.8902C73.8665 37.74 74.4687 38.4349 75.3851 38.4524C76.7814 38.4742 78.1821 38.4556 79.5818 38.4556Z" fill="#FF7F5D"/>
</g>
<path d="M27.516 100.098C26.592 100.098 25.7427 99.8833 24.968 99.454C24.2027 99.0247 23.5913 98.4273 23.134 97.662C22.686 96.8873 22.462 96.0193 22.462 95.058C22.462 94.0967 22.686 93.2333 23.134 92.468C23.5913 91.7027 24.2027 91.1053 24.968 90.676C25.7427 90.2467 26.592 90.032 27.516 90.032C28.44 90.032 29.2847 90.2467 30.05 90.676C30.8247 91.1053 31.4313 91.7027 31.87 92.468C32.318 93.2333 32.542 94.0967 32.542 95.058C32.542 96.0193 32.318 96.8873 31.87 97.662C31.422 98.4273 30.8153 99.0247 30.05 99.454C29.2847 99.8833 28.44 100.098 27.516 100.098ZM27.516 97.914C28.3 97.914 28.9253 97.6527 29.392 97.13C29.868 96.6073 30.106 95.9167 30.106 95.058C30.106 94.19 29.868 93.4993 29.392 92.986C28.9253 92.4633 28.3 92.202 27.516 92.202C26.7227 92.202 26.088 92.4587 25.612 92.972C25.1453 93.4853 24.912 94.1807 24.912 95.058C24.912 95.926 25.1453 96.6213 25.612 97.144C26.088 97.6573 26.7227 97.914 27.516 97.914ZM38.8859 100L36.8419 96.29H36.2679V100H33.8739V90.172H37.8919C38.6665 90.172 39.3245 90.3073 39.8659 90.578C40.4165 90.8487 40.8272 91.222 41.0979 91.698C41.3685 92.1647 41.5039 92.6873 41.5039 93.266C41.5039 93.9193 41.3172 94.5027 40.9439 95.016C40.5799 95.5293 40.0385 95.8933 39.3199 96.108L41.5879 100H38.8859ZM36.2679 94.596H37.7519C38.1905 94.596 38.5172 94.4887 38.7319 94.274C38.9559 94.0593 39.0679 93.756 39.0679 93.364C39.0679 92.9907 38.9559 92.6967 38.7319 92.482C38.5172 92.2673 38.1905 92.16 37.7519 92.16H36.2679V94.596ZM49.5307 93.28C49.3533 92.9533 49.0967 92.706 48.7607 92.538C48.434 92.3607 48.0467 92.272 47.5987 92.272C46.824 92.272 46.2033 92.5287 45.7367 93.042C45.27 93.546 45.0367 94.2227 45.0367 95.072C45.0367 95.9773 45.2793 96.6867 45.7647 97.2C46.2593 97.704 46.936 97.956 47.7947 97.956C48.3827 97.956 48.8773 97.8067 49.2787 97.508C49.6893 97.2093 49.988 96.78 50.1747 96.22H47.1367V94.456H52.3447V96.682C52.1673 97.2793 51.864 97.8347 51.4347 98.348C51.0147 98.8613 50.478 99.2767 49.8247 99.594C49.1713 99.9113 48.434 100.07 47.6127 100.07C46.642 100.07 45.774 99.86 45.0087 99.44C44.2527 99.0107 43.66 98.418 43.2307 97.662C42.8107 96.906 42.6007 96.0427 42.6007 95.072C42.6007 94.1013 42.8107 93.238 43.2307 92.482C43.66 91.7167 44.2527 91.124 45.0087 90.704C45.7647 90.2747 46.628 90.06 47.5987 90.06C48.7747 90.06 49.764 90.3447 50.5667 90.914C51.3787 91.4833 51.9153 92.272 52.1767 93.28H49.5307ZM59.7887 98.264H56.1207L55.5327 100H53.0267L56.5827 90.172H59.3547L62.9107 100H60.3767L59.7887 98.264ZM59.1727 96.416L57.9547 92.818L56.7507 96.416H59.1727ZM72.785 100H70.391L66.387 93.938V100H63.993V90.172H66.387L70.391 96.262V90.172H72.785V100ZM76.9143 90.172V100H74.5203V90.172H76.9143ZM78.2432 95.072C78.2432 94.1013 78.4533 93.238 78.8733 92.482C79.2933 91.7167 79.8766 91.124 80.6233 90.704C81.3793 90.2747 82.2333 90.06 83.1853 90.06C84.3519 90.06 85.3506 90.368 86.1813 90.984C87.0119 91.6 87.5673 92.44 87.8473 93.504H85.2153C85.0193 93.0933 84.7393 92.7807 84.3753 92.566C84.0206 92.3513 83.6146 92.244 83.1573 92.244C82.4199 92.244 81.8226 92.5007 81.3653 93.014C80.9079 93.5273 80.6793 94.2133 80.6793 95.072C80.6793 95.9307 80.9079 96.6167 81.3653 97.13C81.8226 97.6433 82.4199 97.9 83.1573 97.9C83.6146 97.9 84.0206 97.7927 84.3753 97.578C84.7393 97.3633 85.0193 97.0507 85.2153 96.64H87.8473C87.5673 97.704 87.0119 98.544 86.1813 99.16C85.3506 99.7667 84.3519 100.07 83.1853 100.07C82.2333 100.07 81.3793 99.86 80.6233 99.44C79.8766 99.0107 79.2933 98.418 78.8733 97.662C78.4533 96.906 78.2432 96.0427 78.2432 95.072ZM98.6781 90.172V92.09H94.6741V94.162H97.6701V96.024H94.6741V100H92.2801V90.172H98.6781ZM106.054 98.264H102.386L101.798 100H99.2924L102.848 90.172H105.62L109.176 100H106.642L106.054 98.264ZM105.438 96.416L104.22 92.818L103.016 96.416H105.438ZM115.271 100L113.227 96.29H112.653V100H110.259V90.172H114.277C115.051 90.172 115.709 90.3073 116.251 90.578C116.801 90.8487 117.212 91.222 117.483 91.698C117.753 92.1647 117.889 92.6873 117.889 93.266C117.889 93.9193 117.702 94.5027 117.329 95.016C116.965 95.5293 116.423 95.8933 115.705 96.108L117.973 100H115.271ZM112.653 94.596H114.137C114.575 94.596 114.902 94.4887 115.117 94.274C115.341 94.0593 115.453 93.756 115.453 93.364C115.453 92.9907 115.341 92.6967 115.117 92.482C114.902 92.2673 114.575 92.16 114.137 92.16H112.653V94.596ZM130.521 90.172V100H128.127V94.106L125.929 100H123.997L121.785 94.092V100H119.391V90.172H122.219L124.977 96.976L127.707 90.172H130.521ZM135.799 100.098C135.08 100.098 134.436 99.9813 133.867 99.748C133.298 99.5147 132.84 99.1693 132.495 98.712C132.159 98.2547 131.982 97.704 131.963 97.06H134.511C134.548 97.424 134.674 97.704 134.889 97.9C135.104 98.0867 135.384 98.18 135.729 98.18C136.084 98.18 136.364 98.1007 136.569 97.942C136.774 97.774 136.877 97.5453 136.877 97.256C136.877 97.0133 136.793 96.8127 136.625 96.654C136.466 96.4953 136.266 96.3647 136.023 96.262C135.79 96.1593 135.454 96.0427 135.015 95.912C134.38 95.716 133.862 95.52 133.461 95.324C133.06 95.128 132.714 94.8387 132.425 94.456C132.136 94.0733 131.991 93.574 131.991 92.958C131.991 92.0433 132.322 91.3293 132.985 90.816C133.648 90.2933 134.511 90.032 135.575 90.032C136.658 90.032 137.53 90.2933 138.193 90.816C138.856 91.3293 139.21 92.048 139.257 92.972H136.667C136.648 92.6547 136.532 92.4073 136.317 92.23C136.102 92.0433 135.827 91.95 135.491 91.95C135.202 91.95 134.968 92.0293 134.791 92.188C134.614 92.3373 134.525 92.5567 134.525 92.846C134.525 93.1633 134.674 93.4107 134.973 93.588C135.272 93.7653 135.738 93.9567 136.373 94.162C137.008 94.3767 137.521 94.582 137.913 94.778C138.314 94.974 138.66 95.2587 138.949 95.632C139.238 96.0053 139.383 96.486 139.383 97.074C139.383 97.634 139.238 98.1427 138.949 98.6C138.669 99.0573 138.258 99.4213 137.717 99.692C137.176 99.9627 136.536 100.098 135.799 100.098Z" fill="#5A5A5A"/>
<defs>
<clipPath id="clip0_562_3808">
<rect width="48" height="48" fill="white" transform="translate(57 30)"/>
</clipPath>
</defs>
</svg>
