<svg width="41" height="58" viewBox="0 0 41 58" fill="none" xmlns="http://www.w3.org/2000/svg">
<path fill-rule="evenodd" clip-rule="evenodd" d="M12.2144 2.60014C10.2972 4.22699 7.63642 6.1545 6.30063 6.88169C4.47021 7.87924 3.8717 8.74239 3.8717 10.384C3.8717 11.5828 3.0003 14.2033 1.93585 16.2069L0 19.8506L1.5738 22.524C2.43978 23.9939 3.40732 26.7216 3.72518 28.5854C4.18956 31.3139 4.75008 32.181 6.60686 33.041C7.87365 33.6291 10.0266 35.1651 11.3895 36.4555C13.7409 38.6821 14.2161 38.8064 20.6928 38.8857C27.2802 38.9665 27.6121 38.8857 30.2309 36.5581C31.7233 35.2311 33.9817 33.6571 35.2485 33.0597C37.075 32.1988 37.6681 31.3 38.1053 28.7307C38.4092 26.9477 39.2039 24.4305 39.8714 23.137C41.4514 20.0752 41.4026 18.9665 39.5342 15.4728C38.6814 13.8785 37.9836 11.5913 37.9836 10.3894C37.9836 8.73073 37.3905 7.88701 35.5183 6.88169C34.1631 6.1545 31.5481 4.20446 29.7076 2.54964C26.5538 -0.286853 26.2282 -0.404166 24.0381 0.504817C21.8146 1.42779 19.6756 1.32834 16.9567 0.175408C16.1156 -0.181193 14.5433 0.622908 12.2144 2.60014ZM26.2049 5.44208C29.7867 6.74262 33.7987 10.9123 35.3268 14.9227C37.8813 21.6243 34.5267 29.7539 27.7857 33.2003C22.9209 35.6872 15.8396 35.0897 11.8469 31.8562C7.56044 28.3842 5.95408 25.1818 5.91764 20.0348C5.84012 9.18445 16.1287 1.78439 26.2049 5.44208ZM14.5627 8.31431C11.036 10.1812 7.74806 15.5132 7.74806 19.3666C7.74806 28.2257 16.0233 34.7168 24.342 32.383C28.0578 31.3404 31.9792 27.8171 33.2847 24.3482C37.4735 13.2135 25.1878 2.69182 14.5627 8.31431ZM26.7554 10.6513C27.0089 11.4499 26.8321 12.8219 26.3639 13.6991C25.608 15.1138 25.7708 15.3469 27.7904 15.7517C30.5968 16.3141 31.4582 19.4047 30.0867 23.9916C28.9277 27.8676 26.6151 28.9234 21.8944 27.7324C19.6074 27.1551 18.0964 27.1404 17.0815 27.6842C13.7642 29.4633 12.5648 28.7206 11.5717 24.2713C10.2964 18.5617 10.8383 17.4251 14.7038 17.7048C17.4746 17.9053 18.063 17.6038 20.5199 14.7269C22.0231 12.9672 23.2535 11.0288 23.2535 10.4205C23.2535 7.90099 25.9406 8.07813 26.7554 10.6513ZM17.1738 23.816C17.1738 24.8842 17.3498 25.3216 17.5645 24.7871C17.7801 24.2534 17.7801 23.3794 17.5645 22.8448C17.3498 22.3111 17.1738 22.7477 17.1738 23.816ZM5.54939 43.983C3.77402 48.2902 2.32116 52.1235 2.32116 52.5003C2.32116 52.8778 3.9469 52.696 5.93315 52.097C7.91939 51.498 9.84284 51.0078 10.2072 51.0078C10.5716 51.0078 11.6322 52.5811 12.564 54.5039C13.4967 56.4268 14.4673 58 14.7224 58C15.3015 58 21.7084 42.447 21.7053 41.0502C21.7037 40.3976 21.1401 40.1862 20.1524 40.4675C19.2996 40.7099 17.9173 41.1022 17.0808 41.3392C15.1806 41.8784 12.5051 40.5693 10.3948 38.0684L8.77684 36.151L5.54939 43.983ZM30.7263 39.0566C29.5068 40.1148 27.5407 41.1753 26.3569 41.4122C24.3497 41.8146 22.4782 44.2969 22.4782 46.5577C22.4782 47.9592 26.5321 58 27.098 58C27.3717 58 28.3586 56.4268 29.2913 54.5039C31.1558 50.6574 31.6636 50.4865 36.3354 52.139C38.2674 52.8219 39.5342 52.9579 39.5342 52.4832C39.5342 51.4895 34.1615 38.3714 33.463 37.6605C33.1777 37.3692 31.9466 37.9977 30.7263 39.0566Z" fill="#FF7F5D" style="fill:#FF7F5D;fill:color(display-p3 1.0000 0.4980 0.3647);fill-opacity:1;"/>
</svg>
