<svg width="359" height="200" viewBox="0 0 359 200" fill="none" xmlns="http://www.w3.org/2000/svg">
<g opacity="0.06">
<rect x="150.6" y="0.799805" width="57.6" height="57.6" rx="14.4" fill="#FF7F5D"/>
</g>
<path fill-rule="evenodd" clip-rule="evenodd" d="M179.67 20.6711H172.614V18.5283H179.67L178.642 17.5002C178.224 17.0818 178.224 16.4034 178.642 15.985C179.061 15.5665 179.739 15.5665 180.157 15.985L183.015 18.8421C183.433 19.2605 183.433 19.9389 183.015 20.3573L180.157 23.2145C179.739 23.6329 179.061 23.6329 178.642 23.2145C178.224 22.7961 178.224 22.1177 178.642 21.6992L179.67 20.6711ZM191.499 28.8421L190.471 29.8702V22.814H188.328V29.8702L187.3 28.8421C186.882 28.4237 186.204 28.4237 185.785 28.8421C185.367 29.2605 185.367 29.9389 185.785 30.3573L188.642 33.2145C188.851 33.4237 189.126 33.5283 189.4 33.5283C189.674 33.5283 189.948 33.4237 190.157 33.2145L193.015 30.3573C193.433 29.9389 193.433 29.2605 193.015 28.8421C192.596 28.4237 191.918 28.4237 191.499 28.8421ZM180.157 41.6992L179.129 40.6711H186.186V38.5283H179.129L180.157 37.5002C180.576 37.0818 180.576 36.4034 180.157 35.985C179.739 35.5665 179.061 35.5665 178.642 35.985L175.785 38.8421C175.367 39.2605 175.367 39.9389 175.785 40.3573L178.642 43.2145C179.061 43.6329 179.739 43.6329 180.157 43.2145C180.576 42.7961 180.576 42.1177 180.157 41.6992ZM167.3 30.3573L168.328 29.3292V36.3854H170.471V29.3292L171.499 30.3573C171.918 30.7757 172.596 30.7757 173.015 30.3573C173.433 29.9389 173.433 29.2605 173.015 28.8421L170.157 25.985C169.739 25.5665 169.061 25.5665 168.642 25.985L165.785 28.8421C165.367 29.2605 165.367 29.9389 165.785 30.3573C166.203 30.7757 166.882 30.7757 167.3 30.3573Z" fill="#B4CCEF"/>
<path fill-rule="evenodd" clip-rule="evenodd" d="M174.4 22.457V16.7427C174.4 15.5592 173.441 14.5999 172.257 14.5999H166.543C165.359 14.5999 164.4 15.5592 164.4 16.7427V22.457C164.4 23.6405 165.359 24.5999 166.543 24.5999H172.257C173.441 24.5999 174.4 23.6405 174.4 22.457ZM172.257 34.5998H166.543C165.359 34.5998 164.4 35.5592 164.4 36.7427V42.457C164.4 43.6405 165.359 44.5998 166.543 44.5998H172.257C173.441 44.5998 174.4 43.6405 174.4 42.457V36.7427C174.4 35.5592 173.441 34.5998 172.257 34.5998ZM192.257 24.5999H186.543C185.359 24.5999 184.4 23.6405 184.4 22.457V16.7427C184.4 15.5592 185.359 14.5999 186.543 14.5999H192.257C193.441 14.5999 194.4 15.5592 194.4 16.7427V22.457C194.4 23.6405 193.441 24.5999 192.257 24.5999ZM184.4 36.7427V42.457C184.4 43.6405 185.359 44.5998 186.543 44.5998H192.257C193.441 44.5998 194.4 43.6405 194.4 42.457V36.7427C194.4 35.5592 193.441 34.5998 192.257 34.5998H186.543C185.359 34.5998 184.4 35.5592 184.4 36.7427Z" fill="#FF7F5D"/>
<path d="M114.759 97.8638C114.759 96.6158 115.029 95.5058 115.569 94.5338C116.109 93.5498 116.859 92.7878 117.819 92.2478C118.791 91.6958 119.889 91.4198 121.113 91.4198C122.613 91.4198 123.897 91.8158 124.965 92.6078C126.033 93.3998 126.747 94.4798 127.107 95.8478H123.723C123.471 95.3198 123.111 94.9178 122.643 94.6418C122.187 94.3658 121.665 94.2278 121.077 94.2278C120.129 94.2278 119.361 94.5578 118.773 95.2178C118.185 95.8778 117.891 96.7598 117.891 97.8638C117.891 98.9678 118.185 99.8498 118.773 100.51C119.361 101.17 120.129 101.5 121.077 101.5C121.665 101.5 122.187 101.362 122.643 101.086C123.111 100.81 123.471 100.408 123.723 99.8798H127.107C126.747 101.248 126.033 102.328 124.965 103.12C123.897 103.9 122.613 104.29 121.113 104.29C119.889 104.29 118.791 104.02 117.819 103.48C116.859 102.928 116.109 102.166 115.569 101.194C115.029 100.222 114.759 99.1118 114.759 97.8638ZM133.744 104.344C132.76 104.344 131.872 104.134 131.08 103.714C130.3 103.294 129.682 102.694 129.226 101.914C128.782 101.134 128.56 100.222 128.56 99.1778C128.56 98.1458 128.788 97.2398 129.244 96.4598C129.7 95.6678 130.324 95.0618 131.116 94.6418C131.908 94.2218 132.796 94.0118 133.78 94.0118C134.764 94.0118 135.652 94.2218 136.444 94.6418C137.236 95.0618 137.86 95.6678 138.316 96.4598C138.772 97.2398 139 98.1458 139 99.1778C139 100.21 138.766 101.122 138.298 101.914C137.842 102.694 137.212 103.294 136.408 103.714C135.616 104.134 134.728 104.344 133.744 104.344ZM133.744 101.68C134.332 101.68 134.83 101.464 135.238 101.032C135.658 100.6 135.868 99.9818 135.868 99.1778C135.868 98.3738 135.664 97.7558 135.256 97.3238C134.86 96.8918 134.368 96.6758 133.78 96.6758C133.18 96.6758 132.682 96.8918 132.286 97.3238C131.89 97.7438 131.692 98.3618 131.692 99.1778C131.692 99.9818 131.884 100.6 132.268 101.032C132.664 101.464 133.156 101.68 133.744 101.68ZM143.891 90.8798V104.2H140.813V90.8798H143.891ZM149.379 90.8798V104.2H146.301V90.8798H149.379ZM151.178 99.1598C151.178 98.1278 151.37 97.2218 151.754 96.4418C152.15 95.6618 152.684 95.0618 153.356 94.6418C154.028 94.2218 154.778 94.0118 155.606 94.0118C156.314 94.0118 156.932 94.1558 157.46 94.4438C158 94.7318 158.414 95.1098 158.702 95.5778V94.1558H161.78V104.2H158.702V102.778C158.402 103.246 157.982 103.624 157.442 103.912C156.914 104.2 156.296 104.344 155.588 104.344C154.772 104.344 154.028 104.134 153.356 103.714C152.684 103.282 152.15 102.676 151.754 101.896C151.37 101.104 151.178 100.192 151.178 99.1598ZM158.702 99.1778C158.702 98.4098 158.486 97.8038 158.054 97.3598C157.634 96.9158 157.118 96.6938 156.506 96.6938C155.894 96.6938 155.372 96.9158 154.94 97.3598C154.52 97.7918 154.31 98.3918 154.31 99.1598C154.31 99.9278 154.52 100.54 154.94 100.996C155.372 101.44 155.894 101.662 156.506 101.662C157.118 101.662 157.634 101.44 158.054 100.996C158.486 100.552 158.702 99.9458 158.702 99.1778ZM167.265 95.5778C167.553 95.1098 167.967 94.7318 168.507 94.4438C169.047 94.1558 169.665 94.0118 170.361 94.0118C171.189 94.0118 171.939 94.2218 172.611 94.6418C173.283 95.0618 173.811 95.6618 174.195 96.4418C174.591 97.2218 174.789 98.1278 174.789 99.1598C174.789 100.192 174.591 101.104 174.195 101.896C173.811 102.676 173.283 103.282 172.611 103.714C171.939 104.134 171.189 104.344 170.361 104.344C169.653 104.344 169.035 104.206 168.507 103.93C167.979 103.642 167.565 103.264 167.265 102.796V104.2H164.187V90.8798H167.265V95.5778ZM171.657 99.1598C171.657 98.3918 171.441 97.7918 171.009 97.3598C170.589 96.9158 170.067 96.6938 169.443 96.6938C168.831 96.6938 168.309 96.9158 167.877 97.3598C167.457 97.8038 167.247 98.4098 167.247 99.1778C167.247 99.9458 167.457 100.552 167.877 100.996C168.309 101.44 168.831 101.662 169.443 101.662C170.055 101.662 170.577 101.44 171.009 100.996C171.441 100.54 171.657 99.9278 171.657 99.1598ZM181.155 104.344C180.171 104.344 179.283 104.134 178.491 103.714C177.711 103.294 177.093 102.694 176.637 101.914C176.193 101.134 175.971 100.222 175.971 99.1778C175.971 98.1458 176.199 97.2398 176.655 96.4598C177.111 95.6678 177.735 95.0618 178.527 94.6418C179.319 94.2218 180.207 94.0118 181.191 94.0118C182.175 94.0118 183.063 94.2218 183.855 94.6418C184.647 95.0618 185.271 95.6678 185.727 96.4598C186.183 97.2398 186.411 98.1458 186.411 99.1778C186.411 100.21 186.177 101.122 185.709 101.914C185.253 102.694 184.623 103.294 183.819 103.714C183.027 104.134 182.139 104.344 181.155 104.344ZM181.155 101.68C181.743 101.68 182.241 101.464 182.649 101.032C183.069 100.6 183.279 99.9818 183.279 99.1778C183.279 98.3738 183.075 97.7558 182.667 97.3238C182.271 96.8918 181.779 96.6758 181.191 96.6758C180.591 96.6758 180.093 96.8918 179.697 97.3238C179.301 97.7438 179.103 98.3618 179.103 99.1778C179.103 99.9818 179.295 100.6 179.679 101.032C180.075 101.464 180.567 101.68 181.155 101.68ZM191.302 95.8298C191.662 95.2778 192.112 94.8458 192.652 94.5338C193.192 94.2098 193.792 94.0478 194.452 94.0478V97.3058H193.606C192.838 97.3058 192.262 97.4738 191.878 97.8098C191.494 98.1338 191.302 98.7098 191.302 99.5378V104.2H188.224V94.1558H191.302V95.8298ZM195.492 99.1598C195.492 98.1278 195.684 97.2218 196.068 96.4418C196.464 95.6618 196.998 95.0618 197.67 94.6418C198.342 94.2218 199.092 94.0118 199.92 94.0118C200.628 94.0118 201.246 94.1558 201.774 94.4438C202.314 94.7318 202.728 95.1098 203.016 95.5778V94.1558H206.094V104.2H203.016V102.778C202.716 103.246 202.296 103.624 201.756 103.912C201.228 104.2 200.61 104.344 199.902 104.344C199.086 104.344 198.342 104.134 197.67 103.714C196.998 103.282 196.464 102.676 196.068 101.896C195.684 101.104 195.492 100.192 195.492 99.1598ZM203.016 99.1778C203.016 98.4098 202.8 97.8038 202.368 97.3598C201.948 96.9158 201.432 96.6938 200.82 96.6938C200.208 96.6938 199.686 96.9158 199.254 97.3598C198.834 97.7918 198.624 98.3918 198.624 99.1598C198.624 99.9278 198.834 100.54 199.254 100.996C199.686 101.44 200.208 101.662 200.82 101.662C201.432 101.662 201.948 101.44 202.368 100.996C202.8 100.552 203.016 99.9458 203.016 99.1778ZM214.098 101.59V104.2H212.532C211.416 104.2 210.546 103.93 209.922 103.39C209.298 102.838 208.986 101.944 208.986 100.708V96.7118H207.762V94.1558H208.986V91.7078H212.064V94.1558H214.08V96.7118H212.064V100.744C212.064 101.044 212.136 101.26 212.28 101.392C212.424 101.524 212.664 101.59 213 101.59H214.098ZM217.541 93.1118C217.001 93.1118 216.557 92.9558 216.209 92.6438C215.873 92.3198 215.705 91.9238 215.705 91.4558C215.705 90.9758 215.873 90.5798 216.209 90.2678C216.557 89.9438 217.001 89.7818 217.541 89.7818C218.069 89.7818 218.501 89.9438 218.837 90.2678C219.185 90.5798 219.359 90.9758 219.359 91.4558C219.359 91.9238 219.185 92.3198 218.837 92.6438C218.501 92.9558 218.069 93.1118 217.541 93.1118ZM219.071 94.1558V104.2H215.993V94.1558H219.071ZM226.054 104.344C225.07 104.344 224.182 104.134 223.39 103.714C222.61 103.294 221.992 102.694 221.536 101.914C221.092 101.134 220.87 100.222 220.87 99.1778C220.87 98.1458 221.098 97.2398 221.554 96.4598C222.01 95.6678 222.634 95.0618 223.426 94.6418C224.218 94.2218 225.106 94.0118 226.09 94.0118C227.074 94.0118 227.962 94.2218 228.754 94.6418C229.546 95.0618 230.17 95.6678 230.626 96.4598C231.082 97.2398 231.31 98.1458 231.31 99.1778C231.31 100.21 231.076 101.122 230.608 101.914C230.152 102.694 229.522 103.294 228.718 103.714C227.926 104.134 227.038 104.344 226.054 104.344ZM226.054 101.68C226.642 101.68 227.14 101.464 227.548 101.032C227.968 100.6 228.178 99.9818 228.178 99.1778C228.178 98.3738 227.974 97.7558 227.566 97.3238C227.17 96.8918 226.678 96.6758 226.09 96.6758C225.49 96.6758 224.992 96.8918 224.596 97.3238C224.2 97.7438 224.002 98.3618 224.002 99.1778C224.002 99.9818 224.194 100.6 224.578 101.032C224.974 101.464 225.466 101.68 226.054 101.68ZM239.242 94.0478C240.418 94.0478 241.354 94.4318 242.05 95.1998C242.758 95.9558 243.112 96.9998 243.112 98.3318V104.2H240.052V98.7458C240.052 98.0738 239.878 97.5518 239.53 97.1798C239.182 96.8078 238.714 96.6218 238.126 96.6218C237.538 96.6218 237.07 96.8078 236.722 97.1798C236.374 97.5518 236.2 98.0738 236.2 98.7458V104.2H233.122V94.1558H236.2V95.4878C236.512 95.0438 236.932 94.6958 237.46 94.4438C237.988 94.1798 238.582 94.0478 239.242 94.0478Z" fill="#11145A"/>
<path d="M25.0575 136.174C25.0575 135.195 25.2783 134.317 25.7199 133.539C26.1615 132.752 26.7615 132.137 27.5199 131.696C28.2879 131.254 29.1375 131.033 30.0687 131.033C31.1631 131.033 32.1183 131.297 32.9343 131.825C33.7503 132.353 34.3455 133.102 34.7199 134.072H33.1503C32.8719 133.467 32.4687 133.001 31.9407 132.675C31.4223 132.349 30.7983 132.185 30.0687 132.185C29.3679 132.185 28.7391 132.349 28.1823 132.675C27.6255 133.001 27.1887 133.467 26.8719 134.072C26.5551 134.667 26.3967 135.368 26.3967 136.174C26.3967 136.971 26.5551 137.672 26.8719 138.277C27.1887 138.872 27.6255 139.333 28.1823 139.659C28.7391 139.985 29.3679 140.149 30.0687 140.149C30.7983 140.149 31.4223 139.99 31.9407 139.673C32.4687 139.347 32.8719 138.881 33.1503 138.277H34.7199C34.3455 139.237 33.7503 139.981 32.9343 140.509C32.1183 141.027 31.1631 141.286 30.0687 141.286C29.1375 141.286 28.2879 141.07 27.5199 140.638C26.7615 140.197 26.1615 139.587 25.7199 138.809C25.2783 138.032 25.0575 137.153 25.0575 136.174ZM40.1122 141.329C39.373 141.329 38.701 141.161 38.0962 140.825C37.501 140.489 37.0306 140.014 36.685 139.4C36.349 138.776 36.181 138.056 36.181 137.24C36.181 136.433 36.3538 135.723 36.6994 135.109C37.0546 134.485 37.5346 134.009 38.1394 133.683C38.7442 133.347 39.421 133.179 40.1698 133.179C40.9186 133.179 41.5954 133.347 42.2002 133.683C42.805 134.009 43.2802 134.48 43.6258 135.094C43.981 135.709 44.1586 136.424 44.1586 137.24C44.1586 138.056 43.9762 138.776 43.6114 139.4C43.2562 140.014 42.7714 140.489 42.157 140.825C41.5426 141.161 40.861 141.329 40.1122 141.329ZM40.1122 140.177C40.5826 140.177 41.0242 140.067 41.437 139.846C41.8498 139.625 42.181 139.294 42.4306 138.853C42.6898 138.411 42.8194 137.873 42.8194 137.24C42.8194 136.606 42.6946 136.069 42.445 135.627C42.1954 135.185 41.869 134.859 41.4658 134.648C41.0626 134.427 40.6258 134.317 40.1554 134.317C39.6754 134.317 39.2338 134.427 38.8306 134.648C38.437 134.859 38.1202 135.185 37.8802 135.627C37.6402 136.069 37.5202 136.606 37.5202 137.24C37.5202 137.883 37.6354 138.425 37.8658 138.867C38.1058 139.309 38.4226 139.64 38.8162 139.861C39.2098 140.072 39.6418 140.177 40.1122 140.177ZM47.1919 130.544V141.2H45.8815V130.544H47.1919ZM50.7357 130.544V141.2H49.4253V130.544H50.7357ZM52.4794 137.225C52.4794 136.419 52.6426 135.713 52.969 135.109C53.2954 134.494 53.7418 134.019 54.3082 133.683C54.8842 133.347 55.5226 133.179 56.2234 133.179C56.9146 133.179 57.5146 133.328 58.0234 133.625C58.5322 133.923 58.9114 134.297 59.161 134.749V133.309H60.4858V141.2H59.161V139.731C58.9018 140.192 58.513 140.576 57.9946 140.883C57.4858 141.181 56.8906 141.329 56.209 141.329C55.5082 141.329 54.8746 141.157 54.3082 140.811C53.7418 140.465 53.2954 139.981 52.969 139.357C52.6426 138.733 52.4794 138.022 52.4794 137.225ZM59.161 137.24C59.161 136.645 59.041 136.126 58.801 135.685C58.561 135.243 58.2346 134.907 57.8218 134.677C57.4186 134.437 56.9722 134.317 56.4826 134.317C55.993 134.317 55.5466 134.432 55.1434 134.662C54.7402 134.893 54.4186 135.229 54.1786 135.67C53.9386 136.112 53.8186 136.63 53.8186 137.225C53.8186 137.83 53.9386 138.358 54.1786 138.809C54.4186 139.251 54.7402 139.592 55.1434 139.832C55.5466 140.062 55.993 140.177 56.4826 140.177C56.9722 140.177 57.4186 140.062 57.8218 139.832C58.2346 139.592 58.561 139.251 58.801 138.809C59.041 138.358 59.161 137.835 59.161 137.24ZM64.0107 134.777C64.2795 134.307 64.6731 133.923 65.1915 133.625C65.7099 133.328 66.3003 133.179 66.9627 133.179C67.6731 133.179 68.3115 133.347 68.8779 133.683C69.4443 134.019 69.8907 134.494 70.2171 135.109C70.5435 135.713 70.7067 136.419 70.7067 137.225C70.7067 138.022 70.5435 138.733 70.2171 139.357C69.8907 139.981 69.4395 140.465 68.8635 140.811C68.2971 141.157 67.6635 141.329 66.9627 141.329C66.2811 141.329 65.6811 141.181 65.1627 140.883C64.6539 140.585 64.2699 140.206 64.0107 139.745V141.2H62.7003V130.544H64.0107V134.777ZM69.3675 137.225C69.3675 136.63 69.2475 136.112 69.0075 135.67C68.7675 135.229 68.4411 134.893 68.0283 134.662C67.6251 134.432 67.1787 134.317 66.6891 134.317C66.2091 134.317 65.7627 134.437 65.3499 134.677C64.9467 134.907 64.6203 135.248 64.3707 135.699C64.1307 136.141 64.0107 136.654 64.0107 137.24C64.0107 137.835 64.1307 138.358 64.3707 138.809C64.6203 139.251 64.9467 139.592 65.3499 139.832C65.7627 140.062 66.2091 140.177 66.6891 140.177C67.1787 140.177 67.6251 140.062 68.0283 139.832C68.4411 139.592 68.7675 139.251 69.0075 138.809C69.2475 138.358 69.3675 137.83 69.3675 137.225ZM75.8731 141.329C75.1339 141.329 74.4619 141.161 73.8571 140.825C73.2619 140.489 72.7915 140.014 72.4459 139.4C72.1099 138.776 71.9419 138.056 71.9419 137.24C71.9419 136.433 72.1147 135.723 72.4603 135.109C72.8155 134.485 73.2955 134.009 73.9003 133.683C74.5051 133.347 75.1819 133.179 75.9307 133.179C76.6795 133.179 77.3563 133.347 77.9611 133.683C78.5659 134.009 79.0411 134.48 79.3867 135.094C79.7419 135.709 79.9195 136.424 79.9195 137.24C79.9195 138.056 79.7371 138.776 79.3723 139.4C79.0171 140.014 78.5323 140.489 77.9179 140.825C77.3035 141.161 76.6219 141.329 75.8731 141.329ZM75.8731 140.177C76.3435 140.177 76.7851 140.067 77.1979 139.846C77.6107 139.625 77.9419 139.294 78.1915 138.853C78.4507 138.411 78.5803 137.873 78.5803 137.24C78.5803 136.606 78.4555 136.069 78.2059 135.627C77.9563 135.185 77.6299 134.859 77.2267 134.648C76.8235 134.427 76.3867 134.317 75.9163 134.317C75.4363 134.317 74.9947 134.427 74.5915 134.648C74.1979 134.859 73.8811 135.185 73.6411 135.627C73.4011 136.069 73.2811 136.606 73.2811 137.24C73.2811 137.883 73.3963 138.425 73.6267 138.867C73.8667 139.309 74.1835 139.64 74.5771 139.861C74.9707 140.072 75.4027 140.177 75.8731 140.177ZM82.9528 134.59C83.1832 134.139 83.5096 133.789 83.932 133.539C84.364 133.289 84.8872 133.165 85.5016 133.165V134.518H85.156C83.6872 134.518 82.9528 135.315 82.9528 136.909V141.2H81.6424V133.309H82.9528V134.59ZM86.5247 137.225C86.5247 136.419 86.6879 135.713 87.0143 135.109C87.3407 134.494 87.7871 134.019 88.3535 133.683C88.9295 133.347 89.5679 133.179 90.2687 133.179C90.9599 133.179 91.5599 133.328 92.0687 133.625C92.5775 133.923 92.9567 134.297 93.2063 134.749V133.309H94.5311V141.2H93.2063V139.731C92.9471 140.192 92.5583 140.576 92.0399 140.883C91.5311 141.181 90.9359 141.329 90.2543 141.329C89.5535 141.329 88.9199 141.157 88.3535 140.811C87.7871 140.465 87.3407 139.981 87.0143 139.357C86.6879 138.733 86.5247 138.022 86.5247 137.225ZM93.2063 137.24C93.2063 136.645 93.0863 136.126 92.8463 135.685C92.6063 135.243 92.2799 134.907 91.8671 134.677C91.4639 134.437 91.0175 134.317 90.5279 134.317C90.0383 134.317 89.5919 134.432 89.1887 134.662C88.7855 134.893 88.4639 135.229 88.2239 135.67C87.9839 136.112 87.8639 136.63 87.8639 137.225C87.8639 137.83 87.9839 138.358 88.2239 138.809C88.4639 139.251 88.7855 139.592 89.1887 139.832C89.5919 140.062 90.0383 140.177 90.5279 140.177C91.0175 140.177 91.4639 140.062 91.8671 139.832C92.2799 139.592 92.6063 139.251 92.8463 138.809C93.0863 138.358 93.2063 137.835 93.2063 137.24ZM98.344 134.389V139.04C98.344 139.424 98.4256 139.697 98.5888 139.861C98.752 140.014 99.0352 140.091 99.4384 140.091H100.403V141.2H99.2224C98.4928 141.2 97.9456 141.032 97.5808 140.696C97.216 140.36 97.0336 139.808 97.0336 139.04V134.389H96.0112V133.309H97.0336V131.321H98.344V133.309H100.403V134.389H98.344ZM102.668 132.027C102.418 132.027 102.207 131.941 102.034 131.768C101.861 131.595 101.775 131.384 101.775 131.134C101.775 130.885 101.861 130.673 102.034 130.501C102.207 130.328 102.418 130.241 102.668 130.241C102.908 130.241 103.109 130.328 103.272 130.501C103.445 130.673 103.532 130.885 103.532 131.134C103.532 131.384 103.445 131.595 103.272 131.768C103.109 131.941 102.908 132.027 102.668 132.027ZM103.301 133.309V141.2H101.991V133.309H103.301ZM108.976 141.329C108.237 141.329 107.565 141.161 106.96 140.825C106.365 140.489 105.895 140.014 105.549 139.4C105.213 138.776 105.045 138.056 105.045 137.24C105.045 136.433 105.218 135.723 105.563 135.109C105.919 134.485 106.399 134.009 107.003 133.683C107.608 133.347 108.285 133.179 109.034 133.179C109.783 133.179 110.459 133.347 111.064 133.683C111.669 134.009 112.144 134.48 112.49 135.094C112.845 135.709 113.023 136.424 113.023 137.24C113.023 138.056 112.84 138.776 112.475 139.4C112.12 140.014 111.635 140.489 111.021 140.825C110.407 141.161 109.725 141.329 108.976 141.329ZM108.976 140.177C109.447 140.177 109.888 140.067 110.301 139.846C110.714 139.625 111.045 139.294 111.295 138.853C111.554 138.411 111.683 137.873 111.683 137.24C111.683 136.606 111.559 136.069 111.309 135.627C111.059 135.185 110.733 134.859 110.33 134.648C109.927 134.427 109.49 134.317 109.019 134.317C108.539 134.317 108.098 134.427 107.695 134.648C107.301 134.859 106.984 135.185 106.744 135.627C106.504 136.069 106.384 136.606 106.384 137.24C106.384 137.883 106.499 138.425 106.73 138.867C106.97 139.309 107.287 139.64 107.68 139.861C108.074 140.072 108.506 140.177 108.976 140.177ZM118.59 133.165C119.55 133.165 120.328 133.457 120.923 134.043C121.518 134.619 121.816 135.454 121.816 136.549V141.2H120.52V136.736C120.52 135.949 120.323 135.349 119.93 134.936C119.536 134.513 118.998 134.302 118.317 134.302C117.626 134.302 117.074 134.518 116.661 134.95C116.258 135.382 116.056 136.011 116.056 136.837V141.2H114.746V133.309H116.056V134.432C116.315 134.029 116.666 133.717 117.107 133.496C117.558 133.275 118.053 133.165 118.59 133.165ZM128.472 132.027C128.223 132.027 128.012 131.941 127.839 131.768C127.666 131.595 127.58 131.384 127.58 131.134C127.58 130.885 127.666 130.673 127.839 130.501C128.012 130.328 128.223 130.241 128.472 130.241C128.712 130.241 128.914 130.328 129.077 130.501C129.25 130.673 129.336 130.885 129.336 131.134C129.336 131.384 129.25 131.595 129.077 131.768C128.914 131.941 128.712 132.027 128.472 132.027ZM129.106 133.309V141.2H127.796V133.309H129.106ZM134.133 141.329C133.528 141.329 132.986 141.229 132.506 141.027C132.026 140.816 131.647 140.528 131.368 140.163C131.09 139.789 130.936 139.361 130.907 138.881H132.261C132.299 139.275 132.482 139.597 132.808 139.846C133.144 140.096 133.581 140.221 134.119 140.221C134.618 140.221 135.011 140.11 135.299 139.889C135.587 139.669 135.731 139.39 135.731 139.054C135.731 138.709 135.578 138.454 135.271 138.291C134.963 138.118 134.488 137.95 133.845 137.787C133.259 137.633 132.779 137.48 132.405 137.326C132.04 137.163 131.723 136.928 131.455 136.621C131.195 136.304 131.066 135.891 131.066 135.382C131.066 134.979 131.186 134.609 131.426 134.273C131.666 133.937 132.007 133.673 132.448 133.481C132.89 133.28 133.394 133.179 133.96 133.179C134.834 133.179 135.539 133.4 136.077 133.841C136.615 134.283 136.903 134.888 136.941 135.656H135.631C135.602 135.243 135.434 134.912 135.127 134.662C134.829 134.413 134.426 134.288 133.917 134.288C133.447 134.288 133.072 134.389 132.794 134.59C132.515 134.792 132.376 135.056 132.376 135.382C132.376 135.641 132.458 135.857 132.621 136.03C132.794 136.193 133.005 136.328 133.255 136.433C133.514 136.529 133.869 136.64 134.32 136.765C134.887 136.918 135.347 137.072 135.703 137.225C136.058 137.369 136.36 137.59 136.61 137.888C136.869 138.185 137.003 138.574 137.013 139.054C137.013 139.486 136.893 139.875 136.653 140.221C136.413 140.566 136.072 140.84 135.631 141.041C135.199 141.233 134.699 141.329 134.133 141.329ZM144.3 134.389V139.04C144.3 139.424 144.382 139.697 144.545 139.861C144.708 140.014 144.991 140.091 145.395 140.091H146.359V141.2H145.179C144.449 141.2 143.902 141.032 143.537 140.696C143.172 140.36 142.99 139.808 142.99 139.04V134.389H141.967V133.309H142.99V131.321H144.3V133.309H146.359V134.389H144.3ZM151.864 133.165C152.459 133.165 152.997 133.294 153.477 133.553C153.957 133.803 154.331 134.182 154.6 134.691C154.878 135.2 155.018 135.819 155.018 136.549V141.2H153.722V136.736C153.722 135.949 153.525 135.349 153.131 134.936C152.738 134.513 152.2 134.302 151.518 134.302C150.827 134.302 150.275 134.518 149.862 134.95C149.459 135.382 149.258 136.011 149.258 136.837V141.2H147.947V130.544H149.258V134.432C149.517 134.029 149.872 133.717 150.323 133.496C150.784 133.275 151.298 133.165 151.864 133.165ZM164.358 136.952C164.358 137.201 164.344 137.465 164.315 137.744H158.008C158.056 138.521 158.32 139.131 158.8 139.573C159.289 140.005 159.88 140.221 160.571 140.221C161.137 140.221 161.608 140.091 161.982 139.832C162.366 139.563 162.635 139.208 162.788 138.766H164.2C163.988 139.525 163.566 140.144 162.932 140.624C162.299 141.094 161.512 141.329 160.571 141.329C159.822 141.329 159.15 141.161 158.555 140.825C157.969 140.489 157.508 140.014 157.172 139.4C156.836 138.776 156.668 138.056 156.668 137.24C156.668 136.424 156.832 135.709 157.158 135.094C157.484 134.48 157.94 134.009 158.526 133.683C159.121 133.347 159.803 133.179 160.571 133.179C161.32 133.179 161.982 133.342 162.558 133.669C163.134 133.995 163.576 134.446 163.883 135.022C164.2 135.589 164.358 136.232 164.358 136.952ZM163.004 136.678C163.004 136.179 162.894 135.752 162.673 135.397C162.452 135.032 162.15 134.758 161.766 134.576C161.392 134.384 160.974 134.288 160.513 134.288C159.851 134.288 159.284 134.499 158.814 134.921C158.353 135.344 158.089 135.929 158.022 136.678H163.004ZM171.237 134.763C171.496 134.312 171.88 133.937 172.389 133.64C172.908 133.333 173.508 133.179 174.189 133.179C174.89 133.179 175.524 133.347 176.09 133.683C176.666 134.019 177.117 134.494 177.444 135.109C177.77 135.713 177.933 136.419 177.933 137.225C177.933 138.022 177.77 138.733 177.444 139.357C177.117 139.981 176.666 140.465 176.09 140.811C175.524 141.157 174.89 141.329 174.189 141.329C173.517 141.329 172.922 141.181 172.404 140.883C171.895 140.576 171.506 140.197 171.237 139.745V144.944H169.927V133.309H171.237V134.763ZM176.594 137.225C176.594 136.63 176.474 136.112 176.234 135.67C175.994 135.229 175.668 134.893 175.255 134.662C174.852 134.432 174.405 134.317 173.916 134.317C173.436 134.317 172.989 134.437 172.576 134.677C172.173 134.907 171.847 135.248 171.597 135.699C171.357 136.141 171.237 136.654 171.237 137.24C171.237 137.835 171.357 138.358 171.597 138.809C171.847 139.251 172.173 139.592 172.576 139.832C172.989 140.062 173.436 140.177 173.916 140.177C174.405 140.177 174.852 140.062 175.255 139.832C175.668 139.592 175.994 139.251 176.234 138.809C176.474 138.358 176.594 137.83 176.594 137.225ZM180.968 134.59C181.199 134.139 181.525 133.789 181.948 133.539C182.38 133.289 182.903 133.165 183.517 133.165V134.518H183.172C181.703 134.518 180.968 135.315 180.968 136.909V141.2H179.658V133.309H180.968V134.59ZM188.472 141.329C187.732 141.329 187.06 141.161 186.456 140.825C185.86 140.489 185.39 140.014 185.044 139.4C184.708 138.776 184.54 138.056 184.54 137.24C184.54 136.433 184.713 135.723 185.059 135.109C185.414 134.485 185.894 134.009 186.499 133.683C187.104 133.347 187.78 133.179 188.529 133.179C189.278 133.179 189.955 133.347 190.56 133.683C191.164 134.009 191.64 134.48 191.985 135.094C192.34 135.709 192.518 136.424 192.518 137.24C192.518 138.056 192.336 138.776 191.971 139.4C191.616 140.014 191.131 140.489 190.516 140.825C189.902 141.161 189.22 141.329 188.472 141.329ZM188.472 140.177C188.942 140.177 189.384 140.067 189.796 139.846C190.209 139.625 190.54 139.294 190.79 138.853C191.049 138.411 191.179 137.873 191.179 137.24C191.179 136.606 191.054 136.069 190.804 135.627C190.555 135.185 190.228 134.859 189.825 134.648C189.422 134.427 188.985 134.317 188.515 134.317C188.035 134.317 187.593 134.427 187.19 134.648C186.796 134.859 186.48 135.185 186.24 135.627C186 136.069 185.88 136.606 185.88 137.24C185.88 137.883 185.995 138.425 186.225 138.867C186.465 139.309 186.782 139.64 187.176 139.861C187.569 140.072 188.001 140.177 188.472 140.177ZM193.751 137.24C193.751 136.424 193.914 135.713 194.241 135.109C194.567 134.494 195.018 134.019 195.594 133.683C196.18 133.347 196.847 133.179 197.596 133.179C198.566 133.179 199.362 133.414 199.986 133.885C200.62 134.355 201.038 135.008 201.239 135.843H199.828C199.694 135.363 199.43 134.984 199.036 134.705C198.652 134.427 198.172 134.288 197.596 134.288C196.847 134.288 196.242 134.547 195.782 135.065C195.321 135.574 195.09 136.299 195.09 137.24C195.09 138.19 195.321 138.925 195.782 139.443C196.242 139.961 196.847 140.221 197.596 140.221C198.172 140.221 198.652 140.086 199.036 139.817C199.42 139.549 199.684 139.165 199.828 138.665H201.239C201.028 139.472 200.606 140.12 199.972 140.609C199.338 141.089 198.546 141.329 197.596 141.329C196.847 141.329 196.18 141.161 195.594 140.825C195.018 140.489 194.567 140.014 194.241 139.4C193.914 138.785 193.751 138.065 193.751 137.24ZM210.188 136.952C210.188 137.201 210.173 137.465 210.145 137.744H203.837C203.885 138.521 204.149 139.131 204.629 139.573C205.119 140.005 205.709 140.221 206.401 140.221C206.967 140.221 207.437 140.091 207.812 139.832C208.196 139.563 208.465 139.208 208.618 138.766H210.029C209.818 139.525 209.396 140.144 208.762 140.624C208.129 141.094 207.341 141.329 206.401 141.329C205.652 141.329 204.98 141.161 204.385 140.825C203.799 140.489 203.338 140.014 203.002 139.4C202.666 138.776 202.498 138.056 202.498 137.24C202.498 136.424 202.661 135.709 202.988 135.094C203.314 134.48 203.77 134.009 204.356 133.683C204.951 133.347 205.633 133.179 206.401 133.179C207.149 133.179 207.812 133.342 208.388 133.669C208.964 133.995 209.405 134.446 209.713 135.022C210.029 135.589 210.188 136.232 210.188 136.952ZM208.834 136.678C208.834 136.179 208.724 135.752 208.503 135.397C208.282 135.032 207.98 134.758 207.596 134.576C207.221 134.384 206.804 134.288 206.343 134.288C205.681 134.288 205.114 134.499 204.644 134.921C204.183 135.344 203.919 135.929 203.852 136.678H208.834ZM214.711 141.329C214.106 141.329 213.564 141.229 213.084 141.027C212.604 140.816 212.225 140.528 211.946 140.163C211.668 139.789 211.514 139.361 211.485 138.881H212.839C212.877 139.275 213.06 139.597 213.386 139.846C213.722 140.096 214.159 140.221 214.697 140.221C215.196 140.221 215.589 140.11 215.877 139.889C216.165 139.669 216.309 139.39 216.309 139.054C216.309 138.709 216.156 138.454 215.849 138.291C215.541 138.118 215.066 137.95 214.423 137.787C213.837 137.633 213.357 137.48 212.983 137.326C212.618 137.163 212.301 136.928 212.033 136.621C211.773 136.304 211.644 135.891 211.644 135.382C211.644 134.979 211.764 134.609 212.004 134.273C212.244 133.937 212.585 133.673 213.026 133.481C213.468 133.28 213.972 133.179 214.538 133.179C215.412 133.179 216.117 133.4 216.655 133.841C217.193 134.283 217.481 134.888 217.519 135.656H216.209C216.18 135.243 216.012 134.912 215.705 134.662C215.407 134.413 215.004 134.288 214.495 134.288C214.025 134.288 213.65 134.389 213.372 134.59C213.093 134.792 212.954 135.056 212.954 135.382C212.954 135.641 213.036 135.857 213.199 136.03C213.372 136.193 213.583 136.328 213.833 136.433C214.092 136.529 214.447 136.64 214.898 136.765C215.465 136.918 215.925 137.072 216.281 137.225C216.636 137.369 216.938 137.59 217.188 137.888C217.447 138.185 217.581 138.574 217.591 139.054C217.591 139.486 217.471 139.875 217.231 140.221C216.991 140.566 216.65 140.84 216.209 141.041C215.777 141.233 215.277 141.329 214.711 141.329ZM222.234 141.329C221.63 141.329 221.087 141.229 220.607 141.027C220.127 140.816 219.748 140.528 219.47 140.163C219.191 139.789 219.038 139.361 219.009 138.881H220.362C220.401 139.275 220.583 139.597 220.91 139.846C221.246 140.096 221.682 140.221 222.22 140.221C222.719 140.221 223.113 140.11 223.401 139.889C223.689 139.669 223.833 139.39 223.833 139.054C223.833 138.709 223.679 138.454 223.372 138.291C223.065 138.118 222.59 137.95 221.946 137.787C221.361 137.633 220.881 137.48 220.506 137.326C220.142 137.163 219.825 136.928 219.556 136.621C219.297 136.304 219.167 135.891 219.167 135.382C219.167 134.979 219.287 134.609 219.527 134.273C219.767 133.937 220.108 133.673 220.55 133.481C220.991 133.28 221.495 133.179 222.062 133.179C222.935 133.179 223.641 133.4 224.178 133.841C224.716 134.283 225.004 134.888 225.042 135.656H223.732C223.703 135.243 223.535 134.912 223.228 134.662C222.93 134.413 222.527 134.288 222.018 134.288C221.548 134.288 221.174 134.389 220.895 134.59C220.617 134.792 220.478 135.056 220.478 135.382C220.478 135.641 220.559 135.857 220.722 136.03C220.895 136.193 221.106 136.328 221.356 136.433C221.615 136.529 221.97 136.64 222.422 136.765C222.988 136.918 223.449 137.072 223.804 137.225C224.159 137.369 224.462 137.59 224.711 137.888C224.97 138.185 225.105 138.574 225.114 139.054C225.114 139.486 224.994 139.875 224.754 140.221C224.514 140.566 224.174 140.84 223.732 141.041C223.3 141.233 222.801 141.329 222.234 141.329ZM234.245 141.329C233.506 141.329 232.834 141.161 232.229 140.825C231.634 140.489 231.163 140.014 230.818 139.4C230.482 138.776 230.314 138.056 230.314 137.24C230.314 136.433 230.487 135.723 230.832 135.109C231.187 134.485 231.667 134.009 232.272 133.683C232.877 133.347 233.554 133.179 234.303 133.179C235.051 133.179 235.728 133.347 236.333 133.683C236.938 134.009 237.413 134.48 237.759 135.094C238.114 135.709 238.291 136.424 238.291 137.24C238.291 138.056 238.109 138.776 237.744 139.4C237.389 140.014 236.904 140.489 236.29 140.825C235.675 141.161 234.994 141.329 234.245 141.329ZM234.245 140.177C234.715 140.177 235.157 140.067 235.57 139.846C235.983 139.625 236.314 139.294 236.563 138.853C236.823 138.411 236.952 137.873 236.952 137.24C236.952 136.606 236.827 136.069 236.578 135.627C236.328 135.185 236.002 134.859 235.599 134.648C235.195 134.427 234.759 134.317 234.288 134.317C233.808 134.317 233.367 134.427 232.963 134.648C232.57 134.859 232.253 135.185 232.013 135.627C231.773 136.069 231.653 136.606 231.653 137.24C231.653 137.883 231.768 138.425 231.999 138.867C232.239 139.309 232.555 139.64 232.949 139.861C233.343 140.072 233.775 140.177 234.245 140.177ZM243.226 134.389H241.57V141.2H240.259V134.389H239.237V133.309H240.259V132.747C240.259 131.864 240.485 131.221 240.936 130.817C241.397 130.405 242.131 130.198 243.139 130.198V131.293C242.563 131.293 242.155 131.408 241.915 131.638C241.685 131.859 241.57 132.229 241.57 132.747V133.309H243.226V134.389ZM250.191 134.389V139.04C250.191 139.424 250.272 139.697 250.436 139.861C250.599 140.014 250.882 140.091 251.285 140.091H252.25V141.2H251.069C250.34 141.2 249.792 141.032 249.428 140.696C249.063 140.36 248.88 139.808 248.88 139.04V134.389H247.858V133.309H248.88V131.321H250.191V133.309H252.25V134.389H250.191ZM264.35 133.309L261.887 141.2H260.534L258.633 134.936L256.732 141.2H255.379L252.902 133.309H254.241L256.055 139.933L258.014 133.309H259.353L261.268 139.947L263.054 133.309H264.35ZM269.092 141.329C268.353 141.329 267.681 141.161 267.076 140.825C266.481 140.489 266.01 140.014 265.665 139.4C265.329 138.776 265.161 138.056 265.161 137.24C265.161 136.433 265.333 135.723 265.679 135.109C266.034 134.485 266.514 134.009 267.119 133.683C267.724 133.347 268.401 133.179 269.149 133.179C269.898 133.179 270.575 133.347 271.18 133.683C271.785 134.009 272.26 134.48 272.605 135.094C272.961 135.709 273.138 136.424 273.138 137.24C273.138 138.056 272.956 138.776 272.591 139.4C272.236 140.014 271.751 140.489 271.137 140.825C270.522 141.161 269.841 141.329 269.092 141.329ZM269.092 140.177C269.562 140.177 270.004 140.067 270.417 139.846C270.829 139.625 271.161 139.294 271.41 138.853C271.669 138.411 271.799 137.873 271.799 137.24C271.799 136.606 271.674 136.069 271.425 135.627C271.175 135.185 270.849 134.859 270.445 134.648C270.042 134.427 269.605 134.317 269.135 134.317C268.655 134.317 268.213 134.427 267.81 134.648C267.417 134.859 267.1 135.185 266.86 135.627C266.62 136.069 266.5 136.606 266.5 137.24C266.5 137.883 266.615 138.425 266.845 138.867C267.085 139.309 267.402 139.64 267.796 139.861C268.189 140.072 268.621 140.177 269.092 140.177ZM282.142 141.329C281.403 141.329 280.731 141.161 280.126 140.825C279.531 140.489 279.06 140.014 278.715 139.4C278.379 138.776 278.211 138.056 278.211 137.24C278.211 136.433 278.383 135.723 278.729 135.109C279.084 134.485 279.564 134.009 280.169 133.683C280.774 133.347 281.451 133.179 282.199 133.179C282.948 133.179 283.625 133.347 284.23 133.683C284.835 134.009 285.31 134.48 285.655 135.094C286.011 135.709 286.188 136.424 286.188 137.24C286.188 138.056 286.006 138.776 285.641 139.4C285.286 140.014 284.801 140.489 284.187 140.825C283.572 141.161 282.891 141.329 282.142 141.329ZM282.142 140.177C282.612 140.177 283.054 140.067 283.467 139.846C283.879 139.625 284.211 139.294 284.46 138.853C284.719 138.411 284.849 137.873 284.849 137.24C284.849 136.606 284.724 136.069 284.475 135.627C284.225 135.185 283.899 134.859 283.495 134.648C283.092 134.427 282.655 134.317 282.185 134.317C281.705 134.317 281.263 134.427 280.86 134.648C280.467 134.859 280.15 135.185 279.91 135.627C279.67 136.069 279.55 136.606 279.55 137.24C279.55 137.883 279.665 138.425 279.895 138.867C280.135 139.309 280.452 139.64 280.846 139.861C281.239 140.072 281.671 140.177 282.142 140.177ZM289.222 134.59C289.452 134.139 289.778 133.789 290.201 133.539C290.633 133.289 291.156 133.165 291.77 133.165V134.518H291.425C289.956 134.518 289.222 135.315 289.222 136.909V141.2H287.911V133.309H289.222V134.59ZM306.612 133.165C307.226 133.165 307.773 133.294 308.253 133.553C308.733 133.803 309.113 134.182 309.391 134.691C309.669 135.2 309.809 135.819 309.809 136.549V141.2H308.513V136.736C308.513 135.949 308.316 135.349 307.922 134.936C307.538 134.513 307.015 134.302 306.353 134.302C305.671 134.302 305.129 134.523 304.725 134.965C304.322 135.397 304.121 136.025 304.121 136.851V141.2H302.825V136.736C302.825 135.949 302.628 135.349 302.234 134.936C301.85 134.513 301.327 134.302 300.665 134.302C299.983 134.302 299.441 134.523 299.037 134.965C298.634 135.397 298.433 136.025 298.433 136.851V141.2H297.122V133.309H298.433V134.446C298.692 134.033 299.037 133.717 299.469 133.496C299.911 133.275 300.396 133.165 300.924 133.165C301.586 133.165 302.172 133.313 302.681 133.611C303.189 133.909 303.569 134.345 303.818 134.921C304.039 134.365 304.404 133.933 304.913 133.625C305.421 133.318 305.988 133.165 306.612 133.165ZM315.4 141.329C314.66 141.329 313.988 141.161 313.384 140.825C312.788 140.489 312.318 140.014 311.972 139.4C311.636 138.776 311.468 138.056 311.468 137.24C311.468 136.433 311.641 135.723 311.987 135.109C312.342 134.485 312.822 134.009 313.427 133.683C314.032 133.347 314.708 133.179 315.457 133.179C316.206 133.179 316.883 133.347 317.488 133.683C318.092 134.009 318.568 134.48 318.913 135.094C319.268 135.709 319.446 136.424 319.446 137.24C319.446 138.056 319.264 138.776 318.899 139.4C318.544 140.014 318.059 140.489 317.444 140.825C316.83 141.161 316.148 141.329 315.4 141.329ZM315.4 140.177C315.87 140.177 316.312 140.067 316.724 139.846C317.137 139.625 317.468 139.294 317.718 138.853C317.977 138.411 318.107 137.873 318.107 137.24C318.107 136.606 317.982 136.069 317.732 135.627C317.483 135.185 317.156 134.859 316.753 134.648C316.35 134.427 315.913 134.317 315.443 134.317C314.963 134.317 314.521 134.427 314.118 134.648C313.724 134.859 313.408 135.185 313.168 135.627C312.928 136.069 312.808 136.606 312.808 137.24C312.808 137.883 312.923 138.425 313.153 138.867C313.393 139.309 313.71 139.64 314.104 139.861C314.497 140.072 314.929 140.177 315.4 140.177ZM322.479 134.59C322.71 134.139 323.036 133.789 323.459 133.539C323.891 133.289 324.414 133.165 325.028 133.165V134.518H324.683C323.214 134.518 322.479 135.315 322.479 136.909V141.2H321.169V133.309H322.479V134.59ZM333.741 136.952C333.741 137.201 333.726 137.465 333.698 137.744H327.39C327.438 138.521 327.702 139.131 328.182 139.573C328.672 140.005 329.262 140.221 329.954 140.221C330.52 140.221 330.99 140.091 331.365 139.832C331.749 139.563 332.018 139.208 332.171 138.766H333.582C333.371 139.525 332.949 140.144 332.315 140.624C331.682 141.094 330.894 141.329 329.954 141.329C329.205 141.329 328.533 141.161 327.938 140.825C327.352 140.489 326.891 140.014 326.555 139.4C326.219 138.776 326.051 138.056 326.051 137.24C326.051 136.424 326.214 135.709 326.541 135.094C326.867 134.48 327.323 134.009 327.909 133.683C328.504 133.347 329.186 133.179 329.954 133.179C330.702 133.179 331.365 133.342 331.941 133.669C332.517 133.995 332.958 134.446 333.266 135.022C333.582 135.589 333.741 136.232 333.741 136.952ZM332.387 136.678C332.387 136.179 332.277 135.752 332.056 135.397C331.835 135.032 331.533 134.758 331.149 134.576C330.774 134.384 330.357 134.288 329.896 134.288C329.234 134.288 328.667 134.499 328.197 134.921C327.736 135.344 327.472 135.929 327.405 136.678H332.387ZM24.6708 159.763C24.93 159.312 25.314 158.937 25.8228 158.64C26.3412 158.333 26.9412 158.179 27.6228 158.179C28.3236 158.179 28.9572 158.347 29.5236 158.683C30.0996 159.019 30.5508 159.494 30.8772 160.109C31.2036 160.713 31.3668 161.419 31.3668 162.225C31.3668 163.022 31.2036 163.733 30.8772 164.357C30.5508 164.981 30.0996 165.465 29.5236 165.811C28.9572 166.157 28.3236 166.329 27.6228 166.329C26.9508 166.329 26.3556 166.181 25.8372 165.883C25.3284 165.576 24.9396 165.197 24.6708 164.745V169.944H23.3604V158.309H24.6708V159.763ZM30.0276 162.225C30.0276 161.63 29.9076 161.112 29.6676 160.67C29.4276 160.229 29.1012 159.893 28.6884 159.662C28.2852 159.432 27.8388 159.317 27.3492 159.317C26.8692 159.317 26.4228 159.437 26.01 159.677C25.6068 159.907 25.2804 160.248 25.0308 160.699C24.7908 161.141 24.6708 161.654 24.6708 162.24C24.6708 162.835 24.7908 163.358 25.0308 163.809C25.2804 164.251 25.6068 164.592 26.01 164.832C26.4228 165.062 26.8692 165.177 27.3492 165.177C27.8388 165.177 28.2852 165.062 28.6884 164.832C29.1012 164.592 29.4276 164.251 29.6676 163.809C29.9076 163.358 30.0276 162.83 30.0276 162.225ZM40.2917 161.952C40.2917 162.201 40.2773 162.465 40.2485 162.744H33.9413C33.9893 163.521 34.2533 164.131 34.7333 164.573C35.2229 165.005 35.8133 165.221 36.5045 165.221C37.0709 165.221 37.5413 165.091 37.9157 164.832C38.2997 164.563 38.5685 164.208 38.7221 163.766H40.1333C39.9221 164.525 39.4997 165.144 38.8661 165.624C38.2325 166.094 37.4453 166.329 36.5045 166.329C35.7557 166.329 35.0837 166.161 34.4885 165.825C33.9029 165.489 33.4421 165.014 33.1061 164.4C32.7701 163.776 32.6021 163.056 32.6021 162.24C32.6021 161.424 32.7653 160.709 33.0917 160.094C33.4181 159.48 33.8741 159.009 34.4597 158.683C35.0549 158.347 35.7365 158.179 36.5045 158.179C37.2533 158.179 37.9157 158.342 38.4917 158.669C39.0677 158.995 39.5093 159.446 39.8165 160.022C40.1333 160.589 40.2917 161.232 40.2917 161.952ZM38.9381 161.678C38.9381 161.179 38.8277 160.752 38.6069 160.397C38.3861 160.032 38.0837 159.758 37.6997 159.576C37.3253 159.384 36.9077 159.288 36.4469 159.288C35.7845 159.288 35.2181 159.499 34.7477 159.921C34.2869 160.344 34.0229 160.929 33.9557 161.678H38.9381ZM45.463 166.329C44.7238 166.329 44.0518 166.161 43.447 165.825C42.8518 165.489 42.3814 165.014 42.0358 164.4C41.6998 163.776 41.5318 163.056 41.5318 162.24C41.5318 161.433 41.7046 160.723 42.0502 160.109C42.4054 159.485 42.8854 159.009 43.4902 158.683C44.095 158.347 44.7718 158.179 45.5206 158.179C46.2694 158.179 46.9462 158.347 47.551 158.683C48.1558 159.009 48.631 159.48 48.9766 160.094C49.3318 160.709 49.5094 161.424 49.5094 162.24C49.5094 163.056 49.327 163.776 48.9622 164.4C48.607 165.014 48.1222 165.489 47.5078 165.825C46.8934 166.161 46.2118 166.329 45.463 166.329ZM45.463 165.177C45.9334 165.177 46.375 165.067 46.7878 164.846C47.2006 164.625 47.5318 164.294 47.7814 163.853C48.0406 163.411 48.1702 162.873 48.1702 162.24C48.1702 161.606 48.0454 161.069 47.7958 160.627C47.5462 160.185 47.2198 159.859 46.8166 159.648C46.4134 159.427 45.9766 159.317 45.5062 159.317C45.0262 159.317 44.5846 159.427 44.1814 159.648C43.7878 159.859 43.471 160.185 43.231 160.627C42.991 161.069 42.871 161.606 42.871 162.24C42.871 162.883 42.9862 163.425 43.2166 163.867C43.4566 164.309 43.7734 164.64 44.167 164.861C44.5606 165.072 44.9926 165.177 45.463 165.177ZM52.5427 159.763C52.8019 159.312 53.1859 158.937 53.6947 158.64C54.2131 158.333 54.8131 158.179 55.4947 158.179C56.1955 158.179 56.8291 158.347 57.3955 158.683C57.9715 159.019 58.4227 159.494 58.7491 160.109C59.0755 160.713 59.2387 161.419 59.2387 162.225C59.2387 163.022 59.0755 163.733 58.7491 164.357C58.4227 164.981 57.9715 165.465 57.3955 165.811C56.8291 166.157 56.1955 166.329 55.4947 166.329C54.8227 166.329 54.2275 166.181 53.7091 165.883C53.2003 165.576 52.8115 165.197 52.5427 164.745V169.944H51.2323V158.309H52.5427V159.763ZM57.8995 162.225C57.8995 161.63 57.7795 161.112 57.5395 160.67C57.2995 160.229 56.9731 159.893 56.5603 159.662C56.1571 159.432 55.7107 159.317 55.2211 159.317C54.7411 159.317 54.2947 159.437 53.8819 159.677C53.4787 159.907 53.1523 160.248 52.9027 160.699C52.6627 161.141 52.5427 161.654 52.5427 162.24C52.5427 162.835 52.6627 163.358 52.9027 163.809C53.1523 164.251 53.4787 164.592 53.8819 164.832C54.2947 165.062 54.7411 165.177 55.2211 165.177C55.7107 165.177 56.1571 165.062 56.5603 164.832C56.9731 164.592 57.2995 164.251 57.5395 163.809C57.7795 163.358 57.8995 162.83 57.8995 162.225ZM62.2739 155.544V166.2H60.9635V155.544H62.2739ZM71.7073 161.952C71.7073 162.201 71.6929 162.465 71.6641 162.744H65.3569C65.4049 163.521 65.6689 164.131 66.1489 164.573C66.6385 165.005 67.2289 165.221 67.9201 165.221C68.4865 165.221 68.9569 165.091 69.3313 164.832C69.7153 164.563 69.9841 164.208 70.1377 163.766H71.5489C71.3377 164.525 70.9153 165.144 70.2817 165.624C69.6481 166.094 68.8609 166.329 67.9201 166.329C67.1713 166.329 66.4993 166.161 65.9041 165.825C65.3185 165.489 64.8577 165.014 64.5217 164.4C64.1857 163.776 64.0177 163.056 64.0177 162.24C64.0177 161.424 64.1809 160.709 64.5073 160.094C64.8337 159.48 65.2897 159.009 65.8753 158.683C66.4705 158.347 67.1521 158.179 67.9201 158.179C68.6689 158.179 69.3313 158.342 69.9073 158.669C70.4833 158.995 70.9249 159.446 71.2321 160.022C71.5489 160.589 71.7073 161.232 71.7073 161.952ZM70.3537 161.678C70.3537 161.179 70.2433 160.752 70.0225 160.397C69.8017 160.032 69.4993 159.758 69.1153 159.576C68.7409 159.384 68.3233 159.288 67.8625 159.288C67.2001 159.288 66.6337 159.499 66.1633 159.921C65.7025 160.344 65.4385 160.929 65.3713 161.678H70.3537ZM80.7176 166.329C79.9784 166.329 79.3064 166.161 78.7016 165.825C78.1064 165.489 77.636 165.014 77.2904 164.4C76.9544 163.776 76.7864 163.056 76.7864 162.24C76.7864 161.433 76.9592 160.723 77.3048 160.109C77.66 159.485 78.14 159.009 78.7448 158.683C79.3496 158.347 80.0264 158.179 80.7752 158.179C81.524 158.179 82.2008 158.347 82.8056 158.683C83.4104 159.009 83.8856 159.48 84.2312 160.094C84.5864 160.709 84.764 161.424 84.764 162.24C84.764 163.056 84.5816 163.776 84.2168 164.4C83.8616 165.014 83.3768 165.489 82.7624 165.825C82.148 166.161 81.4664 166.329 80.7176 166.329ZM80.7176 165.177C81.188 165.177 81.6296 165.067 82.0424 164.846C82.4552 164.625 82.7864 164.294 83.036 163.853C83.2952 163.411 83.4248 162.873 83.4248 162.24C83.4248 161.606 83.3 161.069 83.0504 160.627C82.8008 160.185 82.4744 159.859 82.0712 159.648C81.668 159.427 81.2312 159.317 80.7608 159.317C80.2808 159.317 79.8392 159.427 79.436 159.648C79.0424 159.859 78.7256 160.185 78.4856 160.627C78.2456 161.069 78.1256 161.606 78.1256 162.24C78.1256 162.883 78.2408 163.425 78.4712 163.867C78.7112 164.309 79.028 164.64 79.4216 164.861C79.8152 165.072 80.2472 165.177 80.7176 165.177ZM87.7974 159.59C88.0278 159.139 88.3542 158.789 88.7766 158.539C89.2086 158.289 89.7318 158.165 90.3462 158.165V159.518H90.0006C88.5318 159.518 87.7974 160.315 87.7974 161.909V166.2H86.487V158.309H87.7974V159.59ZM99.1395 166.329C98.4003 166.329 97.7283 166.161 97.1235 165.825C96.5283 165.489 96.0579 165.014 95.7123 164.4C95.3763 163.776 95.2083 163.056 95.2083 162.24C95.2083 161.433 95.3811 160.723 95.7267 160.109C96.0819 159.485 96.5619 159.009 97.1667 158.683C97.7715 158.347 98.4483 158.179 99.1971 158.179C99.9459 158.179 100.623 158.347 101.228 158.683C101.832 159.009 102.308 159.48 102.653 160.094C103.008 160.709 103.186 161.424 103.186 162.24C103.186 163.056 103.004 163.776 102.639 164.4C102.284 165.014 101.799 165.489 101.184 165.825C100.57 166.161 99.8883 166.329 99.1395 166.329ZM99.1395 165.177C99.6099 165.177 100.052 165.067 100.464 164.846C100.877 164.625 101.208 164.294 101.458 163.853C101.717 163.411 101.847 162.873 101.847 162.24C101.847 161.606 101.722 161.069 101.472 160.627C101.223 160.185 100.896 159.859 100.493 159.648C100.09 159.427 99.6531 159.317 99.1827 159.317C98.7027 159.317 98.2611 159.427 97.8579 159.648C97.4643 159.859 97.1475 160.185 96.9075 160.627C96.6675 161.069 96.5475 161.606 96.5475 162.24C96.5475 162.883 96.6627 163.425 96.8931 163.867C97.1331 164.309 97.4499 164.64 97.8435 164.861C98.2371 165.072 98.6691 165.177 99.1395 165.177ZM106.219 159.59C106.45 159.139 106.776 158.789 107.198 158.539C107.63 158.289 108.154 158.165 108.768 158.165V159.518H108.422C106.954 159.518 106.219 160.315 106.219 161.909V166.2H104.909V158.309H106.219V159.59ZM113.535 158.179C114.217 158.179 114.812 158.328 115.321 158.625C115.839 158.923 116.223 159.297 116.473 159.749V158.309H117.798V166.373C117.798 167.093 117.644 167.731 117.337 168.288C117.03 168.854 116.588 169.296 116.012 169.613C115.446 169.929 114.783 170.088 114.025 170.088C112.988 170.088 112.124 169.843 111.433 169.353C110.742 168.864 110.334 168.197 110.209 167.352H111.505C111.649 167.832 111.946 168.216 112.398 168.504C112.849 168.801 113.391 168.95 114.025 168.95C114.745 168.95 115.33 168.725 115.782 168.273C116.242 167.822 116.473 167.189 116.473 166.373V164.717C116.214 165.177 115.83 165.561 115.321 165.869C114.812 166.176 114.217 166.329 113.535 166.329C112.834 166.329 112.196 166.157 111.62 165.811C111.054 165.465 110.607 164.981 110.281 164.357C109.954 163.733 109.791 163.022 109.791 162.225C109.791 161.419 109.954 160.713 110.281 160.109C110.607 159.494 111.054 159.019 111.62 158.683C112.196 158.347 112.834 158.179 113.535 158.179ZM116.473 162.24C116.473 161.645 116.353 161.126 116.113 160.685C115.873 160.243 115.546 159.907 115.134 159.677C114.73 159.437 114.284 159.317 113.794 159.317C113.305 159.317 112.858 159.432 112.455 159.662C112.052 159.893 111.73 160.229 111.49 160.67C111.25 161.112 111.13 161.63 111.13 162.225C111.13 162.83 111.25 163.358 111.49 163.809C111.73 164.251 112.052 164.592 112.455 164.832C112.858 165.062 113.305 165.177 113.794 165.177C114.284 165.177 114.73 165.062 115.134 164.832C115.546 164.592 115.873 164.251 116.113 163.809C116.353 163.358 116.473 162.835 116.473 162.24ZM119.522 162.225C119.522 161.419 119.686 160.713 120.012 160.109C120.338 159.494 120.785 159.019 121.351 158.683C121.927 158.347 122.566 158.179 123.266 158.179C123.958 158.179 124.558 158.328 125.066 158.625C125.575 158.923 125.954 159.297 126.204 159.749V158.309H127.529V166.2H126.204V164.731C125.945 165.192 125.556 165.576 125.038 165.883C124.529 166.181 123.934 166.329 123.252 166.329C122.551 166.329 121.918 166.157 121.351 165.811C120.785 165.465 120.338 164.981 120.012 164.357C119.686 163.733 119.522 163.022 119.522 162.225ZM126.204 162.24C126.204 161.645 126.084 161.126 125.844 160.685C125.604 160.243 125.278 159.907 124.865 159.677C124.462 159.437 124.015 159.317 123.526 159.317C123.036 159.317 122.59 159.432 122.186 159.662C121.783 159.893 121.462 160.229 121.222 160.67C120.982 161.112 120.862 161.63 120.862 162.225C120.862 162.83 120.982 163.358 121.222 163.809C121.462 164.251 121.783 164.592 122.186 164.832C122.59 165.062 123.036 165.177 123.526 165.177C124.015 165.177 124.462 165.062 124.865 164.832C125.278 164.592 125.604 164.251 125.844 163.809C126.084 163.358 126.204 162.835 126.204 162.24ZM133.588 158.165C134.548 158.165 135.326 158.457 135.921 159.043C136.516 159.619 136.814 160.454 136.814 161.549V166.2H135.518V161.736C135.518 160.949 135.321 160.349 134.927 159.936C134.534 159.513 133.996 159.302 133.314 159.302C132.623 159.302 132.071 159.518 131.658 159.95C131.255 160.382 131.054 161.011 131.054 161.837V166.2H129.743V158.309H131.054V159.432C131.313 159.029 131.663 158.717 132.105 158.496C132.556 158.275 133.05 158.165 133.588 158.165ZM139.631 157.027C139.381 157.027 139.17 156.941 138.997 156.768C138.825 156.595 138.738 156.384 138.738 156.134C138.738 155.885 138.825 155.673 138.997 155.501C139.17 155.328 139.381 155.241 139.631 155.241C139.871 155.241 140.073 155.328 140.236 155.501C140.409 155.673 140.495 155.885 140.495 156.134C140.495 156.384 140.409 156.595 140.236 156.768C140.073 156.941 139.871 157.027 139.631 157.027ZM140.265 158.309V166.2H138.954V158.309H140.265ZM143.477 165.12H147.351V166.2H141.98V165.12L145.81 159.374H142.008V158.309H147.322V159.374L143.477 165.12ZM148.561 162.225C148.561 161.419 148.725 160.713 149.051 160.109C149.377 159.494 149.824 159.019 150.39 158.683C150.966 158.347 151.605 158.179 152.305 158.179C152.997 158.179 153.597 158.328 154.105 158.625C154.614 158.923 154.993 159.297 155.243 159.749V158.309H156.568V166.2H155.243V164.731C154.984 165.192 154.595 165.576 154.077 165.883C153.568 166.181 152.973 166.329 152.291 166.329C151.59 166.329 150.957 166.157 150.39 165.811C149.824 165.465 149.377 164.981 149.051 164.357C148.725 163.733 148.561 163.022 148.561 162.225ZM155.243 162.24C155.243 161.645 155.123 161.126 154.883 160.685C154.643 160.243 154.317 159.907 153.904 159.677C153.501 159.437 153.054 159.317 152.565 159.317C152.075 159.317 151.629 159.432 151.225 159.662C150.822 159.893 150.501 160.229 150.261 160.67C150.021 161.112 149.901 161.63 149.901 162.225C149.901 162.83 150.021 163.358 150.261 163.809C150.501 164.251 150.822 164.592 151.225 164.832C151.629 165.062 152.075 165.177 152.565 165.177C153.054 165.177 153.501 165.062 153.904 164.832C154.317 164.592 154.643 164.251 154.883 163.809C155.123 163.358 155.243 162.835 155.243 162.24ZM160.381 159.389V164.04C160.381 164.424 160.462 164.697 160.625 164.861C160.789 165.014 161.072 165.091 161.475 165.091H162.44V166.2H161.259C160.529 166.2 159.982 166.032 159.617 165.696C159.253 165.36 159.07 164.808 159.07 164.04V159.389H158.048V158.309H159.07V156.321H160.381V158.309H162.44V159.389H160.381ZM164.704 157.027C164.455 157.027 164.244 156.941 164.071 156.768C163.898 156.595 163.812 156.384 163.812 156.134C163.812 155.885 163.898 155.673 164.071 155.501C164.244 155.328 164.455 155.241 164.704 155.241C164.944 155.241 165.146 155.328 165.309 155.501C165.482 155.673 165.568 155.885 165.568 156.134C165.568 156.384 165.482 156.595 165.309 156.768C165.146 156.941 164.944 157.027 164.704 157.027ZM165.338 158.309V166.2H164.028V158.309H165.338ZM171.013 166.329C170.274 166.329 169.602 166.161 168.997 165.825C168.402 165.489 167.931 165.014 167.586 164.4C167.25 163.776 167.082 163.056 167.082 162.24C167.082 161.433 167.255 160.723 167.6 160.109C167.955 159.485 168.435 159.009 169.04 158.683C169.645 158.347 170.322 158.179 171.071 158.179C171.819 158.179 172.496 158.347 173.101 158.683C173.706 159.009 174.181 159.48 174.527 160.094C174.882 160.709 175.059 161.424 175.059 162.24C175.059 163.056 174.877 163.776 174.512 164.4C174.157 165.014 173.672 165.489 173.058 165.825C172.443 166.161 171.762 166.329 171.013 166.329ZM171.013 165.177C171.483 165.177 171.925 165.067 172.338 164.846C172.751 164.625 173.082 164.294 173.331 163.853C173.591 163.411 173.72 162.873 173.72 162.24C173.72 161.606 173.595 161.069 173.346 160.627C173.096 160.185 172.77 159.859 172.367 159.648C171.963 159.427 171.527 159.317 171.056 159.317C170.576 159.317 170.135 159.427 169.731 159.648C169.338 159.859 169.021 160.185 168.781 160.627C168.541 161.069 168.421 161.606 168.421 162.24C168.421 162.883 168.536 163.425 168.767 163.867C169.007 164.309 169.323 164.64 169.717 164.861C170.111 165.072 170.543 165.177 171.013 165.177ZM180.627 158.165C181.587 158.165 182.365 158.457 182.96 159.043C183.555 159.619 183.853 160.454 183.853 161.549V166.2H182.557V161.736C182.557 160.949 182.36 160.349 181.966 159.936C181.573 159.513 181.035 159.302 180.353 159.302C179.662 159.302 179.11 159.518 178.697 159.95C178.294 160.382 178.093 161.011 178.093 161.837V166.2H176.782V158.309H178.093V159.432C178.352 159.029 178.702 158.717 179.144 158.496C179.595 158.275 180.089 158.165 180.627 158.165ZM188.787 166.329C188.182 166.329 187.64 166.229 187.16 166.027C186.68 165.816 186.3 165.528 186.022 165.163C185.744 164.789 185.59 164.361 185.561 163.881H186.915C186.953 164.275 187.136 164.597 187.462 164.846C187.798 165.096 188.235 165.221 188.772 165.221C189.272 165.221 189.665 165.11 189.953 164.889C190.241 164.669 190.385 164.39 190.385 164.054C190.385 163.709 190.232 163.454 189.924 163.291C189.617 163.118 189.142 162.95 188.499 162.787C187.913 162.633 187.433 162.48 187.059 162.326C186.694 162.163 186.377 161.928 186.108 161.621C185.849 161.304 185.72 160.891 185.72 160.382C185.72 159.979 185.84 159.609 186.08 159.273C186.32 158.937 186.66 158.673 187.102 158.481C187.544 158.28 188.048 158.179 188.614 158.179C189.488 158.179 190.193 158.4 190.731 158.841C191.268 159.283 191.556 159.888 191.595 160.656H190.284C190.256 160.243 190.088 159.912 189.78 159.662C189.483 159.413 189.08 159.288 188.571 159.288C188.1 159.288 187.726 159.389 187.448 159.59C187.169 159.792 187.03 160.056 187.03 160.382C187.03 160.641 187.112 160.857 187.275 161.03C187.448 161.193 187.659 161.328 187.908 161.433C188.168 161.529 188.523 161.64 188.974 161.765C189.54 161.918 190.001 162.072 190.356 162.225C190.712 162.369 191.014 162.59 191.264 162.888C191.523 163.185 191.657 163.574 191.667 164.054C191.667 164.486 191.547 164.875 191.307 165.221C191.067 165.566 190.726 165.84 190.284 166.041C189.852 166.233 189.353 166.329 188.787 166.329ZM207.868 158.309L205.405 166.2H204.052L202.151 159.936L200.25 166.2H198.897L196.42 158.309H197.759L199.573 164.933L201.532 158.309H202.871L204.786 164.947L206.572 158.309H207.868ZM212.61 166.329C211.871 166.329 211.199 166.161 210.594 165.825C209.999 165.489 209.528 165.014 209.183 164.4C208.847 163.776 208.679 163.056 208.679 162.24C208.679 161.433 208.851 160.723 209.197 160.109C209.552 159.485 210.032 159.009 210.637 158.683C211.242 158.347 211.919 158.179 212.667 158.179C213.416 158.179 214.093 158.347 214.698 158.683C215.303 159.009 215.778 159.48 216.123 160.094C216.479 160.709 216.656 161.424 216.656 162.24C216.656 163.056 216.474 163.776 216.109 164.4C215.754 165.014 215.269 165.489 214.655 165.825C214.04 166.161 213.359 166.329 212.61 166.329ZM212.61 165.177C213.08 165.177 213.522 165.067 213.935 164.846C214.347 164.625 214.679 164.294 214.928 163.853C215.187 163.411 215.317 162.873 215.317 162.24C215.317 161.606 215.192 161.069 214.943 160.627C214.693 160.185 214.367 159.859 213.963 159.648C213.56 159.427 213.123 159.317 212.653 159.317C212.173 159.317 211.731 159.427 211.328 159.648C210.935 159.859 210.618 160.185 210.378 160.627C210.138 161.069 210.018 161.606 210.018 162.24C210.018 162.883 210.133 163.425 210.363 163.867C210.603 164.309 210.92 164.64 211.314 164.861C211.707 165.072 212.139 165.177 212.61 165.177ZM219.69 159.59C219.92 159.139 220.246 158.789 220.669 158.539C221.101 158.289 221.624 158.165 222.238 158.165V159.518H221.893C220.424 159.518 219.69 160.315 219.69 161.909V166.2H218.379V158.309H219.69V159.59ZM228.157 166.2L225.061 162.715V166.2H223.751V155.544H225.061V161.808L228.1 158.309H229.929L226.213 162.24L229.943 166.2H228.157ZM231.839 157.027C231.589 157.027 231.378 156.941 231.205 156.768C231.032 156.595 230.946 156.384 230.946 156.134C230.946 155.885 231.032 155.673 231.205 155.501C231.378 155.328 231.589 155.241 231.839 155.241C232.079 155.241 232.28 155.328 232.444 155.501C232.616 155.673 232.703 155.885 232.703 156.134C232.703 156.384 232.616 156.595 232.444 156.768C232.28 156.941 232.079 157.027 231.839 157.027ZM232.472 158.309V166.2H231.162V158.309H232.472ZM238.551 158.165C239.511 158.165 240.288 158.457 240.883 159.043C241.479 159.619 241.776 160.454 241.776 161.549V166.2H240.48V161.736C240.48 160.949 240.283 160.349 239.89 159.936C239.496 159.513 238.959 159.302 238.277 159.302C237.586 159.302 237.034 159.518 236.621 159.95C236.218 160.382 236.016 161.011 236.016 161.837V166.2H234.706V158.309H236.016V159.432C236.275 159.029 236.626 158.717 237.067 158.496C237.519 158.275 238.013 158.165 238.551 158.165ZM247.171 158.179C247.853 158.179 248.448 158.328 248.957 158.625C249.475 158.923 249.859 159.297 250.109 159.749V158.309H251.433V166.373C251.433 167.093 251.28 167.731 250.973 168.288C250.665 168.854 250.224 169.296 249.648 169.613C249.081 169.929 248.419 170.088 247.661 170.088C246.624 170.088 245.76 169.843 245.069 169.353C244.377 168.864 243.969 168.197 243.845 167.352H245.141C245.285 167.832 245.582 168.216 246.033 168.504C246.485 168.801 247.027 168.95 247.661 168.95C248.381 168.95 248.966 168.725 249.417 168.273C249.878 167.822 250.109 167.189 250.109 166.373V164.717C249.849 165.177 249.465 165.561 248.957 165.869C248.448 166.176 247.853 166.329 247.171 166.329C246.47 166.329 245.832 166.157 245.256 165.811C244.689 165.465 244.243 164.981 243.917 164.357C243.59 163.733 243.427 163.022 243.427 162.225C243.427 161.419 243.59 160.713 243.917 160.109C244.243 159.494 244.689 159.019 245.256 158.683C245.832 158.347 246.47 158.179 247.171 158.179ZM250.109 162.24C250.109 161.645 249.989 161.126 249.749 160.685C249.509 160.243 249.182 159.907 248.769 159.677C248.366 159.437 247.92 159.317 247.43 159.317C246.941 159.317 246.494 159.432 246.091 159.662C245.688 159.893 245.366 160.229 245.126 160.67C244.886 161.112 244.766 161.63 244.766 162.225C244.766 162.83 244.886 163.358 245.126 163.809C245.366 164.251 245.688 164.592 246.091 164.832C246.494 165.062 246.941 165.177 247.43 165.177C247.92 165.177 248.366 165.062 248.769 164.832C249.182 164.592 249.509 164.251 249.749 163.809C249.989 163.358 250.109 162.835 250.109 162.24ZM259.085 159.389V164.04C259.085 164.424 259.167 164.697 259.33 164.861C259.493 165.014 259.777 165.091 260.18 165.091H261.145V166.2H259.964C259.234 166.2 258.687 166.032 258.322 165.696C257.957 165.36 257.775 164.808 257.775 164.04V159.389H256.753V158.309H257.775V156.321H259.085V158.309H261.145V159.389H259.085ZM266.174 166.329C265.435 166.329 264.763 166.161 264.158 165.825C263.563 165.489 263.092 165.014 262.747 164.4C262.411 163.776 262.243 163.056 262.243 162.24C262.243 161.433 262.415 160.723 262.761 160.109C263.116 159.485 263.596 159.009 264.201 158.683C264.806 158.347 265.483 158.179 266.231 158.179C266.98 158.179 267.657 158.347 268.262 158.683C268.867 159.009 269.342 159.48 269.687 160.094C270.043 160.709 270.22 161.424 270.22 162.24C270.22 163.056 270.038 163.776 269.673 164.4C269.318 165.014 268.833 165.489 268.219 165.825C267.604 166.161 266.923 166.329 266.174 166.329ZM266.174 165.177C266.644 165.177 267.086 165.067 267.499 164.846C267.911 164.625 268.243 164.294 268.492 163.853C268.751 163.411 268.881 162.873 268.881 162.24C268.881 161.606 268.756 161.069 268.507 160.627C268.257 160.185 267.931 159.859 267.527 159.648C267.124 159.427 266.687 159.317 266.217 159.317C265.737 159.317 265.295 159.427 264.892 159.648C264.499 159.859 264.182 160.185 263.942 160.627C263.702 161.069 263.582 161.606 263.582 162.24C263.582 162.883 263.697 163.425 263.927 163.867C264.167 164.309 264.484 164.64 264.878 164.861C265.271 165.072 265.703 165.177 266.174 165.177ZM275.198 158.179C275.879 158.179 276.474 158.328 276.983 158.625C277.502 158.923 277.886 159.297 278.135 159.749V158.309H279.46V166.373C279.46 167.093 279.306 167.731 278.999 168.288C278.692 168.854 278.25 169.296 277.674 169.613C277.108 169.929 276.446 170.088 275.687 170.088C274.65 170.088 273.786 169.843 273.095 169.353C272.404 168.864 271.996 168.197 271.871 167.352H273.167C273.311 167.832 273.609 168.216 274.06 168.504C274.511 168.801 275.054 168.95 275.687 168.95C276.407 168.95 276.993 168.725 277.444 168.273C277.905 167.822 278.135 167.189 278.135 166.373V164.717C277.876 165.177 277.492 165.561 276.983 165.869C276.474 166.176 275.879 166.329 275.198 166.329C274.497 166.329 273.858 166.157 273.282 165.811C272.716 165.465 272.27 164.981 271.943 164.357C271.617 163.733 271.454 163.022 271.454 162.225C271.454 161.419 271.617 160.713 271.943 160.109C272.27 159.494 272.716 159.019 273.282 158.683C273.858 158.347 274.497 158.179 275.198 158.179ZM278.135 162.24C278.135 161.645 278.015 161.126 277.775 160.685C277.535 160.243 277.209 159.907 276.796 159.677C276.393 159.437 275.946 159.317 275.457 159.317C274.967 159.317 274.521 159.432 274.118 159.662C273.714 159.893 273.393 160.229 273.153 160.67C272.913 161.112 272.793 161.63 272.793 162.225C272.793 162.83 272.913 163.358 273.153 163.809C273.393 164.251 273.714 164.592 274.118 164.832C274.521 165.062 274.967 165.177 275.457 165.177C275.946 165.177 276.393 165.062 276.796 164.832C277.209 164.592 277.535 164.251 277.775 163.809C278.015 163.358 278.135 162.835 278.135 162.24ZM288.874 161.952C288.874 162.201 288.86 162.465 288.831 162.744H282.524C282.572 163.521 282.836 164.131 283.316 164.573C283.806 165.005 284.396 165.221 285.087 165.221C285.654 165.221 286.124 165.091 286.498 164.832C286.882 164.563 287.151 164.208 287.305 163.766H288.716C288.505 164.525 288.082 165.144 287.449 165.624C286.815 166.094 286.028 166.329 285.087 166.329C284.338 166.329 283.666 166.161 283.071 165.825C282.486 165.489 282.025 165.014 281.689 164.4C281.353 163.776 281.185 163.056 281.185 162.24C281.185 161.424 281.348 160.709 281.674 160.094C282.001 159.48 282.457 159.009 283.042 158.683C283.638 158.347 284.319 158.179 285.087 158.179C285.836 158.179 286.498 158.342 287.074 158.669C287.65 158.995 288.092 159.446 288.399 160.022C288.716 160.589 288.874 161.232 288.874 161.952ZM287.521 161.678C287.521 161.179 287.41 160.752 287.19 160.397C286.969 160.032 286.666 159.758 286.282 159.576C285.908 159.384 285.49 159.288 285.03 159.288C284.367 159.288 283.801 159.499 283.33 159.921C282.87 160.344 282.606 160.929 282.538 161.678H287.521ZM292.203 159.389V164.04C292.203 164.424 292.284 164.697 292.447 164.861C292.611 165.014 292.894 165.091 293.297 165.091H294.262V166.2H293.081C292.351 166.2 291.804 166.032 291.439 165.696C291.075 165.36 290.892 164.808 290.892 164.04V159.389H289.87V158.309H290.892V156.321H292.203V158.309H294.262V159.389H292.203ZM299.766 158.165C300.361 158.165 300.899 158.294 301.379 158.553C301.859 158.803 302.233 159.182 302.502 159.691C302.781 160.2 302.92 160.819 302.92 161.549V166.2H301.624V161.736C301.624 160.949 301.427 160.349 301.033 159.936C300.64 159.513 300.102 159.302 299.421 159.302C298.729 159.302 298.177 159.518 297.765 159.95C297.361 160.382 297.16 161.011 297.16 161.837V166.2H295.849V155.544H297.16V159.432C297.419 159.029 297.774 158.717 298.225 158.496C298.686 158.275 299.2 158.165 299.766 158.165ZM312.26 161.952C312.26 162.201 312.246 162.465 312.217 162.744H305.91C305.958 163.521 306.222 164.131 306.702 164.573C307.192 165.005 307.782 165.221 308.473 165.221C309.04 165.221 309.51 165.091 309.884 164.832C310.268 164.563 310.537 164.208 310.691 163.766H312.102C311.891 164.525 311.468 165.144 310.835 165.624C310.201 166.094 309.414 166.329 308.473 166.329C307.724 166.329 307.052 166.161 306.457 165.825C305.872 165.489 305.411 165.014 305.075 164.4C304.739 163.776 304.571 163.056 304.571 162.24C304.571 161.424 304.734 160.709 305.06 160.094C305.387 159.48 305.843 159.009 306.428 158.683C307.024 158.347 307.705 158.179 308.473 158.179C309.222 158.179 309.884 158.342 310.46 158.669C311.036 158.995 311.478 159.446 311.785 160.022C312.102 160.589 312.26 161.232 312.26 161.952ZM310.907 161.678C310.907 161.179 310.796 160.752 310.576 160.397C310.355 160.032 310.052 159.758 309.668 159.576C309.294 159.384 308.876 159.288 308.416 159.288C307.753 159.288 307.187 159.499 306.716 159.921C306.256 160.344 305.992 160.929 305.924 161.678H310.907ZM315.3 159.59C315.531 159.139 315.857 158.789 316.28 158.539C316.712 158.289 317.235 158.165 317.849 158.165V159.518H317.504C316.035 159.518 315.3 160.315 315.3 161.909V166.2H313.99V158.309H315.3V159.59ZM324.799 159.389V164.04C324.799 164.424 324.881 164.697 325.044 164.861C325.207 165.014 325.491 165.091 325.894 165.091H326.859V166.2H325.678C324.948 166.2 324.401 166.032 324.036 165.696C323.671 165.36 323.489 164.808 323.489 164.04V159.389H322.467V158.309H323.489V156.321H324.799V158.309H326.859V159.389H324.799ZM331.888 166.329C331.149 166.329 330.477 166.161 329.872 165.825C329.277 165.489 328.806 165.014 328.461 164.4C328.125 163.776 327.957 163.056 327.957 162.24C327.957 161.433 328.13 160.723 328.475 160.109C328.83 159.485 329.31 159.009 329.915 158.683C330.52 158.347 331.197 158.179 331.946 158.179C332.694 158.179 333.371 158.347 333.976 158.683C334.581 159.009 335.056 159.48 335.402 160.094C335.757 160.709 335.934 161.424 335.934 162.24C335.934 163.056 335.752 163.776 335.387 164.4C335.032 165.014 334.547 165.489 333.933 165.825C333.318 166.161 332.637 166.329 331.888 166.329ZM331.888 165.177C332.358 165.177 332.8 165.067 333.213 164.846C333.626 164.625 333.957 164.294 334.206 163.853C334.466 163.411 334.595 162.873 334.595 162.24C334.595 161.606 334.47 161.069 334.221 160.627C333.971 160.185 333.645 159.859 333.242 159.648C332.838 159.427 332.402 159.317 331.931 159.317C331.451 159.317 331.01 159.427 330.606 159.648C330.213 159.859 329.896 160.185 329.656 160.627C329.416 161.069 329.296 161.606 329.296 162.24C329.296 162.883 329.411 163.425 329.642 163.867C329.882 164.309 330.198 164.64 330.592 164.861C330.986 165.072 331.418 165.177 331.888 165.177ZM55.7349 187.24C55.7349 186.424 55.8981 185.713 56.2245 185.109C56.5509 184.494 57.0021 184.019 57.5781 183.683C58.1637 183.347 58.8309 183.179 59.5797 183.179C60.5493 183.179 61.3461 183.414 61.9701 183.885C62.6037 184.355 63.0213 185.008 63.2229 185.843H61.8117C61.6773 185.363 61.4133 184.984 61.0197 184.705C60.6357 184.427 60.1557 184.288 59.5797 184.288C58.8309 184.288 58.2261 184.547 57.7653 185.065C57.3045 185.574 57.0741 186.299 57.0741 187.24C57.0741 188.19 57.3045 188.925 57.7653 189.443C58.2261 189.961 58.8309 190.221 59.5797 190.221C60.1557 190.221 60.6357 190.086 61.0197 189.817C61.4037 189.549 61.6677 189.165 61.8117 188.665H63.2229C63.0117 189.472 62.5893 190.12 61.9557 190.609C61.3221 191.089 60.5301 191.329 59.5797 191.329C58.8309 191.329 58.1637 191.161 57.5781 190.825C57.0021 190.489 56.5509 190.014 56.2245 189.4C55.8981 188.785 55.7349 188.065 55.7349 187.24ZM68.413 191.329C67.6738 191.329 67.0018 191.161 66.397 190.825C65.8018 190.489 65.3314 190.014 64.9858 189.4C64.6498 188.776 64.4818 188.056 64.4818 187.24C64.4818 186.433 64.6546 185.723 65.0002 185.109C65.3554 184.485 65.8354 184.009 66.4402 183.683C67.045 183.347 67.7218 183.179 68.4706 183.179C69.2194 183.179 69.8962 183.347 70.501 183.683C71.1058 184.009 71.581 184.48 71.9266 185.094C72.2818 185.709 72.4594 186.424 72.4594 187.24C72.4594 188.056 72.277 188.776 71.9122 189.4C71.557 190.014 71.0722 190.489 70.4578 190.825C69.8434 191.161 69.1618 191.329 68.413 191.329ZM68.413 190.177C68.8834 190.177 69.325 190.067 69.7378 189.846C70.1506 189.625 70.4818 189.294 70.7314 188.853C70.9906 188.411 71.1202 187.873 71.1202 187.24C71.1202 186.606 70.9954 186.069 70.7458 185.627C70.4962 185.185 70.1698 184.859 69.7666 184.648C69.3634 184.427 68.9266 184.317 68.4562 184.317C67.9762 184.317 67.5346 184.427 67.1314 184.648C66.7378 184.859 66.421 185.185 66.181 185.627C65.941 186.069 65.821 186.606 65.821 187.24C65.821 187.883 65.9362 188.425 66.1666 188.867C66.4066 189.309 66.7234 189.64 67.117 189.861C67.5106 190.072 67.9426 190.177 68.413 190.177ZM83.6719 183.165C84.2863 183.165 84.8335 183.294 85.3135 183.553C85.7935 183.803 86.1727 184.182 86.4511 184.691C86.7295 185.2 86.8687 185.819 86.8687 186.549V191.2H85.5727V186.736C85.5727 185.949 85.3759 185.349 84.9823 184.936C84.5983 184.513 84.0751 184.302 83.4127 184.302C82.7311 184.302 82.1887 184.523 81.7855 184.965C81.3823 185.397 81.1807 186.025 81.1807 186.851V191.2H79.8847V186.736C79.8847 185.949 79.6879 185.349 79.2943 184.936C78.9103 184.513 78.3871 184.302 77.7247 184.302C77.0431 184.302 76.5007 184.523 76.0975 184.965C75.6943 185.397 75.4927 186.025 75.4927 186.851V191.2H74.1823V183.309H75.4927V184.446C75.7519 184.033 76.0975 183.717 76.5295 183.496C76.9711 183.275 77.4559 183.165 77.9839 183.165C78.6463 183.165 79.2319 183.313 79.7407 183.611C80.2495 183.909 80.6287 184.345 80.8783 184.921C81.0991 184.365 81.4639 183.933 81.9727 183.625C82.4815 183.318 83.0479 183.165 83.6719 183.165ZM90.3286 184.763C90.5878 184.312 90.9718 183.937 91.4806 183.64C91.999 183.333 92.599 183.179 93.2806 183.179C93.9814 183.179 94.615 183.347 95.1814 183.683C95.7574 184.019 96.2086 184.494 96.535 185.109C96.8614 185.713 97.0246 186.419 97.0246 187.225C97.0246 188.022 96.8614 188.733 96.535 189.357C96.2086 189.981 95.7574 190.465 95.1814 190.811C94.615 191.157 93.9814 191.329 93.2806 191.329C92.6086 191.329 92.0134 191.181 91.495 190.883C90.9862 190.576 90.5974 190.197 90.3286 189.745V194.944H89.0182V183.309H90.3286V184.763ZM95.6854 187.225C95.6854 186.63 95.5654 186.112 95.3254 185.67C95.0854 185.229 94.759 184.893 94.3462 184.662C93.943 184.432 93.4966 184.317 93.007 184.317C92.527 184.317 92.0806 184.437 91.6678 184.677C91.2646 184.907 90.9382 185.248 90.6886 185.699C90.4486 186.141 90.3286 186.654 90.3286 187.24C90.3286 187.835 90.4486 188.358 90.6886 188.809C90.9382 189.251 91.2646 189.592 91.6678 189.832C92.0806 190.062 92.527 190.177 93.007 190.177C93.4966 190.177 93.943 190.062 94.3462 189.832C94.759 189.592 95.0854 189.251 95.3254 188.809C95.5654 188.358 95.6854 187.83 95.6854 187.225ZM100.06 180.544V191.2H98.7495V180.544H100.06ZM109.493 186.952C109.493 187.201 109.479 187.465 109.45 187.744H103.143C103.191 188.521 103.455 189.131 103.935 189.573C104.424 190.005 105.015 190.221 105.706 190.221C106.272 190.221 106.743 190.091 107.117 189.832C107.501 189.563 107.77 189.208 107.924 188.766H109.335C109.124 189.525 108.701 190.144 108.068 190.624C107.434 191.094 106.647 191.329 105.706 191.329C104.957 191.329 104.285 191.161 103.69 190.825C103.104 190.489 102.644 190.014 102.308 189.4C101.972 188.776 101.804 188.056 101.804 187.24C101.804 186.424 101.967 185.709 102.293 185.094C102.62 184.48 103.076 184.009 103.661 183.683C104.256 183.347 104.938 183.179 105.706 183.179C106.455 183.179 107.117 183.342 107.693 183.669C108.269 183.995 108.711 184.446 109.018 185.022C109.335 185.589 109.493 186.232 109.493 186.952ZM108.14 186.678C108.14 186.179 108.029 185.752 107.808 185.397C107.588 185.032 107.285 184.758 106.901 184.576C106.527 184.384 106.109 184.288 105.648 184.288C104.986 184.288 104.42 184.499 103.949 184.921C103.488 185.344 103.224 185.929 103.157 186.678H108.14ZM112.821 184.389V189.04C112.821 189.424 112.903 189.697 113.066 189.861C113.229 190.014 113.513 190.091 113.916 190.091H114.881V191.2H113.7C112.97 191.2 112.423 191.032 112.058 190.696C111.693 190.36 111.511 189.808 111.511 189.04V184.389H110.489V183.309H111.511V181.321H112.821V183.309H114.881V184.389H112.821ZM123.668 186.952C123.668 187.201 123.654 187.465 123.625 187.744H117.318C117.366 188.521 117.63 189.131 118.11 189.573C118.599 190.005 119.19 190.221 119.881 190.221C120.447 190.221 120.918 190.091 121.292 189.832C121.676 189.563 121.945 189.208 122.099 188.766H123.51C123.299 189.525 122.876 190.144 122.243 190.624C121.609 191.094 120.822 191.329 119.881 191.329C119.132 191.329 118.46 191.161 117.865 190.825C117.279 190.489 116.819 190.014 116.483 189.4C116.147 188.776 115.979 188.056 115.979 187.24C115.979 186.424 116.142 185.709 116.468 185.094C116.795 184.48 117.251 184.009 117.836 183.683C118.431 183.347 119.113 183.179 119.881 183.179C120.63 183.179 121.292 183.342 121.868 183.669C122.444 183.995 122.886 184.446 123.193 185.022C123.51 185.589 123.668 186.232 123.668 186.952ZM122.315 186.678C122.315 186.179 122.204 185.752 121.983 185.397C121.763 185.032 121.46 184.758 121.076 184.576C120.702 184.384 120.284 184.288 119.823 184.288C119.161 184.288 118.595 184.499 118.124 184.921C117.663 185.344 117.399 185.929 117.332 186.678H122.315ZM128.747 187.225C128.747 186.419 128.911 185.713 129.237 185.109C129.563 184.494 130.01 184.019 130.576 183.683C131.152 183.347 131.791 183.179 132.491 183.179C133.183 183.179 133.783 183.328 134.291 183.625C134.8 183.923 135.179 184.297 135.429 184.749V183.309H136.754V191.2H135.429V189.731C135.17 190.192 134.781 190.576 134.263 190.883C133.754 191.181 133.159 191.329 132.477 191.329C131.776 191.329 131.143 191.157 130.576 190.811C130.01 190.465 129.563 189.981 129.237 189.357C128.911 188.733 128.747 188.022 128.747 187.225ZM135.429 187.24C135.429 186.645 135.309 186.126 135.069 185.685C134.829 185.243 134.503 184.907 134.09 184.677C133.687 184.437 133.24 184.317 132.751 184.317C132.261 184.317 131.815 184.432 131.411 184.662C131.008 184.893 130.687 185.229 130.447 185.67C130.207 186.112 130.087 186.63 130.087 187.225C130.087 187.83 130.207 188.358 130.447 188.809C130.687 189.251 131.008 189.592 131.411 189.832C131.815 190.062 132.261 190.177 132.751 190.177C133.24 190.177 133.687 190.062 134.09 189.832C134.503 189.592 134.829 189.251 135.069 188.809C135.309 188.358 135.429 187.835 135.429 187.24ZM144.406 184.389V189.04C144.406 189.424 144.487 189.697 144.65 189.861C144.814 190.014 145.097 190.091 145.5 190.091H146.465V191.2H145.284C144.554 191.2 144.007 191.032 143.642 190.696C143.278 190.36 143.095 189.808 143.095 189.04V184.389H142.073V183.309H143.095V181.321H144.406V183.309H146.465V184.389H144.406ZM147.563 187.225C147.563 186.419 147.726 185.713 148.053 185.109C148.379 184.494 148.825 184.019 149.392 183.683C149.968 183.347 150.606 183.179 151.307 183.179C151.998 183.179 152.598 183.328 153.107 183.625C153.616 183.923 153.995 184.297 154.245 184.749V183.309H155.569V191.2H154.245V189.731C153.985 190.192 153.597 190.576 153.078 190.883C152.569 191.181 151.974 191.329 151.293 191.329C150.592 191.329 149.958 191.157 149.392 190.811C148.825 190.465 148.379 189.981 148.053 189.357C147.726 188.733 147.563 188.022 147.563 187.225ZM154.245 187.24C154.245 186.645 154.125 186.126 153.885 185.685C153.645 185.243 153.318 184.907 152.905 184.677C152.502 184.437 152.056 184.317 151.566 184.317C151.077 184.317 150.63 184.432 150.227 184.662C149.824 184.893 149.502 185.229 149.262 185.67C149.022 186.112 148.902 186.63 148.902 187.225C148.902 187.83 149.022 188.358 149.262 188.809C149.502 189.251 149.824 189.592 150.227 189.832C150.63 190.062 151.077 190.177 151.566 190.177C152.056 190.177 152.502 190.062 152.905 189.832C153.318 189.592 153.645 189.251 153.885 188.809C154.125 188.358 154.245 187.835 154.245 187.24ZM160.577 191.329C159.973 191.329 159.43 191.229 158.95 191.027C158.47 190.816 158.091 190.528 157.813 190.163C157.534 189.789 157.381 189.361 157.352 188.881H158.705C158.744 189.275 158.926 189.597 159.253 189.846C159.589 190.096 160.025 190.221 160.563 190.221C161.062 190.221 161.456 190.11 161.744 189.889C162.032 189.669 162.176 189.39 162.176 189.054C162.176 188.709 162.022 188.454 161.715 188.291C161.408 188.118 160.933 187.95 160.289 187.787C159.704 187.633 159.224 187.48 158.849 187.326C158.485 187.163 158.168 186.928 157.899 186.621C157.64 186.304 157.51 185.891 157.51 185.382C157.51 184.979 157.63 184.609 157.87 184.273C158.11 183.937 158.451 183.673 158.893 183.481C159.334 183.28 159.838 183.179 160.405 183.179C161.278 183.179 161.984 183.4 162.521 183.841C163.059 184.283 163.347 184.888 163.385 185.656H162.075C162.046 185.243 161.878 184.912 161.571 184.662C161.273 184.413 160.87 184.288 160.361 184.288C159.891 184.288 159.517 184.389 159.238 184.59C158.96 184.792 158.821 185.056 158.821 185.382C158.821 185.641 158.902 185.857 159.065 186.03C159.238 186.193 159.449 186.328 159.699 186.433C159.958 186.529 160.313 186.64 160.765 186.765C161.331 186.918 161.792 187.072 162.147 187.225C162.502 187.369 162.805 187.59 163.054 187.888C163.313 188.185 163.448 188.574 163.457 189.054C163.457 189.486 163.337 189.875 163.097 190.221C162.857 190.566 162.517 190.84 162.075 191.041C161.643 191.233 161.144 191.329 160.577 191.329ZM169.714 191.2L166.618 187.715V191.2H165.307V180.544H166.618V186.808L169.656 183.309H171.485L167.77 187.24L171.499 191.2H169.714ZM179.999 191.329C179.26 191.329 178.588 191.161 177.983 190.825C177.388 190.489 176.917 190.014 176.572 189.4C176.236 188.776 176.068 188.056 176.068 187.24C176.068 186.433 176.24 185.723 176.586 185.109C176.941 184.485 177.421 184.009 178.026 183.683C178.631 183.347 179.308 183.179 180.056 183.179C180.805 183.179 181.482 183.347 182.087 183.683C182.692 184.009 183.167 184.48 183.512 185.094C183.868 185.709 184.045 186.424 184.045 187.24C184.045 188.056 183.863 188.776 183.498 189.4C183.143 190.014 182.658 190.489 182.044 190.825C181.429 191.161 180.748 191.329 179.999 191.329ZM179.999 190.177C180.469 190.177 180.911 190.067 181.324 189.846C181.736 189.625 182.068 189.294 182.317 188.853C182.576 188.411 182.706 187.873 182.706 187.24C182.706 186.606 182.581 186.069 182.332 185.627C182.082 185.185 181.756 184.859 181.352 184.648C180.949 184.427 180.512 184.317 180.042 184.317C179.562 184.317 179.12 184.427 178.717 184.648C178.324 184.859 178.007 185.185 177.767 185.627C177.527 186.069 177.407 186.606 177.407 187.24C177.407 187.883 177.522 188.425 177.752 188.867C177.992 189.309 178.309 189.64 178.703 189.861C179.096 190.072 179.528 190.177 179.999 190.177ZM187.079 184.59C187.309 184.139 187.635 183.789 188.058 183.539C188.49 183.289 189.013 183.165 189.627 183.165V184.518H189.282C187.813 184.518 187.079 185.315 187.079 186.909V191.2H185.768V183.309H187.079V184.59ZM194.49 187.225C194.49 186.419 194.653 185.713 194.979 185.109C195.306 184.494 195.752 184.019 196.318 183.683C196.894 183.347 197.533 183.179 198.234 183.179C198.925 183.179 199.525 183.328 200.034 183.625C200.542 183.923 200.922 184.297 201.171 184.749V183.309H202.496V191.2H201.171V189.731C200.912 190.192 200.523 190.576 200.005 190.883C199.496 191.181 198.901 191.329 198.219 191.329C197.518 191.329 196.885 191.157 196.318 190.811C195.752 190.465 195.306 189.981 194.979 189.357C194.653 188.733 194.49 188.022 194.49 187.225ZM201.171 187.24C201.171 186.645 201.051 186.126 200.811 185.685C200.571 185.243 200.245 184.907 199.832 184.677C199.429 184.437 198.982 184.317 198.493 184.317C198.003 184.317 197.557 184.432 197.154 184.662C196.75 184.893 196.429 185.229 196.189 185.67C195.949 186.112 195.829 186.63 195.829 187.225C195.829 187.83 195.949 188.358 196.189 188.809C196.429 189.251 196.75 189.592 197.154 189.832C197.557 190.062 198.003 190.177 198.493 190.177C198.982 190.177 199.429 190.062 199.832 189.832C200.245 189.592 200.571 189.251 200.811 188.809C201.051 188.358 201.171 187.835 201.171 187.24ZM204.221 187.24C204.221 186.424 204.384 185.713 204.71 185.109C205.037 184.494 205.488 184.019 206.064 183.683C206.65 183.347 207.317 183.179 208.066 183.179C209.035 183.179 209.832 183.414 210.456 183.885C211.09 184.355 211.507 185.008 211.709 185.843H210.298C210.163 185.363 209.899 184.984 209.506 184.705C209.122 184.427 208.642 184.288 208.066 184.288C207.317 184.288 206.712 184.547 206.251 185.065C205.79 185.574 205.56 186.299 205.56 187.24C205.56 188.19 205.79 188.925 206.251 189.443C206.712 189.961 207.317 190.221 208.066 190.221C208.642 190.221 209.122 190.086 209.506 189.817C209.89 189.549 210.154 189.165 210.298 188.665H211.709C211.498 189.472 211.075 190.12 210.442 190.609C209.808 191.089 209.016 191.329 208.066 191.329C207.317 191.329 206.65 191.161 206.064 190.825C205.488 190.489 205.037 190.014 204.71 189.4C204.384 188.785 204.221 188.065 204.221 187.24ZM217.374 183.165C217.969 183.165 218.507 183.294 218.987 183.553C219.467 183.803 219.841 184.182 220.11 184.691C220.388 185.2 220.528 185.819 220.528 186.549V191.2H219.232V186.736C219.232 185.949 219.035 185.349 218.641 184.936C218.248 184.513 217.71 184.302 217.028 184.302C216.337 184.302 215.785 184.518 215.372 184.95C214.969 185.382 214.768 186.011 214.768 186.837V191.2H213.457V180.544H214.768V184.432C215.027 184.029 215.382 183.717 215.833 183.496C216.294 183.275 216.808 183.165 217.374 183.165ZM223.345 182.027C223.095 182.027 222.884 181.941 222.711 181.768C222.539 181.595 222.452 181.384 222.452 181.134C222.452 180.885 222.539 180.673 222.711 180.501C222.884 180.328 223.095 180.241 223.345 180.241C223.585 180.241 223.787 180.328 223.95 180.501C224.123 180.673 224.209 180.885 224.209 181.134C224.209 181.384 224.123 181.595 223.95 181.768C223.787 181.941 223.585 182.027 223.345 182.027ZM223.979 183.309V191.2H222.668V183.309H223.979ZM233.412 186.952C233.412 187.201 233.398 187.465 233.369 187.744H227.062C227.11 188.521 227.374 189.131 227.854 189.573C228.343 190.005 228.934 190.221 229.625 190.221C230.191 190.221 230.662 190.091 231.036 189.832C231.42 189.563 231.689 189.208 231.842 188.766H233.254C233.042 189.525 232.62 190.144 231.986 190.624C231.353 191.094 230.566 191.329 229.625 191.329C228.876 191.329 228.204 191.161 227.609 190.825C227.023 190.489 226.562 190.014 226.226 189.4C225.89 188.776 225.722 188.056 225.722 187.24C225.722 186.424 225.886 185.709 226.212 185.094C226.538 184.48 226.994 184.009 227.58 183.683C228.175 183.347 228.857 183.179 229.625 183.179C230.374 183.179 231.036 183.342 231.612 183.669C232.188 183.995 232.63 184.446 232.937 185.022C233.254 185.589 233.412 186.232 233.412 186.952ZM232.058 186.678C232.058 186.179 231.948 185.752 231.727 185.397C231.506 185.032 231.204 184.758 230.82 184.576C230.446 184.384 230.028 184.288 229.567 184.288C228.905 184.288 228.338 184.499 227.868 184.921C227.407 185.344 227.143 185.929 227.076 186.678H232.058ZM238.079 189.99L240.527 183.309H241.924L238.828 191.2H237.302L234.206 183.309H235.617L238.079 189.99ZM250.414 186.952C250.414 187.201 250.399 187.465 250.37 187.744H244.063C244.111 188.521 244.375 189.131 244.855 189.573C245.345 190.005 245.935 190.221 246.626 190.221C247.193 190.221 247.663 190.091 248.038 189.832C248.422 189.563 248.69 189.208 248.844 188.766H250.255C250.044 189.525 249.622 190.144 248.988 190.624C248.354 191.094 247.567 191.329 246.626 191.329C245.878 191.329 245.206 191.161 244.61 190.825C244.025 190.489 243.564 190.014 243.228 189.4C242.892 188.776 242.724 188.056 242.724 187.24C242.724 186.424 242.887 185.709 243.214 185.094C243.54 184.48 243.996 184.009 244.582 183.683C245.177 183.347 245.858 183.179 246.626 183.179C247.375 183.179 248.038 183.342 248.614 183.669C249.19 183.995 249.631 184.446 249.938 185.022C250.255 185.589 250.414 186.232 250.414 186.952ZM249.06 186.678C249.06 186.179 248.95 185.752 248.729 185.397C248.508 185.032 248.206 184.758 247.822 184.576C247.447 184.384 247.03 184.288 246.569 184.288C245.906 184.288 245.34 184.499 244.87 184.921C244.409 185.344 244.145 185.929 244.078 186.678H249.06ZM255.493 187.225C255.493 186.419 255.656 185.713 255.982 185.109C256.309 184.494 256.755 184.019 257.322 183.683C257.898 183.347 258.536 183.179 259.237 183.179C259.928 183.179 260.528 183.328 261.037 183.625C261.546 183.923 261.925 184.297 262.174 184.749V183.309H263.499V191.2H262.174V189.731C261.915 190.192 261.526 190.576 261.008 190.883C260.499 191.181 259.904 191.329 259.222 191.329C258.522 191.329 257.888 191.157 257.322 190.811C256.755 190.465 256.309 189.981 255.982 189.357C255.656 188.733 255.493 188.022 255.493 187.225ZM262.174 187.24C262.174 186.645 262.054 186.126 261.814 185.685C261.574 185.243 261.248 184.907 260.835 184.677C260.432 184.437 259.986 184.317 259.496 184.317C259.006 184.317 258.56 184.432 258.157 184.662C257.754 184.893 257.432 185.229 257.192 185.67C256.952 186.112 256.832 186.63 256.832 187.225C256.832 187.83 256.952 188.358 257.192 188.809C257.432 189.251 257.754 189.592 258.157 189.832C258.56 190.062 259.006 190.177 259.496 190.177C259.986 190.177 260.432 190.062 260.835 189.832C261.248 189.592 261.574 189.251 261.814 188.809C262.054 188.358 262.174 187.835 262.174 187.24ZM272.807 183.179C273.489 183.179 274.084 183.328 274.593 183.625C275.111 183.923 275.495 184.297 275.745 184.749V183.309H277.069V191.373C277.069 192.093 276.916 192.731 276.609 193.288C276.301 193.854 275.86 194.296 275.284 194.613C274.717 194.929 274.055 195.088 273.297 195.088C272.26 195.088 271.396 194.843 270.705 194.353C270.013 193.864 269.605 193.197 269.481 192.352H270.777C270.921 192.832 271.218 193.216 271.669 193.504C272.121 193.801 272.663 193.95 273.297 193.95C274.017 193.95 274.602 193.725 275.053 193.273C275.514 192.822 275.745 192.189 275.745 191.373V189.717C275.485 190.177 275.101 190.561 274.593 190.869C274.084 191.176 273.489 191.329 272.807 191.329C272.106 191.329 271.468 191.157 270.892 190.811C270.325 190.465 269.879 189.981 269.553 189.357C269.226 188.733 269.063 188.022 269.063 187.225C269.063 186.419 269.226 185.713 269.553 185.109C269.879 184.494 270.325 184.019 270.892 183.683C271.468 183.347 272.106 183.179 272.807 183.179ZM275.745 187.24C275.745 186.645 275.625 186.126 275.385 185.685C275.145 185.243 274.818 184.907 274.405 184.677C274.002 184.437 273.556 184.317 273.066 184.317C272.577 184.317 272.13 184.432 271.727 184.662C271.324 184.893 271.002 185.229 270.762 185.67C270.522 186.112 270.402 186.63 270.402 187.225C270.402 187.83 270.522 188.358 270.762 188.809C271.002 189.251 271.324 189.592 271.727 189.832C272.13 190.062 272.577 190.177 273.066 190.177C273.556 190.177 274.002 190.062 274.405 189.832C274.818 189.592 275.145 189.251 275.385 188.809C275.625 188.358 275.745 187.835 275.745 187.24ZM282.725 191.329C281.986 191.329 281.314 191.161 280.709 190.825C280.114 190.489 279.644 190.014 279.298 189.4C278.962 188.776 278.794 188.056 278.794 187.24C278.794 186.433 278.967 185.723 279.313 185.109C279.668 184.485 280.148 184.009 280.753 183.683C281.357 183.347 282.034 183.179 282.783 183.179C283.532 183.179 284.209 183.347 284.813 183.683C285.418 184.009 285.893 184.48 286.239 185.094C286.594 185.709 286.772 186.424 286.772 187.24C286.772 188.056 286.589 188.776 286.225 189.4C285.869 190.014 285.385 190.489 284.77 190.825C284.156 191.161 283.474 191.329 282.725 191.329ZM282.725 190.177C283.196 190.177 283.637 190.067 284.05 189.846C284.463 189.625 284.794 189.294 285.044 188.853C285.303 188.411 285.433 187.873 285.433 187.24C285.433 186.606 285.308 186.069 285.058 185.627C284.809 185.185 284.482 184.859 284.079 184.648C283.676 184.427 283.239 184.317 282.769 184.317C282.289 184.317 281.847 184.427 281.444 184.648C281.05 184.859 280.733 185.185 280.493 185.627C280.253 186.069 280.133 186.606 280.133 187.24C280.133 187.883 280.249 188.425 280.479 188.867C280.719 189.309 281.036 189.64 281.429 189.861C281.823 190.072 282.255 190.177 282.725 190.177ZM288.005 187.225C288.005 186.419 288.168 185.713 288.495 185.109C288.821 184.494 289.268 184.019 289.834 183.683C290.41 183.347 291.048 183.179 291.749 183.179C292.44 183.179 293.04 183.328 293.549 183.625C294.058 183.923 294.437 184.297 294.687 184.749V183.309H296.012V191.2H294.687V189.731C294.428 190.192 294.039 190.576 293.52 190.883C293.012 191.181 292.416 191.329 291.735 191.329C291.034 191.329 290.4 191.157 289.834 190.811C289.268 190.465 288.821 189.981 288.495 189.357C288.168 188.733 288.005 188.022 288.005 187.225ZM294.687 187.24C294.687 186.645 294.567 186.126 294.327 185.685C294.087 185.243 293.76 184.907 293.348 184.677C292.944 184.437 292.498 184.317 292.008 184.317C291.519 184.317 291.072 184.432 290.669 184.662C290.266 184.893 289.944 185.229 289.704 185.67C289.464 186.112 289.344 186.63 289.344 187.225C289.344 187.83 289.464 188.358 289.704 188.809C289.944 189.251 290.266 189.592 290.669 189.832C291.072 190.062 291.519 190.177 292.008 190.177C292.498 190.177 292.944 190.062 293.348 189.832C293.76 189.592 294.087 189.251 294.327 188.809C294.567 188.358 294.687 187.835 294.687 187.24ZM299.536 180.544V191.2H298.226V180.544H299.536ZM302.187 191.286C301.938 191.286 301.727 191.2 301.554 191.027C301.381 190.854 301.295 190.643 301.295 190.393C301.295 190.144 301.381 189.933 301.554 189.76C301.727 189.587 301.938 189.501 302.187 189.501C302.427 189.501 302.629 189.587 302.792 189.76C302.965 189.933 303.051 190.144 303.051 190.393C303.051 190.643 302.965 190.854 302.792 191.027C302.629 191.2 302.427 191.286 302.187 191.286Z" fill="#5A7184"/>
</svg>
