<svg width="177" height="177" viewBox="0 0 177 177" fill="none" xmlns="http://www.w3.org/2000/svg">
<g id="Icon">
<g id="Border" opacity="0.06">
<rect id="Shape" x="1.80029" y="2.39941" width="172.8" height="172.8" rx="14.4" fill="#108824"/>
</g>
<g id="Workflow">
<path id="path" fill-rule="evenodd" clip-rule="evenodd" d="M89.0115 62.0134H67.8429V55.5849H89.0115L85.9272 52.5006C84.672 51.2453 84.672 49.2101 85.9272 47.9549C87.1825 46.6996 89.2176 46.6996 90.4729 47.9549L99.0443 56.5263C100.3 57.7816 100.3 59.8167 99.0443 61.072L90.4729 69.6434C89.2176 70.8987 87.1825 70.8987 85.9272 69.6434C84.672 68.3882 84.672 66.353 85.9272 65.0977L89.0115 62.0134ZM124.499 86.5263L121.414 89.6106V68.442H114.986V89.6106L111.901 86.5263C110.646 85.271 108.611 85.271 107.356 86.5263C106.101 87.7815 106.101 89.8167 107.356 91.072L115.927 99.6434C116.555 100.271 117.377 100.585 118.2 100.585C119.023 100.585 119.845 100.271 120.473 99.6434L129.044 91.072C130.3 89.8167 130.3 87.7815 129.044 86.5263C127.789 85.271 125.754 85.271 124.499 86.5263ZM90.4729 125.098L87.3886 122.013H108.557V115.585H87.3886L90.4729 112.501C91.7281 111.245 91.7281 109.21 90.4729 107.955C89.2176 106.7 87.1824 106.7 85.9272 107.955L77.3557 116.526C76.1005 117.782 76.1005 119.817 77.3557 121.072L85.9272 129.643C87.1824 130.899 89.2176 130.899 90.4729 129.643C91.7281 128.388 91.7281 126.353 90.4729 125.098ZM51.9014 91.072L54.9857 87.9877V109.156H61.4143V87.9877L64.4986 91.072C65.7539 92.3272 67.789 92.3272 69.0443 91.072C70.2995 89.8167 70.2995 87.7816 69.0443 86.5263L60.4729 77.9549C59.2176 76.6996 57.1824 76.6996 55.9272 77.9549L47.3557 86.5263C46.1005 87.7816 46.1005 89.8167 47.3557 91.072C48.611 92.3272 50.6462 92.3272 51.9014 91.072Z" fill="#B4CCEF"/>
<path id="path_2" fill-rule="evenodd" clip-rule="evenodd" d="M73.2004 67.371V50.2281C73.2004 46.6777 70.3223 43.7996 66.7719 43.7996H49.629C46.0786 43.7996 43.2004 46.6777 43.2004 50.2281V67.371C43.2004 70.9214 46.0786 73.7996 49.629 73.7996H66.7719C70.3223 73.7996 73.2004 70.9214 73.2004 67.371ZM66.7719 103.8H49.629C46.0786 103.8 43.2004 106.678 43.2004 110.228V127.371C43.2004 130.921 46.0786 133.8 49.629 133.8H66.7719C70.3223 133.8 73.2004 130.921 73.2004 127.371V110.228C73.2004 106.678 70.3223 103.8 66.7719 103.8ZM126.772 73.7996H109.629C106.079 73.7996 103.2 70.9214 103.2 67.371V50.2281C103.2 46.6777 106.079 43.7996 109.629 43.7996H126.772C130.322 43.7996 133.2 46.6777 133.2 50.2281V67.371C133.2 70.9214 130.322 73.7996 126.772 73.7996ZM103.2 110.228V127.371C103.2 130.921 106.079 133.8 109.629 133.8H126.772C130.322 133.8 133.2 130.921 133.2 127.371V110.228C133.2 106.678 130.322 103.8 126.772 103.8H109.629C106.079 103.8 103.2 106.678 103.2 110.228Z" fill="#108824"/>
</g>
</g>
</svg>
