<svg width="359" height="199" viewBox="0 0 359 199" fill="none" xmlns="http://www.w3.org/2000/svg">
<g opacity="0.06">
<rect x="150.8" y="-0.00012207" width="57.6" height="57.6" rx="14.4" fill="#FF7F5D"/>
</g>
<path d="M184.6 35.2285V41.6571C184.6 42.8405 183.641 43.7999 182.457 43.7999H166.743C165.559 43.7999 164.6 42.8405 164.6 41.6571V25.9428C164.6 24.7593 165.559 23.7999 166.743 23.7999H173.171V31.6571C173.171 33.6295 174.77 35.2285 176.743 35.2285H184.6Z" fill="#B4CCEF"/>
<path fill-rule="evenodd" clip-rule="evenodd" d="M176.743 13.7999H192.457C193.641 13.7999 194.6 14.7593 194.6 15.9428V31.6571C194.6 32.8405 193.641 33.7999 192.457 33.7999H176.743C175.559 33.7999 174.6 32.8405 174.6 31.6571V15.9428C174.6 14.7593 175.559 13.7999 176.743 13.7999Z" fill="#FF7F5D"/>
<path d="M143.248 90.7639V103.4H140.17V90.7639H143.248ZM151.779 93.2479C152.955 93.2479 153.891 93.6319 154.587 94.3999C155.295 95.1559 155.649 96.1999 155.649 97.5319V103.4H152.589V97.9459C152.589 97.2739 152.415 96.7519 152.067 96.3799C151.719 96.0079 151.251 95.8219 150.663 95.8219C150.075 95.8219 149.607 96.0079 149.259 96.3799C148.911 96.7519 148.737 97.2739 148.737 97.9459V103.4H145.659V93.3559H148.737V94.6879C149.049 94.2439 149.469 93.8959 149.997 93.6439C150.525 93.3799 151.119 93.2479 151.779 93.2479ZM163.566 100.79V103.4H162C160.884 103.4 160.014 103.13 159.39 102.59C158.766 102.038 158.454 101.144 158.454 99.9079V95.9119H157.23V93.3559H158.454V90.9079H161.532V93.3559H163.548V95.9119H161.532V99.9439C161.532 100.244 161.604 100.46 161.748 100.592C161.892 100.724 162.132 100.79 162.468 100.79H163.566ZM174.928 98.2159C174.928 98.5039 174.91 98.8039 174.874 99.1159H167.908C167.956 99.7399 168.154 100.22 168.502 100.556C168.862 100.88 169.3 101.042 169.816 101.042C170.584 101.042 171.118 100.718 171.418 100.07H174.694C174.526 100.73 174.22 101.324 173.776 101.852C173.344 102.38 172.798 102.794 172.138 103.094C171.478 103.394 170.74 103.544 169.924 103.544C168.94 103.544 168.064 103.334 167.296 102.914C166.528 102.494 165.928 101.894 165.496 101.114C165.064 100.334 164.848 99.4219 164.848 98.3779C164.848 97.3339 165.058 96.4219 165.478 95.6419C165.91 94.8619 166.51 94.2619 167.278 93.8419C168.046 93.4219 168.928 93.2119 169.924 93.2119C170.896 93.2119 171.76 93.4159 172.516 93.8239C173.272 94.2319 173.86 94.8139 174.28 95.5699C174.712 96.3259 174.928 97.2079 174.928 98.2159ZM171.778 97.4059C171.778 96.8779 171.598 96.4579 171.238 96.1459C170.878 95.8339 170.428 95.6779 169.888 95.6779C169.372 95.6779 168.934 95.8279 168.574 96.1279C168.226 96.4279 168.01 96.8539 167.926 97.4059H171.778ZM180.548 93.2119C181.256 93.2119 181.874 93.3559 182.402 93.6439C182.942 93.9319 183.356 94.3099 183.644 94.7779V93.3559H186.722V103.382C186.722 104.306 186.536 105.14 186.164 105.884C185.804 106.64 185.246 107.24 184.49 107.684C183.746 108.128 182.816 108.35 181.7 108.35C180.212 108.35 179.006 107.996 178.082 107.288C177.158 106.592 176.63 105.644 176.498 104.444H179.54C179.636 104.828 179.864 105.128 180.224 105.344C180.584 105.572 181.028 105.686 181.556 105.686C182.192 105.686 182.696 105.5 183.068 105.128C183.452 104.768 183.644 104.186 183.644 103.382V101.96C183.344 102.428 182.93 102.812 182.402 103.112C181.874 103.4 181.256 103.544 180.548 103.544C179.72 103.544 178.97 103.334 178.298 102.914C177.626 102.482 177.092 101.876 176.696 101.096C176.312 100.304 176.12 99.3919 176.12 98.3599C176.12 97.3279 176.312 96.4219 176.696 95.6419C177.092 94.8619 177.626 94.2619 178.298 93.8419C178.97 93.4219 179.72 93.2119 180.548 93.2119ZM183.644 98.3779C183.644 97.6099 183.428 97.0039 182.996 96.5599C182.576 96.1159 182.06 95.8939 181.448 95.8939C180.836 95.8939 180.314 96.1159 179.882 96.5599C179.462 96.9919 179.252 97.5919 179.252 98.3599C179.252 99.1279 179.462 99.7399 179.882 100.196C180.314 100.64 180.836 100.862 181.448 100.862C182.06 100.862 182.576 100.64 182.996 100.196C183.428 99.7519 183.644 99.1459 183.644 98.3779ZM192.207 95.0299C192.567 94.4779 193.017 94.0459 193.557 93.7339C194.097 93.4099 194.697 93.2479 195.357 93.2479V96.5059H194.511C193.743 96.5059 193.167 96.6739 192.783 97.0099C192.399 97.3339 192.207 97.9099 192.207 98.7379V103.4H189.129V93.3559H192.207V95.0299ZM198.556 92.3119C198.016 92.3119 197.572 92.1559 197.224 91.8439C196.888 91.5199 196.72 91.1239 196.72 90.6559C196.72 90.1759 196.888 89.7799 197.224 89.4679C197.572 89.1439 198.016 88.9819 198.556 88.9819C199.084 88.9819 199.516 89.1439 199.852 89.4679C200.2 89.7799 200.374 90.1759 200.374 90.6559C200.374 91.1239 200.2 91.5199 199.852 91.8439C199.516 92.1559 199.084 92.3119 198.556 92.3119ZM200.086 93.3559V103.4H197.008V93.3559H200.086ZM208.094 100.79V103.4H206.528C205.412 103.4 204.542 103.13 203.918 102.59C203.294 102.038 202.982 101.144 202.982 99.9079V95.9119H201.758V93.3559H202.982V90.9079H206.06V93.3559H208.076V95.9119H206.06V99.9439C206.06 100.244 206.132 100.46 206.276 100.592C206.42 100.724 206.66 100.79 206.996 100.79H208.094ZM220.249 93.3559L213.949 108.17H210.637L212.941 103.058L208.855 93.3559H212.293L214.615 99.6379L216.919 93.3559H220.249Z" fill="#11145A"/>
<path d="M12.7068 130.363V140.4H11.3964V130.363H12.7068ZM18.7849 132.365C19.7449 132.365 20.5225 132.658 21.1177 133.243C21.7129 133.819 22.0105 134.654 22.0105 135.749V140.4H20.7145V135.936C20.7145 135.149 20.5177 134.549 20.1241 134.136C19.7305 133.714 19.1929 133.502 18.5113 133.502C17.8201 133.502 17.2681 133.718 16.8553 134.15C16.4521 134.582 16.2505 135.211 16.2505 136.037V140.4H14.9401V132.509H16.2505V133.632C16.5097 133.229 16.8601 132.917 17.3017 132.696C17.7529 132.475 18.2473 132.365 18.7849 132.365ZM25.7495 133.589V138.24C25.7495 138.624 25.8311 138.898 25.9943 139.061C26.1575 139.214 26.4407 139.291 26.8439 139.291H27.8087V140.4H26.6279C25.8983 140.4 25.3511 140.232 24.9863 139.896C24.6215 139.56 24.4391 139.008 24.4391 138.24V133.589H23.4167V132.509H24.4391V130.522H25.7495V132.509H27.8087V133.589H25.7495ZM36.5964 136.152C36.5964 136.402 36.582 136.666 36.5532 136.944H30.246C30.294 137.722 30.558 138.331 31.038 138.773C31.5276 139.205 32.118 139.421 32.8092 139.421C33.3756 139.421 33.846 139.291 34.2204 139.032C34.6044 138.763 34.8732 138.408 35.0268 137.966H36.438C36.2268 138.725 35.8044 139.344 35.1708 139.824C34.5372 140.294 33.75 140.53 32.8092 140.53C32.0604 140.53 31.3884 140.362 30.7932 140.026C30.2076 139.69 29.7468 139.214 29.4108 138.6C29.0748 137.976 28.9068 137.256 28.9068 136.44C28.9068 135.624 29.07 134.909 29.3964 134.294C29.7228 133.68 30.1788 133.21 30.7644 132.883C31.3596 132.547 32.0412 132.379 32.8092 132.379C33.558 132.379 34.2204 132.542 34.7964 132.869C35.3724 133.195 35.814 133.646 36.1212 134.222C36.438 134.789 36.5964 135.432 36.5964 136.152ZM35.2428 135.878C35.2428 135.379 35.1324 134.952 34.9116 134.597C34.6908 134.232 34.3884 133.958 34.0044 133.776C33.63 133.584 33.2124 133.488 32.7516 133.488C32.0892 133.488 31.5228 133.699 31.0524 134.122C30.5916 134.544 30.3276 135.13 30.2604 135.878H35.2428ZM41.5805 132.379C42.2621 132.379 42.8573 132.528 43.3661 132.826C43.8845 133.123 44.2685 133.498 44.5181 133.949V132.509H45.8429V140.573C45.8429 141.293 45.6893 141.931 45.3821 142.488C45.0749 143.054 44.6333 143.496 44.0573 143.813C43.4909 144.13 42.8285 144.288 42.0701 144.288C41.0333 144.288 40.1693 144.043 39.4781 143.554C38.7869 143.064 38.3789 142.397 38.2541 141.552H39.5501C39.6941 142.032 39.9917 142.416 40.4429 142.704C40.8941 143.002 41.4365 143.15 42.0701 143.15C42.7901 143.15 43.3757 142.925 43.8269 142.474C44.2877 142.022 44.5181 141.389 44.5181 140.573V138.917C44.2589 139.378 43.8749 139.762 43.3661 140.069C42.8573 140.376 42.2621 140.53 41.5805 140.53C40.8797 140.53 40.2413 140.357 39.6653 140.011C39.0989 139.666 38.6525 139.181 38.3261 138.557C37.9997 137.933 37.8365 137.222 37.8365 136.426C37.8365 135.619 37.9997 134.914 38.3261 134.309C38.6525 133.694 39.0989 133.219 39.6653 132.883C40.2413 132.547 40.8797 132.379 41.5805 132.379ZM44.5181 136.44C44.5181 135.845 44.3981 135.326 44.1581 134.885C43.9181 134.443 43.5917 134.107 43.1789 133.877C42.7757 133.637 42.3293 133.517 41.8397 133.517C41.3501 133.517 40.9037 133.632 40.5005 133.862C40.0973 134.093 39.7757 134.429 39.5357 134.87C39.2957 135.312 39.1757 135.83 39.1757 136.426C39.1757 137.03 39.2957 137.558 39.5357 138.01C39.7757 138.451 40.0973 138.792 40.5005 139.032C40.9037 139.262 41.3501 139.378 41.8397 139.378C42.3293 139.378 42.7757 139.262 43.1789 139.032C43.5917 138.792 43.9181 138.451 44.1581 138.01C44.3981 137.558 44.5181 137.035 44.5181 136.44ZM49.3677 133.79C49.5981 133.339 49.9245 132.989 50.3469 132.739C50.7789 132.49 51.3021 132.365 51.9165 132.365V133.718H51.5709C50.1021 133.718 49.3677 134.515 49.3677 136.109V140.4H48.0573V132.509H49.3677V133.79ZM54.106 131.227C53.8564 131.227 53.6452 131.141 53.4724 130.968C53.2996 130.795 53.2132 130.584 53.2132 130.334C53.2132 130.085 53.2996 129.874 53.4724 129.701C53.6452 129.528 53.8564 129.442 54.106 129.442C54.346 129.442 54.5476 129.528 54.7108 129.701C54.8836 129.874 54.97 130.085 54.97 130.334C54.97 130.584 54.8836 130.795 54.7108 130.968C54.5476 131.141 54.346 131.227 54.106 131.227ZM54.7396 132.509V140.4H53.4292V132.509H54.7396ZM58.5713 133.589V138.24C58.5713 138.624 58.6529 138.898 58.8161 139.061C58.9793 139.214 59.2625 139.291 59.6657 139.291H60.6305V140.4H59.4497C58.7201 140.4 58.1729 140.232 57.8081 139.896C57.4433 139.56 57.2609 139.008 57.2609 138.24V133.589H56.2385V132.509H57.2609V130.522H58.5713V132.509H60.6305V133.589H58.5713ZM69.015 132.509L64.263 144.115H62.9094L64.4646 140.314L61.2822 132.509H62.7366L65.2134 138.902L67.6614 132.509H69.015ZM74.8482 131.227C74.5986 131.227 74.3874 131.141 74.2146 130.968C74.0418 130.795 73.9554 130.584 73.9554 130.334C73.9554 130.085 74.0418 129.874 74.2146 129.701C74.3874 129.528 74.5986 129.442 74.8482 129.442C75.0882 129.442 75.2898 129.528 75.453 129.701C75.6258 129.874 75.7122 130.085 75.7122 130.334C75.7122 130.584 75.6258 130.795 75.453 130.968C75.2898 131.141 75.0882 131.227 74.8482 131.227ZM75.4818 132.509V140.4H74.1714V132.509H75.4818ZM80.5087 140.53C79.9039 140.53 79.3615 140.429 78.8815 140.227C78.4015 140.016 78.0223 139.728 77.7439 139.363C77.4655 138.989 77.3119 138.562 77.2831 138.082H78.6367C78.6751 138.475 78.8575 138.797 79.1839 139.046C79.5199 139.296 79.9567 139.421 80.4943 139.421C80.9935 139.421 81.3871 139.31 81.6751 139.09C81.9631 138.869 82.1071 138.59 82.1071 138.254C82.1071 137.909 81.9535 137.654 81.6463 137.491C81.3391 137.318 80.8639 137.15 80.2207 136.987C79.6351 136.834 79.1551 136.68 78.7807 136.526C78.4159 136.363 78.0991 136.128 77.8303 135.821C77.5711 135.504 77.4415 135.091 77.4415 134.582C77.4415 134.179 77.5615 133.81 77.8015 133.474C78.0415 133.138 78.3823 132.874 78.8239 132.682C79.2655 132.48 79.7695 132.379 80.3359 132.379C81.2095 132.379 81.9151 132.6 82.4527 133.042C82.9903 133.483 83.2783 134.088 83.3167 134.856H82.0063C81.9775 134.443 81.8095 134.112 81.5023 133.862C81.2047 133.613 80.8015 133.488 80.2927 133.488C79.8223 133.488 79.4479 133.589 79.1695 133.79C78.8911 133.992 78.7519 134.256 78.7519 134.582C78.7519 134.842 78.8335 135.058 78.9967 135.23C79.1695 135.394 79.3807 135.528 79.6303 135.634C79.8895 135.73 80.2447 135.84 80.6959 135.965C81.2623 136.118 81.7231 136.272 82.0783 136.426C82.4335 136.57 82.7359 136.79 82.9855 137.088C83.2447 137.386 83.3791 137.774 83.3887 138.254C83.3887 138.686 83.2687 139.075 83.0287 139.421C82.7887 139.766 82.4479 140.04 82.0063 140.242C81.5743 140.434 81.0751 140.53 80.5087 140.53ZM90.676 133.589V138.24C90.676 138.624 90.7576 138.898 90.9208 139.061C91.084 139.214 91.3672 139.291 91.7704 139.291H92.7352V140.4H91.5544C90.8248 140.4 90.2776 140.232 89.9128 139.896C89.548 139.56 89.3656 139.008 89.3656 138.24V133.589H88.3432V132.509H89.3656V130.522H90.676V132.509H92.7352V133.589H90.676ZM98.2397 132.365C98.8349 132.365 99.3725 132.494 99.8525 132.754C100.333 133.003 100.707 133.382 100.976 133.891C101.254 134.4 101.393 135.019 101.393 135.749V140.4H100.097V135.936C100.097 135.149 99.9005 134.549 99.5069 134.136C99.1133 133.714 98.5757 133.502 97.8941 133.502C97.2029 133.502 96.6509 133.718 96.2381 134.15C95.8349 134.582 95.6333 135.211 95.6333 136.037V140.4H94.3229V129.744H95.6333V133.632C95.8925 133.229 96.2477 132.917 96.6989 132.696C97.1597 132.475 97.6733 132.365 98.2397 132.365ZM110.734 136.152C110.734 136.402 110.719 136.666 110.691 136.944H104.383C104.431 137.722 104.695 138.331 105.175 138.773C105.665 139.205 106.255 139.421 106.947 139.421C107.513 139.421 107.983 139.291 108.358 139.032C108.742 138.763 109.011 138.408 109.164 137.966H110.575C110.364 138.725 109.942 139.344 109.308 139.824C108.675 140.294 107.887 140.53 106.947 140.53C106.198 140.53 105.526 140.362 104.931 140.026C104.345 139.69 103.884 139.214 103.548 138.6C103.212 137.976 103.044 137.256 103.044 136.44C103.044 135.624 103.207 134.909 103.534 134.294C103.86 133.68 104.316 133.21 104.902 132.883C105.497 132.547 106.179 132.379 106.947 132.379C107.695 132.379 108.358 132.542 108.934 132.869C109.51 133.195 109.951 133.646 110.259 134.222C110.575 134.789 110.734 135.432 110.734 136.152ZM109.38 135.878C109.38 135.379 109.27 134.952 109.049 134.597C108.828 134.232 108.526 133.958 108.142 133.776C107.767 133.584 107.35 133.488 106.889 133.488C106.227 133.488 105.66 133.699 105.19 134.122C104.729 134.544 104.465 135.13 104.398 135.878H109.38ZM117.613 133.963C117.872 133.512 118.256 133.138 118.765 132.84C119.283 132.533 119.883 132.379 120.565 132.379C121.266 132.379 121.899 132.547 122.466 132.883C123.042 133.219 123.493 133.694 123.819 134.309C124.146 134.914 124.309 135.619 124.309 136.426C124.309 137.222 124.146 137.933 123.819 138.557C123.493 139.181 123.042 139.666 122.466 140.011C121.899 140.357 121.266 140.53 120.565 140.53C119.893 140.53 119.298 140.381 118.779 140.083C118.271 139.776 117.882 139.397 117.613 138.946V144.144H116.303V132.509H117.613V133.963ZM122.97 136.426C122.97 135.83 122.85 135.312 122.61 134.87C122.37 134.429 122.043 134.093 121.631 133.862C121.227 133.632 120.781 133.517 120.291 133.517C119.811 133.517 119.365 133.637 118.952 133.877C118.549 134.107 118.223 134.448 117.973 134.899C117.733 135.341 117.613 135.854 117.613 136.44C117.613 137.035 117.733 137.558 117.973 138.01C118.223 138.451 118.549 138.792 118.952 139.032C119.365 139.262 119.811 139.378 120.291 139.378C120.781 139.378 121.227 139.262 121.631 139.032C122.043 138.792 122.37 138.451 122.61 138.01C122.85 137.558 122.97 137.03 122.97 136.426ZM127.344 133.79C127.575 133.339 127.901 132.989 128.323 132.739C128.755 132.49 129.279 132.365 129.893 132.365V133.718H129.547C128.079 133.718 127.344 134.515 127.344 136.109V140.4H126.034V132.509H127.344V133.79ZM130.916 136.426C130.916 135.619 131.079 134.914 131.406 134.309C131.732 133.694 132.179 133.219 132.745 132.883C133.321 132.547 133.959 132.379 134.66 132.379C135.351 132.379 135.951 132.528 136.46 132.826C136.969 133.123 137.348 133.498 137.598 133.949V132.509H138.923V140.4H137.598V138.931C137.339 139.392 136.95 139.776 136.431 140.083C135.923 140.381 135.327 140.53 134.646 140.53C133.945 140.53 133.311 140.357 132.745 140.011C132.179 139.666 131.732 139.181 131.406 138.557C131.079 137.933 130.916 137.222 130.916 136.426ZM137.598 136.44C137.598 135.845 137.478 135.326 137.238 134.885C136.998 134.443 136.671 134.107 136.259 133.877C135.855 133.637 135.409 133.517 134.919 133.517C134.43 133.517 133.983 133.632 133.58 133.862C133.177 134.093 132.855 134.429 132.615 134.87C132.375 135.312 132.255 135.83 132.255 136.426C132.255 137.03 132.375 137.558 132.615 138.01C132.855 138.451 133.177 138.792 133.58 139.032C133.983 139.262 134.43 139.378 134.919 139.378C135.409 139.378 135.855 139.262 136.259 139.032C136.671 138.792 136.998 138.451 137.238 138.01C137.478 137.558 137.598 137.035 137.598 136.44ZM140.647 136.44C140.647 135.624 140.811 134.914 141.137 134.309C141.463 133.694 141.915 133.219 142.491 132.883C143.076 132.547 143.743 132.379 144.492 132.379C145.462 132.379 146.259 132.614 146.883 133.085C147.516 133.555 147.934 134.208 148.135 135.043H146.724C146.59 134.563 146.326 134.184 145.932 133.906C145.548 133.627 145.068 133.488 144.492 133.488C143.743 133.488 143.139 133.747 142.678 134.266C142.217 134.774 141.987 135.499 141.987 136.44C141.987 137.39 142.217 138.125 142.678 138.643C143.139 139.162 143.743 139.421 144.492 139.421C145.068 139.421 145.548 139.286 145.932 139.018C146.316 138.749 146.58 138.365 146.724 137.866H148.135C147.924 138.672 147.502 139.32 146.868 139.81C146.235 140.29 145.443 140.53 144.492 140.53C143.743 140.53 143.076 140.362 142.491 140.026C141.915 139.69 141.463 139.214 141.137 138.6C140.811 137.986 140.647 137.266 140.647 136.44ZM151.482 133.589V138.24C151.482 138.624 151.564 138.898 151.727 139.061C151.89 139.214 152.173 139.291 152.577 139.291H153.541V140.4H152.361C151.631 140.4 151.084 140.232 150.719 139.896C150.354 139.56 150.172 139.008 150.172 138.24V133.589H149.149V132.509H150.172V130.522H151.482V132.509H153.541V133.589H151.482ZM155.806 131.227C155.556 131.227 155.345 131.141 155.172 130.968C155 130.795 154.913 130.584 154.913 130.334C154.913 130.085 155 129.874 155.172 129.701C155.345 129.528 155.556 129.442 155.806 129.442C156.046 129.442 156.248 129.528 156.411 129.701C156.584 129.874 156.67 130.085 156.67 130.334C156.67 130.584 156.584 130.795 156.411 130.968C156.248 131.141 156.046 131.227 155.806 131.227ZM156.44 132.509V140.4H155.129V132.509H156.44ZM158.183 136.44C158.183 135.624 158.347 134.914 158.673 134.309C158.999 133.694 159.451 133.219 160.027 132.883C160.612 132.547 161.279 132.379 162.028 132.379C162.998 132.379 163.795 132.614 164.419 133.085C165.052 133.555 165.47 134.208 165.671 135.043H164.26C164.126 134.563 163.862 134.184 163.468 133.906C163.084 133.627 162.604 133.488 162.028 133.488C161.279 133.488 160.675 133.747 160.214 134.266C159.753 134.774 159.523 135.499 159.523 136.44C159.523 137.39 159.753 138.125 160.214 138.643C160.675 139.162 161.279 139.421 162.028 139.421C162.604 139.421 163.084 139.286 163.468 139.018C163.852 138.749 164.116 138.365 164.26 137.866H165.671C165.46 138.672 165.038 139.32 164.404 139.81C163.771 140.29 162.979 140.53 162.028 140.53C161.279 140.53 160.612 140.362 160.027 140.026C159.451 139.69 158.999 139.214 158.673 138.6C158.347 137.986 158.183 137.266 158.183 136.44ZM174.62 136.152C174.62 136.402 174.605 136.666 174.577 136.944H168.269C168.317 137.722 168.581 138.331 169.061 138.773C169.551 139.205 170.141 139.421 170.833 139.421C171.399 139.421 171.869 139.291 172.244 139.032C172.628 138.763 172.897 138.408 173.05 137.966H174.461C174.25 138.725 173.828 139.344 173.194 139.824C172.561 140.294 171.773 140.53 170.833 140.53C170.084 140.53 169.412 140.362 168.817 140.026C168.231 139.69 167.77 139.214 167.434 138.6C167.098 137.976 166.93 137.256 166.93 136.44C166.93 135.624 167.093 134.909 167.42 134.294C167.746 133.68 168.202 133.21 168.788 132.883C169.383 132.547 170.065 132.379 170.833 132.379C171.581 132.379 172.244 132.542 172.82 132.869C173.396 133.195 173.837 133.646 174.145 134.222C174.461 134.789 174.62 135.432 174.62 136.152ZM173.266 135.878C173.266 135.379 173.156 134.952 172.935 134.597C172.714 134.232 172.412 133.958 172.028 133.776C171.653 133.584 171.236 133.488 170.775 133.488C170.113 133.488 169.546 133.699 169.076 134.122C168.615 134.544 168.351 135.13 168.284 135.878H173.266ZM183.63 140.53C182.891 140.53 182.219 140.362 181.614 140.026C181.019 139.69 180.549 139.214 180.203 138.6C179.867 137.976 179.699 137.256 179.699 136.44C179.699 135.634 179.872 134.923 180.217 134.309C180.573 133.685 181.053 133.21 181.657 132.883C182.262 132.547 182.939 132.379 183.688 132.379C184.437 132.379 185.113 132.547 185.718 132.883C186.323 133.21 186.798 133.68 187.144 134.294C187.499 134.909 187.677 135.624 187.677 136.44C187.677 137.256 187.494 137.976 187.129 138.6C186.774 139.214 186.289 139.69 185.675 140.026C185.061 140.362 184.379 140.53 183.63 140.53ZM183.63 139.378C184.101 139.378 184.542 139.267 184.955 139.046C185.368 138.826 185.699 138.494 185.949 138.053C186.208 137.611 186.337 137.074 186.337 136.44C186.337 135.806 186.213 135.269 185.963 134.827C185.713 134.386 185.387 134.059 184.984 133.848C184.581 133.627 184.144 133.517 183.673 133.517C183.193 133.517 182.752 133.627 182.349 133.848C181.955 134.059 181.638 134.386 181.398 134.827C181.158 135.269 181.038 135.806 181.038 136.44C181.038 137.083 181.153 137.626 181.384 138.067C181.624 138.509 181.941 138.84 182.334 139.061C182.728 139.272 183.16 139.378 183.63 139.378ZM192.611 133.589H190.955V140.4H189.644V133.589H188.622V132.509H189.644V131.947C189.644 131.064 189.87 130.421 190.321 130.018C190.782 129.605 191.516 129.398 192.524 129.398V130.493C191.948 130.493 191.54 130.608 191.3 130.838C191.07 131.059 190.955 131.429 190.955 131.947V132.509H192.611V133.589ZM200.771 140.53C200.166 140.53 199.624 140.429 199.144 140.227C198.664 140.016 198.285 139.728 198.006 139.363C197.728 138.989 197.574 138.562 197.546 138.082H198.899C198.938 138.475 199.12 138.797 199.446 139.046C199.782 139.296 200.219 139.421 200.757 139.421C201.256 139.421 201.65 139.31 201.938 139.09C202.226 138.869 202.37 138.59 202.37 138.254C202.37 137.909 202.216 137.654 201.909 137.491C201.602 137.318 201.126 137.15 200.483 136.987C199.898 136.834 199.418 136.68 199.043 136.526C198.678 136.363 198.362 136.128 198.093 135.821C197.834 135.504 197.704 135.091 197.704 134.582C197.704 134.179 197.824 133.81 198.064 133.474C198.304 133.138 198.645 132.874 199.086 132.682C199.528 132.48 200.032 132.379 200.598 132.379C201.472 132.379 202.178 132.6 202.715 133.042C203.253 133.483 203.541 134.088 203.579 134.856H202.269C202.24 134.443 202.072 134.112 201.765 133.862C201.467 133.613 201.064 133.488 200.555 133.488C200.085 133.488 199.71 133.589 199.432 133.79C199.154 133.992 199.014 134.256 199.014 134.582C199.014 134.842 199.096 135.058 199.259 135.23C199.432 135.394 199.643 135.528 199.893 135.634C200.152 135.73 200.507 135.84 200.958 135.965C201.525 136.118 201.986 136.272 202.341 136.426C202.696 136.57 202.998 136.79 203.248 137.088C203.507 137.386 203.642 137.774 203.651 138.254C203.651 138.686 203.531 139.075 203.291 139.421C203.051 139.766 202.71 140.04 202.269 140.242C201.837 140.434 201.338 140.53 200.771 140.53ZM209.418 132.365C210.013 132.365 210.551 132.494 211.031 132.754C211.511 133.003 211.885 133.382 212.154 133.891C212.432 134.4 212.571 135.019 212.571 135.749V140.4H211.275V135.936C211.275 135.149 211.079 134.549 210.685 134.136C210.291 133.714 209.754 133.502 209.072 133.502C208.381 133.502 207.829 133.718 207.416 134.15C207.013 134.582 206.811 135.211 206.811 136.037V140.4H205.501V129.744H206.811V133.632C207.071 133.229 207.426 132.917 207.877 132.696C208.338 132.475 208.851 132.365 209.418 132.365ZM218.154 140.53C217.414 140.53 216.742 140.362 216.138 140.026C215.542 139.69 215.072 139.214 214.726 138.6C214.39 137.976 214.222 137.256 214.222 136.44C214.222 135.634 214.395 134.923 214.741 134.309C215.096 133.685 215.576 133.21 216.181 132.883C216.786 132.547 217.462 132.379 218.211 132.379C218.96 132.379 219.637 132.547 220.242 132.883C220.846 133.21 221.322 133.68 221.667 134.294C222.022 134.909 222.2 135.624 222.2 136.44C222.2 137.256 222.018 137.976 221.653 138.6C221.298 139.214 220.813 139.69 220.198 140.026C219.584 140.362 218.902 140.53 218.154 140.53ZM218.154 139.378C218.624 139.378 219.066 139.267 219.478 139.046C219.891 138.826 220.222 138.494 220.472 138.053C220.731 137.611 220.861 137.074 220.861 136.44C220.861 135.806 220.736 135.269 220.486 134.827C220.237 134.386 219.91 134.059 219.507 133.848C219.104 133.627 218.667 133.517 218.197 133.517C217.717 133.517 217.275 133.627 216.872 133.848C216.478 134.059 216.162 134.386 215.922 134.827C215.682 135.269 215.562 135.806 215.562 136.44C215.562 137.083 215.677 137.626 215.907 138.067C216.147 138.509 216.464 138.84 216.858 139.061C217.251 139.272 217.683 139.378 218.154 139.378ZM234.435 132.509L231.973 140.4H230.619L228.718 134.136L226.817 140.4H225.464L222.987 132.509H224.326L226.141 139.133L228.099 132.509H229.438L231.353 139.147L233.139 132.509H234.435ZM236.412 131.227C236.163 131.227 235.951 131.141 235.779 130.968C235.606 130.795 235.519 130.584 235.519 130.334C235.519 130.085 235.606 129.874 235.779 129.701C235.951 129.528 236.163 129.442 236.412 129.442C236.652 129.442 236.854 129.528 237.017 129.701C237.19 129.874 237.276 130.085 237.276 130.334C237.276 130.584 237.19 130.795 237.017 130.968C236.854 131.141 236.652 131.227 236.412 131.227ZM237.046 132.509V140.4H235.735V132.509H237.046ZM243.124 132.365C244.084 132.365 244.862 132.658 245.457 133.243C246.052 133.819 246.35 134.654 246.35 135.749V140.4H245.054V135.936C245.054 135.149 244.857 134.549 244.463 134.136C244.07 133.714 243.532 133.502 242.85 133.502C242.159 133.502 241.607 133.718 241.194 134.15C240.791 134.582 240.59 135.211 240.59 136.037V140.4H239.279V132.509H240.59V133.632C240.849 133.229 241.199 132.917 241.641 132.696C242.092 132.475 242.586 132.365 243.124 132.365ZM251.745 132.379C252.426 132.379 253.021 132.528 253.53 132.826C254.049 133.123 254.433 133.498 254.682 133.949V132.509H256.007V140.573C256.007 141.293 255.853 141.931 255.546 142.488C255.239 143.054 254.797 143.496 254.221 143.813C253.655 144.13 252.993 144.288 252.234 144.288C251.197 144.288 250.333 144.043 249.642 143.554C248.951 143.064 248.543 142.397 248.418 141.552H249.714C249.858 142.032 250.156 142.416 250.607 142.704C251.058 143.002 251.601 143.15 252.234 143.15C252.954 143.15 253.54 142.925 253.991 142.474C254.452 142.022 254.682 141.389 254.682 140.573V138.917C254.423 139.378 254.039 139.762 253.53 140.069C253.021 140.376 252.426 140.53 251.745 140.53C251.044 140.53 250.405 140.357 249.829 140.011C249.263 139.666 248.817 139.181 248.49 138.557C248.164 137.933 248.001 137.222 248.001 136.426C248.001 135.619 248.164 134.914 248.49 134.309C248.817 133.694 249.263 133.219 249.829 132.883C250.405 132.547 251.044 132.379 251.745 132.379ZM254.682 136.44C254.682 135.845 254.562 135.326 254.322 134.885C254.082 134.443 253.756 134.107 253.343 133.877C252.94 133.637 252.493 133.517 252.004 133.517C251.514 133.517 251.068 133.632 250.665 133.862C250.261 134.093 249.94 134.429 249.7 134.87C249.46 135.312 249.34 135.83 249.34 136.426C249.34 137.03 249.46 137.558 249.7 138.01C249.94 138.451 250.261 138.792 250.665 139.032C251.068 139.262 251.514 139.378 252.004 139.378C252.493 139.378 252.94 139.262 253.343 139.032C253.756 138.792 254.082 138.451 254.322 138.01C254.562 137.558 254.682 137.035 254.682 136.44ZM261.571 136.426C261.571 135.619 261.734 134.914 262.06 134.309C262.387 133.694 262.833 133.219 263.4 132.883C263.976 132.547 264.614 132.379 265.315 132.379C266.006 132.379 266.606 132.528 267.115 132.826C267.624 133.123 268.003 133.498 268.252 133.949V132.509H269.577V140.4H268.252V138.931C267.993 139.392 267.604 139.776 267.086 140.083C266.577 140.381 265.982 140.53 265.3 140.53C264.6 140.53 263.966 140.357 263.4 140.011C262.833 139.666 262.387 139.181 262.06 138.557C261.734 137.933 261.571 137.222 261.571 136.426ZM268.252 136.44C268.252 135.845 268.132 135.326 267.892 134.885C267.652 134.443 267.326 134.107 266.913 133.877C266.51 133.637 266.064 133.517 265.574 133.517C265.084 133.517 264.638 133.632 264.235 133.862C263.832 134.093 263.51 134.429 263.27 134.87C263.03 135.312 262.91 135.83 262.91 136.426C262.91 137.03 263.03 137.558 263.27 138.01C263.51 138.451 263.832 138.792 264.235 139.032C264.638 139.262 265.084 139.378 265.574 139.378C266.064 139.378 266.51 139.262 266.913 139.032C267.326 138.792 267.652 138.451 267.892 138.01C268.132 137.558 268.252 137.035 268.252 136.44ZM275.141 136.44C275.141 135.624 275.304 134.914 275.631 134.309C275.957 133.694 276.408 133.219 276.984 132.883C277.57 132.547 278.237 132.379 278.986 132.379C279.956 132.379 280.752 132.614 281.376 133.085C282.01 133.555 282.428 134.208 282.629 135.043H281.218C281.084 134.563 280.82 134.184 280.426 133.906C280.042 133.627 279.562 133.488 278.986 133.488C278.237 133.488 277.632 133.747 277.172 134.266C276.711 134.774 276.48 135.499 276.48 136.44C276.48 137.39 276.711 138.125 277.172 138.643C277.632 139.162 278.237 139.421 278.986 139.421C279.562 139.421 280.042 139.286 280.426 139.018C280.81 138.749 281.074 138.365 281.218 137.866H282.629C282.418 138.672 281.996 139.32 281.362 139.81C280.728 140.29 279.936 140.53 278.986 140.53C278.237 140.53 277.57 140.362 276.984 140.026C276.408 139.69 275.957 139.214 275.631 138.6C275.304 137.986 275.141 137.266 275.141 136.44ZM287.819 140.53C287.08 140.53 286.408 140.362 285.803 140.026C285.208 139.69 284.738 139.214 284.392 138.6C284.056 137.976 283.888 137.256 283.888 136.44C283.888 135.634 284.061 134.923 284.406 134.309C284.762 133.685 285.242 133.21 285.846 132.883C286.451 132.547 287.128 132.379 287.877 132.379C288.626 132.379 289.302 132.547 289.907 132.883C290.512 133.21 290.987 133.68 291.333 134.294C291.688 134.909 291.866 135.624 291.866 136.44C291.866 137.256 291.683 137.976 291.318 138.6C290.963 139.214 290.478 139.69 289.864 140.026C289.25 140.362 288.568 140.53 287.819 140.53ZM287.819 139.378C288.29 139.378 288.731 139.267 289.144 139.046C289.557 138.826 289.888 138.494 290.138 138.053C290.397 137.611 290.526 137.074 290.526 136.44C290.526 135.806 290.402 135.269 290.152 134.827C289.902 134.386 289.576 134.059 289.173 133.848C288.77 133.627 288.333 133.517 287.862 133.517C287.382 133.517 286.941 133.627 286.538 133.848C286.144 134.059 285.827 134.386 285.587 134.827C285.347 135.269 285.227 135.806 285.227 136.44C285.227 137.083 285.342 137.626 285.573 138.067C285.813 138.509 286.13 138.84 286.523 139.061C286.917 139.272 287.349 139.378 287.819 139.378ZM297.433 132.365C298.393 132.365 299.171 132.658 299.766 133.243C300.361 133.819 300.659 134.654 300.659 135.749V140.4H299.363V135.936C299.363 135.149 299.166 134.549 298.773 134.136C298.379 133.714 297.841 133.502 297.16 133.502C296.469 133.502 295.917 133.718 295.504 134.15C295.101 134.582 294.899 135.211 294.899 136.037V140.4H293.589V132.509H294.899V133.632C295.158 133.229 295.509 132.917 295.95 132.696C296.401 132.475 296.896 132.365 297.433 132.365ZM305.593 140.53C304.988 140.53 304.446 140.429 303.966 140.227C303.486 140.016 303.107 139.728 302.828 139.363C302.55 138.989 302.396 138.562 302.367 138.082H303.721C303.759 138.475 303.942 138.797 304.268 139.046C304.604 139.296 305.041 139.421 305.579 139.421C306.078 139.421 306.471 139.31 306.759 139.09C307.047 138.869 307.191 138.59 307.191 138.254C307.191 137.909 307.038 137.654 306.731 137.491C306.423 137.318 305.948 137.15 305.305 136.987C304.719 136.834 304.239 136.68 303.865 136.526C303.5 136.363 303.183 136.128 302.915 135.821C302.655 135.504 302.526 135.091 302.526 134.582C302.526 134.179 302.646 133.81 302.886 133.474C303.126 133.138 303.467 132.874 303.908 132.682C304.35 132.48 304.854 132.379 305.42 132.379C306.294 132.379 306.999 132.6 307.537 133.042C308.075 133.483 308.363 134.088 308.401 134.856H307.091C307.062 134.443 306.894 134.112 306.587 133.862C306.289 133.613 305.886 133.488 305.377 133.488C304.907 133.488 304.532 133.589 304.254 133.79C303.975 133.992 303.836 134.256 303.836 134.582C303.836 134.842 303.918 135.058 304.081 135.23C304.254 135.394 304.465 135.528 304.715 135.634C304.974 135.73 305.329 135.84 305.78 135.965C306.347 136.118 306.807 136.272 307.163 136.426C307.518 136.57 307.82 136.79 308.07 137.088C308.329 137.386 308.463 137.774 308.473 138.254C308.473 138.686 308.353 139.075 308.113 139.421C307.873 139.766 307.532 140.04 307.091 140.242C306.659 140.434 306.159 140.53 305.593 140.53ZM311 131.227C310.75 131.227 310.539 131.141 310.366 130.968C310.193 130.795 310.107 130.584 310.107 130.334C310.107 130.085 310.193 129.874 310.366 129.701C310.539 129.528 310.75 129.442 311 129.442C311.24 129.442 311.441 129.528 311.605 129.701C311.777 129.874 311.864 130.085 311.864 130.334C311.864 130.584 311.777 130.795 311.605 130.968C311.441 131.141 311.24 131.227 311 131.227ZM311.633 132.509V140.4H310.323V132.509H311.633ZM316.66 140.53C316.055 140.53 315.513 140.429 315.033 140.227C314.553 140.016 314.174 139.728 313.895 139.363C313.617 138.989 313.463 138.562 313.435 138.082H314.788C314.827 138.475 315.009 138.797 315.335 139.046C315.671 139.296 316.108 139.421 316.646 139.421C317.145 139.421 317.539 139.31 317.827 139.09C318.115 138.869 318.259 138.59 318.259 138.254C318.259 137.909 318.105 137.654 317.798 137.491C317.491 137.318 317.015 137.15 316.372 136.987C315.787 136.834 315.307 136.68 314.932 136.526C314.567 136.363 314.251 136.128 313.982 135.821C313.723 135.504 313.593 135.091 313.593 134.582C313.593 134.179 313.713 133.81 313.953 133.474C314.193 133.138 314.534 132.874 314.975 132.682C315.417 132.48 315.921 132.379 316.487 132.379C317.361 132.379 318.067 132.6 318.604 133.042C319.142 133.483 319.43 134.088 319.468 134.856H318.158C318.129 134.443 317.961 134.112 317.654 133.862C317.356 133.613 316.953 133.488 316.444 133.488C315.974 133.488 315.599 133.589 315.321 133.79C315.043 133.992 314.903 134.256 314.903 134.582C314.903 134.842 314.985 135.058 315.148 135.23C315.321 135.394 315.532 135.528 315.782 135.634C316.041 135.73 316.396 135.84 316.847 135.965C317.414 136.118 317.875 136.272 318.23 136.426C318.585 136.57 318.887 136.79 319.137 137.088C319.396 137.386 319.531 137.774 319.54 138.254C319.54 138.686 319.42 139.075 319.18 139.421C318.94 139.766 318.599 140.04 318.158 140.242C317.726 140.434 317.227 140.53 316.66 140.53ZM322.989 133.589V138.24C322.989 138.624 323.07 138.898 323.233 139.061C323.397 139.214 323.68 139.291 324.083 139.291H325.048V140.4H323.867C323.137 140.4 322.59 140.232 322.225 139.896C321.861 139.56 321.678 139.008 321.678 138.24V133.589H320.656V132.509H321.678V130.522H322.989V132.509H325.048V133.589H322.989ZM333.835 136.152C333.835 136.402 333.821 136.666 333.792 136.944H327.485C327.533 137.722 327.797 138.331 328.277 138.773C328.767 139.205 329.357 139.421 330.048 139.421C330.615 139.421 331.085 139.291 331.459 139.032C331.843 138.763 332.112 138.408 332.266 137.966H333.677C333.466 138.725 333.043 139.344 332.41 139.824C331.776 140.294 330.989 140.53 330.048 140.53C329.299 140.53 328.627 140.362 328.032 140.026C327.447 139.69 326.986 139.214 326.65 138.6C326.314 137.976 326.146 137.256 326.146 136.44C326.146 135.624 326.309 134.909 326.635 134.294C326.962 133.68 327.418 133.21 328.003 132.883C328.599 132.547 329.28 132.379 330.048 132.379C330.797 132.379 331.459 132.542 332.035 132.869C332.611 133.195 333.053 133.646 333.36 134.222C333.677 134.789 333.835 135.432 333.835 136.152ZM332.482 135.878C332.482 135.379 332.371 134.952 332.151 134.597C331.93 134.232 331.627 133.958 331.243 133.776C330.869 133.584 330.451 133.488 329.991 133.488C329.328 133.488 328.762 133.699 328.291 134.122C327.831 134.544 327.567 135.13 327.499 135.878H332.482ZM339.41 132.365C340.37 132.365 341.147 132.658 341.743 133.243C342.338 133.819 342.635 134.654 342.635 135.749V140.4H341.339V135.936C341.339 135.149 341.143 134.549 340.749 134.136C340.355 133.714 339.818 133.502 339.136 133.502C338.445 133.502 337.893 133.718 337.48 134.15C337.077 134.582 336.875 135.211 336.875 136.037V140.4H335.565V132.509H336.875V133.632C337.135 133.229 337.485 132.917 337.927 132.696C338.378 132.475 338.872 132.365 339.41 132.365ZM346.374 133.589V138.24C346.374 138.624 346.456 138.898 346.619 139.061C346.782 139.214 347.066 139.291 347.469 139.291H348.434V140.4H347.253C346.523 140.4 345.976 140.232 345.611 139.896C345.246 139.56 345.064 139.008 345.064 138.24V133.589H344.042V132.509H345.064V130.522H346.374V132.509H348.434V133.589H346.374ZM3.20755 161.426C3.20755 160.619 3.37075 159.914 3.69715 159.309C4.02355 158.694 4.46995 158.219 5.03635 157.883C5.61235 157.547 6.25075 157.379 6.95155 157.379C7.64275 157.379 8.24275 157.528 8.75155 157.826C9.26035 158.123 9.63955 158.498 9.88915 158.949V157.509H11.2139V165.4H9.88915V163.931C9.62995 164.392 9.24115 164.776 8.72275 165.083C8.21395 165.381 7.61875 165.53 6.93715 165.53C6.23635 165.53 5.60275 165.357 5.03635 165.011C4.46995 164.666 4.02355 164.181 3.69715 163.557C3.37075 162.933 3.20755 162.222 3.20755 161.426ZM9.88915 161.44C9.88915 160.845 9.76915 160.326 9.52915 159.885C9.28915 159.443 8.96275 159.107 8.54995 158.877C8.14675 158.637 7.70035 158.517 7.21075 158.517C6.72115 158.517 6.27475 158.632 5.87155 158.862C5.46835 159.093 5.14675 159.429 4.90675 159.87C4.66675 160.312 4.54675 160.83 4.54675 161.426C4.54675 162.03 4.66675 162.558 4.90675 163.01C5.14675 163.451 5.46835 163.792 5.87155 164.032C6.27475 164.262 6.72115 164.378 7.21075 164.378C7.70035 164.378 8.14675 164.262 8.54995 164.032C8.96275 163.792 9.28915 163.451 9.52915 163.01C9.76915 162.558 9.88915 162.035 9.88915 161.44ZM17.2732 157.365C18.2332 157.365 19.0108 157.658 19.606 158.243C20.2012 158.819 20.4988 159.654 20.4988 160.749V165.4H19.2028V160.936C19.2028 160.149 19.006 159.549 18.6124 159.136C18.2188 158.714 17.6812 158.502 16.9996 158.502C16.3084 158.502 15.7564 158.718 15.3436 159.15C14.9404 159.582 14.7388 160.211 14.7388 161.037V165.4H13.4284V157.509H14.7388V158.632C14.998 158.229 15.3484 157.917 15.79 157.696C16.2412 157.475 16.7356 157.365 17.2732 157.365ZM22.1497 161.426C22.1497 160.619 22.3129 159.914 22.6393 159.309C22.9657 158.694 23.4121 158.219 23.9785 157.883C24.5545 157.547 25.1977 157.379 25.9081 157.379C26.5225 157.379 27.0937 157.523 27.6217 157.811C28.1497 158.09 28.5529 158.459 28.8313 158.92V154.744H30.1561V165.4H28.8313V163.917C28.5721 164.387 28.1881 164.776 27.6793 165.083C27.1705 165.381 26.5753 165.53 25.8937 165.53C25.1929 165.53 24.5545 165.357 23.9785 165.011C23.4121 164.666 22.9657 164.181 22.6393 163.557C22.3129 162.933 22.1497 162.222 22.1497 161.426ZM28.8313 161.44C28.8313 160.845 28.7113 160.326 28.4713 159.885C28.2313 159.443 27.9049 159.107 27.4921 158.877C27.0889 158.637 26.6425 158.517 26.1529 158.517C25.6633 158.517 25.2169 158.632 24.8137 158.862C24.4105 159.093 24.0889 159.429 23.8489 159.87C23.6089 160.312 23.4889 160.83 23.4889 161.426C23.4889 162.03 23.6089 162.558 23.8489 163.01C24.0889 163.451 24.4105 163.792 24.8137 164.032C25.2169 164.262 25.6633 164.378 26.1529 164.378C26.6425 164.378 27.0889 164.262 27.4921 164.032C27.9049 163.792 28.2313 163.451 28.4713 163.01C28.7113 162.558 28.8313 162.035 28.8313 161.44ZM43.208 157.509V165.4H41.8976V164.234C41.648 164.637 41.2976 164.954 40.8464 165.184C40.4048 165.405 39.9152 165.515 39.3776 165.515C38.7632 165.515 38.2112 165.39 37.7216 165.141C37.232 164.882 36.8432 164.498 36.5552 163.989C36.2768 163.48 36.1376 162.861 36.1376 162.131V157.509H37.4336V161.958C37.4336 162.736 37.6304 163.336 38.024 163.758C38.4176 164.171 38.9552 164.378 39.6368 164.378C40.3376 164.378 40.8896 164.162 41.2928 163.73C41.696 163.298 41.8976 162.669 41.8976 161.843V157.509H43.208ZM49.2654 157.365C50.2254 157.365 51.003 157.658 51.5982 158.243C52.1934 158.819 52.491 159.654 52.491 160.749V165.4H51.195V160.936C51.195 160.149 50.9982 159.549 50.6046 159.136C50.211 158.714 49.6734 158.502 48.9918 158.502C48.3006 158.502 47.7486 158.718 47.3358 159.15C46.9326 159.582 46.731 160.211 46.731 161.037V165.4H45.4206V157.509H46.731V158.632C46.9902 158.229 47.3406 157.917 47.7822 157.696C48.2334 157.475 48.7278 157.365 49.2654 157.365ZM54.1419 161.44C54.1419 160.624 54.3051 159.914 54.6315 159.309C54.9579 158.694 55.4091 158.219 55.9851 157.883C56.5707 157.547 57.2379 157.379 57.9867 157.379C58.9563 157.379 59.7531 157.614 60.3771 158.085C61.0107 158.555 61.4283 159.208 61.6299 160.043H60.2187C60.0843 159.563 59.8203 159.184 59.4267 158.906C59.0427 158.627 58.5627 158.488 57.9867 158.488C57.2379 158.488 56.6331 158.747 56.1723 159.266C55.7115 159.774 55.4811 160.499 55.4811 161.44C55.4811 162.39 55.7115 163.125 56.1723 163.643C56.6331 164.162 57.2379 164.421 57.9867 164.421C58.5627 164.421 59.0427 164.286 59.4267 164.018C59.8107 163.749 60.0747 163.365 60.2187 162.866H61.6299C61.4187 163.672 60.9963 164.32 60.3627 164.81C59.7291 165.29 58.9371 165.53 57.9867 165.53C57.2379 165.53 56.5707 165.362 55.9851 165.026C55.4091 164.69 54.9579 164.214 54.6315 163.6C54.3051 162.986 54.1419 162.266 54.1419 161.44ZM66.82 165.53C66.0808 165.53 65.4088 165.362 64.804 165.026C64.2088 164.69 63.7384 164.214 63.3928 163.6C63.0568 162.976 62.8888 162.256 62.8888 161.44C62.8888 160.634 63.0616 159.923 63.4072 159.309C63.7624 158.685 64.2424 158.21 64.8472 157.883C65.452 157.547 66.1288 157.379 66.8776 157.379C67.6264 157.379 68.3032 157.547 68.908 157.883C69.5128 158.21 69.988 158.68 70.3336 159.294C70.6888 159.909 70.8664 160.624 70.8664 161.44C70.8664 162.256 70.684 162.976 70.3192 163.6C69.964 164.214 69.4792 164.69 68.8648 165.026C68.2504 165.362 67.5688 165.53 66.82 165.53ZM66.82 164.378C67.2904 164.378 67.732 164.267 68.1448 164.046C68.5576 163.826 68.8888 163.494 69.1384 163.053C69.3976 162.611 69.5272 162.074 69.5272 161.44C69.5272 160.806 69.4024 160.269 69.1528 159.827C68.9032 159.386 68.5768 159.059 68.1736 158.848C67.7704 158.627 67.3336 158.517 66.8632 158.517C66.3832 158.517 65.9416 158.627 65.5384 158.848C65.1448 159.059 64.828 159.386 64.588 159.827C64.348 160.269 64.228 160.806 64.228 161.44C64.228 162.083 64.3432 162.626 64.5736 163.067C64.8136 163.509 65.1304 163.84 65.524 164.061C65.9176 164.272 66.3496 164.378 66.82 164.378ZM82.0789 157.365C82.6933 157.365 83.2405 157.494 83.7205 157.754C84.2005 158.003 84.5797 158.382 84.8581 158.891C85.1365 159.4 85.2757 160.019 85.2757 160.749V165.4H83.9797V160.936C83.9797 160.149 83.7829 159.549 83.3893 159.136C83.0053 158.714 82.4821 158.502 81.8197 158.502C81.1381 158.502 80.5957 158.723 80.1925 159.165C79.7893 159.597 79.5877 160.226 79.5877 161.051V165.4H78.2917V160.936C78.2917 160.149 78.0949 159.549 77.7013 159.136C77.3173 158.714 76.7941 158.502 76.1317 158.502C75.4501 158.502 74.9077 158.723 74.5045 159.165C74.1013 159.597 73.8997 160.226 73.8997 161.051V165.4H72.5893V157.509H73.8997V158.646C74.1589 158.234 74.5045 157.917 74.9365 157.696C75.3781 157.475 75.8629 157.365 76.3909 157.365C77.0533 157.365 77.6389 157.514 78.1477 157.811C78.6565 158.109 79.0357 158.546 79.2853 159.122C79.5061 158.565 79.8709 158.133 80.3797 157.826C80.8885 157.518 81.4549 157.365 82.0789 157.365ZM88.7357 158.963C88.9949 158.512 89.3789 158.138 89.8877 157.84C90.4061 157.533 91.0061 157.379 91.6877 157.379C92.3885 157.379 93.0221 157.547 93.5885 157.883C94.1645 158.219 94.6157 158.694 94.9421 159.309C95.2685 159.914 95.4317 160.619 95.4317 161.426C95.4317 162.222 95.2685 162.933 94.9421 163.557C94.6157 164.181 94.1645 164.666 93.5885 165.011C93.0221 165.357 92.3885 165.53 91.6877 165.53C91.0157 165.53 90.4205 165.381 89.9021 165.083C89.3933 164.776 89.0045 164.397 88.7357 163.946V169.144H87.4253V157.509H88.7357V158.963ZM94.0925 161.426C94.0925 160.83 93.9725 160.312 93.7325 159.87C93.4925 159.429 93.1661 159.093 92.7533 158.862C92.3501 158.632 91.9037 158.517 91.4141 158.517C90.9341 158.517 90.4877 158.637 90.0749 158.877C89.6717 159.107 89.3453 159.448 89.0957 159.899C88.8557 160.341 88.7357 160.854 88.7357 161.44C88.7357 162.035 88.8557 162.558 89.0957 163.01C89.3453 163.451 89.6717 163.792 90.0749 164.032C90.4877 164.262 90.9341 164.378 91.4141 164.378C91.9037 164.378 92.3501 164.262 92.7533 164.032C93.1661 163.792 93.4925 163.451 93.7325 163.01C93.9725 162.558 94.0925 162.03 94.0925 161.426ZM98.4669 158.79C98.6973 158.339 99.0237 157.989 99.4461 157.739C99.8781 157.49 100.401 157.365 101.016 157.365V158.718H100.67C99.2013 158.718 98.4669 159.515 98.4669 161.109V165.4H97.1565V157.509H98.4669V158.79ZM105.97 165.53C105.231 165.53 104.559 165.362 103.954 165.026C103.359 164.69 102.888 164.214 102.543 163.6C102.207 162.976 102.039 162.256 102.039 161.44C102.039 160.634 102.212 159.923 102.557 159.309C102.912 158.685 103.392 158.21 103.997 157.883C104.602 157.547 105.279 157.379 106.028 157.379C106.776 157.379 107.453 157.547 108.058 157.883C108.663 158.21 109.138 158.68 109.484 159.294C109.839 159.909 110.016 160.624 110.016 161.44C110.016 162.256 109.834 162.976 109.469 163.6C109.114 164.214 108.629 164.69 108.015 165.026C107.4 165.362 106.719 165.53 105.97 165.53ZM105.97 164.378C106.44 164.378 106.882 164.267 107.295 164.046C107.708 163.826 108.039 163.494 108.288 163.053C108.548 162.611 108.677 162.074 108.677 161.44C108.677 160.806 108.552 160.269 108.303 159.827C108.053 159.386 107.727 159.059 107.324 158.848C106.92 158.627 106.484 158.517 106.013 158.517C105.533 158.517 105.092 158.627 104.688 158.848C104.295 159.059 103.978 159.386 103.738 159.827C103.498 160.269 103.378 160.806 103.378 161.44C103.378 162.083 103.493 162.626 103.724 163.067C103.964 163.509 104.28 163.84 104.674 164.061C105.068 164.272 105.5 164.378 105.97 164.378ZM121.229 157.365C121.843 157.365 122.391 157.494 122.871 157.754C123.351 158.003 123.73 158.382 124.008 158.891C124.287 159.4 124.426 160.019 124.426 160.749V165.4H123.13V160.936C123.13 160.149 122.933 159.549 122.539 159.136C122.155 158.714 121.632 158.502 120.97 158.502C120.288 158.502 119.746 158.723 119.343 159.165C118.939 159.597 118.738 160.226 118.738 161.051V165.4H117.442V160.936C117.442 160.149 117.245 159.549 116.851 159.136C116.467 158.714 115.944 158.502 115.282 158.502C114.6 158.502 114.058 158.723 113.655 159.165C113.251 159.597 113.05 160.226 113.05 161.051V165.4H111.739V157.509H113.05V158.646C113.309 158.234 113.655 157.917 114.087 157.696C114.528 157.475 115.013 157.365 115.541 157.365C116.203 157.365 116.789 157.514 117.298 157.811C117.807 158.109 118.186 158.546 118.435 159.122C118.656 158.565 119.021 158.133 119.53 157.826C120.039 157.518 120.605 157.365 121.229 157.365ZM127.252 156.227C127.002 156.227 126.791 156.141 126.618 155.968C126.446 155.795 126.359 155.584 126.359 155.334C126.359 155.085 126.446 154.874 126.618 154.701C126.791 154.528 127.002 154.442 127.252 154.442C127.492 154.442 127.694 154.528 127.857 154.701C128.03 154.874 128.116 155.085 128.116 155.334C128.116 155.584 128.03 155.795 127.857 155.968C127.694 156.141 127.492 156.227 127.252 156.227ZM127.886 157.509V165.4H126.575V157.509H127.886ZM132.913 165.53C132.308 165.53 131.765 165.429 131.285 165.227C130.805 165.016 130.426 164.728 130.148 164.363C129.869 163.989 129.716 163.562 129.687 163.082H131.041C131.079 163.475 131.261 163.797 131.588 164.046C131.924 164.296 132.361 164.421 132.898 164.421C133.397 164.421 133.791 164.31 134.079 164.09C134.367 163.869 134.511 163.59 134.511 163.254C134.511 162.909 134.357 162.654 134.05 162.491C133.743 162.318 133.268 162.15 132.625 161.987C132.039 161.834 131.559 161.68 131.185 161.526C130.82 161.363 130.503 161.128 130.234 160.821C129.975 160.504 129.845 160.091 129.845 159.582C129.845 159.179 129.965 158.81 130.205 158.474C130.445 158.138 130.786 157.874 131.228 157.682C131.669 157.48 132.173 157.379 132.74 157.379C133.613 157.379 134.319 157.6 134.857 158.042C135.394 158.483 135.682 159.088 135.721 159.856H134.41C134.381 159.443 134.213 159.112 133.906 158.862C133.609 158.613 133.205 158.488 132.697 158.488C132.226 158.488 131.852 158.589 131.573 158.79C131.295 158.992 131.156 159.256 131.156 159.582C131.156 159.842 131.237 160.058 131.401 160.23C131.573 160.394 131.785 160.528 132.034 160.634C132.293 160.73 132.649 160.84 133.1 160.965C133.666 161.118 134.127 161.272 134.482 161.426C134.837 161.57 135.14 161.79 135.389 162.088C135.649 162.386 135.783 162.774 135.793 163.254C135.793 163.686 135.673 164.075 135.433 164.421C135.193 164.766 134.852 165.04 134.41 165.242C133.978 165.434 133.479 165.53 132.913 165.53ZM138.319 156.227C138.07 156.227 137.858 156.141 137.686 155.968C137.513 155.795 137.426 155.584 137.426 155.334C137.426 155.085 137.513 154.874 137.686 154.701C137.858 154.528 138.07 154.442 138.319 154.442C138.559 154.442 138.761 154.528 138.924 154.701C139.097 154.874 139.183 155.085 139.183 155.334C139.183 155.584 139.097 155.795 138.924 155.968C138.761 156.141 138.559 156.227 138.319 156.227ZM138.953 157.509V165.4H137.642V157.509H138.953ZM145.031 157.365C145.991 157.365 146.769 157.658 147.364 158.243C147.959 158.819 148.257 159.654 148.257 160.749V165.4H146.961V160.936C146.961 160.149 146.764 159.549 146.37 159.136C145.977 158.714 145.439 158.502 144.757 158.502C144.066 158.502 143.514 158.718 143.101 159.15C142.698 159.582 142.497 160.211 142.497 161.037V165.4H141.186V157.509H142.497V158.632C142.756 158.229 143.106 157.917 143.548 157.696C143.999 157.475 144.493 157.365 145.031 157.365ZM153.652 157.379C154.333 157.379 154.928 157.528 155.437 157.826C155.956 158.123 156.34 158.498 156.589 158.949V157.509H157.914V165.573C157.914 166.293 157.76 166.931 157.453 167.488C157.146 168.054 156.704 168.496 156.128 168.813C155.562 169.13 154.9 169.288 154.141 169.288C153.104 169.288 152.24 169.043 151.549 168.554C150.858 168.064 150.45 167.397 150.325 166.552H151.621C151.765 167.032 152.063 167.416 152.514 167.704C152.965 168.002 153.508 168.15 154.141 168.15C154.861 168.15 155.447 167.925 155.898 167.474C156.359 167.022 156.589 166.389 156.589 165.573V163.917C156.33 164.378 155.946 164.762 155.437 165.069C154.928 165.376 154.333 165.53 153.652 165.53C152.951 165.53 152.312 165.357 151.736 165.011C151.17 164.666 150.724 164.181 150.397 163.557C150.071 162.933 149.908 162.222 149.908 161.426C149.908 160.619 150.071 159.914 150.397 159.309C150.724 158.694 151.17 158.219 151.736 157.883C152.312 157.547 152.951 157.379 153.652 157.379ZM156.589 161.44C156.589 160.845 156.469 160.326 156.229 159.885C155.989 159.443 155.663 159.107 155.25 158.877C154.847 158.637 154.4 158.517 153.911 158.517C153.421 158.517 152.975 158.632 152.572 158.862C152.168 159.093 151.847 159.429 151.607 159.87C151.367 160.312 151.247 160.83 151.247 161.426C151.247 162.03 151.367 162.558 151.607 163.01C151.847 163.451 152.168 163.792 152.572 164.032C152.975 164.262 153.421 164.378 153.911 164.378C154.4 164.378 154.847 164.262 155.25 164.032C155.663 163.792 155.989 163.451 156.229 163.01C156.469 162.558 156.589 162.035 156.589 161.44ZM163.478 161.426C163.478 160.619 163.641 159.914 163.967 159.309C164.294 158.694 164.74 158.219 165.307 157.883C165.883 157.547 166.521 157.379 167.222 157.379C167.913 157.379 168.513 157.528 169.022 157.826C169.531 158.123 169.91 158.498 170.159 158.949V157.509H171.484V165.4H170.159V163.931C169.9 164.392 169.511 164.776 168.993 165.083C168.484 165.381 167.889 165.53 167.207 165.53C166.507 165.53 165.873 165.357 165.307 165.011C164.74 164.666 164.294 164.181 163.967 163.557C163.641 162.933 163.478 162.222 163.478 161.426ZM170.159 161.44C170.159 160.845 170.039 160.326 169.799 159.885C169.559 159.443 169.233 159.107 168.82 158.877C168.417 158.637 167.971 158.517 167.481 158.517C166.991 158.517 166.545 158.632 166.142 158.862C165.739 159.093 165.417 159.429 165.177 159.87C164.937 160.312 164.817 160.83 164.817 161.426C164.817 162.03 164.937 162.558 165.177 163.01C165.417 163.451 165.739 163.792 166.142 164.032C166.545 164.262 166.991 164.378 167.481 164.378C167.971 164.378 168.417 164.262 168.82 164.032C169.233 163.792 169.559 163.451 169.799 163.01C170.039 162.558 170.159 162.035 170.159 161.44ZM173.209 161.426C173.209 160.619 173.372 159.914 173.699 159.309C174.025 158.694 174.472 158.219 175.038 157.883C175.614 157.547 176.257 157.379 176.968 157.379C177.582 157.379 178.153 157.523 178.681 157.811C179.209 158.09 179.612 158.459 179.891 158.92V154.744H181.216V165.4H179.891V163.917C179.632 164.387 179.248 164.776 178.739 165.083C178.23 165.381 177.635 165.53 176.953 165.53C176.252 165.53 175.614 165.357 175.038 165.011C174.472 164.666 174.025 164.181 173.699 163.557C173.372 162.933 173.209 162.222 173.209 161.426ZM179.891 161.44C179.891 160.845 179.771 160.326 179.531 159.885C179.291 159.443 178.964 159.107 178.552 158.877C178.148 158.637 177.702 158.517 177.212 158.517C176.723 158.517 176.276 158.632 175.873 158.862C175.47 159.093 175.148 159.429 174.908 159.87C174.668 160.312 174.548 160.83 174.548 161.426C174.548 162.03 174.668 162.558 174.908 163.01C175.148 163.451 175.47 163.792 175.873 164.032C176.276 164.262 176.723 164.378 177.212 164.378C177.702 164.378 178.148 164.262 178.552 164.032C178.964 163.792 179.291 163.451 179.531 163.01C179.771 162.558 179.891 162.035 179.891 161.44ZM187.347 157.365C187.942 157.365 188.48 157.494 188.96 157.754C189.44 158.003 189.814 158.382 190.083 158.891C190.361 159.4 190.5 160.019 190.5 160.749V165.4H189.204V160.936C189.204 160.149 189.008 159.549 188.614 159.136C188.22 158.714 187.683 158.502 187.001 158.502C186.31 158.502 185.758 158.718 185.345 159.15C184.942 159.582 184.74 160.211 184.74 161.037V165.4H183.43V154.744H184.74V158.632C185 158.229 185.355 157.917 185.806 157.696C186.267 157.475 186.78 157.365 187.347 157.365ZM199.841 161.152C199.841 161.402 199.826 161.666 199.798 161.944H193.49C193.538 162.722 193.802 163.331 194.282 163.773C194.772 164.205 195.362 164.421 196.054 164.421C196.62 164.421 197.09 164.291 197.465 164.032C197.849 163.763 198.118 163.408 198.271 162.966H199.682C199.471 163.725 199.049 164.344 198.415 164.824C197.782 165.294 196.994 165.53 196.054 165.53C195.305 165.53 194.633 165.362 194.038 165.026C193.452 164.69 192.991 164.214 192.655 163.6C192.319 162.976 192.151 162.256 192.151 161.44C192.151 160.624 192.314 159.909 192.641 159.294C192.967 158.68 193.423 158.21 194.009 157.883C194.604 157.547 195.286 157.379 196.054 157.379C196.802 157.379 197.465 157.542 198.041 157.869C198.617 158.195 199.058 158.646 199.366 159.222C199.682 159.789 199.841 160.432 199.841 161.152ZM198.487 160.878C198.487 160.379 198.377 159.952 198.156 159.597C197.935 159.232 197.633 158.958 197.249 158.776C196.874 158.584 196.457 158.488 195.996 158.488C195.334 158.488 194.767 158.699 194.297 159.122C193.836 159.544 193.572 160.13 193.505 160.878H198.487ZM202.881 158.79C203.111 158.339 203.438 157.989 203.86 157.739C204.292 157.49 204.815 157.365 205.43 157.365V158.718H205.084C203.615 158.718 202.881 159.515 202.881 161.109V165.4H201.571V157.509H202.881V158.79ZM214.142 161.152C214.142 161.402 214.128 161.666 214.099 161.944H207.792C207.84 162.722 208.104 163.331 208.584 163.773C209.074 164.205 209.664 164.421 210.355 164.421C210.922 164.421 211.392 164.291 211.766 164.032C212.15 163.763 212.419 163.408 212.573 162.966H213.984C213.773 163.725 213.35 164.344 212.717 164.824C212.083 165.294 211.296 165.53 210.355 165.53C209.606 165.53 208.934 165.362 208.339 165.026C207.754 164.69 207.293 164.214 206.957 163.6C206.621 162.976 206.453 162.256 206.453 161.44C206.453 160.624 206.616 159.909 206.942 159.294C207.269 158.68 207.725 158.21 208.31 157.883C208.906 157.547 209.587 157.379 210.355 157.379C211.104 157.379 211.766 157.542 212.342 157.869C212.918 158.195 213.36 158.646 213.667 159.222C213.984 159.789 214.142 160.432 214.142 161.152ZM212.789 160.878C212.789 160.379 212.678 159.952 212.458 159.597C212.237 159.232 211.934 158.958 211.55 158.776C211.176 158.584 210.758 158.488 210.298 158.488C209.635 158.488 209.069 158.699 208.598 159.122C208.138 159.544 207.874 160.13 207.806 160.878H212.789ZM219.717 157.365C220.677 157.365 221.455 157.658 222.05 158.243C222.645 158.819 222.943 159.654 222.943 160.749V165.4H221.647V160.936C221.647 160.149 221.45 159.549 221.056 159.136C220.663 158.714 220.125 158.502 219.443 158.502C218.752 158.502 218.2 158.718 217.787 159.15C217.384 159.582 217.183 160.211 217.183 161.037V165.4H215.872V157.509H217.183V158.632C217.442 158.229 217.792 157.917 218.234 157.696C218.685 157.475 219.179 157.365 219.717 157.365ZM224.593 161.44C224.593 160.624 224.757 159.914 225.083 159.309C225.409 158.694 225.861 158.219 226.437 157.883C227.022 157.547 227.689 157.379 228.438 157.379C229.408 157.379 230.205 157.614 230.829 158.085C231.462 158.555 231.88 159.208 232.081 160.043H230.67C230.536 159.563 230.272 159.184 229.878 158.906C229.494 158.627 229.014 158.488 228.438 158.488C227.689 158.488 227.085 158.747 226.624 159.266C226.163 159.774 225.933 160.499 225.933 161.44C225.933 162.39 226.163 163.125 226.624 163.643C227.085 164.162 227.689 164.421 228.438 164.421C229.014 164.421 229.494 164.286 229.878 164.018C230.262 163.749 230.526 163.365 230.67 162.866H232.081C231.87 163.672 231.448 164.32 230.814 164.81C230.181 165.29 229.389 165.53 228.438 165.53C227.689 165.53 227.022 165.362 226.437 165.026C225.861 164.69 225.409 164.214 225.083 163.6C224.757 162.986 224.593 162.266 224.593 161.44ZM241.03 161.152C241.03 161.402 241.016 161.666 240.987 161.944H234.68C234.728 162.722 234.992 163.331 235.472 163.773C235.961 164.205 236.552 164.421 237.243 164.421C237.809 164.421 238.28 164.291 238.654 164.032C239.038 163.763 239.307 163.408 239.46 162.966H240.872C240.66 163.725 240.238 164.344 239.604 164.824C238.971 165.294 238.184 165.53 237.243 165.53C236.494 165.53 235.822 165.362 235.227 165.026C234.641 164.69 234.18 164.214 233.844 163.6C233.508 162.976 233.34 162.256 233.34 161.44C233.34 160.624 233.504 159.909 233.83 159.294C234.156 158.68 234.612 158.21 235.198 157.883C235.793 157.547 236.475 157.379 237.243 157.379C237.992 157.379 238.654 157.542 239.23 157.869C239.806 158.195 240.248 158.646 240.555 159.222C240.872 159.789 241.03 160.432 241.03 161.152ZM239.676 160.878C239.676 160.379 239.566 159.952 239.345 159.597C239.124 159.232 238.822 158.958 238.438 158.776C238.064 158.584 237.646 158.488 237.185 158.488C236.523 158.488 235.956 158.699 235.486 159.122C235.025 159.544 234.761 160.13 234.694 160.878H239.676ZM248.197 158.589V163.24C248.197 163.624 248.279 163.898 248.442 164.061C248.605 164.214 248.888 164.291 249.292 164.291H250.256V165.4H249.076C248.346 165.4 247.799 165.232 247.434 164.896C247.069 164.56 246.887 164.008 246.887 163.24V158.589H245.864V157.509H246.887V155.522H248.197V157.509H250.256V158.589H248.197ZM255.286 165.53C254.546 165.53 253.874 165.362 253.27 165.026C252.674 164.69 252.204 164.214 251.858 163.6C251.522 162.976 251.354 162.256 251.354 161.44C251.354 160.634 251.527 159.923 251.873 159.309C252.228 158.685 252.708 158.21 253.313 157.883C253.918 157.547 254.594 157.379 255.343 157.379C256.092 157.379 256.769 157.547 257.374 157.883C257.978 158.21 258.454 158.68 258.799 159.294C259.154 159.909 259.332 160.624 259.332 161.44C259.332 162.256 259.15 162.976 258.785 163.6C258.43 164.214 257.945 164.69 257.33 165.026C256.716 165.362 256.034 165.53 255.286 165.53ZM255.286 164.378C255.756 164.378 256.198 164.267 256.61 164.046C257.023 163.826 257.354 163.494 257.604 163.053C257.863 162.611 257.993 162.074 257.993 161.44C257.993 160.806 257.868 160.269 257.618 159.827C257.369 159.386 257.042 159.059 256.639 158.848C256.236 158.627 255.799 158.517 255.329 158.517C254.849 158.517 254.407 158.627 254.004 158.848C253.61 159.059 253.294 159.386 253.054 159.827C252.814 160.269 252.694 160.806 252.694 161.44C252.694 162.083 252.809 162.626 253.039 163.067C253.279 163.509 253.596 163.84 253.99 164.061C254.383 164.272 254.815 164.378 255.286 164.378ZM267.688 165.53C267.083 165.53 266.54 165.429 266.06 165.227C265.58 165.016 265.201 164.728 264.923 164.363C264.644 163.989 264.491 163.562 264.462 163.082H265.816C265.854 163.475 266.036 163.797 266.363 164.046C266.699 164.296 267.136 164.421 267.673 164.421C268.172 164.421 268.566 164.31 268.854 164.09C269.142 163.869 269.286 163.59 269.286 163.254C269.286 162.909 269.132 162.654 268.825 162.491C268.518 162.318 268.043 162.15 267.4 161.987C266.814 161.834 266.334 161.68 265.96 161.526C265.595 161.363 265.278 161.128 265.009 160.821C264.75 160.504 264.62 160.091 264.62 159.582C264.62 159.179 264.74 158.81 264.98 158.474C265.22 158.138 265.561 157.874 266.003 157.682C266.444 157.48 266.948 157.379 267.515 157.379C268.388 157.379 269.094 157.6 269.632 158.042C270.169 158.483 270.457 159.088 270.496 159.856H269.185C269.156 159.443 268.988 159.112 268.681 158.862C268.384 158.613 267.98 158.488 267.472 158.488C267.001 158.488 266.627 158.589 266.348 158.79C266.07 158.992 265.931 159.256 265.931 159.582C265.931 159.842 266.012 160.058 266.176 160.23C266.348 160.394 266.56 160.528 266.809 160.634C267.068 160.73 267.424 160.84 267.875 160.965C268.441 161.118 268.902 161.272 269.257 161.426C269.612 161.57 269.915 161.79 270.164 162.088C270.424 162.386 270.558 162.774 270.568 163.254C270.568 163.686 270.448 164.075 270.208 164.421C269.968 164.766 269.627 165.04 269.185 165.242C268.753 165.434 268.254 165.53 267.688 165.53ZM274.016 158.589V163.24C274.016 163.624 274.097 163.898 274.261 164.061C274.424 164.214 274.707 164.291 275.11 164.291H276.075V165.4H274.894C274.165 165.4 273.617 165.232 273.253 164.896C272.888 164.56 272.705 164.008 272.705 163.24V158.589H271.683V157.509H272.705V155.522H274.016V157.509H276.075V158.589H274.016ZM278.973 158.79C279.204 158.339 279.53 157.989 279.952 157.739C280.384 157.49 280.908 157.365 281.522 157.365V158.718H281.176C279.708 158.718 278.973 159.515 278.973 161.109V165.4H277.663V157.509H278.973V158.79ZM286.476 165.53C285.737 165.53 285.065 165.362 284.46 165.026C283.865 164.69 283.395 164.214 283.049 163.6C282.713 162.976 282.545 162.256 282.545 161.44C282.545 160.634 282.718 159.923 283.063 159.309C283.419 158.685 283.899 158.21 284.503 157.883C285.108 157.547 285.785 157.379 286.534 157.379C287.283 157.379 287.959 157.547 288.564 157.883C289.169 158.21 289.644 158.68 289.99 159.294C290.345 159.909 290.523 160.624 290.523 161.44C290.523 162.256 290.34 162.976 289.975 163.6C289.62 164.214 289.135 164.69 288.521 165.026C287.907 165.362 287.225 165.53 286.476 165.53ZM286.476 164.378C286.947 164.378 287.388 164.267 287.801 164.046C288.214 163.826 288.545 163.494 288.795 163.053C289.054 162.611 289.183 162.074 289.183 161.44C289.183 160.806 289.059 160.269 288.809 159.827C288.559 159.386 288.233 159.059 287.83 158.848C287.427 158.627 286.99 158.517 286.519 158.517C286.039 158.517 285.598 158.627 285.195 158.848C284.801 159.059 284.484 159.386 284.244 159.827C284.004 160.269 283.884 160.806 283.884 161.44C283.884 162.083 283.999 162.626 284.23 163.067C284.47 163.509 284.787 163.84 285.18 164.061C285.574 164.272 286.006 164.378 286.476 164.378ZM296.09 157.365C297.05 157.365 297.828 157.658 298.423 158.243C299.018 158.819 299.316 159.654 299.316 160.749V165.4H298.02V160.936C298.02 160.149 297.823 159.549 297.43 159.136C297.036 158.714 296.498 158.502 295.817 158.502C295.126 158.502 294.574 158.718 294.161 159.15C293.758 159.582 293.556 160.211 293.556 161.037V165.4H292.246V157.509H293.556V158.632C293.815 158.229 294.166 157.917 294.607 157.696C295.058 157.475 295.553 157.365 296.09 157.365ZM304.711 157.379C305.393 157.379 305.988 157.528 306.497 157.826C307.015 158.123 307.399 158.498 307.649 158.949V157.509H308.973V165.573C308.973 166.293 308.82 166.931 308.513 167.488C308.205 168.054 307.764 168.496 307.188 168.813C306.621 169.13 305.959 169.288 305.201 169.288C304.164 169.288 303.3 169.043 302.609 168.554C301.917 168.064 301.509 167.397 301.385 166.552H302.681C302.825 167.032 303.122 167.416 303.573 167.704C304.025 168.002 304.567 168.15 305.201 168.15C305.921 168.15 306.506 167.925 306.957 167.474C307.418 167.022 307.649 166.389 307.649 165.573V163.917C307.389 164.378 307.005 164.762 306.497 165.069C305.988 165.376 305.393 165.53 304.711 165.53C304.01 165.53 303.372 165.357 302.796 165.011C302.229 164.666 301.783 164.181 301.457 163.557C301.13 162.933 300.967 162.222 300.967 161.426C300.967 160.619 301.13 159.914 301.457 159.309C301.783 158.694 302.229 158.219 302.796 157.883C303.372 157.547 304.01 157.379 304.711 157.379ZM307.649 161.44C307.649 160.845 307.529 160.326 307.289 159.885C307.049 159.443 306.722 159.107 306.309 158.877C305.906 158.637 305.46 158.517 304.97 158.517C304.481 158.517 304.034 158.632 303.631 158.862C303.228 159.093 302.906 159.429 302.666 159.87C302.426 160.312 302.306 160.83 302.306 161.426C302.306 162.03 302.426 162.558 302.666 163.01C302.906 163.451 303.228 163.792 303.631 164.032C304.034 164.262 304.481 164.378 304.97 164.378C305.46 164.378 305.906 164.262 306.309 164.032C306.722 163.792 307.049 163.451 307.289 163.01C307.529 162.558 307.649 162.035 307.649 161.44ZM324.516 157.365C325.131 157.365 325.678 157.494 326.158 157.754C326.638 158.003 327.017 158.382 327.296 158.891C327.574 159.4 327.713 160.019 327.713 160.749V165.4H326.417V160.936C326.417 160.149 326.22 159.549 325.827 159.136C325.443 158.714 324.92 158.502 324.257 158.502C323.576 158.502 323.033 158.723 322.63 159.165C322.227 159.597 322.025 160.226 322.025 161.051V165.4H320.729V160.936C320.729 160.149 320.532 159.549 320.139 159.136C319.755 158.714 319.232 158.502 318.569 158.502C317.888 158.502 317.345 158.723 316.942 159.165C316.539 159.597 316.337 160.226 316.337 161.051V165.4H315.027V157.509H316.337V158.646C316.596 158.234 316.942 157.917 317.374 157.696C317.816 157.475 318.3 157.365 318.828 157.365C319.491 157.365 320.076 157.514 320.585 157.811C321.094 158.109 321.473 158.546 321.723 159.122C321.944 158.565 322.308 158.133 322.817 157.826C323.326 157.518 323.892 157.365 324.516 157.365ZM333.304 165.53C332.565 165.53 331.893 165.362 331.288 165.026C330.693 164.69 330.223 164.214 329.877 163.6C329.541 162.976 329.373 162.256 329.373 161.44C329.373 160.634 329.546 159.923 329.892 159.309C330.247 158.685 330.727 158.21 331.332 157.883C331.936 157.547 332.613 157.379 333.362 157.379C334.111 157.379 334.788 157.547 335.392 157.883C335.997 158.21 336.472 158.68 336.818 159.294C337.173 159.909 337.351 160.624 337.351 161.44C337.351 162.256 337.168 162.976 336.804 163.6C336.448 164.214 335.964 164.69 335.349 165.026C334.735 165.362 334.053 165.53 333.304 165.53ZM333.304 164.378C333.775 164.378 334.216 164.267 334.629 164.046C335.042 163.826 335.373 163.494 335.623 163.053C335.882 162.611 336.012 162.074 336.012 161.44C336.012 160.806 335.887 160.269 335.637 159.827C335.388 159.386 335.061 159.059 334.658 158.848C334.255 158.627 333.818 158.517 333.348 158.517C332.868 158.517 332.426 158.627 332.023 158.848C331.629 159.059 331.312 159.386 331.072 159.827C330.832 160.269 330.712 160.806 330.712 161.44C330.712 162.083 330.828 162.626 331.058 163.067C331.298 163.509 331.615 163.84 332.008 164.061C332.402 164.272 332.834 164.378 333.304 164.378ZM340.384 158.79C340.615 158.339 340.941 157.989 341.363 157.739C341.795 157.49 342.319 157.365 342.933 157.365V158.718H342.587C341.119 158.718 340.384 159.515 340.384 161.109V165.4H339.074V157.509H340.384V158.79ZM343.956 161.426C343.956 160.619 344.119 159.914 344.446 159.309C344.772 158.694 345.218 158.219 345.785 157.883C346.361 157.547 346.999 157.379 347.7 157.379C348.391 157.379 348.991 157.528 349.5 157.826C350.009 158.123 350.388 158.498 350.638 158.949V157.509H351.962V165.4H350.638V163.931C350.378 164.392 349.99 164.776 349.471 165.083C348.962 165.381 348.367 165.53 347.686 165.53C346.985 165.53 346.351 165.357 345.785 165.011C345.218 164.666 344.772 164.181 344.446 163.557C344.119 162.933 343.956 162.222 343.956 161.426ZM350.638 161.44C350.638 160.845 350.518 160.326 350.278 159.885C350.038 159.443 349.711 159.107 349.298 158.877C348.895 158.637 348.449 158.517 347.959 158.517C347.47 158.517 347.023 158.632 346.62 158.862C346.217 159.093 345.895 159.429 345.655 159.87C345.415 160.312 345.295 160.83 345.295 161.426C345.295 162.03 345.415 162.558 345.655 163.01C345.895 163.451 346.217 163.792 346.62 164.032C347.023 164.262 347.47 164.378 347.959 164.378C348.449 164.378 348.895 164.262 349.298 164.032C349.711 163.792 350.038 163.451 350.278 163.01C350.518 162.558 350.638 162.035 350.638 161.44ZM355.487 154.744V165.4H354.177V154.744H355.487ZM101.118 186.426C101.118 185.619 101.281 184.914 101.607 184.309C101.934 183.694 102.38 183.219 102.947 182.883C103.523 182.547 104.161 182.379 104.862 182.379C105.553 182.379 106.153 182.528 106.662 182.826C107.171 183.123 107.55 183.498 107.799 183.949V182.509H109.124V190.4H107.799V188.931C107.54 189.392 107.151 189.776 106.633 190.083C106.124 190.381 105.529 190.53 104.847 190.53C104.147 190.53 103.513 190.357 102.947 190.011C102.38 189.666 101.934 189.181 101.607 188.557C101.281 187.933 101.118 187.222 101.118 186.426ZM107.799 186.44C107.799 185.845 107.679 185.326 107.439 184.885C107.199 184.443 106.873 184.107 106.46 183.877C106.057 183.637 105.611 183.517 105.121 183.517C104.631 183.517 104.185 183.632 103.782 183.862C103.379 184.093 103.057 184.429 102.817 184.87C102.577 185.312 102.457 185.83 102.457 186.426C102.457 187.03 102.577 187.558 102.817 188.01C103.057 188.451 103.379 188.792 103.782 189.032C104.185 189.262 104.631 189.378 105.121 189.378C105.611 189.378 106.057 189.262 106.46 189.032C106.873 188.792 107.199 188.451 107.439 188.01C107.679 187.558 107.799 187.035 107.799 186.44ZM115.183 182.365C116.143 182.365 116.921 182.658 117.516 183.243C118.111 183.819 118.409 184.654 118.409 185.749V190.4H117.113V185.936C117.113 185.149 116.916 184.549 116.523 184.136C116.129 183.714 115.591 183.502 114.91 183.502C114.219 183.502 113.667 183.718 113.254 184.15C112.851 184.582 112.649 185.211 112.649 186.037V190.4H111.339V182.509H112.649V183.632C112.908 183.229 113.259 182.917 113.7 182.696C114.151 182.475 114.646 182.365 115.183 182.365ZM120.06 186.426C120.06 185.619 120.223 184.914 120.549 184.309C120.876 183.694 121.322 183.219 121.889 182.883C122.465 182.547 123.108 182.379 123.818 182.379C124.433 182.379 125.004 182.523 125.532 182.811C126.06 183.09 126.463 183.459 126.741 183.92V179.744H128.066V190.4H126.741V188.917C126.482 189.387 126.098 189.776 125.589 190.083C125.081 190.381 124.485 190.53 123.804 190.53C123.103 190.53 122.465 190.357 121.889 190.011C121.322 189.666 120.876 189.181 120.549 188.557C120.223 187.933 120.06 187.222 120.06 186.426ZM126.741 186.44C126.741 185.845 126.621 185.326 126.381 184.885C126.141 184.443 125.815 184.107 125.402 183.877C124.999 183.637 124.553 183.517 124.063 183.517C123.573 183.517 123.127 183.632 122.724 183.862C122.321 184.093 121.999 184.429 121.759 184.87C121.519 185.312 121.399 185.83 121.399 186.426C121.399 187.03 121.519 187.558 121.759 188.01C121.999 188.451 122.321 188.792 122.724 189.032C123.127 189.262 123.573 189.378 124.063 189.378C124.553 189.378 124.999 189.262 125.402 189.032C125.815 188.792 126.141 188.451 126.381 188.01C126.621 187.558 126.741 187.035 126.741 186.44ZM141.32 186.152C141.32 186.402 141.305 186.666 141.277 186.944H134.969C135.017 187.722 135.281 188.331 135.761 188.773C136.251 189.205 136.841 189.421 137.533 189.421C138.099 189.421 138.569 189.291 138.944 189.032C139.328 188.763 139.597 188.408 139.75 187.966H141.161C140.95 188.725 140.528 189.344 139.894 189.824C139.261 190.294 138.473 190.53 137.533 190.53C136.784 190.53 136.112 190.362 135.517 190.026C134.931 189.69 134.47 189.214 134.134 188.6C133.798 187.976 133.63 187.256 133.63 186.44C133.63 185.624 133.793 184.909 134.12 184.294C134.446 183.68 134.902 183.21 135.488 182.883C136.083 182.547 136.765 182.379 137.533 182.379C138.281 182.379 138.944 182.542 139.52 182.869C140.096 183.195 140.537 183.646 140.845 184.222C141.161 184.789 141.32 185.432 141.32 186.152ZM139.966 185.878C139.966 185.379 139.856 184.952 139.635 184.597C139.414 184.232 139.112 183.958 138.728 183.776C138.353 183.584 137.936 183.488 137.475 183.488C136.813 183.488 136.246 183.699 135.776 184.122C135.315 184.544 135.051 185.13 134.984 185.878H139.966ZM144.648 183.589V188.24C144.648 188.624 144.729 188.898 144.893 189.061C145.056 189.214 145.339 189.291 145.742 189.291H146.707V190.4H145.526C144.797 190.4 144.249 190.232 143.885 189.896C143.52 189.56 143.337 189.008 143.337 188.24V183.589H142.315V182.509H143.337V180.522H144.648V182.509H146.707V183.589H144.648ZM152.212 182.365C152.807 182.365 153.344 182.494 153.824 182.754C154.304 183.003 154.679 183.382 154.948 183.891C155.226 184.4 155.365 185.019 155.365 185.749V190.4H154.069V185.936C154.069 185.149 153.872 184.549 153.479 184.136C153.085 183.714 152.548 183.502 151.866 183.502C151.175 183.502 150.623 183.718 150.21 184.15C149.807 184.582 149.605 185.211 149.605 186.037V190.4H148.295V179.744H149.605V183.632C149.864 183.229 150.22 182.917 150.671 182.696C151.132 182.475 151.645 182.365 152.212 182.365ZM158.183 181.227C157.933 181.227 157.722 181.141 157.549 180.968C157.376 180.795 157.29 180.584 157.29 180.334C157.29 180.085 157.376 179.874 157.549 179.701C157.722 179.528 157.933 179.442 158.183 179.442C158.423 179.442 158.624 179.528 158.787 179.701C158.96 179.874 159.047 180.085 159.047 180.334C159.047 180.584 158.96 180.795 158.787 180.968C158.624 181.141 158.423 181.227 158.183 181.227ZM158.816 182.509V190.4H157.506V182.509H158.816ZM160.56 186.44C160.56 185.624 160.723 184.914 161.049 184.309C161.376 183.694 161.827 183.219 162.403 182.883C162.989 182.547 163.656 182.379 164.405 182.379C165.374 182.379 166.171 182.614 166.795 183.085C167.429 183.555 167.846 184.208 168.048 185.043H166.637C166.502 184.563 166.238 184.184 165.845 183.906C165.461 183.627 164.981 183.488 164.405 183.488C163.656 183.488 163.051 183.747 162.59 184.266C162.129 184.774 161.899 185.499 161.899 186.44C161.899 187.39 162.129 188.125 162.59 188.643C163.051 189.162 163.656 189.421 164.405 189.421C164.981 189.421 165.461 189.286 165.845 189.018C166.229 188.749 166.493 188.365 166.637 187.866H168.048C167.837 188.672 167.414 189.32 166.781 189.81C166.147 190.29 165.355 190.53 164.405 190.53C163.656 190.53 162.989 190.362 162.403 190.026C161.827 189.69 161.376 189.214 161.049 188.6C160.723 187.986 160.56 187.266 160.56 186.44ZM169.307 186.426C169.307 185.619 169.47 184.914 169.796 184.309C170.123 183.694 170.569 183.219 171.136 182.883C171.712 182.547 172.35 182.379 173.051 182.379C173.742 182.379 174.342 182.528 174.851 182.826C175.36 183.123 175.739 183.498 175.988 183.949V182.509H177.313V190.4H175.988V188.931C175.729 189.392 175.34 189.776 174.822 190.083C174.313 190.381 173.718 190.53 173.036 190.53C172.336 190.53 171.702 190.357 171.136 190.011C170.569 189.666 170.123 189.181 169.796 188.557C169.47 187.933 169.307 187.222 169.307 186.426ZM175.988 186.44C175.988 185.845 175.868 185.326 175.628 184.885C175.388 184.443 175.062 184.107 174.649 183.877C174.246 183.637 173.8 183.517 173.31 183.517C172.82 183.517 172.374 183.632 171.971 183.862C171.568 184.093 171.246 184.429 171.006 184.87C170.766 185.312 170.646 185.83 170.646 186.426C170.646 187.03 170.766 187.558 171.006 188.01C171.246 188.451 171.568 188.792 171.971 189.032C172.374 189.262 172.82 189.378 173.31 189.378C173.8 189.378 174.246 189.262 174.649 189.032C175.062 188.792 175.388 188.451 175.628 188.01C175.868 187.558 175.988 187.035 175.988 186.44ZM180.838 179.744V190.4H179.528V179.744H180.838ZM188.221 183.963C188.48 183.512 188.864 183.138 189.373 182.84C189.891 182.533 190.491 182.379 191.173 182.379C191.874 182.379 192.507 182.547 193.074 182.883C193.65 183.219 194.101 183.694 194.427 184.309C194.754 184.914 194.917 185.619 194.917 186.426C194.917 187.222 194.754 187.933 194.427 188.557C194.101 189.181 193.65 189.666 193.074 190.011C192.507 190.357 191.874 190.53 191.173 190.53C190.501 190.53 189.906 190.381 189.387 190.083C188.878 189.776 188.49 189.397 188.221 188.946V194.144H186.91V182.509H188.221V183.963ZM193.578 186.426C193.578 185.83 193.458 185.312 193.218 184.87C192.978 184.429 192.651 184.093 192.238 183.862C191.835 183.632 191.389 183.517 190.899 183.517C190.419 183.517 189.973 183.637 189.56 183.877C189.157 184.107 188.83 184.448 188.581 184.899C188.341 185.341 188.221 185.854 188.221 186.44C188.221 187.035 188.341 187.558 188.581 188.01C188.83 188.451 189.157 188.792 189.56 189.032C189.973 189.262 190.419 189.378 190.899 189.378C191.389 189.378 191.835 189.262 192.238 189.032C192.651 188.792 192.978 188.451 193.218 188.01C193.458 187.558 193.578 187.03 193.578 186.426ZM197.952 183.79C198.182 183.339 198.509 182.989 198.931 182.739C199.363 182.49 199.886 182.365 200.501 182.365V183.718H200.155C198.686 183.718 197.952 184.515 197.952 186.109V190.4H196.642V182.509H197.952V183.79ZM202.69 181.227C202.441 181.227 202.23 181.141 202.057 180.968C201.884 180.795 201.798 180.584 201.798 180.334C201.798 180.085 201.884 179.874 202.057 179.701C202.23 179.528 202.441 179.442 202.69 179.442C202.93 179.442 203.132 179.528 203.295 179.701C203.468 179.874 203.554 180.085 203.554 180.334C203.554 180.584 203.468 180.795 203.295 180.968C203.132 181.141 202.93 181.227 202.69 181.227ZM203.324 182.509V190.4H202.014V182.509H203.324ZM209.402 182.365C210.362 182.365 211.14 182.658 211.735 183.243C212.33 183.819 212.628 184.654 212.628 185.749V190.4H211.332V185.936C211.332 185.149 211.135 184.549 210.741 184.136C210.348 183.714 209.81 183.502 209.129 183.502C208.437 183.502 207.885 183.718 207.473 184.15C207.069 184.582 206.868 185.211 206.868 186.037V190.4H205.557V182.509H206.868V183.632C207.127 183.229 207.477 182.917 207.919 182.696C208.37 182.475 208.865 182.365 209.402 182.365ZM214.279 186.44C214.279 185.624 214.442 184.914 214.768 184.309C215.095 183.694 215.546 183.219 216.122 182.883C216.707 182.547 217.375 182.379 218.123 182.379C219.093 182.379 219.89 182.614 220.514 183.085C221.147 183.555 221.565 184.208 221.767 185.043H220.355C220.221 184.563 219.957 184.184 219.563 183.906C219.179 183.627 218.699 183.488 218.123 183.488C217.375 183.488 216.77 183.747 216.309 184.266C215.848 184.774 215.618 185.499 215.618 186.44C215.618 187.39 215.848 188.125 216.309 188.643C216.77 189.162 217.375 189.421 218.123 189.421C218.699 189.421 219.179 189.286 219.563 189.018C219.947 188.749 220.211 188.365 220.355 187.866H221.767C221.555 188.672 221.133 189.32 220.499 189.81C219.866 190.29 219.074 190.53 218.123 190.53C217.375 190.53 216.707 190.362 216.122 190.026C215.546 189.69 215.095 189.214 214.768 188.6C214.442 187.986 214.279 187.266 214.279 186.44ZM224.192 181.227C223.942 181.227 223.731 181.141 223.558 180.968C223.386 180.795 223.299 180.584 223.299 180.334C223.299 180.085 223.386 179.874 223.558 179.701C223.731 179.528 223.942 179.442 224.192 179.442C224.432 179.442 224.634 179.528 224.797 179.701C224.97 179.874 225.056 180.085 225.056 180.334C225.056 180.584 224.97 180.795 224.797 180.968C224.634 181.141 224.432 181.227 224.192 181.227ZM224.826 182.509V190.4H223.515V182.509H224.826ZM228.369 183.963C228.628 183.512 229.012 183.138 229.521 182.84C230.04 182.533 230.64 182.379 231.321 182.379C232.022 182.379 232.656 182.547 233.222 182.883C233.798 183.219 234.249 183.694 234.576 184.309C234.902 184.914 235.065 185.619 235.065 186.426C235.065 187.222 234.902 187.933 234.576 188.557C234.249 189.181 233.798 189.666 233.222 190.011C232.656 190.357 232.022 190.53 231.321 190.53C230.649 190.53 230.054 190.381 229.536 190.083C229.027 189.776 228.638 189.397 228.369 188.946V194.144H227.059V182.509H228.369V183.963ZM233.726 186.426C233.726 185.83 233.606 185.312 233.366 184.87C233.126 184.429 232.8 184.093 232.387 183.862C231.984 183.632 231.537 183.517 231.048 183.517C230.568 183.517 230.121 183.637 229.708 183.877C229.305 184.107 228.979 184.448 228.729 184.899C228.489 185.341 228.369 185.854 228.369 186.44C228.369 187.035 228.489 187.558 228.729 188.01C228.979 188.451 229.305 188.792 229.708 189.032C230.121 189.262 230.568 189.378 231.048 189.378C231.537 189.378 231.984 189.262 232.387 189.032C232.8 188.792 233.126 188.451 233.366 188.01C233.606 187.558 233.726 187.03 233.726 186.426ZM238.101 179.744V190.4H236.79V179.744H238.101ZM247.534 186.152C247.534 186.402 247.519 186.666 247.491 186.944H241.183C241.231 187.722 241.495 188.331 241.975 188.773C242.465 189.205 243.055 189.421 243.747 189.421C244.313 189.421 244.783 189.291 245.158 189.032C245.542 188.763 245.811 188.408 245.964 187.966H247.375C247.164 188.725 246.742 189.344 246.108 189.824C245.475 190.294 244.687 190.53 243.747 190.53C242.998 190.53 242.326 190.362 241.731 190.026C241.145 189.69 240.684 189.214 240.348 188.6C240.012 187.976 239.844 187.256 239.844 186.44C239.844 185.624 240.007 184.909 240.334 184.294C240.66 183.68 241.116 183.21 241.702 182.883C242.297 182.547 242.979 182.379 243.747 182.379C244.495 182.379 245.158 182.542 245.734 182.869C246.31 183.195 246.751 183.646 247.059 184.222C247.375 184.789 247.534 185.432 247.534 186.152ZM246.18 185.878C246.18 185.379 246.07 184.952 245.849 184.597C245.628 184.232 245.326 183.958 244.942 183.776C244.567 183.584 244.15 183.488 243.689 183.488C243.027 183.488 242.46 183.699 241.99 184.122C241.529 184.544 241.265 185.13 241.198 185.878H246.18ZM252.057 190.53C251.452 190.53 250.91 190.429 250.43 190.227C249.95 190.016 249.571 189.728 249.292 189.363C249.014 188.989 248.86 188.562 248.832 188.082H250.185C250.224 188.475 250.406 188.797 250.732 189.046C251.068 189.296 251.505 189.421 252.043 189.421C252.542 189.421 252.936 189.31 253.224 189.09C253.512 188.869 253.656 188.59 253.656 188.254C253.656 187.909 253.502 187.654 253.195 187.491C252.888 187.318 252.412 187.15 251.769 186.987C251.184 186.834 250.704 186.68 250.329 186.526C249.964 186.363 249.648 186.128 249.379 185.821C249.12 185.504 248.99 185.091 248.99 184.582C248.99 184.179 249.11 183.81 249.35 183.474C249.59 183.138 249.931 182.874 250.372 182.682C250.814 182.48 251.318 182.379 251.884 182.379C252.758 182.379 253.464 182.6 254.001 183.042C254.539 183.483 254.827 184.088 254.865 184.856H253.555C253.526 184.443 253.358 184.112 253.051 183.862C252.753 183.613 252.35 183.488 251.841 183.488C251.371 183.488 250.996 183.589 250.718 183.79C250.44 183.992 250.3 184.256 250.3 184.582C250.3 184.842 250.382 185.058 250.545 185.23C250.718 185.394 250.929 185.528 251.179 185.634C251.438 185.73 251.793 185.84 252.244 185.965C252.811 186.118 253.272 186.272 253.627 186.426C253.982 186.57 254.284 186.79 254.534 187.088C254.793 187.386 254.928 187.774 254.937 188.254C254.937 188.686 254.817 189.075 254.577 189.421C254.337 189.766 253.996 190.04 253.555 190.242C253.123 190.434 252.624 190.53 252.057 190.53ZM257.205 190.486C256.955 190.486 256.744 190.4 256.571 190.227C256.398 190.054 256.312 189.843 256.312 189.594C256.312 189.344 256.398 189.133 256.571 188.96C256.744 188.787 256.955 188.701 257.205 188.701C257.445 188.701 257.646 188.787 257.809 188.96C257.982 189.133 258.069 189.344 258.069 189.594C258.069 189.843 257.982 190.054 257.809 190.227C257.646 190.4 257.445 190.486 257.205 190.486Z" fill="#5A7184"/>
</svg>
