<svg width="59" height="58" viewBox="0 0 59 58" fill="none" xmlns="http://www.w3.org/2000/svg">
<g opacity="0.06">
<path d="M44 0H15.2C7.24708 0 0.799988 6.4471 0.799988 14.4V43.2C0.799988 51.1529 7.24708 57.6 15.2 57.6H44C51.9529 57.6 58.4 51.1529 58.4 43.2V14.4C58.4 6.4471 51.9529 0 44 0Z" fill="#FF7F5D" style="fill:#FF7F5D;fill:color(display-p3 1.0000 0.4980 0.3647);fill-opacity:1;"/>
</g>
<g opacity="0.06">
<path d="M44 0H15.2C7.24708 0 0.799988 6.4471 0.799988 14.4V43.2C0.799988 51.1529 7.24708 57.6 15.2 57.6H44C51.9529 57.6 58.4 51.1529 58.4 43.2V14.4C58.4 6.4471 51.9529 0 44 0Z" fill="#FF7F5D" style="fill:#FF7F5D;fill:color(display-p3 1.0000 0.4980 0.3647);fill-opacity:1;"/>
</g>
<path d="M34.6 35.2284V41.657C34.6 42.8404 33.641 43.7998 32.457 43.7998H16.743C15.559 43.7998 14.6 42.8404 14.6 41.657V25.9427C14.6 24.7592 15.559 23.7998 16.743 23.7998H23.171V31.657C23.171 33.6294 24.77 35.2284 26.743 35.2284H34.6Z" fill="#B4CCEF" style="fill:#B4CCEF;fill:color(display-p3 0.7059 0.8000 0.9373);fill-opacity:1;"/>
<path fill-rule="evenodd" clip-rule="evenodd" d="M26.743 13.7998H42.457C43.641 13.7998 44.6 14.7592 44.6 15.9427V31.657C44.6 32.8404 43.641 33.7998 42.457 33.7998H26.743C25.559 33.7998 24.6 32.8404 24.6 31.657V15.9427C24.6 14.7592 25.559 13.7998 26.743 13.7998Z" fill="#FF7F5D" style="fill:#FF7F5D;fill:color(display-p3 1.0000 0.4980 0.3647);fill-opacity:1;"/>
</svg>
