<svg width="177" height="174" viewBox="0 0 177 174" fill="none" xmlns="http://www.w3.org/2000/svg">
<g id="Icon  2">
<g id="Border" opacity="0.06">
<rect id="Shape" x="2.40015" y="-0.000366211" width="172.8" height="172.8" rx="14.4" fill="#108824"/>
</g>
<g id="Icon_Integrity">
<path id="Path" d="M103.8 105.685V124.971C103.8 128.522 100.922 131.4 97.3717 131.4H50.2289C46.6785 131.4 43.8003 128.522 43.8003 124.971V77.8284C43.8003 74.2779 46.6785 71.3998 50.2289 71.3998H69.5146V94.9712C69.5146 100.889 74.3115 105.685 80.2289 105.685H103.8Z" fill="#B4CCEF"/>
<path id="Path_2" fill-rule="evenodd" clip-rule="evenodd" d="M80.2289 41.3998H127.372C130.922 41.3998 133.8 44.2779 133.8 47.8284V94.9712C133.8 98.5216 130.922 101.4 127.372 101.4H80.2289C76.6785 101.4 73.8003 98.5216 73.8003 94.9712V47.8284C73.8003 44.2779 76.6785 41.3998 80.2289 41.3998Z" fill="#108824"/>
</g>
</g>
</svg>
