<svg width="177" height="177" viewBox="0 0 177 177" fill="none" xmlns="http://www.w3.org/2000/svg">
<g id="Icon_Transparency">
<g id="Border" opacity="0.06">
<rect id="Shape" x="2.40015" y="2.39941" width="172.8" height="172.8" rx="14.4" fill="#108824"/>
</g>
<g id="Icon_Multiple_shape">
<path id="Path" fill-rule="evenodd" clip-rule="evenodd" d="M50.2289 43.7996H101.657C105.208 43.7996 108.086 46.6777 108.086 50.2281V101.657C108.086 105.207 105.208 108.085 101.657 108.085H50.2289C46.6785 108.085 43.8003 105.207 43.8003 101.657V50.2281C43.8003 46.6777 46.6785 43.7996 50.2289 43.7996ZM125.229 69.5138H127.372C130.922 69.5138 133.8 72.392 133.8 75.9424V127.371C133.8 130.921 130.922 133.8 127.372 133.8H75.9431C72.3927 133.8 69.5146 130.921 69.5146 127.371V125.228H114.515C120.432 125.228 125.229 120.431 125.229 114.514V69.5138Z" fill="#108824"/>
<path id="Path_2" d="M112.372 56.6565H114.514C118.065 56.6565 120.943 59.5347 120.943 63.0851V114.514C120.943 118.064 118.065 120.942 114.514 120.942H63.0858C59.5354 120.942 56.6572 118.064 56.6572 114.514V112.371H101.657C107.575 112.371 112.372 107.574 112.372 101.656V56.6565Z" fill="#B4CCEF"/>
</g>
</g>
</svg>
