<svg width="58" height="58" viewBox="0 0 58 58" fill="none" xmlns="http://www.w3.org/2000/svg">
<g opacity="0.06">
<path d="M43.2 0H14.4C6.44709 0 0 6.4471 0 14.4V43.2C0 51.1529 6.44709 57.6 14.4 57.6H43.2C51.1529 57.6 57.6 51.1529 57.6 43.2V14.4C57.6 6.4471 51.1529 0 43.2 0Z" fill="#FF7F5D" style="fill:#FF7F5D;fill:color(display-p3 1.0000 0.4980 0.3647);fill-opacity:1;"/>
</g>
<path fill-rule="evenodd" clip-rule="evenodd" d="M15.943 13.8003H33.086C34.269 13.8003 35.229 14.7596 35.229 15.9431V33.086C35.229 34.2694 34.269 35.2288 33.086 35.2288H15.943C14.759 35.2288 13.8 34.2694 13.8 33.086V15.9431C13.8 14.7596 14.759 13.8003 15.943 13.8003ZM40.943 22.3717H41.657C42.841 22.3717 43.8 23.3311 43.8 24.5145V41.6574C43.8 42.8409 42.841 43.8002 41.657 43.8002H24.514C23.331 43.8002 22.371 42.8409 22.371 41.6574V40.9431H37.371C39.344 40.9431 40.943 39.3441 40.943 37.3717V22.3717Z" fill="#FF7F5D" style="fill:#FF7F5D;fill:color(display-p3 1.0000 0.4980 0.3647);fill-opacity:1;"/>
<path d="M36.657 18.0859H37.372C38.555 18.0859 39.514 19.0453 39.514 20.2288V37.3716C39.514 38.5551 38.555 39.5145 37.372 39.5145H20.229C19.045 39.5145 18.086 38.5551 18.086 37.3716V36.6573H33.086C35.058 36.6573 36.657 35.0583 36.657 33.0859V18.0859Z" fill="#B4CCEF" style="fill:#B4CCEF;fill:color(display-p3 0.7059 0.8000 0.9373);fill-opacity:1;"/>
</svg>
