<svg width="359" height="200" viewBox="0 0 359 200" fill="none" xmlns="http://www.w3.org/2000/svg">
<g opacity="0.06">
<rect x="150.8" y="0.799805" width="57.6" height="57.6" rx="14.4" fill="#FF7F5D"/>
</g>
<path fill-rule="evenodd" clip-rule="evenodd" d="M166.743 14.5999H183.886C185.069 14.5999 186.029 15.5592 186.029 16.7427V33.8856C186.029 35.069 185.069 36.0284 183.886 36.0284H166.743C165.559 36.0284 164.6 35.069 164.6 33.8856V16.7427C164.6 15.5592 165.559 14.5999 166.743 14.5999ZM191.743 23.1713H192.457C193.641 23.1713 194.6 24.1307 194.6 25.3141V42.457C194.6 43.6405 193.641 44.5998 192.457 44.5998H175.314C174.131 44.5998 173.171 43.6405 173.171 42.457V41.7427H188.171C190.144 41.7427 191.743 40.1437 191.743 38.1713V23.1713Z" fill="#FF7F5D"/>
<path d="M187.457 18.8855H188.172C189.355 18.8855 190.314 19.8449 190.314 21.0284V38.1712C190.314 39.3547 189.355 40.3141 188.172 40.3141H171.029C169.845 40.3141 168.886 39.3547 168.886 38.1712V37.4569H183.886C185.858 37.4569 187.457 35.8579 187.457 33.8855V18.8855Z" fill="#B4CCEF"/>
<path d="M123.545 91.5638V94.0298H120.197V104.2H117.119V94.0298H113.771V91.5638H123.545ZM128.348 95.8298C128.708 95.2778 129.158 94.8458 129.698 94.5338C130.238 94.2098 130.838 94.0478 131.498 94.0478V97.3058H130.652C129.884 97.3058 129.308 97.4738 128.924 97.8098C128.54 98.1338 128.348 98.7098 128.348 99.5378V104.2H125.27V94.1558H128.348V95.8298ZM132.537 99.1598C132.537 98.1278 132.729 97.2218 133.113 96.4418C133.509 95.6618 134.043 95.0618 134.715 94.6418C135.387 94.2218 136.137 94.0118 136.965 94.0118C137.673 94.0118 138.291 94.1558 138.819 94.4438C139.359 94.7318 139.773 95.1098 140.061 95.5778V94.1558H143.139V104.2H140.061V102.778C139.761 103.246 139.341 103.624 138.801 103.912C138.273 104.2 137.655 104.344 136.947 104.344C136.131 104.344 135.387 104.134 134.715 103.714C134.043 103.282 133.509 102.676 133.113 101.896C132.729 101.104 132.537 100.192 132.537 99.1598ZM140.061 99.1778C140.061 98.4098 139.845 97.8038 139.413 97.3598C138.993 96.9158 138.477 96.6938 137.865 96.6938C137.253 96.6938 136.731 96.9158 136.299 97.3598C135.879 97.7918 135.669 98.3918 135.669 99.1598C135.669 99.9278 135.879 100.54 136.299 100.996C136.731 101.44 137.253 101.662 137.865 101.662C138.477 101.662 138.993 101.44 139.413 100.996C139.845 100.552 140.061 99.9458 140.061 99.1778ZM151.666 94.0478C152.842 94.0478 153.778 94.4318 154.474 95.1998C155.182 95.9558 155.536 96.9998 155.536 98.3318V104.2H152.476V98.7458C152.476 98.0738 152.302 97.5518 151.954 97.1798C151.606 96.8078 151.138 96.6218 150.55 96.6218C149.962 96.6218 149.494 96.8078 149.146 97.1798C148.798 97.5518 148.624 98.0738 148.624 98.7458V104.2H145.546V94.1558H148.624V95.4878C148.936 95.0438 149.356 94.6958 149.884 94.4438C150.412 94.1798 151.006 94.0478 151.666 94.0478ZM161.941 104.344C161.065 104.344 160.285 104.194 159.601 103.894C158.917 103.594 158.377 103.186 157.981 102.67C157.585 102.142 157.363 101.554 157.315 100.906H160.357C160.393 101.254 160.555 101.536 160.843 101.752C161.131 101.968 161.485 102.076 161.905 102.076C162.289 102.076 162.583 102.004 162.787 101.86C163.003 101.704 163.111 101.506 163.111 101.266C163.111 100.978 162.961 100.768 162.661 100.636C162.361 100.492 161.875 100.336 161.203 100.168C160.483 99.9998 159.883 99.8258 159.403 99.6458C158.923 99.4538 158.509 99.1598 158.161 98.7638C157.813 98.3558 157.639 97.8098 157.639 97.1258C157.639 96.5498 157.795 96.0278 158.107 95.5598C158.431 95.0798 158.899 94.7018 159.511 94.4258C160.135 94.1498 160.873 94.0118 161.725 94.0118C162.985 94.0118 163.975 94.3238 164.695 94.9478C165.427 95.5718 165.847 96.3998 165.955 97.4318H163.111C163.063 97.0838 162.907 96.8078 162.643 96.6038C162.391 96.3998 162.055 96.2978 161.635 96.2978C161.275 96.2978 160.999 96.3698 160.807 96.5138C160.615 96.6458 160.519 96.8318 160.519 97.0718C160.519 97.3598 160.669 97.5758 160.969 97.7198C161.281 97.8638 161.761 98.0078 162.409 98.1518C163.153 98.3438 163.759 98.5358 164.227 98.7278C164.695 98.9078 165.103 99.2078 165.451 99.6278C165.811 100.036 165.997 100.588 166.009 101.284C166.009 101.872 165.841 102.4 165.505 102.868C165.181 103.324 164.707 103.684 164.083 103.948C163.471 104.212 162.757 104.344 161.941 104.344ZM171.15 95.5778C171.45 95.1098 171.864 94.7318 172.392 94.4438C172.92 94.1558 173.538 94.0118 174.246 94.0118C175.074 94.0118 175.824 94.2218 176.496 94.6418C177.168 95.0618 177.696 95.6618 178.08 96.4418C178.476 97.2218 178.674 98.1278 178.674 99.1598C178.674 100.192 178.476 101.104 178.08 101.896C177.696 102.676 177.168 103.282 176.496 103.714C175.824 104.134 175.074 104.344 174.246 104.344C173.55 104.344 172.932 104.2 172.392 103.912C171.864 103.624 171.45 103.252 171.15 102.796V108.988H168.072V94.1558H171.15V95.5778ZM175.542 99.1598C175.542 98.3918 175.326 97.7918 174.894 97.3598C174.474 96.9158 173.952 96.6938 173.328 96.6938C172.716 96.6938 172.194 96.9158 171.762 97.3598C171.342 97.8038 171.132 98.4098 171.132 99.1778C171.132 99.9458 171.342 100.552 171.762 100.996C172.194 101.44 172.716 101.662 173.328 101.662C173.94 101.662 174.462 101.44 174.894 100.996C175.326 100.54 175.542 99.9278 175.542 99.1598ZM179.857 99.1598C179.857 98.1278 180.049 97.2218 180.433 96.4418C180.829 95.6618 181.363 95.0618 182.035 94.6418C182.707 94.2218 183.457 94.0118 184.285 94.0118C184.993 94.0118 185.611 94.1558 186.139 94.4438C186.679 94.7318 187.093 95.1098 187.381 95.5778V94.1558H190.459V104.2H187.381V102.778C187.081 103.246 186.661 103.624 186.121 103.912C185.593 104.2 184.975 104.344 184.267 104.344C183.451 104.344 182.707 104.134 182.035 103.714C181.363 103.282 180.829 102.676 180.433 101.896C180.049 101.104 179.857 100.192 179.857 99.1598ZM187.381 99.1778C187.381 98.4098 187.165 97.8038 186.733 97.3598C186.313 96.9158 185.797 96.6938 185.185 96.6938C184.573 96.6938 184.051 96.9158 183.619 97.3598C183.199 97.7918 182.989 98.3918 182.989 99.1598C182.989 99.9278 183.199 100.54 183.619 100.996C184.051 101.44 184.573 101.662 185.185 101.662C185.797 101.662 186.313 101.44 186.733 100.996C187.165 100.552 187.381 99.9458 187.381 99.1778ZM195.944 95.8298C196.304 95.2778 196.754 94.8458 197.294 94.5338C197.834 94.2098 198.434 94.0478 199.094 94.0478V97.3058H198.248C197.48 97.3058 196.904 97.4738 196.52 97.8098C196.136 98.1338 195.944 98.7098 195.944 99.5378V104.2H192.866V94.1558H195.944V95.8298ZM210.213 99.0158C210.213 99.3038 210.195 99.6038 210.159 99.9158H203.193C203.241 100.54 203.439 101.02 203.787 101.356C204.147 101.68 204.585 101.842 205.101 101.842C205.869 101.842 206.403 101.518 206.703 100.87H209.979C209.811 101.53 209.505 102.124 209.061 102.652C208.629 103.18 208.083 103.594 207.423 103.894C206.763 104.194 206.025 104.344 205.209 104.344C204.225 104.344 203.349 104.134 202.581 103.714C201.813 103.294 201.213 102.694 200.781 101.914C200.349 101.134 200.133 100.222 200.133 99.1778C200.133 98.1338 200.343 97.2218 200.763 96.4418C201.195 95.6618 201.795 95.0618 202.563 94.6418C203.331 94.2218 204.213 94.0118 205.209 94.0118C206.181 94.0118 207.045 94.2158 207.801 94.6238C208.557 95.0318 209.145 95.6138 209.565 96.3698C209.997 97.1258 210.213 98.0078 210.213 99.0158ZM207.063 98.2058C207.063 97.6778 206.883 97.2578 206.523 96.9458C206.163 96.6338 205.713 96.4778 205.173 96.4778C204.657 96.4778 204.219 96.6278 203.859 96.9278C203.511 97.2278 203.295 97.6538 203.211 98.2058H207.063ZM218.137 94.0478C219.313 94.0478 220.249 94.4318 220.945 95.1998C221.653 95.9558 222.007 96.9998 222.007 98.3318V104.2H218.947V98.7458C218.947 98.0738 218.773 97.5518 218.425 97.1798C218.077 96.8078 217.609 96.6218 217.021 96.6218C216.433 96.6218 215.965 96.8078 215.617 97.1798C215.269 97.5518 215.095 98.0738 215.095 98.7458V104.2H212.017V94.1558H215.095V95.4878C215.407 95.0438 215.827 94.6958 216.355 94.4438C216.883 94.1798 217.477 94.0478 218.137 94.0478ZM223.713 99.1778C223.713 98.1338 223.923 97.2218 224.343 96.4418C224.775 95.6618 225.369 95.0618 226.125 94.6418C226.893 94.2218 227.769 94.0118 228.753 94.0118C230.013 94.0118 231.063 94.3418 231.903 95.0018C232.755 95.6618 233.313 96.5918 233.577 97.7918H230.301C230.025 97.0238 229.491 96.6398 228.699 96.6398C228.135 96.6398 227.685 96.8618 227.349 97.3058C227.013 97.7378 226.845 98.3618 226.845 99.1778C226.845 99.9938 227.013 100.624 227.349 101.068C227.685 101.5 228.135 101.716 228.699 101.716C229.491 101.716 230.025 101.332 230.301 100.564H233.577C233.313 101.74 232.755 102.664 231.903 103.336C231.051 104.008 230.001 104.344 228.753 104.344C227.769 104.344 226.893 104.134 226.125 103.714C225.369 103.294 224.775 102.694 224.343 101.914C223.923 101.134 223.713 100.222 223.713 99.1778ZM245.664 94.1558L239.364 108.97H236.052L238.356 103.858L234.27 94.1558H237.708L240.03 100.438L242.334 94.1558H245.664Z" fill="#11145A"/>
<path d="M14.5083 131.163V132.229H11.7723V141.2H10.4619V132.229H7.71154V131.163H14.5083ZM17.4318 134.59C17.6622 134.139 17.9886 133.789 18.411 133.539C18.843 133.289 19.3662 133.165 19.9806 133.165V134.518H19.635C18.1662 134.518 17.4318 135.315 17.4318 136.909V141.2H16.1214V133.309H17.4318V134.59ZM21.0036 137.225C21.0036 136.419 21.1668 135.713 21.4932 135.109C21.8196 134.494 22.266 134.019 22.8324 133.683C23.4084 133.347 24.0468 133.179 24.7476 133.179C25.4388 133.179 26.0388 133.328 26.5476 133.625C27.0564 133.923 27.4356 134.297 27.6852 134.749V133.309H29.01V141.2H27.6852V139.731C27.426 140.192 27.0372 140.576 26.5188 140.883C26.01 141.181 25.4148 141.329 24.7332 141.329C24.0324 141.329 23.3988 141.157 22.8324 140.811C22.266 140.465 21.8196 139.981 21.4932 139.357C21.1668 138.733 21.0036 138.022 21.0036 137.225ZM27.6852 137.24C27.6852 136.645 27.5652 136.126 27.3252 135.685C27.0852 135.243 26.7588 134.907 26.346 134.677C25.9428 134.437 25.4964 134.317 25.0068 134.317C24.5172 134.317 24.0708 134.432 23.6676 134.662C23.2644 134.893 22.9428 135.229 22.7028 135.67C22.4628 136.112 22.3428 136.63 22.3428 137.225C22.3428 137.83 22.4628 138.358 22.7028 138.809C22.9428 139.251 23.2644 139.592 23.6676 139.832C24.0708 140.062 24.5172 140.177 25.0068 140.177C25.4964 140.177 25.9428 140.062 26.346 139.832C26.7588 139.592 27.0852 139.251 27.3252 138.809C27.5652 138.358 27.6852 137.835 27.6852 137.24ZM35.0693 133.165C36.0293 133.165 36.8069 133.457 37.4021 134.043C37.9973 134.619 38.2949 135.454 38.2949 136.549V141.2H36.9989V136.736C36.9989 135.949 36.8021 135.349 36.4085 134.936C36.0149 134.513 35.4773 134.302 34.7957 134.302C34.1045 134.302 33.5525 134.518 33.1397 134.95C32.7365 135.382 32.5349 136.011 32.5349 136.837V141.2H31.2245V133.309H32.5349V134.432C32.7941 134.029 33.1445 133.717 33.5861 133.496C34.0373 133.275 34.5317 133.165 35.0693 133.165ZM43.229 141.329C42.6242 141.329 42.0818 141.229 41.6018 141.027C41.1218 140.816 40.7426 140.528 40.4642 140.163C40.1858 139.789 40.0322 139.361 40.0034 138.881H41.357C41.3954 139.275 41.5778 139.597 41.9042 139.846C42.2402 140.096 42.677 140.221 43.2146 140.221C43.7138 140.221 44.1074 140.11 44.3954 139.889C44.6834 139.669 44.8274 139.39 44.8274 139.054C44.8274 138.709 44.6738 138.454 44.3666 138.291C44.0594 138.118 43.5842 137.95 42.941 137.787C42.3554 137.633 41.8754 137.48 41.501 137.326C41.1362 137.163 40.8194 136.928 40.5506 136.621C40.2914 136.304 40.1618 135.891 40.1618 135.382C40.1618 134.979 40.2818 134.609 40.5218 134.273C40.7618 133.937 41.1026 133.673 41.5442 133.481C41.9858 133.28 42.4898 133.179 43.0562 133.179C43.9298 133.179 44.6354 133.4 45.173 133.841C45.7106 134.283 45.9986 134.888 46.037 135.656H44.7266C44.6978 135.243 44.5298 134.912 44.2226 134.662C43.925 134.413 43.5218 134.288 43.013 134.288C42.5426 134.288 42.1682 134.389 41.8898 134.59C41.6114 134.792 41.4722 135.056 41.4722 135.382C41.4722 135.641 41.5538 135.857 41.717 136.03C41.8898 136.193 42.101 136.328 42.3506 136.433C42.6098 136.529 42.965 136.64 43.4162 136.765C43.9826 136.918 44.4434 137.072 44.7986 137.225C45.1538 137.369 45.4562 137.59 45.7058 137.888C45.965 138.185 46.0994 138.574 46.109 139.054C46.109 139.486 45.989 139.875 45.749 140.221C45.509 140.566 45.1682 140.84 44.7266 141.041C44.2946 141.233 43.7954 141.329 43.229 141.329ZM49.2693 134.763C49.5285 134.312 49.9125 133.937 50.4213 133.64C50.9397 133.333 51.5397 133.179 52.2213 133.179C52.9221 133.179 53.5557 133.347 54.1221 133.683C54.6981 134.019 55.1493 134.494 55.4757 135.109C55.8021 135.713 55.9653 136.419 55.9653 137.225C55.9653 138.022 55.8021 138.733 55.4757 139.357C55.1493 139.981 54.6981 140.465 54.1221 140.811C53.5557 141.157 52.9221 141.329 52.2213 141.329C51.5493 141.329 50.9541 141.181 50.4357 140.883C49.9269 140.576 49.5381 140.197 49.2693 139.745V144.944H47.9589V133.309H49.2693V134.763ZM54.6261 137.225C54.6261 136.63 54.5061 136.112 54.2661 135.67C54.0261 135.229 53.6997 134.893 53.2869 134.662C52.8837 134.432 52.4373 134.317 51.9477 134.317C51.4677 134.317 51.0213 134.437 50.6085 134.677C50.2053 134.907 49.8789 135.248 49.6293 135.699C49.3893 136.141 49.2693 136.654 49.2693 137.24C49.2693 137.835 49.3893 138.358 49.6293 138.809C49.8789 139.251 50.2053 139.592 50.6085 139.832C51.0213 140.062 51.4677 140.177 51.9477 140.177C52.4373 140.177 52.8837 140.062 53.2869 139.832C53.6997 139.592 54.0261 139.251 54.2661 138.809C54.5061 138.358 54.6261 137.83 54.6261 137.225ZM57.2005 137.225C57.2005 136.419 57.3637 135.713 57.6901 135.109C58.0165 134.494 58.4629 134.019 59.0293 133.683C59.6053 133.347 60.2437 133.179 60.9445 133.179C61.6357 133.179 62.2357 133.328 62.7445 133.625C63.2533 133.923 63.6325 134.297 63.8821 134.749V133.309H65.2069V141.2H63.8821V139.731C63.6229 140.192 63.2341 140.576 62.7157 140.883C62.2069 141.181 61.6117 141.329 60.9301 141.329C60.2293 141.329 59.5957 141.157 59.0293 140.811C58.4629 140.465 58.0165 139.981 57.6901 139.357C57.3637 138.733 57.2005 138.022 57.2005 137.225ZM63.8821 137.24C63.8821 136.645 63.7621 136.126 63.5221 135.685C63.2821 135.243 62.9557 134.907 62.5429 134.677C62.1397 134.437 61.6933 134.317 61.2037 134.317C60.7141 134.317 60.2677 134.432 59.8645 134.662C59.4613 134.893 59.1397 135.229 58.8997 135.67C58.6597 136.112 58.5397 136.63 58.5397 137.225C58.5397 137.83 58.6597 138.358 58.8997 138.809C59.1397 139.251 59.4613 139.592 59.8645 139.832C60.2677 140.062 60.7141 140.177 61.2037 140.177C61.6933 140.177 62.1397 140.062 62.5429 139.832C62.9557 139.592 63.2821 139.251 63.5221 138.809C63.7621 138.358 63.8821 137.835 63.8821 137.24ZM68.7318 134.59C68.9622 134.139 69.2886 133.789 69.711 133.539C70.143 133.289 70.6662 133.165 71.2806 133.165V134.518H70.935C69.4662 134.518 68.7318 135.315 68.7318 136.909V141.2H67.4214V133.309H68.7318V134.59ZM79.9932 136.952C79.9932 137.201 79.9788 137.465 79.95 137.744H73.6428C73.6908 138.521 73.9548 139.131 74.4348 139.573C74.9244 140.005 75.5148 140.221 76.206 140.221C76.7724 140.221 77.2428 140.091 77.6172 139.832C78.0012 139.563 78.27 139.208 78.4236 138.766H79.8348C79.6236 139.525 79.2012 140.144 78.5676 140.624C77.934 141.094 77.1468 141.329 76.206 141.329C75.4572 141.329 74.7852 141.161 74.19 140.825C73.6044 140.489 73.1436 140.014 72.8076 139.4C72.4716 138.776 72.3036 138.056 72.3036 137.24C72.3036 136.424 72.4668 135.709 72.7932 135.094C73.1196 134.48 73.5756 134.009 74.1612 133.683C74.7564 133.347 75.438 133.179 76.206 133.179C76.9548 133.179 77.6172 133.342 78.1932 133.669C78.7692 133.995 79.2108 134.446 79.518 135.022C79.8348 135.589 79.9932 136.232 79.9932 136.952ZM78.6396 136.678C78.6396 136.179 78.5292 135.752 78.3084 135.397C78.0876 135.032 77.7852 134.758 77.4012 134.576C77.0268 134.384 76.6092 134.288 76.1484 134.288C75.486 134.288 74.9196 134.499 74.4492 134.921C73.9884 135.344 73.7244 135.929 73.6572 136.678H78.6396ZM85.5677 133.165C86.5277 133.165 87.3053 133.457 87.9005 134.043C88.4957 134.619 88.7933 135.454 88.7933 136.549V141.2H87.4973V136.736C87.4973 135.949 87.3005 135.349 86.9069 134.936C86.5133 134.513 85.9757 134.302 85.2941 134.302C84.6029 134.302 84.0509 134.518 83.6381 134.95C83.2349 135.382 83.0333 136.011 83.0333 136.837V141.2H81.7229V133.309H83.0333V134.432C83.2925 134.029 83.6429 133.717 84.0845 133.496C84.5357 133.275 85.0301 133.165 85.5677 133.165ZM90.4443 137.24C90.4443 136.424 90.6075 135.713 90.9339 135.109C91.2603 134.494 91.7115 134.019 92.2875 133.683C92.8731 133.347 93.5403 133.179 94.2891 133.179C95.2587 133.179 96.0555 133.414 96.6795 133.885C97.3131 134.355 97.7307 135.008 97.9323 135.843H96.5211C96.3867 135.363 96.1227 134.984 95.7291 134.705C95.3451 134.427 94.8651 134.288 94.2891 134.288C93.5403 134.288 92.9355 134.547 92.4747 135.065C92.0139 135.574 91.7835 136.299 91.7835 137.24C91.7835 138.19 92.0139 138.925 92.4747 139.443C92.9355 139.961 93.5403 140.221 94.2891 140.221C94.8651 140.221 95.3451 140.086 95.7291 139.817C96.1131 139.549 96.3771 139.165 96.5211 138.665H97.9323C97.7211 139.472 97.2987 140.12 96.6651 140.609C96.0315 141.089 95.2395 141.329 94.2891 141.329C93.5403 141.329 92.8731 141.161 92.2875 140.825C91.7115 140.489 91.2603 140.014 90.9339 139.4C90.6075 138.785 90.4443 138.065 90.4443 137.24ZM106.478 133.309L101.726 144.915H100.372L101.927 141.113L98.7447 133.309H100.199L102.676 139.702L105.124 133.309H106.478ZM109.148 139.385L107.536 143.259H106.657L107.708 139.385H109.148ZM113.999 137.225C113.999 136.419 114.162 135.713 114.489 135.109C114.815 134.494 115.261 134.019 115.828 133.683C116.404 133.347 117.042 133.179 117.743 133.179C118.434 133.179 119.034 133.328 119.543 133.625C120.052 133.923 120.431 134.297 120.681 134.749V133.309H122.005V141.2H120.681V139.731C120.421 140.192 120.033 140.576 119.514 140.883C119.005 141.181 118.41 141.329 117.729 141.329C117.028 141.329 116.394 141.157 115.828 140.811C115.261 140.465 114.815 139.981 114.489 139.357C114.162 138.733 113.999 138.022 113.999 137.225ZM120.681 137.24C120.681 136.645 120.561 136.126 120.321 135.685C120.081 135.243 119.754 134.907 119.341 134.677C118.938 134.437 118.492 134.317 118.002 134.317C117.513 134.317 117.066 134.432 116.663 134.662C116.26 134.893 115.938 135.229 115.698 135.67C115.458 136.112 115.338 136.63 115.338 137.225C115.338 137.83 115.458 138.358 115.698 138.809C115.938 139.251 116.26 139.592 116.663 139.832C117.066 140.062 117.513 140.177 118.002 140.177C118.492 140.177 118.938 140.062 119.341 139.832C119.754 139.592 120.081 139.251 120.321 138.809C120.561 138.358 120.681 137.835 120.681 137.24ZM127.013 141.329C126.409 141.329 125.866 141.229 125.386 141.027C124.906 140.816 124.527 140.528 124.249 140.163C123.97 139.789 123.817 139.361 123.788 138.881H125.141C125.18 139.275 125.362 139.597 125.689 139.846C126.025 140.096 126.461 140.221 126.999 140.221C127.498 140.221 127.892 140.11 128.18 139.889C128.468 139.669 128.612 139.39 128.612 139.054C128.612 138.709 128.458 138.454 128.151 138.291C127.844 138.118 127.369 137.95 126.725 137.787C126.14 137.633 125.66 137.48 125.285 137.326C124.921 137.163 124.604 136.928 124.335 136.621C124.076 136.304 123.946 135.891 123.946 135.382C123.946 134.979 124.066 134.609 124.306 134.273C124.546 133.937 124.887 133.673 125.329 133.481C125.77 133.28 126.274 133.179 126.841 133.179C127.714 133.179 128.42 133.4 128.957 133.841C129.495 134.283 129.783 134.888 129.821 135.656H128.511C128.482 135.243 128.314 134.912 128.007 134.662C127.709 134.413 127.306 134.288 126.797 134.288C126.327 134.288 125.953 134.389 125.674 134.59C125.396 134.792 125.257 135.056 125.257 135.382C125.257 135.641 125.338 135.857 125.501 136.03C125.674 136.193 125.885 136.328 126.135 136.433C126.394 136.529 126.749 136.64 127.201 136.765C127.767 136.918 128.228 137.072 128.583 137.225C128.938 137.369 129.241 137.59 129.49 137.888C129.749 138.185 129.884 138.574 129.893 139.054C129.893 139.486 129.773 139.875 129.533 140.221C129.293 140.566 128.953 140.84 128.511 141.041C128.079 141.233 127.58 141.329 127.013 141.329ZM142.581 133.309V141.2H141.27V140.033C141.021 140.437 140.67 140.753 140.219 140.984C139.778 141.205 139.288 141.315 138.75 141.315C138.136 141.315 137.584 141.19 137.094 140.941C136.605 140.681 136.216 140.297 135.928 139.789C135.65 139.28 135.51 138.661 135.51 137.931V133.309H136.806V137.758C136.806 138.536 137.003 139.136 137.397 139.558C137.79 139.971 138.328 140.177 139.01 140.177C139.71 140.177 140.262 139.961 140.666 139.529C141.069 139.097 141.27 138.469 141.27 137.643V133.309H142.581ZM147.587 141.329C146.982 141.329 146.44 141.229 145.96 141.027C145.48 140.816 145.1 140.528 144.822 140.163C144.544 139.789 144.39 139.361 144.361 138.881H145.715C145.753 139.275 145.936 139.597 146.262 139.846C146.598 140.096 147.035 140.221 147.572 140.221C148.072 140.221 148.465 140.11 148.753 139.889C149.041 139.669 149.185 139.39 149.185 139.054C149.185 138.709 149.032 138.454 148.724 138.291C148.417 138.118 147.942 137.95 147.299 137.787C146.713 137.633 146.233 137.48 145.859 137.326C145.494 137.163 145.177 136.928 144.908 136.621C144.649 136.304 144.52 135.891 144.52 135.382C144.52 134.979 144.64 134.609 144.88 134.273C145.12 133.937 145.46 133.673 145.902 133.481C146.344 133.28 146.848 133.179 147.414 133.179C148.288 133.179 148.993 133.4 149.531 133.841C150.068 134.283 150.356 134.888 150.395 135.656H149.084C149.056 135.243 148.888 134.912 148.58 134.662C148.283 134.413 147.88 134.288 147.371 134.288C146.9 134.288 146.526 134.389 146.248 134.59C145.969 134.792 145.83 135.056 145.83 135.382C145.83 135.641 145.912 135.857 146.075 136.03C146.248 136.193 146.459 136.328 146.708 136.433C146.968 136.529 147.323 136.64 147.774 136.765C148.34 136.918 148.801 137.072 149.156 137.225C149.512 137.369 149.814 137.59 150.064 137.888C150.323 138.185 150.457 138.574 150.467 139.054C150.467 139.486 150.347 139.875 150.107 140.221C149.867 140.566 149.526 140.84 149.084 141.041C148.652 141.233 148.153 141.329 147.587 141.329ZM159.517 136.952C159.517 137.201 159.502 137.465 159.473 137.744H153.166C153.214 138.521 153.478 139.131 153.958 139.573C154.448 140.005 155.038 140.221 155.729 140.221C156.296 140.221 156.766 140.091 157.141 139.832C157.525 139.563 157.793 139.208 157.947 138.766H159.358C159.147 139.525 158.725 140.144 158.091 140.624C157.457 141.094 156.67 141.329 155.729 141.329C154.981 141.329 154.309 141.161 153.713 140.825C153.128 140.489 152.667 140.014 152.331 139.4C151.995 138.776 151.827 138.056 151.827 137.24C151.827 136.424 151.99 135.709 152.317 135.094C152.643 134.48 153.099 134.009 153.685 133.683C154.28 133.347 154.961 133.179 155.729 133.179C156.478 133.179 157.141 133.342 157.717 133.669C158.293 133.995 158.734 134.446 159.041 135.022C159.358 135.589 159.517 136.232 159.517 136.952ZM158.163 136.678C158.163 136.179 158.053 135.752 157.832 135.397C157.611 135.032 157.309 134.758 156.925 134.576C156.55 134.384 156.133 134.288 155.672 134.288C155.009 134.288 154.443 134.499 153.973 134.921C153.512 135.344 153.248 135.929 153.181 136.678H158.163ZM160.757 137.225C160.757 136.419 160.92 135.713 161.246 135.109C161.573 134.494 162.019 134.019 162.586 133.683C163.162 133.347 163.805 133.179 164.515 133.179C165.13 133.179 165.701 133.323 166.229 133.611C166.757 133.889 167.16 134.259 167.438 134.72V130.544H168.763V141.2H167.438V139.717C167.179 140.187 166.795 140.576 166.286 140.883C165.778 141.181 165.182 141.329 164.501 141.329C163.8 141.329 163.162 141.157 162.586 140.811C162.019 140.465 161.573 139.981 161.246 139.357C160.92 138.733 160.757 138.022 160.757 137.225ZM167.438 137.24C167.438 136.645 167.318 136.126 167.078 135.685C166.838 135.243 166.512 134.907 166.099 134.677C165.696 134.437 165.25 134.317 164.76 134.317C164.27 134.317 163.824 134.432 163.421 134.662C163.018 134.893 162.696 135.229 162.456 135.67C162.216 136.112 162.096 136.63 162.096 137.225C162.096 137.83 162.216 138.358 162.456 138.809C162.696 139.251 163.018 139.592 163.421 139.832C163.824 140.062 164.27 140.177 164.76 140.177C165.25 140.177 165.696 140.062 166.099 139.832C166.512 139.592 166.838 139.251 167.078 138.809C167.318 138.358 167.438 137.835 167.438 137.24ZM175.493 132.027C175.244 132.027 175.033 131.941 174.86 131.768C174.687 131.595 174.601 131.384 174.601 131.134C174.601 130.885 174.687 130.673 174.86 130.501C175.033 130.328 175.244 130.241 175.493 130.241C175.733 130.241 175.935 130.328 176.098 130.501C176.271 130.673 176.357 130.885 176.357 131.134C176.357 131.384 176.271 131.595 176.098 131.768C175.935 131.941 175.733 132.027 175.493 132.027ZM176.127 133.309V141.2H174.817V133.309H176.127ZM182.205 133.165C183.165 133.165 183.943 133.457 184.538 134.043C185.133 134.619 185.431 135.454 185.431 136.549V141.2H184.135V136.736C184.135 135.949 183.938 135.349 183.544 134.936C183.151 134.513 182.613 134.302 181.932 134.302C181.24 134.302 180.688 134.518 180.276 134.95C179.872 135.382 179.671 136.011 179.671 136.837V141.2H178.36V133.309H179.671V134.432C179.93 134.029 180.28 133.717 180.722 133.496C181.173 133.275 181.668 133.165 182.205 133.165ZM194.204 141.329C193.599 141.329 193.057 141.229 192.577 141.027C192.097 140.816 191.718 140.528 191.439 140.163C191.161 139.789 191.007 139.361 190.978 138.881H192.332C192.37 139.275 192.553 139.597 192.879 139.846C193.215 140.096 193.652 140.221 194.19 140.221C194.689 140.221 195.082 140.11 195.37 139.889C195.658 139.669 195.802 139.39 195.802 139.054C195.802 138.709 195.649 138.454 195.342 138.291C195.034 138.118 194.559 137.95 193.916 137.787C193.33 137.633 192.85 137.48 192.476 137.326C192.111 137.163 191.794 136.928 191.526 136.621C191.266 136.304 191.137 135.891 191.137 135.382C191.137 134.979 191.257 134.609 191.497 134.273C191.737 133.937 192.078 133.673 192.519 133.481C192.961 133.28 193.465 133.179 194.031 133.179C194.905 133.179 195.61 133.4 196.148 133.841C196.686 134.283 196.974 134.888 197.012 135.656H195.702C195.673 135.243 195.505 134.912 195.198 134.662C194.9 134.413 194.497 134.288 193.988 134.288C193.518 134.288 193.143 134.389 192.865 134.59C192.586 134.792 192.447 135.056 192.447 135.382C192.447 135.641 192.529 135.857 192.692 136.03C192.865 136.193 193.076 136.328 193.326 136.433C193.585 136.529 193.94 136.64 194.391 136.765C194.958 136.918 195.418 137.072 195.774 137.225C196.129 137.369 196.431 137.59 196.681 137.888C196.94 138.185 197.074 138.574 197.084 139.054C197.084 139.486 196.964 139.875 196.724 140.221C196.484 140.566 196.143 140.84 195.702 141.041C195.27 141.233 194.77 141.329 194.204 141.329ZM198.444 137.24C198.444 136.424 198.607 135.713 198.934 135.109C199.26 134.494 199.711 134.019 200.287 133.683C200.873 133.347 201.54 133.179 202.289 133.179C203.259 133.179 204.055 133.414 204.679 133.885C205.313 134.355 205.731 135.008 205.932 135.843H204.521C204.387 135.363 204.123 134.984 203.729 134.705C203.345 134.427 202.865 134.288 202.289 134.288C201.54 134.288 200.935 134.547 200.475 135.065C200.014 135.574 199.783 136.299 199.783 137.24C199.783 138.19 200.014 138.925 200.475 139.443C200.935 139.961 201.54 140.221 202.289 140.221C202.865 140.221 203.345 140.086 203.729 139.817C204.113 139.549 204.377 139.165 204.521 138.665H205.932C205.721 139.472 205.299 140.12 204.665 140.609C204.031 141.089 203.239 141.329 202.289 141.329C201.54 141.329 200.873 141.161 200.287 140.825C199.711 140.489 199.26 140.014 198.934 139.4C198.607 138.785 198.444 138.065 198.444 137.24ZM208.358 132.027C208.108 132.027 207.897 131.941 207.724 131.768C207.551 131.595 207.465 131.384 207.465 131.134C207.465 130.885 207.551 130.673 207.724 130.501C207.897 130.328 208.108 130.241 208.358 130.241C208.598 130.241 208.799 130.328 208.962 130.501C209.135 130.673 209.222 130.885 209.222 131.134C209.222 131.384 209.135 131.595 208.962 131.768C208.799 131.941 208.598 132.027 208.358 132.027ZM208.991 133.309V141.2H207.681V133.309H208.991ZM218.424 136.952C218.424 137.201 218.41 137.465 218.381 137.744H212.074C212.122 138.521 212.386 139.131 212.866 139.573C213.356 140.005 213.946 140.221 214.637 140.221C215.204 140.221 215.674 140.091 216.048 139.832C216.432 139.563 216.701 139.208 216.855 138.766H218.266C218.055 139.525 217.632 140.144 216.999 140.624C216.365 141.094 215.578 141.329 214.637 141.329C213.888 141.329 213.216 141.161 212.621 140.825C212.036 140.489 211.575 140.014 211.239 139.4C210.903 138.776 210.735 138.056 210.735 137.24C210.735 136.424 210.898 135.709 211.224 135.094C211.551 134.48 212.007 134.009 212.592 133.683C213.188 133.347 213.869 133.179 214.637 133.179C215.386 133.179 216.048 133.342 216.624 133.669C217.2 133.995 217.642 134.446 217.949 135.022C218.266 135.589 218.424 136.232 218.424 136.952ZM217.071 136.678C217.071 136.179 216.96 135.752 216.74 135.397C216.519 135.032 216.216 134.758 215.832 134.576C215.458 134.384 215.04 134.288 214.58 134.288C213.917 134.288 213.351 134.499 212.88 134.921C212.42 135.344 212.156 135.929 212.088 136.678H217.071ZM223.999 133.165C224.959 133.165 225.737 133.457 226.332 134.043C226.927 134.619 227.225 135.454 227.225 136.549V141.2H225.929V136.736C225.929 135.949 225.732 135.349 225.338 134.936C224.945 134.513 224.407 134.302 223.725 134.302C223.034 134.302 222.482 134.518 222.069 134.95C221.666 135.382 221.465 136.011 221.465 136.837V141.2H220.154V133.309H221.465V134.432C221.724 134.029 222.074 133.717 222.516 133.496C222.967 133.275 223.461 133.165 223.999 133.165ZM228.876 137.24C228.876 136.424 229.039 135.713 229.365 135.109C229.692 134.494 230.143 134.019 230.719 133.683C231.304 133.347 231.972 133.179 232.72 133.179C233.69 133.179 234.487 133.414 235.111 133.885C235.744 134.355 236.162 135.008 236.364 135.843H234.952C234.818 135.363 234.554 134.984 234.16 134.705C233.776 134.427 233.296 134.288 232.72 134.288C231.972 134.288 231.367 134.547 230.906 135.065C230.445 135.574 230.215 136.299 230.215 137.24C230.215 138.19 230.445 138.925 230.906 139.443C231.367 139.961 231.972 140.221 232.72 140.221C233.296 140.221 233.776 140.086 234.16 139.817C234.544 139.549 234.808 139.165 234.952 138.665H236.364C236.152 139.472 235.73 140.12 235.096 140.609C234.463 141.089 233.671 141.329 232.72 141.329C231.972 141.329 231.304 141.161 230.719 140.825C230.143 140.489 229.692 140.014 229.365 139.4C229.039 138.785 228.876 138.065 228.876 137.24ZM245.312 136.952C245.312 137.201 245.298 137.465 245.269 137.744H238.962C239.01 138.521 239.274 139.131 239.754 139.573C240.243 140.005 240.834 140.221 241.525 140.221C242.091 140.221 242.562 140.091 242.936 139.832C243.32 139.563 243.589 139.208 243.742 138.766H245.154C244.942 139.525 244.52 140.144 243.886 140.624C243.253 141.094 242.466 141.329 241.525 141.329C240.776 141.329 240.104 141.161 239.509 140.825C238.923 140.489 238.462 140.014 238.126 139.4C237.79 138.776 237.622 138.056 237.622 137.24C237.622 136.424 237.786 135.709 238.112 135.094C238.438 134.48 238.894 134.009 239.48 133.683C240.075 133.347 240.757 133.179 241.525 133.179C242.274 133.179 242.936 133.342 243.512 133.669C244.088 133.995 244.53 134.446 244.837 135.022C245.154 135.589 245.312 136.232 245.312 136.952ZM243.958 136.678C243.958 136.179 243.848 135.752 243.627 135.397C243.406 135.032 243.104 134.758 242.72 134.576C242.346 134.384 241.928 134.288 241.467 134.288C240.805 134.288 240.238 134.499 239.768 134.921C239.307 135.344 239.043 135.929 238.976 136.678H243.958ZM251.558 132.027C251.308 132.027 251.097 131.941 250.924 131.768C250.751 131.595 250.665 131.384 250.665 131.134C250.665 130.885 250.751 130.673 250.924 130.501C251.097 130.328 251.308 130.241 251.558 130.241C251.798 130.241 251.999 130.328 252.162 130.501C252.335 130.673 252.422 130.885 252.422 131.134C252.422 131.384 252.335 131.595 252.162 131.768C251.999 131.941 251.798 132.027 251.558 132.027ZM252.191 133.309V141.2H250.881V133.309H252.191ZM257.218 141.329C256.613 141.329 256.071 141.229 255.591 141.027C255.111 140.816 254.732 140.528 254.453 140.163C254.175 139.789 254.021 139.361 253.992 138.881H255.346C255.384 139.275 255.567 139.597 255.893 139.846C256.229 140.096 256.666 140.221 257.204 140.221C257.703 140.221 258.096 140.11 258.384 139.889C258.672 139.669 258.816 139.39 258.816 139.054C258.816 138.709 258.663 138.454 258.356 138.291C258.048 138.118 257.573 137.95 256.93 137.787C256.344 137.633 255.864 137.48 255.49 137.326C255.125 137.163 254.808 136.928 254.54 136.621C254.28 136.304 254.151 135.891 254.151 135.382C254.151 134.979 254.271 134.609 254.511 134.273C254.751 133.937 255.092 133.673 255.533 133.481C255.975 133.28 256.479 133.179 257.045 133.179C257.919 133.179 258.624 133.4 259.162 133.841C259.7 134.283 259.988 134.888 260.026 135.656H258.716C258.687 135.243 258.519 134.912 258.212 134.662C257.914 134.413 257.511 134.288 257.002 134.288C256.532 134.288 256.157 134.389 255.879 134.59C255.6 134.792 255.461 135.056 255.461 135.382C255.461 135.641 255.543 135.857 255.706 136.03C255.879 136.193 256.09 136.328 256.34 136.433C256.599 136.529 256.954 136.64 257.405 136.765C257.972 136.918 258.432 137.072 258.788 137.225C259.143 137.369 259.445 137.59 259.695 137.888C259.954 138.185 260.088 138.574 260.098 139.054C260.098 139.486 259.978 139.875 259.738 140.221C259.498 140.566 259.157 140.84 258.716 141.041C258.284 141.233 257.784 141.329 257.218 141.329ZM269.229 141.329C268.489 141.329 267.817 141.161 267.213 140.825C266.617 140.489 266.147 140.014 265.801 139.4C265.465 138.776 265.297 138.056 265.297 137.24C265.297 136.433 265.47 135.723 265.816 135.109C266.171 134.485 266.651 134.009 267.256 133.683C267.861 133.347 268.537 133.179 269.286 133.179C270.035 133.179 270.712 133.347 271.317 133.683C271.921 134.009 272.397 134.48 272.742 135.094C273.097 135.709 273.275 136.424 273.275 137.24C273.275 138.056 273.093 138.776 272.728 139.4C272.373 140.014 271.888 140.489 271.273 140.825C270.659 141.161 269.977 141.329 269.229 141.329ZM269.229 140.177C269.699 140.177 270.141 140.067 270.553 139.846C270.966 139.625 271.297 139.294 271.547 138.853C271.806 138.411 271.936 137.873 271.936 137.24C271.936 136.606 271.811 136.069 271.561 135.627C271.312 135.185 270.985 134.859 270.582 134.648C270.179 134.427 269.742 134.317 269.272 134.317C268.792 134.317 268.35 134.427 267.947 134.648C267.553 134.859 267.237 135.185 266.997 135.627C266.757 136.069 266.637 136.606 266.637 137.24C266.637 137.883 266.752 138.425 266.982 138.867C267.222 139.309 267.539 139.64 267.933 139.861C268.326 140.072 268.758 140.177 269.229 140.177ZM276.308 134.763C276.567 134.312 276.951 133.937 277.46 133.64C277.979 133.333 278.579 133.179 279.26 133.179C279.961 133.179 280.595 133.347 281.161 133.683C281.737 134.019 282.188 134.494 282.515 135.109C282.841 135.713 283.004 136.419 283.004 137.225C283.004 138.022 282.841 138.733 282.515 139.357C282.188 139.981 281.737 140.465 281.161 140.811C280.595 141.157 279.961 141.329 279.26 141.329C278.588 141.329 277.993 141.181 277.475 140.883C276.966 140.576 276.577 140.197 276.308 139.745V144.944H274.998V133.309H276.308V134.763ZM281.665 137.225C281.665 136.63 281.545 136.112 281.305 135.67C281.065 135.229 280.739 134.893 280.326 134.662C279.923 134.432 279.476 134.317 278.987 134.317C278.507 134.317 278.06 134.437 277.647 134.677C277.244 134.907 276.918 135.248 276.668 135.699C276.428 136.141 276.308 136.654 276.308 137.24C276.308 137.835 276.428 138.358 276.668 138.809C276.918 139.251 277.244 139.592 277.647 139.832C278.06 140.062 278.507 140.177 278.987 140.177C279.476 140.177 279.923 140.062 280.326 139.832C280.739 139.592 281.065 139.251 281.305 138.809C281.545 138.358 281.665 137.83 281.665 137.225ZM291.929 136.952C291.929 137.201 291.915 137.465 291.886 137.744H285.579C285.627 138.521 285.891 139.131 286.371 139.573C286.86 140.005 287.451 140.221 288.142 140.221C288.708 140.221 289.179 140.091 289.553 139.832C289.937 139.563 290.206 139.208 290.36 138.766H291.771C291.56 139.525 291.137 140.144 290.504 140.624C289.87 141.094 289.083 141.329 288.142 141.329C287.393 141.329 286.721 141.161 286.126 140.825C285.54 140.489 285.08 140.014 284.744 139.4C284.408 138.776 284.24 138.056 284.24 137.24C284.24 136.424 284.403 135.709 284.729 135.094C285.056 134.48 285.512 134.009 286.097 133.683C286.692 133.347 287.374 133.179 288.142 133.179C288.891 133.179 289.553 133.342 290.129 133.669C290.705 133.995 291.147 134.446 291.454 135.022C291.771 135.589 291.929 136.232 291.929 136.952ZM290.576 136.678C290.576 136.179 290.465 135.752 290.244 135.397C290.024 135.032 289.721 134.758 289.337 134.576C288.963 134.384 288.545 134.288 288.084 134.288C287.422 134.288 286.856 134.499 286.385 134.921C285.924 135.344 285.66 135.929 285.593 136.678H290.576ZM294.969 134.59C295.2 134.139 295.526 133.789 295.948 133.539C296.38 133.289 296.904 133.165 297.518 133.165V134.518H297.172C295.704 134.518 294.969 135.315 294.969 136.909V141.2H293.659V133.309H294.969V134.59ZM298.541 137.225C298.541 136.419 298.704 135.713 299.031 135.109C299.357 134.494 299.804 134.019 300.37 133.683C300.946 133.347 301.584 133.179 302.285 133.179C302.976 133.179 303.576 133.328 304.085 133.625C304.594 133.923 304.973 134.297 305.223 134.749V133.309H306.548V141.2H305.223V139.731C304.964 140.192 304.575 140.576 304.056 140.883C303.548 141.181 302.952 141.329 302.271 141.329C301.57 141.329 300.936 141.157 300.37 140.811C299.804 140.465 299.357 139.981 299.031 139.357C298.704 138.733 298.541 138.022 298.541 137.225ZM305.223 137.24C305.223 136.645 305.103 136.126 304.863 135.685C304.623 135.243 304.296 134.907 303.884 134.677C303.48 134.437 303.034 134.317 302.544 134.317C302.055 134.317 301.608 134.432 301.205 134.662C300.802 134.893 300.48 135.229 300.24 135.67C300 136.112 299.88 136.63 299.88 137.225C299.88 137.83 300 138.358 300.24 138.809C300.48 139.251 300.802 139.592 301.205 139.832C301.608 140.062 302.055 140.177 302.544 140.177C303.034 140.177 303.48 140.062 303.884 139.832C304.296 139.592 304.623 139.251 304.863 138.809C305.103 138.358 305.223 137.835 305.223 137.24ZM310.36 134.389V139.04C310.36 139.424 310.442 139.697 310.605 139.861C310.768 140.014 311.052 140.091 311.455 140.091H312.42V141.2H311.239C310.509 141.2 309.962 141.032 309.597 140.696C309.232 140.36 309.05 139.808 309.05 139.04V134.389H308.028V133.309H309.05V131.321H310.36V133.309H312.42V134.389H310.36ZM314.684 132.027C314.434 132.027 314.223 131.941 314.05 131.768C313.878 131.595 313.791 131.384 313.791 131.134C313.791 130.885 313.878 130.673 314.05 130.501C314.223 130.328 314.434 130.241 314.684 130.241C314.924 130.241 315.126 130.328 315.289 130.501C315.462 130.673 315.548 130.885 315.548 131.134C315.548 131.384 315.462 131.595 315.289 131.768C315.126 131.941 314.924 132.027 314.684 132.027ZM315.318 133.309V141.2H314.007V133.309H315.318ZM321.396 133.165C322.356 133.165 323.133 133.457 323.729 134.043C324.324 134.619 324.621 135.454 324.621 136.549V141.2H323.325V136.736C323.325 135.949 323.129 135.349 322.735 134.936C322.341 134.513 321.804 134.302 321.122 134.302C320.431 134.302 319.879 134.518 319.466 134.95C319.063 135.382 318.861 136.011 318.861 136.837V141.2H317.551V133.309H318.861V134.432C319.121 134.029 319.471 133.717 319.913 133.496C320.364 133.275 320.858 133.165 321.396 133.165ZM330.016 133.179C330.698 133.179 331.293 133.328 331.802 133.625C332.32 133.923 332.704 134.297 332.954 134.749V133.309H334.279V141.373C334.279 142.093 334.125 142.731 333.818 143.288C333.511 143.854 333.069 144.296 332.493 144.613C331.927 144.929 331.264 145.088 330.506 145.088C329.469 145.088 328.605 144.843 327.914 144.353C327.223 143.864 326.815 143.197 326.69 142.352H327.986C328.13 142.832 328.428 143.216 328.879 143.504C329.33 143.801 329.872 143.95 330.506 143.95C331.226 143.95 331.812 143.725 332.263 143.273C332.724 142.822 332.954 142.189 332.954 141.373V139.717C332.695 140.177 332.311 140.561 331.802 140.869C331.293 141.176 330.698 141.329 330.016 141.329C329.316 141.329 328.677 141.157 328.101 140.811C327.535 140.465 327.088 139.981 326.762 139.357C326.436 138.733 326.272 138.022 326.272 137.225C326.272 136.419 326.436 135.713 326.762 135.109C327.088 134.494 327.535 134.019 328.101 133.683C328.677 133.347 329.316 133.179 330.016 133.179ZM332.954 137.24C332.954 136.645 332.834 136.126 332.594 135.685C332.354 135.243 332.028 134.907 331.615 134.677C331.212 134.437 330.765 134.317 330.276 134.317C329.786 134.317 329.34 134.432 328.936 134.662C328.533 134.893 328.212 135.229 327.972 135.67C327.732 136.112 327.612 136.63 327.612 137.225C327.612 137.83 327.732 138.358 327.972 138.809C328.212 139.251 328.533 139.592 328.936 139.832C329.34 140.062 329.786 140.177 330.276 140.177C330.765 140.177 331.212 140.062 331.615 139.832C332.028 139.592 332.354 139.251 332.594 138.809C332.834 138.358 332.954 137.835 332.954 137.24ZM341.009 132.027C340.76 132.027 340.548 131.941 340.376 131.768C340.203 131.595 340.116 131.384 340.116 131.134C340.116 130.885 340.203 130.673 340.376 130.501C340.548 130.328 340.76 130.241 341.009 130.241C341.249 130.241 341.451 130.328 341.614 130.501C341.787 130.673 341.873 130.885 341.873 131.134C341.873 131.384 341.787 131.595 341.614 131.768C341.451 131.941 341.249 132.027 341.009 132.027ZM341.643 133.309V141.2H340.332V133.309H341.643ZM347.721 133.165C348.681 133.165 349.458 133.457 350.054 134.043C350.649 134.619 350.946 135.454 350.946 136.549V141.2H349.65V136.736C349.65 135.949 349.454 135.349 349.06 134.936C348.666 134.513 348.129 134.302 347.447 134.302C346.756 134.302 346.204 134.518 345.791 134.95C345.388 135.382 345.186 136.011 345.186 136.837V141.2H343.876V133.309H345.186V134.432C345.446 134.029 345.796 133.717 346.238 133.496C346.689 133.275 347.183 133.165 347.721 133.165ZM13.2267 166.329C12.6219 166.329 12.0795 166.229 11.5995 166.027C11.1195 165.816 10.7403 165.528 10.4619 165.163C10.1835 164.789 10.0299 164.361 10.0011 163.881H11.3547C11.3931 164.275 11.5755 164.597 11.9019 164.846C12.2379 165.096 12.6747 165.221 13.2123 165.221C13.7115 165.221 14.1051 165.11 14.3931 164.889C14.6811 164.669 14.8251 164.39 14.8251 164.054C14.8251 163.709 14.6715 163.454 14.3643 163.291C14.0571 163.118 13.5819 162.95 12.9387 162.787C12.3531 162.633 11.8731 162.48 11.4987 162.326C11.1339 162.163 10.8171 161.928 10.5483 161.621C10.2891 161.304 10.1595 160.891 10.1595 160.382C10.1595 159.979 10.2795 159.609 10.5195 159.273C10.7595 158.937 11.1003 158.673 11.5419 158.481C11.9835 158.28 12.4875 158.179 13.0539 158.179C13.9275 158.179 14.6331 158.4 15.1707 158.841C15.7083 159.283 15.9963 159.888 16.0347 160.656H14.7243C14.6955 160.243 14.5275 159.912 14.2203 159.662C13.9227 159.413 13.5195 159.288 13.0107 159.288C12.5403 159.288 12.1659 159.389 11.8875 159.59C11.6091 159.792 11.4699 160.056 11.4699 160.382C11.4699 160.641 11.5515 160.857 11.7147 161.03C11.8875 161.193 12.0987 161.328 12.3483 161.433C12.6075 161.529 12.9627 161.64 13.4139 161.765C13.9803 161.918 14.4411 162.072 14.7963 162.225C15.1515 162.369 15.4539 162.59 15.7035 162.888C15.9627 163.185 16.0971 163.574 16.1067 164.054C16.1067 164.486 15.9867 164.875 15.7467 165.221C15.5067 165.566 15.1659 165.84 14.7243 166.041C14.2923 166.233 13.7931 166.329 13.2267 166.329ZM24.9549 158.309V166.2H23.6445V165.033C23.3949 165.437 23.0445 165.753 22.5933 165.984C22.1517 166.205 21.6621 166.315 21.1245 166.315C20.5101 166.315 19.9581 166.19 19.4685 165.941C18.9789 165.681 18.5901 165.297 18.3021 164.789C18.0237 164.28 17.8845 163.661 17.8845 162.931V158.309H19.1805V162.758C19.1805 163.536 19.3773 164.136 19.7709 164.558C20.1645 164.971 20.7021 165.177 21.3837 165.177C22.0845 165.177 22.6365 164.961 23.0397 164.529C23.4429 164.097 23.6445 163.469 23.6445 162.643V158.309H24.9549ZM26.6779 162.24C26.6779 161.424 26.8411 160.713 27.1675 160.109C27.4939 159.494 27.9451 159.019 28.5211 158.683C29.1067 158.347 29.7739 158.179 30.5227 158.179C31.4923 158.179 32.2891 158.414 32.9131 158.885C33.5467 159.355 33.9643 160.008 34.1659 160.843H32.7547C32.6203 160.363 32.3563 159.984 31.9627 159.705C31.5787 159.427 31.0987 159.288 30.5227 159.288C29.7739 159.288 29.1691 159.547 28.7083 160.065C28.2475 160.574 28.0171 161.299 28.0171 162.24C28.0171 163.19 28.2475 163.925 28.7083 164.443C29.1691 164.961 29.7739 165.221 30.5227 165.221C31.0987 165.221 31.5787 165.086 31.9627 164.817C32.3467 164.549 32.6107 164.165 32.7547 163.665H34.1659C33.9547 164.472 33.5323 165.12 32.8987 165.609C32.2651 166.089 31.4731 166.329 30.5227 166.329C29.7739 166.329 29.1067 166.161 28.5211 165.825C27.9451 165.489 27.4939 165.014 27.1675 164.4C26.8411 163.785 26.6779 163.065 26.6779 162.24ZM39.8311 158.165C40.4263 158.165 40.9639 158.294 41.4439 158.553C41.9239 158.803 42.2983 159.182 42.5671 159.691C42.8455 160.2 42.9847 160.819 42.9847 161.549V166.2H41.6887V161.736C41.6887 160.949 41.4919 160.349 41.0983 159.936C40.7047 159.513 40.1671 159.302 39.4855 159.302C38.7943 159.302 38.2423 159.518 37.8295 159.95C37.4263 160.382 37.2247 161.011 37.2247 161.837V166.2H35.9143V155.544H37.2247V159.432C37.4839 159.029 37.8391 158.717 38.2903 158.496C38.7511 158.275 39.2647 158.165 39.8311 158.165ZM48.4747 162.225C48.4747 161.419 48.6379 160.713 48.9643 160.109C49.2907 159.494 49.7371 159.019 50.3035 158.683C50.8795 158.347 51.5179 158.179 52.2187 158.179C52.9099 158.179 53.5099 158.328 54.0187 158.625C54.5275 158.923 54.9067 159.297 55.1563 159.749V158.309H56.4811V166.2H55.1563V164.731C54.8971 165.192 54.5083 165.576 53.9899 165.883C53.4811 166.181 52.8859 166.329 52.2043 166.329C51.5035 166.329 50.8699 166.157 50.3035 165.811C49.7371 165.465 49.2907 164.981 48.9643 164.357C48.6379 163.733 48.4747 163.022 48.4747 162.225ZM55.1563 162.24C55.1563 161.645 55.0363 161.126 54.7963 160.685C54.5563 160.243 54.2299 159.907 53.8171 159.677C53.4139 159.437 52.9675 159.317 52.4779 159.317C51.9883 159.317 51.5419 159.432 51.1387 159.662C50.7355 159.893 50.4139 160.229 50.1739 160.67C49.9339 161.112 49.8139 161.63 49.8139 162.225C49.8139 162.83 49.9339 163.358 50.1739 163.809C50.4139 164.251 50.7355 164.592 51.1387 164.832C51.5419 165.062 51.9883 165.177 52.4779 165.177C52.9675 165.177 53.4139 165.062 53.8171 164.832C54.2299 164.592 54.5563 164.251 54.7963 163.809C55.0363 163.358 55.1563 162.835 55.1563 162.24ZM73.0467 158.309L70.5843 166.2H69.2307L67.3299 159.936L65.4291 166.2H64.0755L61.5987 158.309H62.9379L64.7523 164.933L66.7107 158.309H68.0499L69.9651 164.947L71.7507 158.309H73.0467ZM73.8576 162.225C73.8576 161.419 74.0208 160.713 74.3472 160.109C74.6736 159.494 75.12 159.019 75.6864 158.683C76.2624 158.347 76.9008 158.179 77.6016 158.179C78.2928 158.179 78.8928 158.328 79.4016 158.625C79.9104 158.923 80.2896 159.297 80.5392 159.749V158.309H81.864V166.2H80.5392V164.731C80.28 165.192 79.8912 165.576 79.3728 165.883C78.864 166.181 78.2688 166.329 77.5872 166.329C76.8864 166.329 76.2528 166.157 75.6864 165.811C75.12 165.465 74.6736 164.981 74.3472 164.357C74.0208 163.733 73.8576 163.022 73.8576 162.225ZM80.5392 162.24C80.5392 161.645 80.4192 161.126 80.1792 160.685C79.9392 160.243 79.6128 159.907 79.2 159.677C78.7968 159.437 78.3504 159.317 77.8608 159.317C77.3712 159.317 76.9248 159.432 76.5216 159.662C76.1184 159.893 75.7968 160.229 75.5568 160.67C75.3168 161.112 75.1968 161.63 75.1968 162.225C75.1968 162.83 75.3168 163.358 75.5568 163.809C75.7968 164.251 76.1184 164.592 76.5216 164.832C76.9248 165.062 77.3712 165.177 77.8608 165.177C78.3504 165.177 78.7968 165.062 79.2 164.832C79.6128 164.592 79.9392 164.251 80.1792 163.809C80.4192 163.358 80.5392 162.835 80.5392 162.24ZM90.8752 158.309L86.1232 169.915H84.7696L86.3248 166.113L83.1424 158.309H84.5968L87.0736 164.702L89.5216 158.309H90.8752ZM97.6299 159.389V164.04C97.6299 164.424 97.7115 164.697 97.8747 164.861C98.0379 165.014 98.3211 165.091 98.7243 165.091H99.6891V166.2H98.5083C97.7787 166.2 97.2315 166.032 96.8667 165.696C96.5019 165.36 96.3195 164.808 96.3195 164.04V159.389H95.2971V158.309H96.3195V156.321H97.6299V158.309H99.6891V159.389H97.6299ZM105.194 158.165C105.789 158.165 106.326 158.294 106.806 158.553C107.286 158.803 107.661 159.182 107.93 159.691C108.208 160.2 108.347 160.819 108.347 161.549V166.2H107.051V161.736C107.051 160.949 106.854 160.349 106.461 159.936C106.067 159.513 105.53 159.302 104.848 159.302C104.157 159.302 103.605 159.518 103.192 159.95C102.789 160.382 102.587 161.011 102.587 161.837V166.2H101.277V155.544H102.587V159.432C102.846 159.029 103.202 158.717 103.653 158.496C104.114 158.275 104.627 158.165 105.194 158.165ZM109.998 162.225C109.998 161.419 110.161 160.713 110.488 160.109C110.814 159.494 111.261 159.019 111.827 158.683C112.403 158.347 113.041 158.179 113.742 158.179C114.433 158.179 115.033 158.328 115.542 158.625C116.051 158.923 116.43 159.297 116.68 159.749V158.309H118.005V166.2H116.68V164.731C116.421 165.192 116.032 165.576 115.513 165.883C115.005 166.181 114.409 166.329 113.728 166.329C113.027 166.329 112.393 166.157 111.827 165.811C111.261 165.465 110.814 164.981 110.488 164.357C110.161 163.733 109.998 163.022 109.998 162.225ZM116.68 162.24C116.68 161.645 116.56 161.126 116.32 160.685C116.08 160.243 115.753 159.907 115.341 159.677C114.937 159.437 114.491 159.317 114.001 159.317C113.512 159.317 113.065 159.432 112.662 159.662C112.259 159.893 111.937 160.229 111.697 160.67C111.457 161.112 111.337 161.63 111.337 162.225C111.337 162.83 111.457 163.358 111.697 163.809C111.937 164.251 112.259 164.592 112.662 164.832C113.065 165.062 113.512 165.177 114.001 165.177C114.491 165.177 114.937 165.062 115.341 164.832C115.753 164.592 116.08 164.251 116.32 163.809C116.56 163.358 116.68 162.835 116.68 162.24ZM121.817 159.389V164.04C121.817 164.424 121.899 164.697 122.062 164.861C122.225 165.014 122.509 165.091 122.912 165.091H123.877V166.2H122.696C121.966 166.2 121.419 166.032 121.054 165.696C120.689 165.36 120.507 164.808 120.507 164.04V159.389H119.485V158.309H120.507V156.321H121.817V158.309H123.877V159.389H121.817ZM129.98 157.027C129.731 157.027 129.519 156.941 129.347 156.768C129.174 156.595 129.087 156.384 129.087 156.134C129.087 155.885 129.174 155.673 129.347 155.501C129.519 155.328 129.731 155.241 129.98 155.241C130.22 155.241 130.422 155.328 130.585 155.501C130.758 155.673 130.844 155.885 130.844 156.134C130.844 156.384 130.758 156.595 130.585 156.768C130.422 156.941 130.22 157.027 129.98 157.027ZM130.614 158.309V166.2H129.303V158.309H130.614ZM134.446 159.389V164.04C134.446 164.424 134.527 164.697 134.69 164.861C134.854 165.014 135.137 165.091 135.54 165.091H136.505V166.2H135.324C134.594 166.2 134.047 166.032 133.682 165.696C133.318 165.36 133.135 164.808 133.135 164.04V159.389H132.113V158.309H133.135V156.321H134.446V158.309H136.505V159.389H134.446ZM142.608 157.027C142.359 157.027 142.148 156.941 141.975 156.768C141.802 156.595 141.716 156.384 141.716 156.134C141.716 155.885 141.802 155.673 141.975 155.501C142.148 155.328 142.359 155.241 142.608 155.241C142.848 155.241 143.05 155.328 143.213 155.501C143.386 155.673 143.472 155.885 143.472 156.134C143.472 156.384 143.386 156.595 143.213 156.768C143.05 156.941 142.848 157.027 142.608 157.027ZM143.242 158.309V166.2H141.932V158.309H143.242ZM148.269 166.329C147.664 166.329 147.122 166.229 146.642 166.027C146.162 165.816 145.782 165.528 145.504 165.163C145.226 164.789 145.072 164.361 145.043 163.881H146.397C146.435 164.275 146.618 164.597 146.944 164.846C147.28 165.096 147.717 165.221 148.254 165.221C148.754 165.221 149.147 165.11 149.435 164.889C149.723 164.669 149.867 164.39 149.867 164.054C149.867 163.709 149.714 163.454 149.406 163.291C149.099 163.118 148.624 162.95 147.981 162.787C147.395 162.633 146.915 162.48 146.541 162.326C146.176 162.163 145.859 161.928 145.59 161.621C145.331 161.304 145.202 160.891 145.202 160.382C145.202 159.979 145.322 159.609 145.562 159.273C145.802 158.937 146.142 158.673 146.584 158.481C147.026 158.28 147.53 158.179 148.096 158.179C148.97 158.179 149.675 158.4 150.213 158.841C150.75 159.283 151.038 159.888 151.077 160.656H149.766C149.738 160.243 149.57 159.912 149.262 159.662C148.965 159.413 148.562 159.288 148.053 159.288C147.582 159.288 147.208 159.389 146.93 159.59C146.651 159.792 146.512 160.056 146.512 160.382C146.512 160.641 146.594 160.857 146.757 161.03C146.93 161.193 147.141 161.328 147.39 161.433C147.65 161.529 148.005 161.64 148.456 161.765C149.022 161.918 149.483 162.072 149.838 162.225C150.194 162.369 150.496 162.59 150.746 162.888C151.005 163.185 151.139 163.574 151.149 164.054C151.149 164.486 151.029 164.875 150.789 165.221C150.549 165.566 150.208 165.84 149.766 166.041C149.334 166.233 148.835 166.329 148.269 166.329ZM164.038 161.952C164.038 162.201 164.023 162.465 163.995 162.744H157.687C157.735 163.521 157.999 164.131 158.479 164.573C158.969 165.005 159.559 165.221 160.251 165.221C160.817 165.221 161.287 165.091 161.662 164.832C162.046 164.563 162.315 164.208 162.468 163.766H163.879C163.668 164.525 163.246 165.144 162.612 165.624C161.979 166.094 161.191 166.329 160.251 166.329C159.502 166.329 158.83 166.161 158.235 165.825C157.649 165.489 157.188 165.014 156.852 164.4C156.516 163.776 156.348 163.056 156.348 162.24C156.348 161.424 156.511 160.709 156.838 160.094C157.164 159.48 157.62 159.009 158.206 158.683C158.801 158.347 159.483 158.179 160.251 158.179C160.999 158.179 161.662 158.342 162.238 158.669C162.814 158.995 163.255 159.446 163.563 160.022C163.879 160.589 164.038 161.232 164.038 161.952ZM162.684 161.678C162.684 161.179 162.574 160.752 162.353 160.397C162.132 160.032 161.83 159.758 161.446 159.576C161.071 159.384 160.654 159.288 160.193 159.288C159.531 159.288 158.964 159.499 158.494 159.921C158.033 160.344 157.769 160.929 157.702 161.678H162.684ZM165.278 162.225C165.278 161.419 165.441 160.713 165.767 160.109C166.094 159.494 166.54 159.019 167.107 158.683C167.683 158.347 168.321 158.179 169.022 158.179C169.713 158.179 170.313 158.328 170.822 158.625C171.331 158.923 171.71 159.297 171.959 159.749V158.309H173.284V166.2H171.959V164.731C171.7 165.192 171.311 165.576 170.793 165.883C170.284 166.181 169.689 166.329 169.007 166.329C168.307 166.329 167.673 166.157 167.107 165.811C166.54 165.465 166.094 164.981 165.767 164.357C165.441 163.733 165.278 163.022 165.278 162.225ZM171.959 162.24C171.959 161.645 171.839 161.126 171.599 160.685C171.359 160.243 171.033 159.907 170.62 159.677C170.217 159.437 169.771 159.317 169.281 159.317C168.791 159.317 168.345 159.432 167.942 159.662C167.539 159.893 167.217 160.229 166.977 160.67C166.737 161.112 166.617 161.63 166.617 162.225C166.617 162.83 166.737 163.358 166.977 163.809C167.217 164.251 167.539 164.592 167.942 164.832C168.345 165.062 168.791 165.177 169.281 165.177C169.771 165.177 170.217 165.062 170.62 164.832C171.033 164.592 171.359 164.251 171.599 163.809C171.839 163.358 171.959 162.835 171.959 162.24ZM178.292 166.329C177.688 166.329 177.145 166.229 176.665 166.027C176.185 165.816 175.806 165.528 175.528 165.163C175.249 164.789 175.096 164.361 175.067 163.881H176.42C176.459 164.275 176.641 164.597 176.968 164.846C177.304 165.096 177.74 165.221 178.278 165.221C178.777 165.221 179.171 165.11 179.459 164.889C179.747 164.669 179.891 164.39 179.891 164.054C179.891 163.709 179.737 163.454 179.43 163.291C179.123 163.118 178.648 162.95 178.004 162.787C177.419 162.633 176.939 162.48 176.564 162.326C176.2 162.163 175.883 161.928 175.614 161.621C175.355 161.304 175.225 160.891 175.225 160.382C175.225 159.979 175.345 159.609 175.585 159.273C175.825 158.937 176.166 158.673 176.608 158.481C177.049 158.28 177.553 158.179 178.12 158.179C178.993 158.179 179.699 158.4 180.236 158.841C180.774 159.283 181.062 159.888 181.1 160.656H179.79C179.761 160.243 179.593 159.912 179.286 159.662C178.988 159.413 178.585 159.288 178.076 159.288C177.606 159.288 177.232 159.389 176.953 159.59C176.675 159.792 176.536 160.056 176.536 160.382C176.536 160.641 176.617 160.857 176.78 161.03C176.953 161.193 177.164 161.328 177.414 161.433C177.673 161.529 178.028 161.64 178.48 161.765C179.046 161.918 179.507 162.072 179.862 162.225C180.217 162.369 180.52 162.59 180.769 162.888C181.028 163.185 181.163 163.574 181.172 164.054C181.172 164.486 181.052 164.875 180.812 165.221C180.572 165.566 180.232 165.84 179.79 166.041C179.358 166.233 178.859 166.329 178.292 166.329ZM189.819 158.309L185.067 169.915H183.713L185.269 166.113L182.086 158.309H183.541L186.017 164.702L188.465 158.309H189.819ZM198.186 159.389H196.53V166.2H195.22V159.389H194.198V158.309H195.22V157.747C195.22 156.864 195.446 156.221 195.897 155.817C196.358 155.405 197.092 155.198 198.1 155.198V156.293C197.524 156.293 197.116 156.408 196.876 156.638C196.646 156.859 196.53 157.229 196.53 157.747V158.309H198.186V159.389ZM203.156 166.329C202.417 166.329 201.745 166.161 201.14 165.825C200.545 165.489 200.074 165.014 199.729 164.4C199.393 163.776 199.225 163.056 199.225 162.24C199.225 161.433 199.398 160.723 199.743 160.109C200.098 159.485 200.578 159.009 201.183 158.683C201.788 158.347 202.465 158.179 203.214 158.179C203.962 158.179 204.639 158.347 205.244 158.683C205.849 159.009 206.324 159.48 206.67 160.094C207.025 160.709 207.202 161.424 207.202 162.24C207.202 163.056 207.02 163.776 206.655 164.4C206.3 165.014 205.815 165.489 205.201 165.825C204.586 166.161 203.905 166.329 203.156 166.329ZM203.156 165.177C203.626 165.177 204.068 165.067 204.481 164.846C204.894 164.625 205.225 164.294 205.474 163.853C205.734 163.411 205.863 162.873 205.863 162.24C205.863 161.606 205.738 161.069 205.489 160.627C205.239 160.185 204.913 159.859 204.51 159.648C204.106 159.427 203.67 159.317 203.199 159.317C202.719 159.317 202.278 159.427 201.874 159.648C201.481 159.859 201.164 160.185 200.924 160.627C200.684 161.069 200.564 161.606 200.564 162.24C200.564 162.883 200.679 163.425 200.91 163.867C201.15 164.309 201.466 164.64 201.86 164.861C202.254 165.072 202.686 165.177 203.156 165.177ZM210.236 159.59C210.466 159.139 210.792 158.789 211.215 158.539C211.647 158.289 212.17 158.165 212.784 158.165V159.518H212.439C210.97 159.518 210.236 160.315 210.236 161.909V166.2H208.925V158.309H210.236V159.59ZM221.578 166.329C220.839 166.329 220.167 166.161 219.562 165.825C218.967 165.489 218.496 165.014 218.151 164.4C217.815 163.776 217.647 163.056 217.647 162.24C217.647 161.433 217.819 160.723 218.165 160.109C218.52 159.485 219 159.009 219.605 158.683C220.21 158.347 220.887 158.179 221.635 158.179C222.384 158.179 223.061 158.347 223.666 158.683C224.271 159.009 224.746 159.48 225.091 160.094C225.447 160.709 225.624 161.424 225.624 162.24C225.624 163.056 225.442 163.776 225.077 164.4C224.722 165.014 224.237 165.489 223.623 165.825C223.008 166.161 222.327 166.329 221.578 166.329ZM221.578 165.177C222.048 165.177 222.49 165.067 222.903 164.846C223.315 164.625 223.647 164.294 223.896 163.853C224.155 163.411 224.285 162.873 224.285 162.24C224.285 161.606 224.16 161.069 223.911 160.627C223.661 160.185 223.335 159.859 222.931 159.648C222.528 159.427 222.091 159.317 221.621 159.317C221.141 159.317 220.699 159.427 220.296 159.648C219.903 159.859 219.586 160.185 219.346 160.627C219.106 161.069 218.986 161.606 218.986 162.24C218.986 162.883 219.101 163.425 219.331 163.867C219.571 164.309 219.888 164.64 220.282 164.861C220.675 165.072 221.107 165.177 221.578 165.177ZM228.946 159.389V164.04C228.946 164.424 229.027 164.697 229.19 164.861C229.354 165.014 229.637 165.091 230.04 165.091H231.005V166.2H229.824C229.094 166.2 228.547 166.032 228.182 165.696C227.818 165.36 227.635 164.808 227.635 164.04V159.389H226.613V158.309H227.635V156.321H228.946V158.309H231.005V159.389H228.946ZM236.509 158.165C237.104 158.165 237.642 158.294 238.122 158.553C238.602 158.803 238.976 159.182 239.245 159.691C239.524 160.2 239.663 160.819 239.663 161.549V166.2H238.367V161.736C238.367 160.949 238.17 160.349 237.776 159.936C237.383 159.513 236.845 159.302 236.164 159.302C235.472 159.302 234.92 159.518 234.508 159.95C234.104 160.382 233.903 161.011 233.903 161.837V166.2H232.592V155.544H233.903V159.432C234.162 159.029 234.517 158.717 234.968 158.496C235.429 158.275 235.943 158.165 236.509 158.165ZM249.003 161.952C249.003 162.201 248.989 162.465 248.96 162.744H242.653C242.701 163.521 242.965 164.131 243.445 164.573C243.935 165.005 244.525 165.221 245.216 165.221C245.783 165.221 246.253 165.091 246.627 164.832C247.011 164.563 247.28 164.208 247.434 163.766H248.845C248.634 164.525 248.211 165.144 247.578 165.624C246.944 166.094 246.157 166.329 245.216 166.329C244.467 166.329 243.795 166.161 243.2 165.825C242.615 165.489 242.154 165.014 241.818 164.4C241.482 163.776 241.314 163.056 241.314 162.24C241.314 161.424 241.477 160.709 241.803 160.094C242.13 159.48 242.586 159.009 243.171 158.683C243.767 158.347 244.448 158.179 245.216 158.179C245.965 158.179 246.627 158.342 247.203 158.669C247.779 158.995 248.221 159.446 248.528 160.022C248.845 160.589 249.003 161.232 249.003 161.952ZM247.65 161.678C247.65 161.179 247.539 160.752 247.319 160.397C247.098 160.032 246.795 159.758 246.411 159.576C246.037 159.384 245.619 159.288 245.159 159.288C244.496 159.288 243.93 159.499 243.459 159.921C242.999 160.344 242.735 160.929 242.667 161.678H247.65ZM252.043 159.59C252.274 159.139 252.6 158.789 253.023 158.539C253.455 158.289 253.978 158.165 254.592 158.165V159.518H254.247C252.778 159.518 252.043 160.315 252.043 161.909V166.2H250.733V158.309H252.043V159.59ZM258.899 166.329C258.294 166.329 257.751 166.229 257.271 166.027C256.791 165.816 256.412 165.528 256.134 165.163C255.855 164.789 255.702 164.361 255.673 163.881H257.027C257.065 164.275 257.247 164.597 257.574 164.846C257.91 165.096 258.347 165.221 258.884 165.221C259.383 165.221 259.777 165.11 260.065 164.889C260.353 164.669 260.497 164.39 260.497 164.054C260.497 163.709 260.343 163.454 260.036 163.291C259.729 163.118 259.254 162.95 258.611 162.787C258.025 162.633 257.545 162.48 257.171 162.326C256.806 162.163 256.489 161.928 256.22 161.621C255.961 161.304 255.831 160.891 255.831 160.382C255.831 159.979 255.951 159.609 256.191 159.273C256.431 158.937 256.772 158.673 257.214 158.481C257.655 158.28 258.159 158.179 258.726 158.179C259.599 158.179 260.305 158.4 260.843 158.841C261.38 159.283 261.668 159.888 261.707 160.656H260.396C260.367 160.243 260.199 159.912 259.892 159.662C259.595 159.413 259.191 159.288 258.683 159.288C258.212 159.288 257.838 159.389 257.559 159.59C257.281 159.792 257.142 160.056 257.142 160.382C257.142 160.641 257.223 160.857 257.387 161.03C257.559 161.193 257.771 161.328 258.02 161.433C258.279 161.529 258.635 161.64 259.086 161.765C259.652 161.918 260.113 162.072 260.468 162.225C260.823 162.369 261.126 162.59 261.375 162.888C261.635 163.185 261.769 163.574 261.779 164.054C261.779 164.486 261.659 164.875 261.419 165.221C261.179 165.566 260.838 165.84 260.396 166.041C259.964 166.233 259.465 166.329 258.899 166.329ZM269.066 159.389V164.04C269.066 164.424 269.147 164.697 269.311 164.861C269.474 165.014 269.757 165.091 270.16 165.091H271.125V166.2H269.944C269.215 166.2 268.667 166.032 268.303 165.696C267.938 165.36 267.755 164.808 267.755 164.04V159.389H266.733V158.309H267.755V156.321H269.066V158.309H271.125V159.389H269.066ZM276.154 166.329C275.415 166.329 274.743 166.161 274.138 165.825C273.543 165.489 273.073 165.014 272.727 164.4C272.391 163.776 272.223 163.056 272.223 162.24C272.223 161.433 272.396 160.723 272.742 160.109C273.097 159.485 273.577 159.009 274.182 158.683C274.786 158.347 275.463 158.179 276.212 158.179C276.961 158.179 277.638 158.347 278.242 158.683C278.847 159.009 279.322 159.48 279.668 160.094C280.023 160.709 280.201 161.424 280.201 162.24C280.201 163.056 280.018 163.776 279.654 164.4C279.298 165.014 278.814 165.489 278.199 165.825C277.585 166.161 276.903 166.329 276.154 166.329ZM276.154 165.177C276.625 165.177 277.066 165.067 277.479 164.846C277.892 164.625 278.223 164.294 278.473 163.853C278.732 163.411 278.862 162.873 278.862 162.24C278.862 161.606 278.737 161.069 278.487 160.627C278.238 160.185 277.911 159.859 277.508 159.648C277.105 159.427 276.668 159.317 276.198 159.317C275.718 159.317 275.276 159.427 274.873 159.648C274.479 159.859 274.162 160.185 273.922 160.627C273.682 161.069 273.562 161.606 273.562 162.24C273.562 162.883 273.678 163.425 273.908 163.867C274.148 164.309 274.465 164.64 274.858 164.861C275.252 165.072 275.684 165.177 276.154 165.177ZM288.556 166.329C287.952 166.329 287.409 166.229 286.929 166.027C286.449 165.816 286.07 165.528 285.792 165.163C285.513 164.789 285.36 164.361 285.331 163.881H286.684C286.723 164.275 286.905 164.597 287.232 164.846C287.568 165.096 288.004 165.221 288.542 165.221C289.041 165.221 289.435 165.11 289.723 164.889C290.011 164.669 290.155 164.39 290.155 164.054C290.155 163.709 290.001 163.454 289.694 163.291C289.387 163.118 288.912 162.95 288.268 162.787C287.683 162.633 287.203 162.48 286.828 162.326C286.464 162.163 286.147 161.928 285.878 161.621C285.619 161.304 285.489 160.891 285.489 160.382C285.489 159.979 285.609 159.609 285.849 159.273C286.089 158.937 286.43 158.673 286.872 158.481C287.313 158.28 287.817 158.179 288.384 158.179C289.257 158.179 289.963 158.4 290.5 158.841C291.038 159.283 291.326 159.888 291.364 160.656H290.054C290.025 160.243 289.857 159.912 289.55 159.662C289.252 159.413 288.849 159.288 288.34 159.288C287.87 159.288 287.496 159.389 287.217 159.59C286.939 159.792 286.8 160.056 286.8 160.382C286.8 160.641 286.881 160.857 287.044 161.03C287.217 161.193 287.428 161.328 287.678 161.433C287.937 161.529 288.292 161.64 288.744 161.765C289.31 161.918 289.771 162.072 290.126 162.225C290.481 162.369 290.784 162.59 291.033 162.888C291.292 163.185 291.427 163.574 291.436 164.054C291.436 164.486 291.316 164.875 291.076 165.221C290.836 165.566 290.496 165.84 290.054 166.041C289.622 166.233 289.123 166.329 288.556 166.329ZM300.486 161.952C300.486 162.201 300.472 162.465 300.443 162.744H294.136C294.184 163.521 294.448 164.131 294.928 164.573C295.417 165.005 296.008 165.221 296.699 165.221C297.265 165.221 297.736 165.091 298.11 164.832C298.494 164.563 298.763 164.208 298.917 163.766H300.328C300.117 164.525 299.694 165.144 299.061 165.624C298.427 166.094 297.64 166.329 296.699 166.329C295.95 166.329 295.278 166.161 294.683 165.825C294.097 165.489 293.637 165.014 293.301 164.4C292.965 163.776 292.797 163.056 292.797 162.24C292.797 161.424 292.96 160.709 293.286 160.094C293.613 159.48 294.069 159.009 294.654 158.683C295.249 158.347 295.931 158.179 296.699 158.179C297.448 158.179 298.11 158.342 298.686 158.669C299.262 158.995 299.704 159.446 300.011 160.022C300.328 160.589 300.486 161.232 300.486 161.952ZM299.133 161.678C299.133 161.179 299.022 160.752 298.801 160.397C298.581 160.032 298.278 159.758 297.894 159.576C297.52 159.384 297.102 159.288 296.641 159.288C295.979 159.288 295.413 159.499 294.942 159.921C294.481 160.344 294.217 160.929 294.15 161.678H299.133ZM309.416 161.952C309.416 162.201 309.402 162.465 309.373 162.744H303.066C303.114 163.521 303.378 164.131 303.858 164.573C304.347 165.005 304.938 165.221 305.629 165.221C306.195 165.221 306.666 165.091 307.04 164.832C307.424 164.563 307.693 164.208 307.846 163.766H309.258C309.046 164.525 308.624 165.144 307.99 165.624C307.357 166.094 306.57 166.329 305.629 166.329C304.88 166.329 304.208 166.161 303.613 165.825C303.027 165.489 302.566 165.014 302.23 164.4C301.894 163.776 301.726 163.056 301.726 162.24C301.726 161.424 301.89 160.709 302.216 160.094C302.542 159.48 302.998 159.009 303.584 158.683C304.179 158.347 304.861 158.179 305.629 158.179C306.378 158.179 307.04 158.342 307.616 158.669C308.192 158.995 308.634 159.446 308.941 160.022C309.258 160.589 309.416 161.232 309.416 161.952ZM308.062 161.678C308.062 161.179 307.952 160.752 307.731 160.397C307.51 160.032 307.208 159.758 306.824 159.576C306.45 159.384 306.032 159.288 305.571 159.288C304.909 159.288 304.342 159.499 303.872 159.921C303.411 160.344 303.147 160.929 303.08 161.678H308.062ZM325.497 158.309L323.034 166.2H321.681L319.78 159.936L317.879 166.2H316.525L314.049 158.309H315.388L317.202 164.933L319.161 158.309H320.5L322.415 164.947L324.201 158.309H325.497ZM330.714 158.165C331.309 158.165 331.847 158.294 332.327 158.553C332.807 158.803 333.181 159.182 333.45 159.691C333.728 160.2 333.868 160.819 333.868 161.549V166.2H332.572V161.736C332.572 160.949 332.375 160.349 331.981 159.936C331.588 159.513 331.05 159.302 330.368 159.302C329.677 159.302 329.125 159.518 328.712 159.95C328.309 160.382 328.108 161.011 328.108 161.837V166.2H326.797V155.544H328.108V159.432C328.367 159.029 328.722 158.717 329.173 158.496C329.634 158.275 330.148 158.165 330.714 158.165ZM335.518 162.225C335.518 161.419 335.682 160.713 336.008 160.109C336.334 159.494 336.781 159.019 337.347 158.683C337.923 158.347 338.562 158.179 339.262 158.179C339.954 158.179 340.554 158.328 341.062 158.625C341.571 158.923 341.95 159.297 342.2 159.749V158.309H343.525V166.2H342.2V164.731C341.941 165.192 341.552 165.576 341.034 165.883C340.525 166.181 339.93 166.329 339.248 166.329C338.547 166.329 337.914 166.157 337.347 165.811C336.781 165.465 336.334 164.981 336.008 164.357C335.682 163.733 335.518 163.022 335.518 162.225ZM342.2 162.24C342.2 161.645 342.08 161.126 341.84 160.685C341.6 160.243 341.274 159.907 340.861 159.677C340.458 159.437 340.011 159.317 339.522 159.317C339.032 159.317 338.586 159.432 338.182 159.662C337.779 159.893 337.458 160.229 337.218 160.67C336.978 161.112 336.858 161.63 336.858 162.225C336.858 162.83 336.978 163.358 337.218 163.809C337.458 164.251 337.779 164.592 338.182 164.832C338.586 165.062 339.032 165.177 339.522 165.177C340.011 165.177 340.458 165.062 340.861 164.832C341.274 164.592 341.6 164.251 341.84 163.809C342.08 163.358 342.2 162.835 342.2 162.24ZM347.338 159.389V164.04C347.338 164.424 347.419 164.697 347.583 164.861C347.746 165.014 348.029 165.091 348.432 165.091H349.397V166.2H348.216C347.487 166.2 346.939 166.032 346.575 165.696C346.21 165.36 346.027 164.808 346.027 164.04V159.389H345.005V158.309H346.027V156.321H347.338V158.309H349.397V159.389H347.338ZM97.8201 187.225C97.8201 186.419 97.9833 185.713 98.3097 185.109C98.6361 184.494 99.0825 184.019 99.6489 183.683C100.225 183.347 100.863 183.179 101.564 183.179C102.255 183.179 102.855 183.328 103.364 183.625C103.873 183.923 104.252 184.297 104.502 184.749V183.309H105.826V191.2H104.502V189.731C104.242 190.192 103.854 190.576 103.335 190.883C102.826 191.181 102.231 191.329 101.55 191.329C100.849 191.329 100.215 191.157 99.6489 190.811C99.0825 190.465 98.6361 189.981 98.3097 189.357C97.9833 188.733 97.8201 188.022 97.8201 187.225ZM104.502 187.24C104.502 186.645 104.382 186.126 104.142 185.685C103.902 185.243 103.575 184.907 103.162 184.677C102.759 184.437 102.313 184.317 101.823 184.317C101.334 184.317 100.887 184.432 100.484 184.662C100.081 184.893 99.7593 185.229 99.5193 185.67C99.2793 186.112 99.1593 186.63 99.1593 187.225C99.1593 187.83 99.2793 188.358 99.5193 188.809C99.7593 189.251 100.081 189.592 100.484 189.832C100.887 190.062 101.334 190.177 101.823 190.177C102.313 190.177 102.759 190.062 103.162 189.832C103.575 189.592 103.902 189.251 104.142 188.809C104.382 188.358 104.502 187.835 104.502 187.24ZM107.551 187.24C107.551 186.424 107.714 185.713 108.041 185.109C108.367 184.494 108.818 184.019 109.394 183.683C109.98 183.347 110.647 183.179 111.396 183.179C112.366 183.179 113.162 183.414 113.786 183.885C114.42 184.355 114.838 185.008 115.039 185.843H113.628C113.494 185.363 113.23 184.984 112.836 184.705C112.452 184.427 111.972 184.288 111.396 184.288C110.647 184.288 110.042 184.547 109.582 185.065C109.121 185.574 108.89 186.299 108.89 187.24C108.89 188.19 109.121 188.925 109.582 189.443C110.042 189.961 110.647 190.221 111.396 190.221C111.972 190.221 112.452 190.086 112.836 189.817C113.22 189.549 113.484 189.165 113.628 188.665H115.039C114.828 189.472 114.406 190.12 113.772 190.609C113.138 191.089 112.346 191.329 111.396 191.329C110.647 191.329 109.98 191.161 109.394 190.825C108.818 190.489 108.367 190.014 108.041 189.4C107.714 188.785 107.551 188.065 107.551 187.24ZM118.386 184.389V189.04C118.386 189.424 118.468 189.697 118.631 189.861C118.794 190.014 119.077 190.091 119.481 190.091H120.445V191.2H119.265C118.535 191.2 117.988 191.032 117.623 190.696C117.258 190.36 117.076 189.808 117.076 189.04V184.389H116.053V183.309H117.076V181.321H118.386V183.309H120.445V184.389H118.386ZM122.71 182.027C122.46 182.027 122.249 181.941 122.076 181.768C121.903 181.595 121.817 181.384 121.817 181.134C121.817 180.885 121.903 180.673 122.076 180.501C122.249 180.328 122.46 180.241 122.71 180.241C122.95 180.241 123.151 180.328 123.315 180.501C123.487 180.673 123.574 180.885 123.574 181.134C123.574 181.384 123.487 181.595 123.315 181.768C123.151 181.941 122.95 182.027 122.71 182.027ZM123.343 183.309V191.2H122.033V183.309H123.343ZM129.018 191.329C128.279 191.329 127.607 191.161 127.002 190.825C126.407 190.489 125.937 190.014 125.591 189.4C125.255 188.776 125.087 188.056 125.087 187.24C125.087 186.433 125.26 185.723 125.606 185.109C125.961 184.485 126.441 184.009 127.046 183.683C127.65 183.347 128.327 183.179 129.076 183.179C129.825 183.179 130.502 183.347 131.106 183.683C131.711 184.009 132.186 184.48 132.532 185.094C132.887 185.709 133.065 186.424 133.065 187.24C133.065 188.056 132.882 188.776 132.518 189.4C132.162 190.014 131.678 190.489 131.063 190.825C130.449 191.161 129.767 191.329 129.018 191.329ZM129.018 190.177C129.489 190.177 129.93 190.067 130.343 189.846C130.756 189.625 131.087 189.294 131.337 188.853C131.596 188.411 131.726 187.873 131.726 187.24C131.726 186.606 131.601 186.069 131.351 185.627C131.102 185.185 130.775 184.859 130.372 184.648C129.969 184.427 129.532 184.317 129.062 184.317C128.582 184.317 128.14 184.427 127.737 184.648C127.343 184.859 127.026 185.185 126.786 185.627C126.546 186.069 126.426 186.606 126.426 187.24C126.426 187.883 126.542 188.425 126.772 188.867C127.012 189.309 127.329 189.64 127.722 189.861C128.116 190.072 128.548 190.177 129.018 190.177ZM138.633 183.165C139.593 183.165 140.37 183.457 140.965 184.043C141.561 184.619 141.858 185.454 141.858 186.549V191.2H140.562V186.736C140.562 185.949 140.365 185.349 139.972 184.936C139.578 184.513 139.041 184.302 138.359 184.302C137.668 184.302 137.116 184.518 136.703 184.95C136.3 185.382 136.098 186.011 136.098 186.837V191.2H134.788V183.309H136.098V184.432C136.357 184.029 136.708 183.717 137.149 183.496C137.601 183.275 138.095 183.165 138.633 183.165ZM146.792 191.329C146.188 191.329 145.645 191.229 145.165 191.027C144.685 190.816 144.306 190.528 144.028 190.163C143.749 189.789 143.596 189.361 143.567 188.881H144.92C144.959 189.275 145.141 189.597 145.468 189.846C145.804 190.096 146.24 190.221 146.778 190.221C147.277 190.221 147.671 190.11 147.959 189.889C148.247 189.669 148.391 189.39 148.391 189.054C148.391 188.709 148.237 188.454 147.93 188.291C147.623 188.118 147.148 187.95 146.504 187.787C145.919 187.633 145.439 187.48 145.064 187.326C144.7 187.163 144.383 186.928 144.114 186.621C143.855 186.304 143.725 185.891 143.725 185.382C143.725 184.979 143.845 184.609 144.085 184.273C144.325 183.937 144.666 183.673 145.108 183.481C145.549 183.28 146.053 183.179 146.62 183.179C147.493 183.179 148.199 183.4 148.736 183.841C149.274 184.283 149.562 184.888 149.6 185.656H148.29C148.261 185.243 148.093 184.912 147.786 184.662C147.488 184.413 147.085 184.288 146.576 184.288C146.106 184.288 145.732 184.389 145.453 184.59C145.175 184.792 145.036 185.056 145.036 185.382C145.036 185.641 145.117 185.857 145.28 186.03C145.453 186.193 145.664 186.328 145.914 186.433C146.173 186.529 146.528 186.64 146.98 186.765C147.546 186.918 148.007 187.072 148.362 187.225C148.717 187.369 149.02 187.59 149.269 187.888C149.528 188.185 149.663 188.574 149.672 189.054C149.672 189.486 149.552 189.875 149.312 190.221C149.072 190.566 148.732 190.84 148.29 191.041C147.858 191.233 147.359 191.329 146.792 191.329ZM154.872 187.225C154.872 186.419 155.035 185.713 155.361 185.109C155.688 184.494 156.134 184.019 156.7 183.683C157.276 183.347 157.915 183.179 158.616 183.179C159.307 183.179 159.907 183.328 160.416 183.625C160.924 183.923 161.304 184.297 161.553 184.749V183.309H162.878V191.2H161.553V189.731C161.294 190.192 160.905 190.576 160.387 190.883C159.878 191.181 159.283 191.329 158.601 191.329C157.9 191.329 157.267 191.157 156.7 190.811C156.134 190.465 155.688 189.981 155.361 189.357C155.035 188.733 154.872 188.022 154.872 187.225ZM161.553 187.24C161.553 186.645 161.433 186.126 161.193 185.685C160.953 185.243 160.627 184.907 160.214 184.677C159.811 184.437 159.364 184.317 158.875 184.317C158.385 184.317 157.939 184.432 157.536 184.662C157.132 184.893 156.811 185.229 156.571 185.67C156.331 186.112 156.211 186.63 156.211 187.225C156.211 187.83 156.331 188.358 156.571 188.809C156.811 189.251 157.132 189.592 157.536 189.832C157.939 190.062 158.385 190.177 158.875 190.177C159.364 190.177 159.811 190.062 160.214 189.832C160.627 189.592 160.953 189.251 161.193 188.809C161.433 188.358 161.553 187.835 161.553 187.24ZM166.403 184.59C166.633 184.139 166.96 183.789 167.382 183.539C167.814 183.289 168.337 183.165 168.952 183.165V184.518H168.606C167.137 184.518 166.403 185.315 166.403 186.909V191.2H165.092V183.309H166.403V184.59ZM177.664 186.952C177.664 187.201 177.65 187.465 177.621 187.744H171.314C171.362 188.521 171.626 189.131 172.106 189.573C172.596 190.005 173.186 190.221 173.877 190.221C174.444 190.221 174.914 190.091 175.288 189.832C175.672 189.563 175.941 189.208 176.095 188.766H177.506C177.295 189.525 176.872 190.144 176.239 190.624C175.605 191.094 174.818 191.329 173.877 191.329C173.128 191.329 172.456 191.161 171.861 190.825C171.276 190.489 170.815 190.014 170.479 189.4C170.143 188.776 169.975 188.056 169.975 187.24C169.975 186.424 170.138 185.709 170.464 185.094C170.791 184.48 171.247 184.009 171.832 183.683C172.428 183.347 173.109 183.179 173.877 183.179C174.626 183.179 175.288 183.342 175.864 183.669C176.44 183.995 176.882 184.446 177.189 185.022C177.506 185.589 177.664 186.232 177.664 186.952ZM176.311 186.678C176.311 186.179 176.2 185.752 175.98 185.397C175.759 185.032 175.456 184.758 175.072 184.576C174.698 184.384 174.28 184.288 173.82 184.288C173.157 184.288 172.591 184.499 172.12 184.921C171.66 185.344 171.396 185.929 171.328 186.678H176.311ZM184.543 184.763C184.803 184.312 185.187 183.937 185.695 183.64C186.214 183.333 186.814 183.179 187.495 183.179C188.196 183.179 188.83 183.347 189.396 183.683C189.972 184.019 190.423 184.494 190.75 185.109C191.076 185.713 191.239 186.419 191.239 187.225C191.239 188.022 191.076 188.733 190.75 189.357C190.423 189.981 189.972 190.465 189.396 190.811C188.83 191.157 188.196 191.329 187.495 191.329C186.823 191.329 186.228 191.181 185.71 190.883C185.201 190.576 184.812 190.197 184.543 189.745V194.944H183.233V183.309H184.543V184.763ZM189.9 187.225C189.9 186.63 189.78 186.112 189.54 185.67C189.3 185.229 188.974 184.893 188.561 184.662C188.158 184.432 187.711 184.317 187.222 184.317C186.742 184.317 186.295 184.437 185.883 184.677C185.479 184.907 185.153 185.248 184.903 185.699C184.663 186.141 184.543 186.654 184.543 187.24C184.543 187.835 184.663 188.358 184.903 188.809C185.153 189.251 185.479 189.592 185.883 189.832C186.295 190.062 186.742 190.177 187.222 190.177C187.711 190.177 188.158 190.062 188.561 189.832C188.974 189.592 189.3 189.251 189.54 188.809C189.78 188.358 189.9 187.83 189.9 187.225ZM200.164 186.952C200.164 187.201 200.15 187.465 200.121 187.744H193.814C193.862 188.521 194.126 189.131 194.606 189.573C195.096 190.005 195.686 190.221 196.377 190.221C196.944 190.221 197.414 190.091 197.788 189.832C198.172 189.563 198.441 189.208 198.595 188.766H200.006C199.795 189.525 199.372 190.144 198.739 190.624C198.105 191.094 197.318 191.329 196.377 191.329C195.628 191.329 194.956 191.161 194.361 190.825C193.776 190.489 193.315 190.014 192.979 189.4C192.643 188.776 192.475 188.056 192.475 187.24C192.475 186.424 192.638 185.709 192.964 185.094C193.291 184.48 193.747 184.009 194.332 183.683C194.928 183.347 195.609 183.179 196.377 183.179C197.126 183.179 197.788 183.342 198.364 183.669C198.94 183.995 199.382 184.446 199.689 185.022C200.006 185.589 200.164 186.232 200.164 186.952ZM198.811 186.678C198.811 186.179 198.7 185.752 198.48 185.397C198.259 185.032 197.956 184.758 197.572 184.576C197.198 184.384 196.78 184.288 196.32 184.288C195.657 184.288 195.091 184.499 194.62 184.921C194.16 185.344 193.896 185.929 193.828 186.678H198.811ZM203.204 184.59C203.435 184.139 203.761 183.789 204.184 183.539C204.616 183.289 205.139 183.165 205.753 183.165V184.518H205.408C203.939 184.518 203.204 185.315 203.204 186.909V191.2H201.894V183.309H203.204V184.59ZM210.477 184.389H208.821V191.2H207.511V184.389H206.488V183.309H207.511V182.747C207.511 181.864 207.736 181.221 208.188 180.817C208.648 180.405 209.383 180.198 210.391 180.198V181.293C209.815 181.293 209.407 181.408 209.167 181.638C208.936 181.859 208.821 182.229 208.821 182.747V183.309H210.477V184.389ZM215.447 191.329C214.707 191.329 214.035 191.161 213.431 190.825C212.835 190.489 212.365 190.014 212.019 189.4C211.683 188.776 211.515 188.056 211.515 187.24C211.515 186.433 211.688 185.723 212.034 185.109C212.389 184.485 212.869 184.009 213.474 183.683C214.079 183.347 214.755 183.179 215.504 183.179C216.253 183.179 216.93 183.347 217.535 183.683C218.139 184.009 218.615 184.48 218.96 185.094C219.315 185.709 219.493 186.424 219.493 187.24C219.493 188.056 219.311 188.776 218.946 189.4C218.591 190.014 218.106 190.489 217.491 190.825C216.877 191.161 216.195 191.329 215.447 191.329ZM215.447 190.177C215.917 190.177 216.359 190.067 216.771 189.846C217.184 189.625 217.515 189.294 217.765 188.853C218.024 188.411 218.154 187.873 218.154 187.24C218.154 186.606 218.029 186.069 217.779 185.627C217.53 185.185 217.203 184.859 216.8 184.648C216.397 184.427 215.96 184.317 215.49 184.317C215.01 184.317 214.568 184.427 214.165 184.648C213.771 184.859 213.455 185.185 213.215 185.627C212.975 186.069 212.855 186.606 212.855 187.24C212.855 187.883 212.97 188.425 213.2 188.867C213.44 189.309 213.757 189.64 214.151 189.861C214.544 190.072 214.976 190.177 215.447 190.177ZM222.526 184.59C222.757 184.139 223.083 183.789 223.506 183.539C223.938 183.289 224.461 183.165 225.075 183.165V184.518H224.73C223.261 184.518 222.526 185.315 222.526 186.909V191.2H221.216V183.309H222.526V184.59ZM236.077 183.165C236.692 183.165 237.239 183.294 237.719 183.553C238.199 183.803 238.578 184.182 238.857 184.691C239.135 185.2 239.274 185.819 239.274 186.549V191.2H237.978V186.736C237.978 185.949 237.781 185.349 237.388 184.936C237.004 184.513 236.481 184.302 235.818 184.302C235.137 184.302 234.594 184.523 234.191 184.965C233.788 185.397 233.586 186.025 233.586 186.851V191.2H232.29V186.736C232.29 185.949 232.093 185.349 231.7 184.936C231.316 184.513 230.793 184.302 230.13 184.302C229.449 184.302 228.906 184.523 228.503 184.965C228.1 185.397 227.898 186.025 227.898 186.851V191.2H226.588V183.309H227.898V184.446C228.157 184.033 228.503 183.717 228.935 183.496C229.377 183.275 229.861 183.165 230.389 183.165C231.052 183.165 231.637 183.313 232.146 183.611C232.655 183.909 233.034 184.345 233.284 184.921C233.505 184.365 233.869 183.933 234.378 183.625C234.887 183.318 235.453 183.165 236.077 183.165ZM248.624 186.952C248.624 187.201 248.609 187.465 248.581 187.744H242.273C242.321 188.521 242.585 189.131 243.065 189.573C243.555 190.005 244.145 190.221 244.837 190.221C245.403 190.221 245.873 190.091 246.248 189.832C246.632 189.563 246.901 189.208 247.054 188.766H248.465C248.254 189.525 247.832 190.144 247.198 190.624C246.565 191.094 245.777 191.329 244.837 191.329C244.088 191.329 243.416 191.161 242.821 190.825C242.235 190.489 241.774 190.014 241.438 189.4C241.102 188.776 240.934 188.056 240.934 187.24C240.934 186.424 241.097 185.709 241.424 185.094C241.75 184.48 242.206 184.009 242.792 183.683C243.387 183.347 244.069 183.179 244.837 183.179C245.585 183.179 246.248 183.342 246.824 183.669C247.4 183.995 247.841 184.446 248.149 185.022C248.465 185.589 248.624 186.232 248.624 186.952ZM247.27 186.678C247.27 186.179 247.16 185.752 246.939 185.397C246.718 185.032 246.416 184.758 246.032 184.576C245.657 184.384 245.24 184.288 244.779 184.288C244.117 184.288 243.55 184.499 243.08 184.921C242.619 185.344 242.355 185.929 242.288 186.678H247.27ZM249.864 187.225C249.864 186.419 250.027 185.713 250.353 185.109C250.68 184.494 251.126 184.019 251.693 183.683C252.269 183.347 252.912 183.179 253.622 183.179C254.237 183.179 254.808 183.323 255.336 183.611C255.864 183.889 256.267 184.259 256.545 184.72V180.544H257.87V191.2H256.545V189.717C256.286 190.187 255.902 190.576 255.393 190.883C254.885 191.181 254.289 191.329 253.608 191.329C252.907 191.329 252.269 191.157 251.693 190.811C251.126 190.465 250.68 189.981 250.353 189.357C250.027 188.733 249.864 188.022 249.864 187.225ZM256.545 187.24C256.545 186.645 256.425 186.126 256.185 185.685C255.945 185.243 255.619 184.907 255.206 184.677C254.803 184.437 254.357 184.317 253.867 184.317C253.377 184.317 252.931 184.432 252.528 184.662C252.125 184.893 251.803 185.229 251.563 185.67C251.323 186.112 251.203 186.63 251.203 187.225C251.203 187.83 251.323 188.358 251.563 188.809C251.803 189.251 252.125 189.592 252.528 189.832C252.931 190.062 253.377 190.177 253.867 190.177C254.357 190.177 254.803 190.062 255.206 189.832C255.619 189.592 255.945 189.251 256.185 188.809C256.425 188.358 256.545 187.835 256.545 187.24ZM260.502 191.286C260.253 191.286 260.041 191.2 259.869 191.027C259.696 190.854 259.609 190.643 259.609 190.393C259.609 190.144 259.696 189.933 259.869 189.76C260.041 189.587 260.253 189.501 260.502 189.501C260.742 189.501 260.944 189.587 261.107 189.76C261.28 189.933 261.366 190.144 261.366 190.393C261.366 190.643 261.28 190.854 261.107 191.027C260.944 191.2 260.742 191.286 260.502 191.286Z" fill="#5A7184"/>
</svg>
