<svg width="177" height="174" viewBox="0 0 177 174" fill="none" xmlns="http://www.w3.org/2000/svg">
<g id="Icon  4">
<g id="Border" opacity="0.06">
<rect id="Shape" x="1.80029" y="-0.000366211" width="172.8" height="172.8" rx="14.4" fill="#108824"/>
</g>
<g id="Icon_Thumbs">
<path id="Path" fill-rule="evenodd" clip-rule="evenodd" d="M67.0884 72.8789C72.9051 64.6395 76.5359 55.1851 77.9925 44.4817C78.1313 43.462 78.8554 42.6142 79.8493 42.3076C89.8664 39.2176 95.5614 44.1279 95.4673 55.3242C95.449 57.4976 95.3484 59.4293 95.1342 62.3839C94.6557 68.9832 94.6938 70.7842 95.4351 71.996C96.1476 73.1609 98.4608 73.5586 103.932 72.5233C105.658 72.1966 107.39 71.8262 109.308 71.3815C110.155 71.1851 116.254 69.7018 117.813 69.3663C120.786 68.7262 122.92 68.4553 124.797 68.57C129.88 68.8808 132.577 72.1429 133.043 78.3928C133.864 89.3994 131.328 111.507 128.797 119.651C126.212 127.972 121.703 131.113 110.879 131.303C103.92 131.425 93.2176 131.425 78.7208 131.302C75.0202 131.216 71.6664 130.502 68.6833 129.167C69.5207 127.438 69.9896 125.503 69.9896 123.459V81.1057C69.9896 77.9965 68.9046 75.1377 67.0884 72.8789Z" fill="#108824"/>
<path id="Path_2" d="M51.2372 73.1646C46.7986 73.1646 43.2004 76.7199 43.2004 81.1057V123.459C43.2004 127.844 46.7986 131.4 51.2372 131.4H56.5951C61.0337 131.4 64.6319 127.844 64.6319 123.459V81.1057C64.6319 76.7199 61.0337 73.1646 56.5951 73.1646H51.2372Z" fill="#B4CCEF"/>
</g>
</g>
</svg>
