<svg width="359" height="199" viewBox="0 0 359 199" fill="none" xmlns="http://www.w3.org/2000/svg">
<g opacity="0.06">
<rect x="150.6" y="-0.00012207" width="57.6" height="57.6" rx="14.4" fill="#FF7F5D"/>
</g>
<path fill-rule="evenodd" clip-rule="evenodd" d="M172.363 24.293C174.302 21.5465 175.512 18.395 175.998 14.8272C176.044 14.4873 176.285 14.2047 176.616 14.1025C179.955 13.0725 181.854 14.7093 181.822 18.4414C181.816 19.1659 181.783 19.8098 181.711 20.7946C181.552 22.9944 181.565 23.5947 181.812 23.9987C182.049 24.387 182.82 24.5195 184.644 24.1744C185.219 24.0655 185.797 23.9421 186.436 23.7938C186.718 23.7284 188.751 23.2339 189.271 23.1221C190.262 22.9087 190.973 22.8184 191.599 22.8567C193.293 22.9603 194.192 24.0476 194.348 26.1309C194.621 29.7998 193.776 37.1691 192.932 39.8835C192.071 42.6573 190.568 43.7043 186.96 43.7675C184.64 43.8082 181.073 43.8082 176.24 43.7674C175.007 43.7388 173.889 43.5007 172.894 43.0556C173.174 42.4795 173.33 41.8342 173.33 41.1529V27.0352C173.33 25.9988 172.968 25.0459 172.363 24.293Z" fill="#FF7F5D"/>
<path d="M167.079 24.3882C165.599 24.3882 164.4 25.5733 164.4 27.0352V41.1529C164.4 42.6148 165.599 43.7999 167.079 43.7999H168.865C170.345 43.7999 171.544 42.6148 171.544 41.1529V27.0352C171.544 25.5733 170.345 24.3882 168.865 24.3882H167.079Z" fill="#B4CCEF"/>
<path d="M165.54 90.7639V93.2299H162.192V103.4H159.114V93.2299H155.766V90.7639H165.54ZM170.343 95.0299C170.703 94.4779 171.153 94.0459 171.693 93.7339C172.233 93.4099 172.833 93.2479 173.493 93.2479V96.5059H172.647C171.879 96.5059 171.303 96.6739 170.919 97.0099C170.535 97.3339 170.343 97.9099 170.343 98.7379V103.4H167.265V93.3559H170.343V95.0299ZM185.062 93.3559V103.4H181.984V102.032C181.672 102.476 181.246 102.836 180.706 103.112C180.178 103.376 179.59 103.508 178.942 103.508C178.174 103.508 177.496 103.34 176.908 103.004C176.32 102.656 175.864 102.158 175.54 101.51C175.216 100.862 175.054 100.1 175.054 99.2239V93.3559H178.114V98.8099C178.114 99.4819 178.288 100.004 178.636 100.376C178.984 100.748 179.452 100.934 180.04 100.934C180.64 100.934 181.114 100.748 181.462 100.376C181.81 100.004 181.984 99.4819 181.984 98.8099V93.3559H185.062ZM191.539 103.544C190.663 103.544 189.883 103.394 189.199 103.094C188.515 102.794 187.975 102.386 187.579 101.87C187.183 101.342 186.961 100.754 186.913 100.106H189.955C189.991 100.454 190.153 100.736 190.441 100.952C190.729 101.168 191.083 101.276 191.503 101.276C191.887 101.276 192.181 101.204 192.385 101.06C192.601 100.904 192.709 100.706 192.709 100.466C192.709 100.178 192.559 99.9679 192.259 99.8359C191.959 99.6919 191.473 99.5359 190.801 99.3679C190.081 99.1999 189.481 99.0259 189.001 98.8459C188.521 98.6539 188.107 98.3599 187.759 97.9639C187.411 97.5559 187.237 97.0099 187.237 96.3259C187.237 95.7499 187.393 95.2279 187.705 94.7599C188.029 94.2799 188.497 93.9019 189.109 93.6259C189.733 93.3499 190.471 93.2119 191.323 93.2119C192.583 93.2119 193.573 93.5239 194.293 94.1479C195.025 94.7719 195.445 95.5999 195.553 96.6319H192.709C192.661 96.2839 192.505 96.0079 192.241 95.8039C191.989 95.5999 191.653 95.4979 191.233 95.4979C190.873 95.4979 190.597 95.5699 190.405 95.7139C190.213 95.8459 190.117 96.0319 190.117 96.2719C190.117 96.5599 190.267 96.7759 190.567 96.9199C190.879 97.0639 191.359 97.2079 192.007 97.3519C192.751 97.5439 193.357 97.7359 193.825 97.9279C194.293 98.1079 194.701 98.4079 195.049 98.8279C195.409 99.2359 195.595 99.7879 195.607 100.484C195.607 101.072 195.439 101.6 195.103 102.068C194.779 102.524 194.305 102.884 193.681 103.148C193.069 103.412 192.355 103.544 191.539 103.544ZM203.268 100.79V103.4H201.702C200.586 103.4 199.716 103.13 199.092 102.59C198.468 102.038 198.156 101.144 198.156 99.9079V95.9119H196.932V93.3559H198.156V90.9079H201.234V93.3559H203.25V95.9119H201.234V99.9439C201.234 100.244 201.306 100.46 201.45 100.592C201.594 100.724 201.834 100.79 202.17 100.79H203.268Z" fill="#11145A"/>
<path d="M11.9529 130.363V131.429H9.21686V140.4H7.90646V131.429H5.15606V130.363H11.9529ZM14.8763 133.79C15.1067 133.339 15.4331 132.989 15.8555 132.739C16.2875 132.49 16.8107 132.365 17.4251 132.365V133.718H17.0795C15.6107 133.718 14.8763 134.515 14.8763 136.109V140.4H13.5659V132.509H14.8763V133.79ZM25.9362 132.509V140.4H24.6258V139.234C24.3762 139.637 24.0258 139.954 23.5746 140.184C23.133 140.405 22.6434 140.515 22.1058 140.515C21.4914 140.515 20.9394 140.39 20.4498 140.141C19.9602 139.882 19.5714 139.498 19.2834 138.989C19.005 138.48 18.8658 137.861 18.8658 137.131V132.509H20.1618V136.958C20.1618 137.736 20.3586 138.336 20.7522 138.758C21.1458 139.171 21.6834 139.378 22.365 139.378C23.0658 139.378 23.6178 139.162 24.021 138.73C24.4242 138.298 24.6258 137.669 24.6258 136.843V132.509H25.9362ZM30.9423 140.53C30.3375 140.53 29.7951 140.429 29.3151 140.227C28.8351 140.016 28.4559 139.728 28.1775 139.363C27.8991 138.989 27.7455 138.562 27.7167 138.082H29.0703C29.1087 138.475 29.2911 138.797 29.6175 139.046C29.9535 139.296 30.3903 139.421 30.9279 139.421C31.4271 139.421 31.8207 139.31 32.1087 139.09C32.3967 138.869 32.5407 138.59 32.5407 138.254C32.5407 137.909 32.3871 137.654 32.0799 137.491C31.7727 137.318 31.2975 137.15 30.6543 136.987C30.0687 136.834 29.5887 136.68 29.2143 136.526C28.8495 136.363 28.5327 136.128 28.2639 135.821C28.0047 135.504 27.8751 135.091 27.8751 134.582C27.8751 134.179 27.9951 133.81 28.2351 133.474C28.4751 133.138 28.8159 132.874 29.2575 132.682C29.6991 132.48 30.2031 132.379 30.7695 132.379C31.6431 132.379 32.3487 132.6 32.8863 133.042C33.4239 133.483 33.7119 134.088 33.7503 134.856H32.4399C32.4111 134.443 32.2431 134.112 31.9359 133.862C31.6383 133.613 31.2351 133.488 30.7263 133.488C30.2559 133.488 29.8815 133.589 29.6031 133.79C29.3247 133.992 29.1855 134.256 29.1855 134.582C29.1855 134.842 29.2671 135.058 29.4303 135.23C29.6031 135.394 29.8143 135.528 30.0639 135.634C30.3231 135.73 30.6783 135.84 31.1295 135.965C31.6959 136.118 32.1567 136.272 32.5119 136.426C32.8671 136.57 33.1695 136.79 33.4191 137.088C33.6783 137.386 33.8127 137.774 33.8223 138.254C33.8223 138.686 33.7023 139.075 33.4623 139.421C33.2223 139.766 32.8815 140.04 32.4399 140.242C32.0079 140.434 31.5087 140.53 30.9423 140.53ZM37.2705 133.589V138.24C37.2705 138.624 37.3521 138.898 37.5153 139.061C37.6785 139.214 37.9617 139.291 38.3649 139.291H39.3297V140.4H38.1489C37.4193 140.4 36.8721 140.232 36.5073 139.896C36.1425 139.56 35.9601 139.008 35.9601 138.24V133.589H34.9377V132.509H35.9601V130.522H37.2705V132.509H39.3297V133.589H37.2705ZM55.2685 132.509L52.8061 140.4H51.4525L49.5517 134.136L47.6509 140.4H46.2973L43.8205 132.509H45.1597L46.9741 139.133L48.9325 132.509H50.2717L52.1869 139.147L53.9725 132.509H55.2685ZM57.2458 131.227C56.9962 131.227 56.785 131.141 56.6122 130.968C56.4394 130.795 56.353 130.584 56.353 130.334C56.353 130.085 56.4394 129.874 56.6122 129.701C56.785 129.528 56.9962 129.442 57.2458 129.442C57.4858 129.442 57.6874 129.528 57.8506 129.701C58.0234 129.874 58.1098 130.085 58.1098 130.334C58.1098 130.584 58.0234 130.795 57.8506 130.968C57.6874 131.141 57.4858 131.227 57.2458 131.227ZM57.8794 132.509V140.4H56.569V132.509H57.8794ZM61.4232 129.744V140.4H60.1128V129.744H61.4232ZM64.9669 129.744V140.4H63.6565V129.744H64.9669ZM74.9561 132.365C75.5513 132.365 76.0889 132.494 76.5689 132.754C77.0489 133.003 77.4233 133.382 77.6921 133.891C77.9705 134.4 78.1097 135.019 78.1097 135.749V140.4H76.8137V135.936C76.8137 135.149 76.6169 134.549 76.2233 134.136C75.8297 133.714 75.2921 133.502 74.6105 133.502C73.9193 133.502 73.3673 133.718 72.9545 134.15C72.5513 134.582 72.3497 135.211 72.3497 136.037V140.4H71.0393V129.744H72.3497V133.632C72.6089 133.229 72.9641 132.917 73.4153 132.696C73.8761 132.475 74.3897 132.365 74.9561 132.365ZM87.4503 136.152C87.4503 136.402 87.4359 136.666 87.4071 136.944H81.0999C81.1479 137.722 81.4119 138.331 81.8919 138.773C82.3815 139.205 82.9719 139.421 83.6631 139.421C84.2295 139.421 84.6999 139.291 85.0743 139.032C85.4583 138.763 85.7271 138.408 85.8807 137.966H87.2919C87.0807 138.725 86.6583 139.344 86.0247 139.824C85.3911 140.294 84.6039 140.53 83.6631 140.53C82.9143 140.53 82.2423 140.362 81.6471 140.026C81.0615 139.69 80.6007 139.214 80.2647 138.6C79.9287 137.976 79.7607 137.256 79.7607 136.44C79.7607 135.624 79.9239 134.909 80.2503 134.294C80.5767 133.68 81.0327 133.21 81.6183 132.883C82.2135 132.547 82.8951 132.379 83.6631 132.379C84.4119 132.379 85.0743 132.542 85.6503 132.869C86.2263 133.195 86.6679 133.646 86.9751 134.222C87.2919 134.789 87.4503 135.432 87.4503 136.152ZM86.0967 135.878C86.0967 135.379 85.9863 134.952 85.7655 134.597C85.5447 134.232 85.2423 133.958 84.8583 133.776C84.4839 133.584 84.0663 133.488 83.6055 133.488C82.9431 133.488 82.3767 133.699 81.9063 134.122C81.4455 134.544 81.1815 135.13 81.1143 135.878H86.0967ZM90.4903 129.744V140.4H89.1799V129.744H90.4903ZM94.0341 133.963C94.2933 133.512 94.6773 133.138 95.1861 132.84C95.7045 132.533 96.3045 132.379 96.9861 132.379C97.6869 132.379 98.3205 132.547 98.8869 132.883C99.4629 133.219 99.9141 133.694 100.24 134.309C100.567 134.914 100.73 135.619 100.73 136.426C100.73 137.222 100.567 137.933 100.24 138.557C99.9141 139.181 99.4629 139.666 98.8869 140.011C98.3205 140.357 97.6869 140.53 96.9861 140.53C96.3141 140.53 95.7189 140.381 95.2005 140.083C94.6917 139.776 94.3029 139.397 94.0341 138.946V144.144H92.7237V132.509H94.0341V133.963ZM99.3909 136.426C99.3909 135.83 99.2709 135.312 99.0309 134.87C98.7909 134.429 98.4645 134.093 98.0517 133.862C97.6485 133.632 97.2021 133.517 96.7125 133.517C96.2325 133.517 95.7861 133.637 95.3733 133.877C94.9701 134.107 94.6437 134.448 94.3941 134.899C94.1541 135.341 94.0341 135.854 94.0341 136.44C94.0341 137.035 94.1541 137.558 94.3941 138.01C94.6437 138.451 94.9701 138.792 95.3733 139.032C95.7861 139.262 96.2325 139.378 96.7125 139.378C97.2021 139.378 97.6485 139.262 98.0517 139.032C98.4645 138.792 98.7909 138.451 99.0309 138.01C99.2709 137.558 99.3909 137.03 99.3909 136.426ZM113.292 132.509V140.4H111.982V139.234C111.732 139.637 111.382 139.954 110.931 140.184C110.489 140.405 110 140.515 109.462 140.515C108.848 140.515 108.296 140.39 107.806 140.141C107.316 139.882 106.928 139.498 106.64 138.989C106.361 138.48 106.222 137.861 106.222 137.131V132.509H107.518V136.958C107.518 137.736 107.715 138.336 108.108 138.758C108.502 139.171 109.04 139.378 109.721 139.378C110.422 139.378 110.974 139.162 111.377 138.73C111.78 138.298 111.982 137.669 111.982 136.843V132.509H113.292ZM118.299 140.53C117.694 140.53 117.151 140.429 116.671 140.227C116.191 140.016 115.812 139.728 115.534 139.363C115.255 138.989 115.102 138.562 115.073 138.082H116.427C116.465 138.475 116.647 138.797 116.974 139.046C117.31 139.296 117.747 139.421 118.284 139.421C118.783 139.421 119.177 139.31 119.465 139.09C119.753 138.869 119.897 138.59 119.897 138.254C119.897 137.909 119.743 137.654 119.436 137.491C119.129 137.318 118.654 137.15 118.011 136.987C117.425 136.834 116.945 136.68 116.571 136.526C116.206 136.363 115.889 136.128 115.62 135.821C115.361 135.504 115.231 135.091 115.231 134.582C115.231 134.179 115.351 133.81 115.591 133.474C115.831 133.138 116.172 132.874 116.614 132.682C117.055 132.48 117.559 132.379 118.126 132.379C118.999 132.379 119.705 132.6 120.243 133.042C120.78 133.483 121.068 134.088 121.107 134.856H119.796C119.767 134.443 119.599 134.112 119.292 133.862C118.995 133.613 118.591 133.488 118.083 133.488C117.612 133.488 117.238 133.589 116.959 133.79C116.681 133.992 116.542 134.256 116.542 134.582C116.542 134.842 116.623 135.058 116.787 135.23C116.959 135.394 117.171 135.528 117.42 135.634C117.679 135.73 118.035 135.84 118.486 135.965C119.052 136.118 119.513 136.272 119.868 136.426C120.223 136.57 120.526 136.79 120.775 137.088C121.035 137.386 121.169 137.774 121.179 138.254C121.179 138.686 121.059 139.075 120.819 139.421C120.579 139.766 120.238 140.04 119.796 140.242C119.364 140.434 118.865 140.53 118.299 140.53ZM130.079 133.589H128.423V140.4H127.112V133.589H126.09V132.509H127.112V131.947C127.112 131.064 127.338 130.421 127.789 130.018C128.25 129.605 128.984 129.398 129.992 129.398V130.493C129.416 130.493 129.008 130.608 128.768 130.838C128.538 131.059 128.423 131.429 128.423 131.947V132.509H130.079V133.589ZM135.048 140.53C134.309 140.53 133.637 140.362 133.032 140.026C132.437 139.69 131.967 139.214 131.621 138.6C131.285 137.976 131.117 137.256 131.117 136.44C131.117 135.634 131.29 134.923 131.635 134.309C131.991 133.685 132.471 133.21 133.075 132.883C133.68 132.547 134.357 132.379 135.106 132.379C135.855 132.379 136.531 132.547 137.136 132.883C137.741 133.21 138.216 133.68 138.562 134.294C138.917 134.909 139.095 135.624 139.095 136.44C139.095 137.256 138.912 137.976 138.547 138.6C138.192 139.214 137.707 139.69 137.093 140.026C136.479 140.362 135.797 140.53 135.048 140.53ZM135.048 139.378C135.519 139.378 135.96 139.267 136.373 139.046C136.786 138.826 137.117 138.494 137.367 138.053C137.626 137.611 137.755 137.074 137.755 136.44C137.755 135.806 137.631 135.269 137.381 134.827C137.131 134.386 136.805 134.059 136.402 133.848C135.999 133.627 135.562 133.517 135.091 133.517C134.611 133.517 134.17 133.627 133.767 133.848C133.373 134.059 133.056 134.386 132.816 134.827C132.576 135.269 132.456 135.806 132.456 136.44C132.456 137.083 132.571 137.626 132.802 138.067C133.042 138.509 133.359 138.84 133.752 139.061C134.146 139.272 134.578 139.378 135.048 139.378ZM143.611 140.53C143.006 140.53 142.464 140.429 141.984 140.227C141.504 140.016 141.125 139.728 140.846 139.363C140.568 138.989 140.414 138.562 140.385 138.082H141.739C141.777 138.475 141.96 138.797 142.286 139.046C142.622 139.296 143.059 139.421 143.597 139.421C144.096 139.421 144.489 139.31 144.777 139.09C145.065 138.869 145.209 138.59 145.209 138.254C145.209 137.909 145.056 137.654 144.749 137.491C144.441 137.318 143.966 137.15 143.323 136.987C142.737 136.834 142.257 136.68 141.883 136.526C141.518 136.363 141.201 136.128 140.933 135.821C140.673 135.504 140.544 135.091 140.544 134.582C140.544 134.179 140.664 133.81 140.904 133.474C141.144 133.138 141.485 132.874 141.926 132.682C142.368 132.48 142.872 132.379 143.438 132.379C144.312 132.379 145.017 132.6 145.555 133.042C146.093 133.483 146.381 134.088 146.419 134.856H145.109C145.08 134.443 144.912 134.112 144.605 133.862C144.307 133.613 143.904 133.488 143.395 133.488C142.925 133.488 142.55 133.589 142.272 133.79C141.993 133.992 141.854 134.256 141.854 134.582C141.854 134.842 141.936 135.058 142.099 135.23C142.272 135.394 142.483 135.528 142.733 135.634C142.992 135.73 143.347 135.84 143.798 135.965C144.365 136.118 144.825 136.272 145.181 136.426C145.536 136.57 145.838 136.79 146.088 137.088C146.347 137.386 146.481 137.774 146.491 138.254C146.491 138.686 146.371 139.075 146.131 139.421C145.891 139.766 145.55 140.04 145.109 140.242C144.677 140.434 144.177 140.53 143.611 140.53ZM149.939 133.589V138.24C149.939 138.624 150.021 138.898 150.184 139.061C150.347 139.214 150.63 139.291 151.034 139.291H151.998V140.4H150.818C150.088 140.4 149.541 140.232 149.176 139.896C148.811 139.56 148.629 139.008 148.629 138.24V133.589H147.606V132.509H148.629V130.522H149.939V132.509H151.998V133.589H149.939ZM160.786 136.152C160.786 136.402 160.772 136.666 160.743 136.944H154.436C154.484 137.722 154.748 138.331 155.228 138.773C155.717 139.205 156.308 139.421 156.999 139.421C157.565 139.421 158.036 139.291 158.41 139.032C158.794 138.763 159.063 138.408 159.217 137.966H160.628C160.417 138.725 159.994 139.344 159.361 139.824C158.727 140.294 157.94 140.53 156.999 140.53C156.25 140.53 155.578 140.362 154.983 140.026C154.397 139.69 153.937 139.214 153.601 138.6C153.265 137.976 153.097 137.256 153.097 136.44C153.097 135.624 153.26 134.909 153.586 134.294C153.913 133.68 154.369 133.21 154.954 132.883C155.549 132.547 156.231 132.379 156.999 132.379C157.748 132.379 158.41 132.542 158.986 132.869C159.562 133.195 160.004 133.646 160.311 134.222C160.628 134.789 160.786 135.432 160.786 136.152ZM159.433 135.878C159.433 135.379 159.322 134.952 159.101 134.597C158.881 134.232 158.578 133.958 158.194 133.776C157.82 133.584 157.402 133.488 156.941 133.488C156.279 133.488 155.713 133.699 155.242 134.122C154.781 134.544 154.517 135.13 154.45 135.878H159.433ZM163.826 133.79C164.057 133.339 164.383 132.989 164.805 132.739C165.237 132.49 165.761 132.365 166.375 132.365V133.718H166.029C164.561 133.718 163.826 134.515 163.826 136.109V140.4H162.516V132.509H163.826V133.79ZM171.237 136.426C171.237 135.619 171.4 134.914 171.727 134.309C172.053 133.694 172.5 133.219 173.066 132.883C173.642 132.547 174.28 132.379 174.981 132.379C175.672 132.379 176.272 132.528 176.781 132.826C177.29 133.123 177.669 133.498 177.919 133.949V132.509H179.244V140.4H177.919V138.931C177.66 139.392 177.271 139.776 176.752 140.083C176.244 140.381 175.648 140.53 174.967 140.53C174.266 140.53 173.632 140.357 173.066 140.011C172.5 139.666 172.053 139.181 171.727 138.557C171.4 137.933 171.237 137.222 171.237 136.426ZM177.919 136.44C177.919 135.845 177.799 135.326 177.559 134.885C177.319 134.443 176.992 134.107 176.58 133.877C176.176 133.637 175.73 133.517 175.24 133.517C174.751 133.517 174.304 133.632 173.901 133.862C173.498 134.093 173.176 134.429 172.936 134.87C172.696 135.312 172.576 135.83 172.576 136.426C172.576 137.03 172.696 137.558 172.936 138.01C173.176 138.451 173.498 138.792 173.901 139.032C174.304 139.262 174.751 139.378 175.24 139.378C175.73 139.378 176.176 139.262 176.58 139.032C176.992 138.792 177.319 138.451 177.559 138.01C177.799 137.558 177.919 137.035 177.919 136.44ZM186.608 133.963C186.867 133.512 187.251 133.138 187.76 132.84C188.278 132.533 188.878 132.379 189.56 132.379C190.26 132.379 190.894 132.547 191.46 132.883C192.036 133.219 192.488 133.694 192.814 134.309C193.14 134.914 193.304 135.619 193.304 136.426C193.304 137.222 193.14 137.933 192.814 138.557C192.488 139.181 192.036 139.666 191.46 140.011C190.894 140.357 190.26 140.53 189.56 140.53C188.888 140.53 188.292 140.381 187.774 140.083C187.265 139.776 186.876 139.397 186.608 138.946V144.144H185.297V132.509H186.608V133.963ZM191.964 136.426C191.964 135.83 191.844 135.312 191.604 134.87C191.364 134.429 191.038 134.093 190.625 133.862C190.222 133.632 189.776 133.517 189.286 133.517C188.806 133.517 188.36 133.637 187.947 133.877C187.544 134.107 187.217 134.448 186.968 134.899C186.728 135.341 186.608 135.854 186.608 136.44C186.608 137.035 186.728 137.558 186.968 138.01C187.217 138.451 187.544 138.792 187.947 139.032C188.36 139.262 188.806 139.378 189.286 139.378C189.776 139.378 190.222 139.262 190.625 139.032C191.038 138.792 191.364 138.451 191.604 138.01C191.844 137.558 191.964 137.03 191.964 136.426ZM198.47 140.53C197.731 140.53 197.059 140.362 196.454 140.026C195.859 139.69 195.388 139.214 195.043 138.6C194.707 137.976 194.539 137.256 194.539 136.44C194.539 135.634 194.712 134.923 195.057 134.309C195.412 133.685 195.892 133.21 196.497 132.883C197.102 132.547 197.779 132.379 198.528 132.379C199.276 132.379 199.953 132.547 200.558 132.883C201.163 133.21 201.638 133.68 201.984 134.294C202.339 134.909 202.516 135.624 202.516 136.44C202.516 137.256 202.334 137.976 201.969 138.6C201.614 139.214 201.129 139.69 200.515 140.026C199.9 140.362 199.219 140.53 198.47 140.53ZM198.47 139.378C198.94 139.378 199.382 139.267 199.795 139.046C200.208 138.826 200.539 138.494 200.788 138.053C201.048 137.611 201.177 137.074 201.177 136.44C201.177 135.806 201.052 135.269 200.803 134.827C200.553 134.386 200.227 134.059 199.824 133.848C199.42 133.627 198.984 133.517 198.513 133.517C198.033 133.517 197.592 133.627 197.188 133.848C196.795 134.059 196.478 134.386 196.238 134.827C195.998 135.269 195.878 135.806 195.878 136.44C195.878 137.083 195.993 137.626 196.224 138.067C196.464 138.509 196.78 138.84 197.174 139.061C197.568 139.272 198 139.378 198.47 139.378ZM207.033 140.53C206.428 140.53 205.886 140.429 205.406 140.227C204.926 140.016 204.547 139.728 204.268 139.363C203.99 138.989 203.836 138.562 203.807 138.082H205.161C205.199 138.475 205.382 138.797 205.708 139.046C206.044 139.296 206.481 139.421 207.019 139.421C207.518 139.421 207.911 139.31 208.199 139.09C208.487 138.869 208.631 138.59 208.631 138.254C208.631 137.909 208.478 137.654 208.171 137.491C207.863 137.318 207.388 137.15 206.745 136.987C206.159 136.834 205.679 136.68 205.305 136.526C204.94 136.363 204.623 136.128 204.355 135.821C204.095 135.504 203.966 135.091 203.966 134.582C203.966 134.179 204.086 133.81 204.326 133.474C204.566 133.138 204.907 132.874 205.348 132.682C205.79 132.48 206.294 132.379 206.86 132.379C207.734 132.379 208.439 132.6 208.977 133.042C209.515 133.483 209.803 134.088 209.841 134.856H208.531C208.502 134.443 208.334 134.112 208.027 133.862C207.729 133.613 207.326 133.488 206.817 133.488C206.347 133.488 205.972 133.589 205.694 133.79C205.415 133.992 205.276 134.256 205.276 134.582C205.276 134.842 205.358 135.058 205.521 135.23C205.694 135.394 205.905 135.528 206.155 135.634C206.414 135.73 206.769 135.84 207.22 135.965C207.787 136.118 208.247 136.272 208.603 136.426C208.958 136.57 209.26 136.79 209.51 137.088C209.769 137.386 209.903 137.774 209.913 138.254C209.913 138.686 209.793 139.075 209.553 139.421C209.313 139.766 208.972 140.04 208.531 140.242C208.099 140.434 207.599 140.53 207.033 140.53ZM212.44 131.227C212.19 131.227 211.979 131.141 211.806 130.968C211.633 130.795 211.547 130.584 211.547 130.334C211.547 130.085 211.633 129.874 211.806 129.701C211.979 129.528 212.19 129.442 212.44 129.442C212.68 129.442 212.881 129.528 213.044 129.701C213.217 129.874 213.304 130.085 213.304 130.334C213.304 130.584 213.217 130.795 213.044 130.968C212.881 131.141 212.68 131.227 212.44 131.227ZM213.073 132.509V140.4H211.763V132.509H213.073ZM216.905 133.589V138.24C216.905 138.624 216.987 138.898 217.15 139.061C217.313 139.214 217.596 139.291 217.999 139.291H218.964V140.4H217.783C217.054 140.4 216.507 140.232 216.142 139.896C215.777 139.56 215.595 139.008 215.595 138.24V133.589H214.572V132.509H215.595V130.522H216.905V132.509H218.964V133.589H216.905ZM221.229 131.227C220.979 131.227 220.768 131.141 220.595 130.968C220.422 130.795 220.336 130.584 220.336 130.334C220.336 130.085 220.422 129.874 220.595 129.701C220.768 129.528 220.979 129.442 221.229 129.442C221.469 129.442 221.67 129.528 221.833 129.701C222.006 129.874 222.093 130.085 222.093 130.334C222.093 130.584 222.006 130.795 221.833 130.968C221.67 131.141 221.469 131.227 221.229 131.227ZM221.862 132.509V140.4H220.552V132.509H221.862ZM227.033 139.19L229.481 132.509H230.878L227.782 140.4H226.256L223.16 132.509H224.571L227.033 139.19ZM239.367 136.152C239.367 136.402 239.353 136.666 239.324 136.944H233.017C233.065 137.722 233.329 138.331 233.809 138.773C234.299 139.205 234.889 139.421 235.58 139.421C236.147 139.421 236.617 139.291 236.991 139.032C237.375 138.763 237.644 138.408 237.798 137.966H239.209C238.998 138.725 238.575 139.344 237.942 139.824C237.308 140.294 236.521 140.53 235.58 140.53C234.831 140.53 234.159 140.362 233.564 140.026C232.979 139.69 232.518 139.214 232.182 138.6C231.846 137.976 231.678 137.256 231.678 136.44C231.678 135.624 231.841 134.909 232.167 134.294C232.494 133.68 232.95 133.21 233.535 132.883C234.131 132.547 234.812 132.379 235.58 132.379C236.329 132.379 236.991 132.542 237.567 132.869C238.143 133.195 238.585 133.646 238.892 134.222C239.209 134.789 239.367 135.432 239.367 136.152ZM238.014 135.878C238.014 135.379 237.903 134.952 237.683 134.597C237.462 134.232 237.159 133.958 236.775 133.776C236.401 133.584 235.983 133.488 235.523 133.488C234.86 133.488 234.294 133.699 233.823 134.122C233.363 134.544 233.099 135.13 233.031 135.878H238.014ZM244.447 136.426C244.447 135.619 244.61 134.914 244.936 134.309C245.263 133.694 245.709 133.219 246.275 132.883C246.851 132.547 247.49 132.379 248.191 132.379C248.882 132.379 249.482 132.528 249.991 132.826C250.499 133.123 250.879 133.498 251.128 133.949V132.509H252.453V140.4H251.128V138.931C250.869 139.392 250.48 139.776 249.962 140.083C249.453 140.381 248.858 140.53 248.176 140.53C247.475 140.53 246.842 140.357 246.275 140.011C245.709 139.666 245.263 139.181 244.936 138.557C244.61 137.933 244.447 137.222 244.447 136.426ZM251.128 136.44C251.128 135.845 251.008 135.326 250.768 134.885C250.528 134.443 250.202 134.107 249.789 133.877C249.386 133.637 248.939 133.517 248.45 133.517C247.96 133.517 247.514 133.632 247.111 133.862C246.707 134.093 246.386 134.429 246.146 134.87C245.906 135.312 245.786 135.83 245.786 136.426C245.786 137.03 245.906 137.558 246.146 138.01C246.386 138.451 246.707 138.792 247.111 139.032C247.514 139.262 247.96 139.378 248.45 139.378C248.939 139.378 249.386 139.262 249.789 139.032C250.202 138.792 250.528 138.451 250.768 138.01C251.008 137.558 251.128 137.035 251.128 136.44ZM258.512 132.365C259.472 132.365 260.25 132.658 260.845 133.243C261.44 133.819 261.738 134.654 261.738 135.749V140.4H260.442V135.936C260.442 135.149 260.245 134.549 259.851 134.136C259.458 133.714 258.92 133.502 258.239 133.502C257.547 133.502 256.995 133.718 256.583 134.15C256.179 134.582 255.978 135.211 255.978 136.037V140.4H254.667V132.509H255.978V133.632C256.237 133.229 256.587 132.917 257.029 132.696C257.48 132.475 257.975 132.365 258.512 132.365ZM263.389 136.426C263.389 135.619 263.552 134.914 263.878 134.309C264.205 133.694 264.651 133.219 265.218 132.883C265.794 132.547 266.437 132.379 267.147 132.379C267.762 132.379 268.333 132.523 268.861 132.811C269.389 133.09 269.792 133.459 270.07 133.92V129.744H271.395V140.4H270.07V138.917C269.811 139.387 269.427 139.776 268.918 140.083C268.41 140.381 267.814 140.53 267.133 140.53C266.432 140.53 265.794 140.357 265.218 140.011C264.651 139.666 264.205 139.181 263.878 138.557C263.552 137.933 263.389 137.222 263.389 136.426ZM270.07 136.44C270.07 135.845 269.95 135.326 269.71 134.885C269.47 134.443 269.144 134.107 268.731 133.877C268.328 133.637 267.882 133.517 267.392 133.517C266.902 133.517 266.456 133.632 266.053 133.862C265.65 134.093 265.328 134.429 265.088 134.87C264.848 135.312 264.728 135.83 264.728 136.426C264.728 137.03 264.848 137.558 265.088 138.01C265.328 138.451 265.65 138.792 266.053 139.032C266.456 139.262 266.902 139.378 267.392 139.378C267.882 139.378 268.328 139.262 268.731 139.032C269.144 138.792 269.47 138.451 269.71 138.01C269.95 137.558 270.07 137.035 270.07 136.44ZM278.759 133.963C279.018 133.512 279.402 133.138 279.911 132.84C280.43 132.533 281.03 132.379 281.711 132.379C282.412 132.379 283.046 132.547 283.612 132.883C284.188 133.219 284.639 133.694 284.966 134.309C285.292 134.914 285.455 135.619 285.455 136.426C285.455 137.222 285.292 137.933 284.966 138.557C284.639 139.181 284.188 139.666 283.612 140.011C283.046 140.357 282.412 140.53 281.711 140.53C281.039 140.53 280.444 140.381 279.926 140.083C279.417 139.776 279.028 139.397 278.759 138.946V144.144H277.449V132.509H278.759V133.963ZM284.116 136.426C284.116 135.83 283.996 135.312 283.756 134.87C283.516 134.429 283.19 134.093 282.777 133.862C282.374 133.632 281.927 133.517 281.438 133.517C280.958 133.517 280.511 133.637 280.098 133.877C279.695 134.107 279.369 134.448 279.119 134.899C278.879 135.341 278.759 135.854 278.759 136.44C278.759 137.035 278.879 137.558 279.119 138.01C279.369 138.451 279.695 138.792 280.098 139.032C280.511 139.262 280.958 139.378 281.438 139.378C281.927 139.378 282.374 139.262 282.777 139.032C283.19 138.792 283.516 138.451 283.756 138.01C283.996 137.558 284.116 137.03 284.116 136.426ZM288.49 133.79C288.721 133.339 289.047 132.989 289.47 132.739C289.902 132.49 290.425 132.365 291.039 132.365V133.718H290.694C289.225 133.718 288.49 134.515 288.49 136.109V140.4H287.18V132.509H288.49V133.79ZM295.993 140.53C295.254 140.53 294.582 140.362 293.977 140.026C293.382 139.69 292.912 139.214 292.566 138.6C292.23 137.976 292.062 137.256 292.062 136.44C292.062 135.634 292.235 134.923 292.581 134.309C292.936 133.685 293.416 133.21 294.021 132.883C294.625 132.547 295.302 132.379 296.051 132.379C296.8 132.379 297.477 132.547 298.081 132.883C298.686 133.21 299.161 133.68 299.507 134.294C299.862 134.909 300.04 135.624 300.04 136.44C300.04 137.256 299.857 137.976 299.493 138.6C299.137 139.214 298.653 139.69 298.038 140.026C297.424 140.362 296.742 140.53 295.993 140.53ZM295.993 139.378C296.464 139.378 296.905 139.267 297.318 139.046C297.731 138.826 298.062 138.494 298.312 138.053C298.571 137.611 298.701 137.074 298.701 136.44C298.701 135.806 298.576 135.269 298.326 134.827C298.077 134.386 297.75 134.059 297.347 133.848C296.944 133.627 296.507 133.517 296.037 133.517C295.557 133.517 295.115 133.627 294.712 133.848C294.318 134.059 294.001 134.386 293.761 134.827C293.521 135.269 293.401 135.806 293.401 136.44C293.401 137.083 293.517 137.626 293.747 138.067C293.987 138.509 294.304 138.84 294.697 139.061C295.091 139.272 295.523 139.378 295.993 139.378ZM301.273 136.426C301.273 135.619 301.436 134.914 301.763 134.309C302.089 133.694 302.536 133.219 303.102 132.883C303.678 132.547 304.321 132.379 305.032 132.379C305.646 132.379 306.217 132.523 306.745 132.811C307.273 133.09 307.676 133.459 307.955 133.92V129.744H309.28V140.4H307.955V138.917C307.696 139.387 307.312 139.776 306.803 140.083C306.294 140.381 305.699 140.53 305.017 140.53C304.316 140.53 303.678 140.357 303.102 140.011C302.536 139.666 302.089 139.181 301.763 138.557C301.436 137.933 301.273 137.222 301.273 136.426ZM307.955 136.44C307.955 135.845 307.835 135.326 307.595 134.885C307.355 134.443 307.028 134.107 306.616 133.877C306.212 133.637 305.766 133.517 305.276 133.517C304.787 133.517 304.34 133.632 303.937 133.862C303.534 134.093 303.212 134.429 302.972 134.87C302.732 135.312 302.612 135.83 302.612 136.426C302.612 137.03 302.732 137.558 302.972 138.01C303.212 138.451 303.534 138.792 303.937 139.032C304.34 139.262 304.787 139.378 305.276 139.378C305.766 139.378 306.212 139.262 306.616 139.032C307.028 138.792 307.355 138.451 307.595 138.01C307.835 137.558 307.955 137.035 307.955 136.44ZM318.492 132.509V140.4H317.182V139.234C316.932 139.637 316.582 139.954 316.131 140.184C315.689 140.405 315.2 140.515 314.662 140.515C314.048 140.515 313.496 140.39 313.006 140.141C312.516 139.882 312.128 139.498 311.84 138.989C311.561 138.48 311.422 137.861 311.422 137.131V132.509H312.718V136.958C312.718 137.736 312.915 138.336 313.308 138.758C313.702 139.171 314.24 139.378 314.921 139.378C315.622 139.378 316.174 139.162 316.577 138.73C316.98 138.298 317.182 137.669 317.182 136.843V132.509H318.492ZM320.215 136.44C320.215 135.624 320.379 134.914 320.705 134.309C321.031 133.694 321.483 133.219 322.059 132.883C322.644 132.547 323.311 132.379 324.06 132.379C325.03 132.379 325.827 132.614 326.451 133.085C327.084 133.555 327.502 134.208 327.703 135.043H326.292C326.158 134.563 325.894 134.184 325.5 133.906C325.116 133.627 324.636 133.488 324.06 133.488C323.311 133.488 322.707 133.747 322.246 134.266C321.785 134.774 321.555 135.499 321.555 136.44C321.555 137.39 321.785 138.125 322.246 138.643C322.707 139.162 323.311 139.421 324.06 139.421C324.636 139.421 325.116 139.286 325.5 139.018C325.884 138.749 326.148 138.365 326.292 137.866H327.703C327.492 138.672 327.07 139.32 326.436 139.81C325.803 140.29 325.011 140.53 324.06 140.53C323.311 140.53 322.644 140.362 322.059 140.026C321.483 139.69 321.031 139.214 320.705 138.6C320.379 137.986 320.215 137.266 320.215 136.44ZM331.05 133.589V138.24C331.05 138.624 331.132 138.898 331.295 139.061C331.458 139.214 331.741 139.291 332.145 139.291H333.109V140.4H331.929C331.199 140.4 330.652 140.232 330.287 139.896C329.922 139.56 329.74 139.008 329.74 138.24V133.589H328.717V132.509H329.74V130.522H331.05V132.509H333.109V133.589H331.05ZM335.374 131.227C335.124 131.227 334.913 131.141 334.74 130.968C334.568 130.795 334.481 130.584 334.481 130.334C334.481 130.085 334.568 129.874 334.74 129.701C334.913 129.528 335.124 129.442 335.374 129.442C335.614 129.442 335.816 129.528 335.979 129.701C336.152 129.874 336.238 130.085 336.238 130.334C336.238 130.584 336.152 130.795 335.979 130.968C335.816 131.141 335.614 131.227 335.374 131.227ZM336.008 132.509V140.4H334.697V132.509H336.008ZM341.178 139.19L343.626 132.509H345.023L341.927 140.4H340.401L337.305 132.509H338.716L341.178 139.19ZM353.513 136.152C353.513 136.402 353.498 136.666 353.47 136.944H347.162C347.21 137.722 347.474 138.331 347.954 138.773C348.444 139.205 349.034 139.421 349.726 139.421C350.292 139.421 350.762 139.291 351.137 139.032C351.521 138.763 351.79 138.408 351.943 137.966H353.354C353.143 138.725 352.721 139.344 352.087 139.824C351.454 140.294 350.666 140.53 349.726 140.53C348.977 140.53 348.305 140.362 347.71 140.026C347.124 139.69 346.663 139.214 346.327 138.6C345.991 137.976 345.823 137.256 345.823 136.44C345.823 135.624 345.986 134.909 346.313 134.294C346.639 133.68 347.095 133.21 347.681 132.883C348.276 132.547 348.958 132.379 349.726 132.379C350.474 132.379 351.137 132.542 351.713 132.869C352.289 133.195 352.73 133.646 353.038 134.222C353.354 134.789 353.513 135.432 353.513 136.152ZM352.159 135.878C352.159 135.379 352.049 134.952 351.828 134.597C351.607 134.232 351.305 133.958 350.921 133.776C350.546 133.584 350.129 133.488 349.668 133.488C349.006 133.488 348.439 133.699 347.969 134.122C347.508 134.544 347.244 135.13 347.177 135.878H352.159ZM13.362 161.152C13.362 161.402 13.3476 161.666 13.3188 161.944H7.01158C7.05958 162.722 7.32358 163.331 7.80358 163.773C8.29318 164.205 8.88358 164.421 9.57478 164.421C10.1412 164.421 10.6116 164.291 10.986 164.032C11.37 163.763 11.6388 163.408 11.7924 162.966H13.2036C12.9924 163.725 12.57 164.344 11.9364 164.824C11.3028 165.294 10.5156 165.53 9.57478 165.53C8.82598 165.53 8.15398 165.362 7.55878 165.026C6.97318 164.69 6.51238 164.214 6.17638 163.6C5.84038 162.976 5.67238 162.256 5.67238 161.44C5.67238 160.624 5.83558 159.909 6.16198 159.294C6.48838 158.68 6.94438 158.21 7.52998 157.883C8.12518 157.547 8.80678 157.379 9.57478 157.379C10.3236 157.379 10.986 157.542 11.562 157.869C12.138 158.195 12.5796 158.646 12.8868 159.222C13.2036 159.789 13.362 160.432 13.362 161.152ZM12.0084 160.878C12.0084 160.379 11.898 159.952 11.6772 159.597C11.4564 159.232 11.154 158.958 10.77 158.776C10.3956 158.584 9.97798 158.488 9.51718 158.488C8.85478 158.488 8.28838 158.699 7.81798 159.122C7.35718 159.544 7.09318 160.13 7.02598 160.878H12.0084ZM18.9365 157.365C19.8965 157.365 20.6741 157.658 21.2693 158.243C21.8645 158.819 22.1621 159.654 22.1621 160.749V165.4H20.8661V160.936C20.8661 160.149 20.6693 159.549 20.2757 159.136C19.8821 158.714 19.3445 158.502 18.6629 158.502C17.9717 158.502 17.4197 158.718 17.0069 159.15C16.6037 159.582 16.4021 160.211 16.4021 161.037V165.4H15.0917V157.509H16.4021V158.632C16.6613 158.229 17.0117 157.917 17.4533 157.696C17.9045 157.475 18.3989 157.365 18.9365 157.365ZM27.2402 164.19L29.6882 157.509H31.085L27.989 165.4H26.4626L23.3666 157.509H24.7778L27.2402 164.19ZM33.0513 156.227C32.8017 156.227 32.5905 156.141 32.4177 155.968C32.2449 155.795 32.1585 155.584 32.1585 155.334C32.1585 155.085 32.2449 154.874 32.4177 154.701C32.5905 154.528 32.8017 154.442 33.0513 154.442C33.2913 154.442 33.4929 154.528 33.6561 154.701C33.8289 154.874 33.9153 155.085 33.9153 155.334C33.9153 155.584 33.8289 155.795 33.6561 155.968C33.4929 156.141 33.2913 156.227 33.0513 156.227ZM33.6849 157.509V165.4H32.3745V157.509H33.6849ZM37.2286 158.79C37.459 158.339 37.7854 157.989 38.2078 157.739C38.6398 157.49 39.163 157.365 39.7774 157.365V158.718H39.4318C37.963 158.718 37.2286 159.515 37.2286 161.109V165.4H35.9182V157.509H37.2286V158.79ZM44.7317 165.53C43.9925 165.53 43.3205 165.362 42.7157 165.026C42.1205 164.69 41.6501 164.214 41.3045 163.6C40.9685 162.976 40.8005 162.256 40.8005 161.44C40.8005 160.634 40.9733 159.923 41.3189 159.309C41.6741 158.685 42.1541 158.21 42.7589 157.883C43.3637 157.547 44.0405 157.379 44.7893 157.379C45.5381 157.379 46.2149 157.547 46.8197 157.883C47.4245 158.21 47.8997 158.68 48.2453 159.294C48.6005 159.909 48.7781 160.624 48.7781 161.44C48.7781 162.256 48.5957 162.976 48.2309 163.6C47.8757 164.214 47.3909 164.69 46.7765 165.026C46.1621 165.362 45.4805 165.53 44.7317 165.53ZM44.7317 164.378C45.2021 164.378 45.6437 164.267 46.0565 164.046C46.4693 163.826 46.8005 163.494 47.0501 163.053C47.3093 162.611 47.4389 162.074 47.4389 161.44C47.4389 160.806 47.3141 160.269 47.0645 159.827C46.8149 159.386 46.4885 159.059 46.0853 158.848C45.6821 158.627 45.2453 158.517 44.7749 158.517C44.2949 158.517 43.8533 158.627 43.4501 158.848C43.0565 159.059 42.7397 159.386 42.4997 159.827C42.2597 160.269 42.1397 160.806 42.1397 161.44C42.1397 162.083 42.2549 162.626 42.4853 163.067C42.7253 163.509 43.0421 163.84 43.4357 164.061C43.8293 164.272 44.2613 164.378 44.7317 164.378ZM54.3458 157.365C55.3058 157.365 56.0834 157.658 56.6786 158.243C57.2738 158.819 57.5714 159.654 57.5714 160.749V165.4H56.2754V160.936C56.2754 160.149 56.0786 159.549 55.685 159.136C55.2914 158.714 54.7538 158.502 54.0722 158.502C53.381 158.502 52.829 158.718 52.4162 159.15C52.013 159.582 51.8114 160.211 51.8114 161.037V165.4H50.501V157.509H51.8114V158.632C52.0706 158.229 52.421 157.917 52.8626 157.696C53.3138 157.475 53.8082 157.365 54.3458 157.365ZM69.2016 157.365C69.816 157.365 70.3632 157.494 70.8432 157.754C71.3232 158.003 71.7024 158.382 71.9808 158.891C72.2592 159.4 72.3984 160.019 72.3984 160.749V165.4H71.1024V160.936C71.1024 160.149 70.9056 159.549 70.512 159.136C70.128 158.714 69.6048 158.502 68.9424 158.502C68.2608 158.502 67.7184 158.723 67.3152 159.165C66.912 159.597 66.7104 160.226 66.7104 161.051V165.4H65.4144V160.936C65.4144 160.149 65.2176 159.549 64.824 159.136C64.44 158.714 63.9168 158.502 63.2544 158.502C62.5728 158.502 62.0304 158.723 61.6272 159.165C61.224 159.597 61.0224 160.226 61.0224 161.051V165.4H59.712V157.509H61.0224V158.646C61.2816 158.234 61.6272 157.917 62.0592 157.696C62.5008 157.475 62.9856 157.365 63.5136 157.365C64.176 157.365 64.7616 157.514 65.2704 157.811C65.7792 158.109 66.1584 158.546 66.408 159.122C66.6288 158.565 66.9936 158.133 67.5024 157.826C68.0112 157.518 68.5776 157.365 69.2016 157.365ZM81.7479 161.152C81.7479 161.402 81.7335 161.666 81.7047 161.944H75.3975C75.4455 162.722 75.7095 163.331 76.1895 163.773C76.6791 164.205 77.2695 164.421 77.9607 164.421C78.5271 164.421 78.9975 164.291 79.3719 164.032C79.7559 163.763 80.0247 163.408 80.1783 162.966H81.5895C81.3783 163.725 80.9559 164.344 80.3223 164.824C79.6887 165.294 78.9015 165.53 77.9607 165.53C77.2119 165.53 76.5399 165.362 75.9447 165.026C75.3591 164.69 74.8983 164.214 74.5623 163.6C74.2263 162.976 74.0583 162.256 74.0583 161.44C74.0583 160.624 74.2215 159.909 74.5479 159.294C74.8743 158.68 75.3303 158.21 75.9159 157.883C76.5111 157.547 77.1927 157.379 77.9607 157.379C78.7095 157.379 79.3719 157.542 79.9479 157.869C80.5239 158.195 80.9655 158.646 81.2727 159.222C81.5895 159.789 81.7479 160.432 81.7479 161.152ZM80.3943 160.878C80.3943 160.379 80.2839 159.952 80.0631 159.597C79.8423 159.232 79.5399 158.958 79.1559 158.776C78.7815 158.584 78.3639 158.488 77.9031 158.488C77.2407 158.488 76.6743 158.699 76.2039 159.122C75.7431 159.544 75.4791 160.13 75.4119 160.878H80.3943ZM87.3224 157.365C88.2824 157.365 89.06 157.658 89.6552 158.243C90.2504 158.819 90.548 159.654 90.548 160.749V165.4H89.252V160.936C89.252 160.149 89.0552 159.549 88.6616 159.136C88.268 158.714 87.7304 158.502 87.0488 158.502C86.3576 158.502 85.8056 158.718 85.3928 159.15C84.9896 159.582 84.788 160.211 84.788 161.037V165.4H83.4776V157.509H84.788V158.632C85.0472 158.229 85.3976 157.917 85.8392 157.696C86.2904 157.475 86.7848 157.365 87.3224 157.365ZM94.2869 158.589V163.24C94.2869 163.624 94.3685 163.898 94.5317 164.061C94.6949 164.214 94.9781 164.291 95.3813 164.291H96.3461V165.4H95.1653C94.4357 165.4 93.8885 165.232 93.5237 164.896C93.1589 164.56 92.9765 164.008 92.9765 163.24V158.589H91.9541V157.509H92.9765V155.522H94.2869V157.509H96.3461V158.589H94.2869ZM103.371 158.589V163.24C103.371 163.624 103.453 163.898 103.616 164.061C103.779 164.214 104.063 164.291 104.466 164.291H105.431V165.4H104.25C103.52 165.4 102.973 165.232 102.608 164.896C102.243 164.56 102.061 164.008 102.061 163.24V158.589H101.039V157.509H102.061V155.522H103.371V157.509H105.431V158.589H103.371ZM110.935 157.365C111.53 157.365 112.068 157.494 112.548 157.754C113.028 158.003 113.402 158.382 113.671 158.891C113.949 159.4 114.089 160.019 114.089 160.749V165.4H112.793V160.936C112.793 160.149 112.596 159.549 112.202 159.136C111.809 158.714 111.271 158.502 110.589 158.502C109.898 158.502 109.346 158.718 108.933 159.15C108.53 159.582 108.329 160.211 108.329 161.037V165.4H107.018V154.744H108.329V158.632C108.588 158.229 108.943 157.917 109.394 157.696C109.855 157.475 110.369 157.365 110.935 157.365ZM115.74 161.426C115.74 160.619 115.903 159.914 116.229 159.309C116.556 158.694 117.002 158.219 117.568 157.883C118.144 157.547 118.783 157.379 119.484 157.379C120.175 157.379 120.775 157.528 121.284 157.826C121.792 158.123 122.172 158.498 122.421 158.949V157.509H123.746V165.4H122.421V163.931C122.162 164.392 121.773 164.776 121.255 165.083C120.746 165.381 120.151 165.53 119.469 165.53C118.768 165.53 118.135 165.357 117.568 165.011C117.002 164.666 116.556 164.181 116.229 163.557C115.903 162.933 115.74 162.222 115.74 161.426ZM122.421 161.44C122.421 160.845 122.301 160.326 122.061 159.885C121.821 159.443 121.495 159.107 121.082 158.877C120.679 158.637 120.232 158.517 119.743 158.517C119.253 158.517 118.807 158.632 118.404 158.862C118 159.093 117.679 159.429 117.439 159.87C117.199 160.312 117.079 160.83 117.079 161.426C117.079 162.03 117.199 162.558 117.439 163.01C117.679 163.451 118 163.792 118.404 164.032C118.807 164.262 119.253 164.378 119.743 164.378C120.232 164.378 120.679 164.262 121.082 164.032C121.495 163.792 121.821 163.451 122.061 163.01C122.301 162.558 122.421 162.035 122.421 161.44ZM127.559 158.589V163.24C127.559 163.624 127.64 163.898 127.804 164.061C127.967 164.214 128.25 164.291 128.653 164.291H129.618V165.4H128.437C127.708 165.4 127.16 165.232 126.796 164.896C126.431 164.56 126.248 164.008 126.248 163.24V158.589H125.226V157.509H126.248V155.522H127.559V157.509H129.618V158.589H127.559ZM134.555 161.426C134.555 160.619 134.718 159.914 135.045 159.309C135.371 158.694 135.818 158.219 136.384 157.883C136.96 157.547 137.603 157.379 138.314 157.379C138.928 157.379 139.499 157.523 140.027 157.811C140.555 158.09 140.958 158.459 141.237 158.92V154.744H142.562V165.4H141.237V163.917C140.978 164.387 140.594 164.776 140.085 165.083C139.576 165.381 138.981 165.53 138.299 165.53C137.598 165.53 136.96 165.357 136.384 165.011C135.818 164.666 135.371 164.181 135.045 163.557C134.718 162.933 134.555 162.222 134.555 161.426ZM141.237 161.44C141.237 160.845 141.117 160.326 140.877 159.885C140.637 159.443 140.31 159.107 139.898 158.877C139.494 158.637 139.048 158.517 138.558 158.517C138.069 158.517 137.622 158.632 137.219 158.862C136.816 159.093 136.494 159.429 136.254 159.87C136.014 160.312 135.894 160.83 135.894 161.426C135.894 162.03 136.014 162.558 136.254 163.01C136.494 163.451 136.816 163.792 137.219 164.032C137.622 164.262 138.069 164.378 138.558 164.378C139.048 164.378 139.494 164.262 139.898 164.032C140.31 163.792 140.637 163.451 140.877 163.01C141.117 162.558 141.237 162.035 141.237 161.44ZM151.976 161.152C151.976 161.402 151.962 161.666 151.933 161.944H145.626C145.674 162.722 145.938 163.331 146.418 163.773C146.907 164.205 147.498 164.421 148.189 164.421C148.755 164.421 149.226 164.291 149.6 164.032C149.984 163.763 150.253 163.408 150.406 162.966H151.818C151.606 163.725 151.184 164.344 150.55 164.824C149.917 165.294 149.13 165.53 148.189 165.53C147.44 165.53 146.768 165.362 146.173 165.026C145.587 164.69 145.126 164.214 144.79 163.6C144.454 162.976 144.286 162.256 144.286 161.44C144.286 160.624 144.45 159.909 144.776 159.294C145.102 158.68 145.558 158.21 146.144 157.883C146.739 157.547 147.421 157.379 148.189 157.379C148.938 157.379 149.6 157.542 150.176 157.869C150.752 158.195 151.194 158.646 151.501 159.222C151.818 159.789 151.976 160.432 151.976 161.152ZM150.622 160.878C150.622 160.379 150.512 159.952 150.291 159.597C150.07 159.232 149.768 158.958 149.384 158.776C149.01 158.584 148.592 158.488 148.131 158.488C147.469 158.488 146.902 158.699 146.432 159.122C145.971 159.544 145.707 160.13 145.64 160.878H150.622ZM155.016 154.744V165.4H153.706V154.744H155.016ZM157.926 156.227C157.677 156.227 157.465 156.141 157.293 155.968C157.12 155.795 157.033 155.584 157.033 155.334C157.033 155.085 157.12 154.874 157.293 154.701C157.465 154.528 157.677 154.442 157.926 154.442C158.166 154.442 158.368 154.528 158.531 154.701C158.704 154.874 158.79 155.085 158.79 155.334C158.79 155.584 158.704 155.795 158.531 155.968C158.368 156.141 158.166 156.227 157.926 156.227ZM158.56 157.509V165.4H157.249V157.509H158.56ZM163.731 164.19L166.179 157.509H167.576L164.48 165.4H162.953L159.857 157.509H161.268L163.731 164.19ZM176.065 161.152C176.065 161.402 176.051 161.666 176.022 161.944H169.715C169.763 162.722 170.027 163.331 170.507 163.773C170.996 164.205 171.587 164.421 172.278 164.421C172.844 164.421 173.315 164.291 173.689 164.032C174.073 163.763 174.342 163.408 174.496 162.966H175.907C175.696 163.725 175.273 164.344 174.64 164.824C174.006 165.294 173.219 165.53 172.278 165.53C171.529 165.53 170.857 165.362 170.262 165.026C169.676 164.69 169.216 164.214 168.88 163.6C168.544 162.976 168.376 162.256 168.376 161.44C168.376 160.624 168.539 159.909 168.865 159.294C169.192 158.68 169.648 158.21 170.233 157.883C170.828 157.547 171.51 157.379 172.278 157.379C173.027 157.379 173.689 157.542 174.265 157.869C174.841 158.195 175.283 158.646 175.59 159.222C175.907 159.789 176.065 160.432 176.065 161.152ZM174.712 160.878C174.712 160.379 174.601 159.952 174.38 159.597C174.16 159.232 173.857 158.958 173.473 158.776C173.099 158.584 172.681 158.488 172.22 158.488C171.558 158.488 170.992 158.699 170.521 159.122C170.06 159.544 169.796 160.13 169.729 160.878H174.712ZM179.105 158.79C179.336 158.339 179.662 157.989 180.084 157.739C180.516 157.49 181.04 157.365 181.654 157.365V158.718H181.308C179.84 158.718 179.105 159.515 179.105 161.109V165.4H177.795V157.509H179.105V158.79ZM185.96 165.53C185.355 165.53 184.813 165.429 184.333 165.227C183.853 165.016 183.474 164.728 183.195 164.363C182.917 163.989 182.763 163.562 182.735 163.082H184.088C184.127 163.475 184.309 163.797 184.635 164.046C184.971 164.296 185.408 164.421 185.946 164.421C186.445 164.421 186.839 164.31 187.127 164.09C187.415 163.869 187.559 163.59 187.559 163.254C187.559 162.909 187.405 162.654 187.098 162.491C186.791 162.318 186.315 162.15 185.672 161.987C185.087 161.834 184.607 161.68 184.232 161.526C183.867 161.363 183.551 161.128 183.282 160.821C183.023 160.504 182.893 160.091 182.893 159.582C182.893 159.179 183.013 158.81 183.253 158.474C183.493 158.138 183.834 157.874 184.275 157.682C184.717 157.48 185.221 157.379 185.787 157.379C186.661 157.379 187.367 157.6 187.904 158.042C188.442 158.483 188.73 159.088 188.768 159.856H187.458C187.429 159.443 187.261 159.112 186.954 158.862C186.656 158.613 186.253 158.488 185.744 158.488C185.274 158.488 184.899 158.589 184.621 158.79C184.343 158.992 184.203 159.256 184.203 159.582C184.203 159.842 184.285 160.058 184.448 160.23C184.621 160.394 184.832 160.528 185.082 160.634C185.341 160.73 185.696 160.84 186.147 160.965C186.714 161.118 187.175 161.272 187.53 161.426C187.885 161.57 188.187 161.79 188.437 162.088C188.696 162.386 188.831 162.774 188.84 163.254C188.84 163.686 188.72 164.075 188.48 164.421C188.24 164.766 187.899 165.04 187.458 165.242C187.026 165.434 186.527 165.53 185.96 165.53ZM197.467 164.19L199.915 157.509H201.312L198.216 165.4H196.689L193.593 157.509H195.004L197.467 164.19ZM202.111 161.426C202.111 160.619 202.275 159.914 202.601 159.309C202.927 158.694 203.374 158.219 203.94 157.883C204.516 157.547 205.155 157.379 205.855 157.379C206.547 157.379 207.147 157.528 207.655 157.826C208.164 158.123 208.543 158.498 208.793 158.949V157.509H210.118V165.4H208.793V163.931C208.534 164.392 208.145 164.776 207.627 165.083C207.118 165.381 206.523 165.53 205.841 165.53C205.14 165.53 204.507 165.357 203.94 165.011C203.374 164.666 202.927 164.181 202.601 163.557C202.275 162.933 202.111 162.222 202.111 161.426ZM208.793 161.44C208.793 160.845 208.673 160.326 208.433 159.885C208.193 159.443 207.867 159.107 207.454 158.877C207.051 158.637 206.604 158.517 206.115 158.517C205.625 158.517 205.179 158.632 204.775 158.862C204.372 159.093 204.051 159.429 203.811 159.87C203.571 160.312 203.451 160.83 203.451 161.426C203.451 162.03 203.571 162.558 203.811 163.01C204.051 163.451 204.372 163.792 204.775 164.032C205.179 164.262 205.625 164.378 206.115 164.378C206.604 164.378 207.051 164.262 207.454 164.032C207.867 163.792 208.193 163.451 208.433 163.01C208.673 162.558 208.793 162.035 208.793 161.44ZM213.643 154.744V165.4H212.332V154.744H213.643ZM222.874 157.509V165.4H221.564V164.234C221.314 164.637 220.964 164.954 220.513 165.184C220.071 165.405 219.582 165.515 219.044 165.515C218.43 165.515 217.878 165.39 217.388 165.141C216.898 164.882 216.51 164.498 216.222 163.989C215.943 163.48 215.804 162.861 215.804 162.131V157.509H217.1V161.958C217.1 162.736 217.297 163.336 217.69 163.758C218.084 164.171 218.622 164.378 219.303 164.378C220.004 164.378 220.556 164.162 220.959 163.73C221.362 163.298 221.564 162.669 221.564 161.843V157.509H222.874ZM232.287 161.152C232.287 161.402 232.273 161.666 232.244 161.944H225.937C225.985 162.722 226.249 163.331 226.729 163.773C227.218 164.205 227.809 164.421 228.5 164.421C229.066 164.421 229.537 164.291 229.911 164.032C230.295 163.763 230.564 163.408 230.717 162.966H232.129C231.917 163.725 231.495 164.344 230.861 164.824C230.228 165.294 229.441 165.53 228.5 165.53C227.751 165.53 227.079 165.362 226.484 165.026C225.898 164.69 225.437 164.214 225.101 163.6C224.765 162.976 224.597 162.256 224.597 161.44C224.597 160.624 224.761 159.909 225.087 159.294C225.413 158.68 225.869 158.21 226.455 157.883C227.05 157.547 227.732 157.379 228.5 157.379C229.249 157.379 229.911 157.542 230.487 157.869C231.063 158.195 231.505 158.646 231.812 159.222C232.129 159.789 232.287 160.432 232.287 161.152ZM230.933 160.878C230.933 160.379 230.823 159.952 230.602 159.597C230.381 159.232 230.079 158.958 229.695 158.776C229.321 158.584 228.903 158.488 228.442 158.488C227.78 158.488 227.213 158.699 226.743 159.122C226.282 159.544 226.018 160.13 225.951 160.878H230.933ZM239.454 158.589V163.24C239.454 163.624 239.536 163.898 239.699 164.061C239.862 164.214 240.145 164.291 240.549 164.291H241.513V165.4H240.333C239.603 165.4 239.056 165.232 238.691 164.896C238.326 164.56 238.144 164.008 238.144 163.24V158.589H237.121V157.509H238.144V155.522H239.454V157.509H241.513V158.589H239.454ZM246.543 165.53C245.803 165.53 245.131 165.362 244.527 165.026C243.931 164.69 243.461 164.214 243.115 163.6C242.779 162.976 242.611 162.256 242.611 161.44C242.611 160.634 242.784 159.923 243.13 159.309C243.485 158.685 243.965 158.21 244.57 157.883C245.175 157.547 245.851 157.379 246.6 157.379C247.349 157.379 248.026 157.547 248.631 157.883C249.235 158.21 249.711 158.68 250.056 159.294C250.411 159.909 250.589 160.624 250.589 161.44C250.589 162.256 250.407 162.976 250.042 163.6C249.687 164.214 249.202 164.69 248.587 165.026C247.973 165.362 247.291 165.53 246.543 165.53ZM246.543 164.378C247.013 164.378 247.455 164.267 247.867 164.046C248.28 163.826 248.611 163.494 248.861 163.053C249.12 162.611 249.25 162.074 249.25 161.44C249.25 160.806 249.125 160.269 248.875 159.827C248.626 159.386 248.299 159.059 247.896 158.848C247.493 158.627 247.056 158.517 246.586 158.517C246.106 158.517 245.664 158.627 245.261 158.848C244.867 159.059 244.551 159.386 244.311 159.827C244.071 160.269 243.951 160.806 243.951 161.44C243.951 162.083 244.066 162.626 244.296 163.067C244.536 163.509 244.853 163.84 245.247 164.061C245.64 164.272 246.072 164.378 246.543 164.378ZM259.593 165.53C258.853 165.53 258.181 165.362 257.577 165.026C256.981 164.69 256.511 164.214 256.165 163.6C255.829 162.976 255.661 162.256 255.661 161.44C255.661 160.634 255.834 159.923 256.18 159.309C256.535 158.685 257.015 158.21 257.62 157.883C258.225 157.547 258.901 157.379 259.65 157.379C260.399 157.379 261.076 157.547 261.681 157.883C262.285 158.21 262.761 158.68 263.106 159.294C263.461 159.909 263.639 160.624 263.639 161.44C263.639 162.256 263.457 162.976 263.092 163.6C262.737 164.214 262.252 164.69 261.637 165.026C261.023 165.362 260.341 165.53 259.593 165.53ZM259.593 164.378C260.063 164.378 260.505 164.267 260.917 164.046C261.33 163.826 261.661 163.494 261.911 163.053C262.17 162.611 262.3 162.074 262.3 161.44C262.3 160.806 262.175 160.269 261.925 159.827C261.676 159.386 261.349 159.059 260.946 158.848C260.543 158.627 260.106 158.517 259.636 158.517C259.156 158.517 258.714 158.627 258.311 158.848C257.917 159.059 257.601 159.386 257.361 159.827C257.121 160.269 257.001 160.806 257.001 161.44C257.001 162.083 257.116 162.626 257.346 163.067C257.586 163.509 257.903 163.84 258.297 164.061C258.69 164.272 259.122 164.378 259.593 164.378ZM272.36 157.509V165.4H271.05V164.234C270.8 164.637 270.45 164.954 269.999 165.184C269.557 165.405 269.068 165.515 268.53 165.515C267.916 165.515 267.364 165.39 266.874 165.141C266.384 164.882 265.996 164.498 265.708 163.989C265.429 163.48 265.29 162.861 265.29 162.131V157.509H266.586V161.958C266.586 162.736 266.783 163.336 267.176 163.758C267.57 164.171 268.108 164.378 268.789 164.378C269.49 164.378 270.042 164.162 270.445 163.73C270.848 163.298 271.05 162.669 271.05 161.843V157.509H272.36ZM275.883 158.79C276.114 158.339 276.44 157.989 276.863 157.739C277.295 157.49 277.818 157.365 278.432 157.365V158.718H278.087C276.618 158.718 275.883 159.515 275.883 161.109V165.4H274.573V157.509H275.883V158.79ZM290.782 157.509V165.4H289.472V164.234C289.222 164.637 288.872 164.954 288.421 165.184C287.979 165.405 287.489 165.515 286.952 165.515C286.337 165.515 285.785 165.39 285.296 165.141C284.806 164.882 284.417 164.498 284.129 163.989C283.851 163.48 283.712 162.861 283.712 162.131V157.509H285.008V161.958C285.008 162.736 285.205 163.336 285.598 163.758C285.992 164.171 286.529 164.378 287.211 164.378C287.912 164.378 288.464 164.162 288.867 163.73C289.27 163.298 289.472 162.669 289.472 161.843V157.509H290.782ZM295.788 165.53C295.184 165.53 294.641 165.429 294.161 165.227C293.681 165.016 293.302 164.728 293.024 164.363C292.745 163.989 292.592 163.562 292.563 163.082H293.916C293.955 163.475 294.137 163.797 294.464 164.046C294.8 164.296 295.236 164.421 295.774 164.421C296.273 164.421 296.667 164.31 296.955 164.09C297.243 163.869 297.387 163.59 297.387 163.254C297.387 162.909 297.233 162.654 296.926 162.491C296.619 162.318 296.144 162.15 295.5 161.987C294.915 161.834 294.435 161.68 294.06 161.526C293.696 161.363 293.379 161.128 293.11 160.821C292.851 160.504 292.721 160.091 292.721 159.582C292.721 159.179 292.841 158.81 293.081 158.474C293.321 158.138 293.662 157.874 294.104 157.682C294.545 157.48 295.049 157.379 295.616 157.379C296.489 157.379 297.195 157.6 297.732 158.042C298.27 158.483 298.558 159.088 298.596 159.856H297.286C297.257 159.443 297.089 159.112 296.782 158.862C296.484 158.613 296.081 158.488 295.572 158.488C295.102 158.488 294.728 158.589 294.449 158.79C294.171 158.992 294.032 159.256 294.032 159.582C294.032 159.842 294.113 160.058 294.276 160.23C294.449 160.394 294.66 160.528 294.91 160.634C295.169 160.73 295.524 160.84 295.976 160.965C296.542 161.118 297.003 161.272 297.358 161.426C297.713 161.57 298.016 161.79 298.265 162.088C298.524 162.386 298.659 162.774 298.668 163.254C298.668 163.686 298.548 164.075 298.308 164.421C298.068 164.766 297.728 165.04 297.286 165.242C296.854 165.434 296.355 165.53 295.788 165.53ZM307.718 161.152C307.718 161.402 307.704 161.666 307.675 161.944H301.368C301.416 162.722 301.68 163.331 302.16 163.773C302.649 164.205 303.24 164.421 303.931 164.421C304.497 164.421 304.968 164.291 305.342 164.032C305.726 163.763 305.995 163.408 306.149 162.966H307.56C307.349 163.725 306.926 164.344 306.293 164.824C305.659 165.294 304.872 165.53 303.931 165.53C303.182 165.53 302.51 165.362 301.915 165.026C301.329 164.69 300.869 164.214 300.533 163.6C300.197 162.976 300.029 162.256 300.029 161.44C300.029 160.624 300.192 159.909 300.518 159.294C300.845 158.68 301.301 158.21 301.886 157.883C302.481 157.547 303.163 157.379 303.931 157.379C304.68 157.379 305.342 157.542 305.918 157.869C306.494 158.195 306.936 158.646 307.243 159.222C307.56 159.789 307.718 160.432 307.718 161.152ZM306.365 160.878C306.365 160.379 306.254 159.952 306.033 159.597C305.813 159.232 305.51 158.958 305.126 158.776C304.752 158.584 304.334 158.488 303.873 158.488C303.211 158.488 302.645 158.699 302.174 159.122C301.713 159.544 301.449 160.13 301.382 160.878H306.365ZM310.758 158.79C310.989 158.339 311.315 157.989 311.738 157.739C312.17 157.49 312.693 157.365 313.307 157.365V158.718H312.962C311.493 158.718 310.758 159.515 310.758 161.109V165.4H309.448V157.509H310.758V158.79ZM317.613 165.53C317.009 165.53 316.466 165.429 315.986 165.227C315.506 165.016 315.127 164.728 314.849 164.363C314.57 163.989 314.417 163.562 314.388 163.082H315.741C315.78 163.475 315.962 163.797 316.289 164.046C316.625 164.296 317.061 164.421 317.599 164.421C318.098 164.421 318.492 164.31 318.78 164.09C319.068 163.869 319.212 163.59 319.212 163.254C319.212 162.909 319.058 162.654 318.751 162.491C318.444 162.318 317.969 162.15 317.325 161.987C316.74 161.834 316.26 161.68 315.885 161.526C315.521 161.363 315.204 161.128 314.935 160.821C314.676 160.504 314.546 160.091 314.546 159.582C314.546 159.179 314.666 158.81 314.906 158.474C315.146 158.138 315.487 157.874 315.929 157.682C316.37 157.48 316.874 157.379 317.441 157.379C318.314 157.379 319.02 157.6 319.557 158.042C320.095 158.483 320.383 159.088 320.421 159.856H319.111C319.082 159.443 318.914 159.112 318.607 158.862C318.309 158.613 317.906 158.488 317.397 158.488C316.927 158.488 316.553 158.589 316.274 158.79C315.996 158.992 315.857 159.256 315.857 159.582C315.857 159.842 315.938 160.058 316.101 160.23C316.274 160.394 316.485 160.528 316.735 160.634C316.994 160.73 317.349 160.84 317.801 160.965C318.367 161.118 318.828 161.272 319.183 161.426C319.538 161.57 319.841 161.79 320.09 162.088C320.349 162.386 320.484 162.774 320.493 163.254C320.493 163.686 320.373 164.075 320.133 164.421C319.893 164.766 319.553 165.04 319.111 165.242C318.679 165.434 318.18 165.53 317.613 165.53ZM325.693 161.426C325.693 160.619 325.856 159.914 326.182 159.309C326.509 158.694 326.955 158.219 327.521 157.883C328.097 157.547 328.736 157.379 329.437 157.379C330.128 157.379 330.728 157.528 331.237 157.826C331.745 158.123 332.125 158.498 332.374 158.949V157.509H333.699V165.4H332.374V163.931C332.115 164.392 331.726 164.776 331.208 165.083C330.699 165.381 330.104 165.53 329.422 165.53C328.721 165.53 328.088 165.357 327.521 165.011C326.955 164.666 326.509 164.181 326.182 163.557C325.856 162.933 325.693 162.222 325.693 161.426ZM332.374 161.44C332.374 160.845 332.254 160.326 332.014 159.885C331.774 159.443 331.448 159.107 331.035 158.877C330.632 158.637 330.185 158.517 329.696 158.517C329.206 158.517 328.76 158.632 328.357 158.862C327.953 159.093 327.632 159.429 327.392 159.87C327.152 160.312 327.032 160.83 327.032 161.426C327.032 162.03 327.152 162.558 327.392 163.01C327.632 163.451 327.953 163.792 328.357 164.032C328.76 164.262 329.206 164.378 329.696 164.378C330.185 164.378 330.632 164.262 331.035 164.032C331.448 163.792 331.774 163.451 332.014 163.01C332.254 162.558 332.374 162.035 332.374 161.44ZM339.758 157.365C340.718 157.365 341.496 157.658 342.091 158.243C342.686 158.819 342.984 159.654 342.984 160.749V165.4H341.688V160.936C341.688 160.149 341.491 159.549 341.098 159.136C340.704 158.714 340.166 158.502 339.485 158.502C338.794 158.502 338.242 158.718 337.829 159.15C337.426 159.582 337.224 160.211 337.224 161.037V165.4H335.914V157.509H337.224V158.632C337.483 158.229 337.834 157.917 338.275 157.696C338.726 157.475 339.221 157.365 339.758 157.365ZM344.635 161.426C344.635 160.619 344.798 159.914 345.124 159.309C345.451 158.694 345.897 158.219 346.464 157.883C347.04 157.547 347.683 157.379 348.393 157.379C349.008 157.379 349.579 157.523 350.107 157.811C350.635 158.09 351.038 158.459 351.316 158.92V154.744H352.641V165.4H351.316V163.917C351.057 164.387 350.673 164.776 350.164 165.083C349.656 165.381 349.06 165.53 348.379 165.53C347.678 165.53 347.04 165.357 346.464 165.011C345.897 164.666 345.451 164.181 345.124 163.557C344.798 162.933 344.635 162.222 344.635 161.426ZM351.316 161.44C351.316 160.845 351.196 160.326 350.956 159.885C350.716 159.443 350.39 159.107 349.977 158.877C349.574 158.637 349.128 158.517 348.638 158.517C348.148 158.517 347.702 158.632 347.299 158.862C346.896 159.093 346.574 159.429 346.334 159.87C346.094 160.312 345.974 160.83 345.974 161.426C345.974 162.03 346.094 162.558 346.334 163.01C346.574 163.451 346.896 163.792 347.299 164.032C347.702 164.262 348.148 164.378 348.638 164.378C349.128 164.378 349.574 164.262 349.977 164.032C350.39 163.792 350.716 163.451 350.956 163.01C351.196 162.558 351.316 162.035 351.316 161.44ZM140.208 186.44C140.208 185.624 140.372 184.914 140.698 184.309C141.024 183.694 141.476 183.219 142.052 182.883C142.637 182.547 143.304 182.379 144.053 182.379C145.023 182.379 145.82 182.614 146.444 183.085C147.077 183.555 147.495 184.208 147.696 185.043H146.285C146.151 184.563 145.887 184.184 145.493 183.906C145.109 183.627 144.629 183.488 144.053 183.488C143.304 183.488 142.7 183.747 142.239 184.266C141.778 184.774 141.548 185.499 141.548 186.44C141.548 187.39 141.778 188.125 142.239 188.643C142.7 189.162 143.304 189.421 144.053 189.421C144.629 189.421 145.109 189.286 145.493 189.018C145.877 188.749 146.141 188.365 146.285 187.866H147.696C147.485 188.672 147.063 189.32 146.429 189.81C145.796 190.29 145.004 190.53 144.053 190.53C143.304 190.53 142.637 190.362 142.052 190.026C141.476 189.69 141.024 189.214 140.698 188.6C140.372 187.986 140.208 187.266 140.208 186.44ZM156.443 182.509V190.4H155.133V189.234C154.883 189.637 154.533 189.954 154.082 190.184C153.64 190.405 153.15 190.515 152.613 190.515C151.998 190.515 151.446 190.39 150.957 190.141C150.467 189.882 150.078 189.498 149.79 188.989C149.512 188.48 149.373 187.861 149.373 187.131V182.509H150.669V186.958C150.669 187.736 150.866 188.336 151.259 188.758C151.653 189.171 152.19 189.378 152.872 189.378C153.573 189.378 154.125 189.162 154.528 188.73C154.931 188.298 155.133 187.669 155.133 186.843V182.509H156.443ZM161.449 190.53C160.845 190.53 160.302 190.429 159.822 190.227C159.342 190.016 158.963 189.728 158.685 189.363C158.406 188.989 158.253 188.562 158.224 188.082H159.577C159.616 188.475 159.798 188.797 160.125 189.046C160.461 189.296 160.897 189.421 161.435 189.421C161.934 189.421 162.328 189.31 162.616 189.09C162.904 188.869 163.048 188.59 163.048 188.254C163.048 187.909 162.894 187.654 162.587 187.491C162.28 187.318 161.805 187.15 161.161 186.987C160.576 186.834 160.096 186.68 159.721 186.526C159.357 186.363 159.04 186.128 158.771 185.821C158.512 185.504 158.382 185.091 158.382 184.582C158.382 184.179 158.502 183.81 158.742 183.474C158.982 183.138 159.323 182.874 159.765 182.682C160.206 182.48 160.71 182.379 161.277 182.379C162.15 182.379 162.856 182.6 163.393 183.042C163.931 183.483 164.219 184.088 164.257 184.856H162.947C162.918 184.443 162.75 184.112 162.443 183.862C162.145 183.613 161.742 183.488 161.233 183.488C160.763 183.488 160.389 183.589 160.11 183.79C159.832 183.992 159.693 184.256 159.693 184.582C159.693 184.842 159.774 185.058 159.937 185.23C160.11 185.394 160.321 185.528 160.571 185.634C160.83 185.73 161.185 185.84 161.637 185.965C162.203 186.118 162.664 186.272 163.019 186.426C163.374 186.57 163.677 186.79 163.926 187.088C164.185 187.386 164.32 187.774 164.329 188.254C164.329 188.686 164.209 189.075 163.969 189.421C163.729 189.766 163.389 190.04 162.947 190.242C162.515 190.434 162.016 190.53 161.449 190.53ZM167.778 183.589V188.24C167.778 188.624 167.859 188.898 168.022 189.061C168.186 189.214 168.469 189.291 168.872 189.291H169.837V190.4H168.656C167.926 190.4 167.379 190.232 167.014 189.896C166.65 189.56 166.467 189.008 166.467 188.24V183.589H165.445V182.509H166.467V180.522H167.778V182.509H169.837V183.589H167.778ZM174.866 190.53C174.127 190.53 173.455 190.362 172.85 190.026C172.255 189.69 171.784 189.214 171.439 188.6C171.103 187.976 170.935 187.256 170.935 186.44C170.935 185.634 171.108 184.923 171.453 184.309C171.808 183.685 172.288 183.21 172.893 182.883C173.498 182.547 174.175 182.379 174.924 182.379C175.672 182.379 176.349 182.547 176.954 182.883C177.559 183.21 178.034 183.68 178.38 184.294C178.735 184.909 178.912 185.624 178.912 186.44C178.912 187.256 178.73 187.976 178.365 188.6C178.01 189.214 177.525 189.69 176.911 190.026C176.296 190.362 175.615 190.53 174.866 190.53ZM174.866 189.378C175.336 189.378 175.778 189.267 176.191 189.046C176.604 188.826 176.935 188.494 177.184 188.053C177.444 187.611 177.573 187.074 177.573 186.44C177.573 185.806 177.448 185.269 177.199 184.827C176.949 184.386 176.623 184.059 176.22 183.848C175.816 183.627 175.38 183.517 174.909 183.517C174.429 183.517 173.988 183.627 173.584 183.848C173.191 184.059 172.874 184.386 172.634 184.827C172.394 185.269 172.274 185.806 172.274 186.44C172.274 187.083 172.389 187.626 172.62 188.067C172.86 188.509 173.176 188.84 173.57 189.061C173.964 189.272 174.396 189.378 174.866 189.378ZM190.125 182.365C190.739 182.365 191.287 182.494 191.767 182.754C192.247 183.003 192.626 183.382 192.904 183.891C193.183 184.4 193.322 185.019 193.322 185.749V190.4H192.026V185.936C192.026 185.149 191.829 184.549 191.435 184.136C191.051 183.714 190.528 183.502 189.866 183.502C189.184 183.502 188.642 183.723 188.239 184.165C187.835 184.597 187.634 185.226 187.634 186.051V190.4H186.338V185.936C186.338 185.149 186.141 184.549 185.747 184.136C185.363 183.714 184.84 183.502 184.178 183.502C183.496 183.502 182.954 183.723 182.551 184.165C182.147 184.597 181.946 185.226 181.946 186.051V190.4H180.635V182.509H181.946V183.646C182.205 183.234 182.551 182.917 182.983 182.696C183.424 182.475 183.909 182.365 184.437 182.365C185.099 182.365 185.685 182.514 186.194 182.811C186.703 183.109 187.082 183.546 187.331 184.122C187.552 183.565 187.917 183.133 188.426 182.826C188.935 182.518 189.501 182.365 190.125 182.365ZM202.671 186.152C202.671 186.402 202.657 186.666 202.628 186.944H196.321C196.369 187.722 196.633 188.331 197.113 188.773C197.603 189.205 198.193 189.421 198.884 189.421C199.451 189.421 199.921 189.291 200.295 189.032C200.679 188.763 200.948 188.408 201.102 187.966H202.513C202.302 188.725 201.879 189.344 201.246 189.824C200.612 190.294 199.825 190.53 198.884 190.53C198.135 190.53 197.463 190.362 196.868 190.026C196.283 189.69 195.822 189.214 195.486 188.6C195.15 187.976 194.982 187.256 194.982 186.44C194.982 185.624 195.145 184.909 195.471 184.294C195.798 183.68 196.254 183.21 196.839 182.883C197.435 182.547 198.116 182.379 198.884 182.379C199.633 182.379 200.295 182.542 200.871 182.869C201.447 183.195 201.889 183.646 202.196 184.222C202.513 184.789 202.671 185.432 202.671 186.152ZM201.318 185.878C201.318 185.379 201.207 184.952 200.987 184.597C200.766 184.232 200.463 183.958 200.079 183.776C199.705 183.584 199.287 183.488 198.827 183.488C198.164 183.488 197.598 183.699 197.127 184.122C196.667 184.544 196.403 185.13 196.335 185.878H201.318ZM205.711 183.79C205.942 183.339 206.268 182.989 206.691 182.739C207.123 182.49 207.646 182.365 208.26 182.365V183.718H207.915C206.446 183.718 205.711 184.515 205.711 186.109V190.4H204.401V182.509H205.711V183.79ZM212.567 190.53C211.962 190.53 211.419 190.429 210.939 190.227C210.459 190.016 210.08 189.728 209.802 189.363C209.523 188.989 209.37 188.562 209.341 188.082H210.695C210.733 188.475 210.915 188.797 211.242 189.046C211.578 189.296 212.015 189.421 212.552 189.421C213.051 189.421 213.445 189.31 213.733 189.09C214.021 188.869 214.165 188.59 214.165 188.254C214.165 187.909 214.011 187.654 213.704 187.491C213.397 187.318 212.922 187.15 212.279 186.987C211.693 186.834 211.213 186.68 210.839 186.526C210.474 186.363 210.157 186.128 209.888 185.821C209.629 185.504 209.499 185.091 209.499 184.582C209.499 184.179 209.619 183.81 209.859 183.474C210.099 183.138 210.44 182.874 210.882 182.682C211.323 182.48 211.827 182.379 212.394 182.379C213.267 182.379 213.973 182.6 214.511 183.042C215.048 183.483 215.336 184.088 215.375 184.856H214.064C214.035 184.443 213.867 184.112 213.56 183.862C213.263 183.613 212.859 183.488 212.351 183.488C211.88 183.488 211.506 183.589 211.227 183.79C210.949 183.992 210.81 184.256 210.81 184.582C210.81 184.842 210.891 185.058 211.055 185.23C211.227 185.394 211.439 185.528 211.688 185.634C211.947 185.73 212.303 185.84 212.754 185.965C213.32 186.118 213.781 186.272 214.136 186.426C214.491 186.57 214.794 186.79 215.043 187.088C215.303 187.386 215.437 187.774 215.447 188.254C215.447 188.686 215.327 189.075 215.087 189.421C214.847 189.766 214.506 190.04 214.064 190.242C213.632 190.434 213.133 190.53 212.567 190.53ZM217.714 190.486C217.464 190.486 217.253 190.4 217.08 190.227C216.908 190.054 216.821 189.843 216.821 189.594C216.821 189.344 216.908 189.133 217.08 188.96C217.253 188.787 217.464 188.701 217.714 188.701C217.954 188.701 218.156 188.787 218.319 188.96C218.492 189.133 218.578 189.344 218.578 189.594C218.578 189.843 218.492 190.054 218.319 190.227C218.156 190.4 217.954 190.486 217.714 190.486Z" fill="#5A7184"/>
</svg>
