<svg width="41" height="57" viewBox="0 0 41 57" fill="none" xmlns="http://www.w3.org/2000/svg">
<path fill-rule="evenodd" clip-rule="evenodd" d="M20.8547 1.13901C19.488 1.88998 16.7186 2.41712 13.9928 2.44538L9.42357 2.49275L7.73904 6.03523C6.81236 7.98333 5.04303 10.2974 3.80694 11.1774C1.00779 13.1706 0.451626 15.1416 1.90697 17.914C2.63502 19.2999 2.90241 21.2846 2.65947 23.4971C2.18047 27.87 2.96735 29.2757 6.94529 31.1542C8.71309 31.9892 10.7147 33.6501 11.3938 34.8465C12.9706 37.6235 16.7056 38.5181 19.3856 36.7617C20.7073 35.8961 22.2199 35.6555 24.4575 35.9557C28.628 36.5149 30.1941 35.5776 31.9573 31.4644C32.8267 29.4361 34.1942 27.7179 35.3631 27.1855C37.7909 26.0793 38.5075 23.452 37.3761 19.8048C36.8986 18.2662 36.4242 15.1202 36.3211 12.8123C36.1385 8.71673 36.059 8.58075 32.9826 7.08262C31.2499 6.23921 28.6311 4.25979 27.1627 2.68374C24.1443 -0.556216 24.0038 -0.590594 20.8547 1.13901ZM27.6624 7.73734C34.6969 13.1019 35.4051 23.1533 29.1612 28.9915C26.3476 31.6225 23.524 32.6692 19.2389 32.6692C15.29 32.6692 12.5237 31.4178 9.6795 28.3444C6.75964 25.19 5.95749 23.2618 5.95749 19.4C5.95749 13.4372 8.92547 8.55554 13.9791 6.20712C17.6973 4.47981 24.3697 5.22543 27.6624 7.73734ZM15.125 7.99479C12.7323 8.86188 8.95297 13.2485 8.20506 16.0263C6.58393 22.0463 10.4381 28.7042 16.4864 30.3322C24.3934 32.4614 31.3477 27.0212 31.2843 18.7575C31.2499 14.3357 29.884 11.9376 25.8281 9.1774C23.375 7.50738 18.0815 6.92295 15.125 7.99479ZM27.3896 14.0018C28.2407 15.0278 27.6593 15.9186 23.2841 20.2945L18.1862 25.3917L15.3779 22.5834C12.9645 20.1693 12.7117 19.6032 13.5795 18.5565C14.4963 17.4519 14.743 17.4824 16.2335 18.8827L17.876 20.4259L21.6286 16.6161C23.6921 14.5205 25.6096 12.8062 25.8892 12.8062C26.1688 12.8062 26.8434 13.344 27.3896 14.0018ZM31.9321 39.5555C30.4615 40.3661 27.9695 41.3967 26.3934 41.8451C24.8181 42.2928 23.5286 42.9078 23.5286 43.2111C23.5286 43.9284 28.5768 55.5429 29.1276 56.0945C29.3599 56.326 30.1101 54.5887 30.7954 52.2319C31.4799 49.8758 32.3714 47.9484 32.7755 47.9484C33.1797 47.9484 35.2554 48.8323 37.3868 49.9125C39.519 50.9928 41.1401 51.5726 40.9904 51.2006C38.1149 44.0682 35.3799 38.0238 35.0399 38.049C34.8016 38.0666 33.4028 38.7442 31.9321 39.5555ZM2.91387 44.3196C1.54791 47.3655 0.24994 50.3182 0.0299196 50.8805C-0.219131 51.5184 1.0987 51.1585 3.53268 49.9255C5.67864 48.8384 7.76578 47.9484 8.16992 47.9484C8.57405 47.9484 9.4908 49.9255 10.2066 52.3411L11.5077 56.7339L14.4627 50.3487C16.0876 46.8368 17.4169 43.6954 17.4169 43.3677C17.4169 43.0392 16.1434 42.5319 14.5879 42.2401C13.0318 41.9482 10.4671 41.0506 8.88804 40.2454C7.3097 39.4394 5.8788 38.7809 5.70844 38.7809C5.53731 38.7809 4.2806 41.2737 2.91387 44.3196Z" fill="#FF7F5D" style="fill:#FF7F5D;fill:color(display-p3 1.0000 0.4980 0.3647);fill-opacity:1;"/>
</svg>
