<svg width="51" height="52" viewBox="0 0 51 52" fill="none" xmlns="http://www.w3.org/2000/svg">
<rect opacity="0.5" y="0.799805" width="50.4" height="50.4" fill="#11145A"/>
<path d="M38.5497 10.9999H11.8497C11.4121 10.9999 10.9924 11.1737 10.683 11.4832C10.3735 11.7926 10.1997 12.2123 10.1997 12.6499V39.3499C10.1997 39.5666 10.2424 39.7811 10.3253 39.9813C10.4082 40.1815 10.5298 40.3634 10.683 40.5166C10.8362 40.6698 11.0181 40.7914 11.2183 40.8743C11.4185 40.9572 11.633 40.9999 11.8497 40.9999H26.2197V29.3749H22.3197V24.8749H26.2197V21.4999C26.1389 20.7075 26.2325 19.9071 26.4938 19.1547C26.7551 18.4023 27.1779 17.7162 27.7324 17.1445C28.287 16.5728 28.9599 16.1293 29.7039 15.8452C30.448 15.5611 31.2453 15.4433 32.0397 15.4999C33.2072 15.4927 34.3741 15.5528 35.5347 15.6799V19.7299H33.1497C31.2597 19.7299 30.8997 20.6299 30.8997 21.9349V24.8299H35.3997L34.8147 29.3299H30.8997V40.9999H38.5497C38.7664 40.9999 38.9809 40.9572 39.1811 40.8743C39.3813 40.7914 39.5632 40.6698 39.7164 40.5166C39.8697 40.3634 39.9912 40.1815 40.0741 39.9813C40.157 39.7811 40.1997 39.5666 40.1997 39.3499V12.6499C40.1997 12.4332 40.157 12.2186 40.0741 12.0185C39.9912 11.8183 39.8697 11.6364 39.7164 11.4832C39.5632 11.3299 39.3813 11.2084 39.1811 11.1255C38.9809 11.0426 38.7664 10.9999 38.5497 10.9999Z" fill="#FAFAFA"/>
</svg>
