<svg width="51" height="52" viewBox="0 0 51 52" fill="none" xmlns="http://www.w3.org/2000/svg">
<rect opacity="0.5" y="0.799927" width="50.4" height="50.4" fill="#11145A"/>
<path d="M33.2097 16.19C32.8537 16.19 32.5057 16.2956 32.2097 16.4934C31.9137 16.6911 31.683 16.9723 31.5467 17.3012C31.4105 17.6301 31.3748 17.992 31.4443 18.3412C31.5137 18.6903 31.6852 19.0111 31.9369 19.2628C32.1887 19.5145 32.5094 19.686 32.8585 19.7554C33.2077 19.8249 33.5696 19.7892 33.8985 19.653C34.2274 19.5167 34.5086 19.286 34.7064 18.99C34.9041 18.694 35.0097 18.346 35.0097 17.99C35.0097 17.5126 34.8201 17.0548 34.4825 16.7172C34.1449 16.3796 33.6871 16.19 33.2097 16.19ZM40.1097 19.82C40.0805 18.5754 39.8474 17.3441 39.4197 16.175C39.0383 15.1747 38.4447 14.2689 37.6797 13.52C36.9369 12.7511 36.029 12.1613 35.0247 11.795C33.8587 11.3542 32.626 11.1158 31.3797 11.09C29.7897 11 29.2797 11 25.1997 11C21.1197 11 20.6097 11 19.0197 11.09C17.7734 11.1158 16.5407 11.3542 15.3747 11.795C14.3722 12.165 13.4651 12.7543 12.7197 13.52C11.9508 14.2628 11.361 15.1707 10.9947 16.175C10.5539 17.341 10.3155 18.5737 10.2897 19.82C10.1997 21.41 10.1997 21.92 10.1997 26C10.1997 30.08 10.1997 30.59 10.2897 32.18C10.3155 33.4263 10.5539 34.659 10.9947 35.825C11.361 36.8293 11.9508 37.7372 12.7197 38.48C13.4651 39.2457 14.3722 39.835 15.3747 40.205C16.5407 40.6458 17.7734 40.8842 19.0197 40.91C20.6097 41 21.1197 41 25.1997 41C29.2797 41 29.7897 41 31.3797 40.91C32.626 40.8842 33.8587 40.6458 35.0247 40.205C36.029 39.8387 36.9369 39.2489 37.6797 38.48C38.4481 37.7339 39.0422 36.8273 39.4197 35.825C39.8474 34.6559 40.0805 33.4246 40.1097 32.18C40.1097 30.59 40.1997 30.08 40.1997 26C40.1997 21.92 40.1997 21.41 40.1097 19.82ZM37.4097 32C37.3988 32.9522 37.2263 33.8956 36.8997 34.79C36.6602 35.4428 36.2755 36.0326 35.7747 36.515C35.2882 37.0108 34.6995 37.3947 34.0497 37.64C33.1553 37.9666 32.2119 38.1391 31.2597 38.15C29.7597 38.225 29.2047 38.24 25.2597 38.24C21.3147 38.24 20.7597 38.24 19.2597 38.15C18.271 38.1685 17.2866 38.0163 16.3497 37.7C15.7284 37.4421 15.1667 37.0592 14.6997 36.575C14.2018 36.0931 13.822 35.5028 13.5897 34.85C13.2235 33.9427 13.0204 32.9779 12.9897 32C12.9897 30.5 12.8997 29.945 12.8997 26C12.8997 22.055 12.8997 21.5 12.9897 20C12.9964 19.0266 13.1741 18.0619 13.5147 17.15C13.7788 16.5169 14.1841 15.9525 14.6997 15.5C15.1554 14.9843 15.7186 14.5746 16.3497 14.3C17.264 13.9701 18.2277 13.7976 19.1997 13.79C20.6997 13.79 21.2547 13.7 25.1997 13.7C29.1447 13.7 29.6997 13.7 31.1997 13.79C32.1519 13.8009 33.0953 13.9734 33.9897 14.3C34.6714 14.553 35.2831 14.9643 35.7747 15.5C36.2663 15.9608 36.6504 16.5241 36.8997 17.15C37.2331 18.0634 37.4056 19.0277 37.4097 20C37.4847 21.5 37.4997 22.055 37.4997 26C37.4997 29.945 37.4847 30.5 37.4097 32ZM25.1997 18.305C23.6784 18.308 22.1922 18.7618 20.9287 19.6091C19.6652 20.4565 18.6813 21.6593 18.1012 23.0656C17.521 24.472 17.3708 26.0187 17.6694 27.5104C17.968 29.0021 18.7021 30.3718 19.7788 31.4465C20.8556 32.5211 22.2267 33.2525 23.719 33.5482C25.2113 33.8439 26.7577 33.6907 28.1629 33.1078C29.5681 32.525 30.769 31.5387 31.6139 30.2736C32.4588 29.0084 32.9097 27.5213 32.9097 26C32.9117 24.9877 32.7135 23.9849 32.3266 23.0494C31.9396 22.114 31.3715 21.2642 30.655 20.5491C29.9385 19.8339 29.0876 19.2675 28.1514 18.8824C27.2152 18.4973 26.212 18.301 25.1997 18.305ZM25.1997 30.995C24.2118 30.995 23.2461 30.7021 22.4246 30.1532C21.6032 29.6043 20.963 28.8242 20.5849 27.9115C20.2069 26.9988 20.108 25.9945 20.3007 25.0255C20.4934 24.0566 20.9691 23.1666 21.6677 22.468C22.3663 21.7694 23.2563 21.2937 24.2252 21.101C25.1942 20.9082 26.1985 21.0072 27.1112 21.3852C28.0239 21.7633 28.804 22.4035 29.3529 23.2249C29.9018 24.0464 30.1947 25.0121 30.1947 26C30.1947 26.656 30.0655 27.3055 29.8145 27.9115C29.5635 28.5175 29.1955 29.0682 28.7317 29.532C28.2679 29.9958 27.7172 30.3638 27.1112 30.6148C26.5052 30.8658 25.8557 30.995 25.1997 30.995Z" fill="#FAFAFA"/>
</svg>
