<svg width="51" height="52" viewBox="0 0 51 52" fill="none" xmlns="http://www.w3.org/2000/svg">
<rect opacity="0.5" y="0.799805" width="50.4" height="50.4" fill="#11145A"/>
<g clip-path="url(#clip0_562_351)">
<path d="M19.9646 37.9997H19.8446C17.4271 37.9785 15.0446 37.42 12.8696 36.3647C12.4695 36.1767 12.1401 35.8657 11.9296 35.477C11.719 35.0883 11.6384 34.6424 11.6996 34.2047C11.7661 33.7639 11.9702 33.3555 12.2827 33.0376C12.5951 32.7197 13.0001 32.5087 13.4396 32.4347C14.7875 32.2548 16.0842 31.8005 17.2496 31.0997C15.2263 29.5178 13.6687 27.418 12.7418 25.0229C11.8149 22.6277 11.5533 20.0264 11.9846 17.4947C12.0431 17.0936 12.2155 16.7179 12.4815 16.4121C12.7474 16.1062 13.0956 15.8833 13.4846 15.7697C13.8631 15.6508 14.2681 15.6457 14.6495 15.7551C15.0308 15.8644 15.3716 16.0833 15.6296 16.3847C16.5056 17.5333 17.6064 18.4915 18.865 19.2007C20.1235 19.9099 21.5133 20.3553 22.9496 20.5097C23.0182 18.7424 23.7777 17.0727 25.0646 15.8597C25.7072 15.2443 26.4658 14.763 27.2963 14.4438C28.1268 14.1246 29.0125 13.9739 29.9018 14.0004C30.7911 14.0269 31.6663 14.2302 32.4762 14.5983C33.2862 14.9665 34.0148 15.4921 34.6196 16.1447C34.7772 16.284 34.9729 16.3727 35.1815 16.3995C35.3902 16.4262 35.602 16.3897 35.7896 16.2947C36.1472 16.126 36.5455 16.0625 36.9379 16.1116C37.3302 16.1607 37.7006 16.3203 38.0056 16.5719C38.3107 16.8235 38.5379 17.1567 38.6608 17.5325C38.7837 17.9084 38.7971 18.3114 38.6996 18.6947C38.3536 20.1198 37.6981 21.4514 36.7796 22.5947C36.5772 26.8618 34.6959 30.8758 31.546 33.7616C28.3961 36.6473 24.2331 38.1707 19.9646 37.9997ZM19.9646 34.9997H20.0846C21.8286 35.0597 23.5672 34.7728 25.1995 34.1559C26.8318 33.5389 28.3254 32.604 29.5938 31.4055C30.8621 30.2069 31.8799 28.7685 32.5881 27.1737C33.2963 25.5788 33.6809 23.8593 33.7196 22.1147C33.7444 21.6365 33.9415 21.1836 34.2746 20.8397C34.6405 20.3765 34.9525 19.8733 35.2046 19.3397C34.6642 19.3407 34.1297 19.2277 33.636 19.008C33.1423 18.7882 32.7006 18.4668 32.3396 18.0647C31.9925 17.7205 31.5802 17.449 31.1269 17.2662C30.6736 17.0833 30.1884 16.9927 29.6996 16.9997C29.2059 16.9869 28.7146 17.0718 28.2539 17.2494C27.7931 17.427 27.372 17.6939 27.0146 18.0347C26.5325 18.4922 26.179 19.0683 25.9894 19.7053C25.7999 20.3424 25.781 21.018 25.9346 21.6647L26.3246 23.3747L24.5696 23.4947C22.7712 23.6413 20.9625 23.3953 19.2686 22.7737C17.5747 22.1521 16.0362 21.1697 14.7596 19.8947C14.7048 21.8693 15.1988 23.8204 16.1865 25.531C17.1743 27.2417 18.6171 28.6449 20.3546 29.5847L21.7796 30.3947L20.8346 31.7447C19.8126 33.0849 18.4124 34.0881 16.8146 34.6247C17.8396 34.8816 18.893 35.0076 19.9496 34.9997H19.9646Z" fill="#FAFAFA"/>
</g>
<defs>
<clipPath id="clip0_562_351">
<rect width="36" height="36" fill="white" transform="translate(7.19995 7.99976)"/>
</clipPath>
</defs>
</svg>
