<svg width="17" height="17" viewBox="0 0 17 17" fill="none" xmlns="http://www.w3.org/2000/svg">
<path d="M14.2688 1.43735C15.0915 1.43735 15.7876 2.13345 15.7876 2.9561V14.0936C15.7876 14.9479 15.0915 15.6124 14.2688 15.6124H9.90244V10.803H11.7376L12.0856 8.52485H9.90244V7.06939C9.90244 6.43657 10.2188 5.8354 11.1997 5.8354H12.1806V3.90532C12.1806 3.90532 11.2946 3.74712 10.4087 3.74712C8.63682 3.74712 7.46611 4.85454 7.46611 6.81626V8.52485H5.47275V10.803H7.46611V15.6124H3.13135C2.27705 15.6124 1.6126 14.9479 1.6126 14.0936V2.9561C1.6126 2.13345 2.27705 1.43735 3.13135 1.43735H14.2688Z" fill="#11145A"/>
</svg>
