<svg width="17" height="17" viewBox="0 0 17 17" fill="none" xmlns="http://www.w3.org/2000/svg">
<path d="M8.50015 0.677979C12.8033 0.677979 16.347 4.22173 16.347 8.52485C16.347 12.8596 12.8033 16.3717 8.50015 16.3717C4.16538 16.3717 0.653271 12.8596 0.653271 8.52485C0.653271 4.22173 4.16538 0.677979 8.50015 0.677979ZM6.25366 12.4483C8.50015 12.4483 10.0189 10.8663 10.0189 8.61978C10.0189 8.39829 9.98726 8.17681 9.95561 7.98696H6.25366V9.31587H8.46851C8.3103 10.3917 7.26616 10.9928 6.25366 10.9928C4.89311 10.9928 3.81733 9.8854 3.81733 8.52485C3.81733 7.19595 4.89311 6.05689 6.25366 6.05689C6.82319 6.05689 7.39272 6.24673 7.80405 6.65806L8.87983 5.64556C8.1521 4.94946 7.23452 4.60142 6.25366 4.60142C4.07046 4.60142 2.33022 6.37329 2.33022 8.52485C2.33022 10.7081 4.07046 12.4483 6.25366 12.4483ZM13.531 9.09439H14.6384V7.98696H13.531V6.8479H12.4236V7.98696H11.2845V9.09439H12.4236V10.2334H13.531V9.09439Z" fill="#07260E"/>
</svg>
