<svg width="15" height="15" viewBox="0 0 15 15" fill="none" xmlns="http://www.w3.org/2000/svg">
<path d="M7.5875 3.88618C9.58086 3.88618 11.2262 5.53149 11.2262 7.52485C11.2262 9.54985 9.58086 11.1635 7.5875 11.1635C5.5625 11.1635 3.94883 9.54985 3.94883 7.52485C3.94883 5.53149 5.5625 3.88618 7.5875 3.88618ZM7.5875 9.8979C8.88477 9.8979 9.92891 8.85376 9.92891 7.52485C9.92891 6.22759 8.88477 5.18345 7.5875 5.18345C6.25859 5.18345 5.21445 6.22759 5.21445 7.52485C5.21445 8.85376 6.29023 9.8979 7.5875 9.8979ZM12.207 3.75962C12.207 4.23423 11.8273 4.61392 11.3527 4.61392C10.8781 4.61392 10.4984 4.23423 10.4984 3.75962C10.4984 3.28501 10.8781 2.90532 11.3527 2.90532C11.8273 2.90532 12.207 3.28501 12.207 3.75962ZM14.6117 4.61392C14.675 5.78462 14.675 9.29673 14.6117 10.4674C14.5484 11.6065 14.2953 12.5874 13.4727 13.4417C12.65 14.2643 11.6375 14.5174 10.4984 14.5807C9.32773 14.644 5.81562 14.644 4.64492 14.5807C3.50586 14.5174 2.525 14.2643 1.6707 13.4417C0.848047 12.5874 0.594922 11.6065 0.531641 10.4674C0.468359 9.29673 0.468359 5.78462 0.531641 4.61392C0.594922 3.47485 0.848047 2.46235 1.6707 1.6397C2.525 0.817042 3.50586 0.563917 4.64492 0.500636C5.81562 0.437354 9.32773 0.437354 10.4984 0.500636C11.6375 0.563917 12.65 0.817042 13.4727 1.6397C14.2953 2.46235 14.5484 3.47485 14.6117 4.61392ZM13.093 11.7014C13.4727 10.7838 13.3777 8.56899 13.3777 7.52485C13.3777 6.51235 13.4727 4.29751 13.093 3.34829C12.8398 2.74712 12.3652 2.24087 11.7641 2.01939C10.8148 1.6397 8.6 1.73462 7.5875 1.73462C6.54336 1.73462 4.32852 1.6397 3.41094 2.01939C2.77812 2.27251 2.30352 2.74712 2.05039 3.34829C1.6707 4.29751 1.76562 6.51235 1.76562 7.52485C1.76562 8.56899 1.6707 10.7838 2.05039 11.7014C2.30352 12.3342 2.77812 12.8088 3.41094 13.062C4.32852 13.4417 6.54336 13.3467 7.5875 13.3467C8.6 13.3467 10.8148 13.4417 11.7641 13.062C12.3652 12.8088 12.8715 12.3342 13.093 11.7014Z" fill="#11145A"/>
</svg>
