<svg width="17" height="17" viewBox="0 0 17 17" fill="none" xmlns="http://www.w3.org/2000/svg">
<path d="M15.023 5.23423C15.023 5.39243 15.023 5.51899 15.023 5.6772C15.023 10.0752 11.7008 15.1061 5.59414 15.1061C3.6957 15.1061 1.95547 14.5682 0.5 13.619C0.753125 13.6506 1.00625 13.6823 1.29102 13.6823C2.84141 13.6823 4.26523 13.1444 5.4043 12.2584C3.94883 12.2268 2.71484 11.2776 2.30352 9.94868C2.525 9.98032 2.71484 10.012 2.93633 10.012C3.22109 10.012 3.5375 9.94868 3.79062 9.8854C2.27187 9.56899 1.13281 8.24009 1.13281 6.62642V6.59478C1.57578 6.8479 2.11367 6.97446 2.65156 7.0061C1.73398 6.40493 1.16445 5.39243 1.16445 4.25337C1.16445 3.62056 1.32266 3.05103 1.60742 2.57642C3.25273 4.56978 5.7207 5.89868 8.47344 6.05689C8.41016 5.80376 8.37852 5.55064 8.37852 5.29751C8.37852 3.46235 9.86562 1.97525 11.7008 1.97525C12.65 1.97525 13.5043 2.35493 14.1371 3.01939C14.8648 2.86118 15.5926 2.57642 16.2254 2.19673C15.9723 2.98774 15.466 3.62056 14.7699 4.03189C15.4344 3.9686 16.0988 3.77876 16.6684 3.52564C16.2254 4.19009 15.6559 4.75962 15.023 5.23423Z" fill="#07260E"/>
</svg>
