<svg width="17" height="15" viewBox="0 0 17 15" fill="none" xmlns="http://www.w3.org/2000/svg">
<path d="M15.023 4.23423C15.023 4.39243 15.023 4.51899 15.023 4.6772C15.023 9.07524 11.7008 14.1061 5.59414 14.1061C3.6957 14.1061 1.95547 13.5682 0.5 12.619C0.753125 12.6506 1.00625 12.6823 1.29102 12.6823C2.84141 12.6823 4.26523 12.1444 5.4043 11.2584C3.94883 11.2268 2.71484 10.2776 2.30352 8.94868C2.525 8.98032 2.71484 9.01196 2.93633 9.01196C3.22109 9.01196 3.5375 8.94868 3.79062 8.8854C2.27187 8.56899 1.13281 7.24009 1.13281 5.62642V5.59478C1.57578 5.8479 2.11367 5.97446 2.65156 6.0061C1.73398 5.40493 1.16445 4.39243 1.16445 3.25337C1.16445 2.62056 1.32266 2.05103 1.60742 1.57642C3.25273 3.56978 5.7207 4.89868 8.47344 5.05689C8.41016 4.80376 8.37852 4.55064 8.37852 4.29751C8.37852 2.46235 9.86562 0.975245 11.7008 0.975245C12.65 0.975245 13.5043 1.35493 14.1371 2.01939C14.8648 1.86118 15.5926 1.57642 16.2254 1.19673C15.9723 1.98774 15.466 2.62056 14.7699 3.03189C15.4344 2.9686 16.0988 2.77876 16.6684 2.52564C16.2254 3.19009 15.6559 3.75962 15.023 4.23423Z" fill="#11145A"/>
</svg>
